<?xml version="1.0" standalone="no"?>
<!DOCTYPE svg PUBLIC "-//W3C//DTD SVG 1.1//EN" "http://www.w3.org/Graphics/SVG/1.1/DTD/svg11.dtd" >
<svg xmlns="http://www.w3.org/2000/svg" xmlns:xlink="http://www.w3.org/1999/xlink" version="1.1">
<metadata>
Created by FontForge 20150824 at Wed Jul 13 07:43:06 2016
 By Everything Fonts
(c)2003-10 Paul Barnes and Commercial Type.
</metadata>
<defs>
<font id="AustinLightItalic" horiz-adv-x="237" >
  <font-face 
    font-family="AustinLightItalic"
    font-weight="300"
    font-style="italic"
    font-stretch="normal"
    units-per-em="1000"
    panose-1="2 2 3 3 7 7 2 3 4 3"
    ascent="787"
    descent="-213"
    x-height="426"
    cap-height="657"
    bbox="-256 -312 954 1001"
    underline-thickness="50"
    underline-position="-150"
    slope="-12"
    unicode-range="U+0020-FB06"
  />
<missing-glyph horiz-adv-x="25" 
 />
    <glyph glyph-name="f_f" unicode="ff" horiz-adv-x="473" 
d="M622 636q0 -31 -30 -31q-32 0 -32 30q0 2 1 16t0 16q-3 15 -20 15q-25 0 -42 -28q-40 -65 -84 -237h100l-4 -14h-98q-29 -121 -62.5 -222t-77 -192t-97 -142.5t-110.5 -51.5q-37 0 -62.5 15.5t-25.5 42.5q0 5 1 7q-59 -65 -123 -65q-38 0 -63 16.5t-25 45.5
q0 16 9.5 25.5t24.5 9.5q27 0 33 -25q2 -7 2 -21.5t1 -18.5q4 -17 23 -17q47 0 84 46q52 67 90.5 182.5t98.5 351.5l3 13h-84l4 14h84q18 68 33 110t40.5 83t62 60t87.5 19q70 0 94 -35q37 37 89 37q29 0 52 -15t23 -40zM353 403h-156q-90 -375 -197 -517q3 1 8 1
q25 0 31 -24q2 -6 2.5 -20t1.5 -18q3 -17 28 -17q47 0 88 50q50 61 90 178.5t95 331.5zM201 417h155q29 118 62 181q-20 8 -20 32q0 3 1.5 15.5t1.5 15.5q0 19 -40 19q-31 0 -51 -15.5t-40 -50.5q-36 -63 -69 -197z" />
    <glyph glyph-name="f_i" unicode="fi" horiz-adv-x="459" 
d="M307 241l14.5 43.5t14 43t8.5 28.5q13 47 -24 47h-128q-149 -608 -341 -608q-38 0 -63 16.5t-25 45.5q0 16 9.5 25.5t24.5 9.5q27 0 33 -25q2 -7 2 -21.5t1 -18.5q4 -17 23 -17q47 0 84 46q52 67 90.5 182.5t98.5 351.5l3 13h-84l4 14h84q18 68 33 110t40.5 83t62 60
t87.5 19q40 0 67.5 -15t27.5 -41q0 -17 -9.5 -27t-23.5 -10q-15 0 -24.5 9.5t-9.5 24.5q0 3 1.5 15.5t1.5 15.5q0 19 -34 19q-31 0 -51 -15.5t-40 -50.5q-36 -63 -69 -197h224q-7 -40 -73 -234q-41 -123 -41 -145q0 -14 11 -14q22 0 49 26t50 62l9 -5q-69 -116 -137 -116
q-41 0 -41 48q0 16 9 48t28.5 88t22.5 66z" />
    <glyph glyph-name="f_l" unicode="fl" horiz-adv-x="467" 
d="M57 417h84q18 67 34.5 110t43 83.5t64 59.5t88.5 19q28 0 55 -8h91q5 0 5 -5q0 -4 -11 -32q-20 -55 -31 -86l-128 -374q-45 -133 -45 -148q0 -12 13 -12q21 0 53.5 28t53.5 59l9 -5q-29 -44 -68.5 -79t-76.5 -35q-18 0 -29 13t-11 32q0 10 2 21.5t8 29.5t11 33.5t16.5 47
t19.5 55.5l61 179h-172q-149 -608 -341 -608q-38 0 -63 16.5t-25 45.5q0 16 9.5 25.5t24.5 9.5q27 0 33 -25q2 -7 2 -21.5t1 -18.5q4 -17 23 -17q47 0 84 46q52 67 90.5 182.5t98.5 351.5l3 13h-84zM201 417h173l58 168q2 8 4 11q-23 5 -23 32q0 7 2.5 17.5t2.5 15.5
q0 19 -50 19q-60 0 -98 -66q-36 -63 -69 -197z" />
    <glyph glyph-name="f_f_i" unicode="ffi" horiz-adv-x="675" 
d="M523 241l14.5 43.5t14 43t8.5 28.5q13 47 -24 47h-128q-29 -119 -62.5 -220.5t-77 -192.5t-96.5 -143t-110 -52q-37 0 -62.5 15.5t-25.5 42.5q0 6 1 9q-61 -67 -124 -67q-38 0 -63 16.5t-25 45.5q0 16 9.5 25.5t24.5 9.5q27 0 33 -25q2 -7 2 -21.5t1 -18.5q4 -17 23 -17
q47 0 84 46q52 67 90.5 182.5t98.5 351.5l3 13h-84l4 14h84q18 68 33 110t40.5 83t62 60t87.5 19q34 0 61.5 -11.5t35.5 -31.5q48 43 119 43q40 0 67.5 -15t27.5 -41q0 -17 -9.5 -27t-23.5 -10q-15 0 -24.5 9.5t-9.5 24.5q0 3 1.5 15.5t1.5 15.5q0 19 -34 19
q-31 0 -51 -15.5t-40 -50.5q-37 -64 -70 -197h225q-7 -40 -73 -234q-41 -123 -41 -145q0 -14 11 -14q22 0 49 26t50 62l9 -5q-69 -116 -137 -116q-41 0 -41 48q0 16 9 48t28.5 88t22.5 66zM344 386q2 13 4 17h-156q-92 -375 -197 -517q3 1 9 1q25 0 31 -24q2 -6 2.5 -20
t1.5 -18q3 -17 28 -17q47 0 88 50q50 62 92 185t97 343zM351 417q34 125 66 181q-23 5 -23 32q0 3 1.5 15t1.5 15q0 20 -41 20q-31 0 -51 -15.5t-40 -50.5q-36 -63 -69 -197h155z" />
    <glyph glyph-name="f_f_l" unicode="ffl" horiz-adv-x="682" 
d="M587 689q28 0 55 -8h90q5 0 5 -5q0 -4 -11 -32q-20 -55 -31 -86l-128 -374q-45 -133 -45 -148q0 -12 13 -12q21 0 53.5 28t53.5 59l9 -5q-29 -44 -68.5 -79t-76.5 -35q-18 0 -29 13t-11 32q0 10 2 21.5t8 29.5t11 33.5t16.5 47t19.5 55.5l61 179h-171
q-29 -120 -62.5 -221t-76.5 -192t-96.5 -143t-110.5 -52q-37 0 -62.5 15.5t-25.5 42.5q0 6 1 9q-61 -67 -124 -67q-38 0 -63 16.5t-25 45.5q0 16 9.5 25.5t24.5 9.5q27 0 33 -25q2 -7 2 -21.5t1 -18.5q4 -17 23 -17q47 0 84 46q52 67 90.5 182.5t98.5 351.5l3 13h-84l4 14
h84q18 68 33 110t40.5 83t62 60t87.5 19q35 0 63.5 -12.5t34.5 -33.5q51 46 125 46zM160 -142q50 62 93 188t95 334l5 23h-156q-92 -375 -197 -517q3 1 9 1q25 0 31 -24q2 -6 2.5 -20t1.5 -18q3 -17 28 -17q47 0 88 50zM486 614q-36 -62 -70 -197h173l58 168q2 8 4 11
q-22 4 -22 32q0 7 2.5 17.5t2.5 15.5q0 19 -50 19q-60 0 -98 -66zM201 417h156q33 124 68 180q-26 5 -26 33q0 3 1.5 15t1.5 15q0 20 -41 20q-31 0 -51 -15.5t-40 -50.5q-36 -63 -69 -197z" />
    <glyph glyph-name="f_b" unicode="fb" horiz-adv-x="659" 
d="M57 417h84q18 67 34.5 110t43 83.5t64 59.5t88.5 19q28 0 55 -8h87q5 0 5 -5q0 -2 -12 -35q-13 -33 -29 -83l-69 -215h3q56 83 118 83q100 0 100 -135q0 -126 -82 -223q-66 -77 -144 -77q-45 0 -77 35.5t-32 91.5q0 46 30 139l46 146h-173q-149 -608 -341 -608
q-38 0 -63 16.5t-25 45.5q0 16 9.5 25.5t24.5 9.5q27 0 33 -25q2 -7 2 -21.5t1 -18.5q4 -17 23 -17q47 0 84 46q52 67 90.5 182.5t98.5 351.5l3 13h-84zM567 322q0 85 -49 85q-30 0 -62 -29q-35 -33 -56 -80q-23 -50 -38.5 -114t-15.5 -102q0 -78 58 -78q72 0 121 116
q42 99 42 202zM201 417h174l54 168q2 8 4 12q-20 5 -20 31q0 7 2.5 17.5t2.5 15.5q0 19 -50 19q-60 0 -98 -66q-36 -63 -69 -197z" />
    <glyph glyph-name="f_f_b" unicode="ffb" horiz-adv-x="875" 
d="M845 291q0 -126 -82 -223q-66 -77 -144 -77q-45 0 -77 35.5t-32 91.5q0 46 30 139l46 146h-173q-29 -120 -62.5 -221t-76.5 -192t-96.5 -143t-110.5 -52q-37 0 -62.5 15.5t-25.5 42.5q0 6 1 9q-61 -67 -124 -67q-38 0 -63 16.5t-25 45.5q0 16 9.5 25.5t24.5 9.5
q27 0 33 -25q2 -7 2 -21.5t1 -18.5q4 -17 23 -17q47 0 84 46q52 67 90.5 182.5t98.5 351.5l3 13h-84l4 14h84q18 68 33 110t40.5 83t62 60t87.5 19q35 0 63.5 -12.5t34.5 -33.5q51 46 125 46q28 0 55 -8h87q5 0 5 -5q0 -2 -12 -35q-13 -33 -29 -83l-69 -215h3q56 83 118 83
q100 0 100 -135zM160 -142q50 62 93 188t95 334l5 23h-156q-92 -375 -197 -517q3 1 9 1q25 0 31 -24q2 -6 2.5 -20t1.5 -18q3 -17 28 -17q47 0 88 50zM783 322q0 85 -49 85q-30 0 -62 -29q-35 -33 -56 -80q-23 -50 -38.5 -114t-15.5 -102q0 -78 58 -78q72 0 121 116
q42 99 42 202zM486 614q-36 -62 -70 -197h175l54 168q2 8 4 12q-20 5 -20 31q0 7 2.5 17.5t2.5 15.5q0 19 -50 19q-60 0 -98 -66zM201 417h156q33 124 68 180q-26 5 -26 33q0 3 1.5 15t1.5 15q0 20 -41 20q-31 0 -51 -15.5t-40 -50.5q-36 -63 -69 -197z" />
    <glyph glyph-name="f_f_h" unicode="ffh" horiz-adv-x="905" 
d="M866 106q-70 -115 -136 -115q-20 0 -31 11.5t-11 29.5q0 10 2.5 23.5t9 35.5t11 37t16.5 50t18 53q44 134 44 148q0 22 -19 22q-39 0 -97 -65t-108 -184q-15 -35 -54 -152h-58l133 403h-173q-29 -120 -62.5 -221t-76.5 -192t-96.5 -143t-110.5 -52q-37 0 -62.5 15.5
t-25.5 42.5q0 6 1 9q-61 -67 -124 -67q-38 0 -63 16.5t-25 45.5q0 16 9.5 25.5t24.5 9.5q27 0 33 -25q2 -7 2 -21.5t1 -18.5q4 -17 23 -17q47 0 84 46q52 67 90.5 182.5t98.5 351.5l3 13h-84l4 14h84q18 68 33 110t40.5 83t62 60t87.5 19q35 0 63.5 -12.5t34.5 -33.5
q51 46 125 46q28 0 55 -8h85q5 0 5 -5q0 -1 -13 -40q-8 -21 -29 -87l-101 -307h4q53 91 105.5 139t97.5 48q48 0 48 -54q0 -31 -57 -197q-41 -119 -41 -141q0 -13 13 -13q40 0 97 87zM160 -142q50 62 93 188t95 334l5 23h-156q-92 -375 -197 -517q3 1 9 1q25 0 31 -24
q2 -6 2.5 -20t1.5 -18q3 -17 28 -17q47 0 88 50zM486 614q-36 -62 -70 -197h174l60 180q-21 5 -21 31q0 7 2.5 17.5t2.5 15.5q0 19 -50 19q-60 0 -98 -66zM201 417h156q33 124 68 180q-26 5 -26 33q0 3 1.5 15t1.5 15q0 20 -41 20q-31 0 -51 -15.5t-40 -50.5
q-36 -63 -69 -197z" />
    <glyph glyph-name="f_f_j" unicode="ffj" horiz-adv-x="653" 
d="M545 123q-48 -150 -69 -200.5t-47 -81.5q-46 -54 -108 -54q-38 0 -57.5 18.5t-19.5 41.5q0 17 8.5 28t23.5 11q32 0 32 -33q0 -7 -4 -23q-2 -10 -2 -14q0 -15 23 -15q38 0 64 45q21 37 102 291q16 49 46 149q25 85 25 95q0 22 -20 22h-134q-29 -119 -62.5 -220.5
t-77 -192.5t-96.5 -143t-110 -52q-37 0 -62.5 15.5t-25.5 42.5q0 6 1 9q-61 -67 -124 -67q-38 0 -63 16.5t-25 45.5q0 16 9.5 25.5t24.5 9.5q27 0 33 -25q2 -7 2 -21.5t1 -18.5q4 -17 23 -17q47 0 84 46q52 67 90.5 182.5t98.5 351.5l3 13h-84l4 14h84q18 68 33 110t40.5 83
t62 60t87.5 19q34 0 61.5 -11.5t35.5 -31.5q48 43 119 43q40 0 67.5 -15t27.5 -41q0 -17 -9.5 -27t-23.5 -10q-15 0 -24.5 9.5t-9.5 24.5q0 3 1.5 15.5t1.5 15.5q0 19 -34 19q-31 0 -51 -15.5t-40 -50.5q-37 -64 -70 -197h224q-11 -61 -90 -294zM344 386q2 13 4 17h-156
q-92 -375 -197 -517q3 1 9 1q25 0 31 -24q2 -6 2.5 -20t1.5 -18q3 -17 28 -17q47 0 88 50q50 62 92 185t97 343zM351 417q34 125 66 181q-23 5 -23 32q0 3 1.5 15t1.5 15q0 20 -41 20q-31 0 -51 -15.5t-40 -50.5q-36 -63 -69 -197h155z" />
    <glyph glyph-name="f_f_k" unicode="ffk" horiz-adv-x="861" 
d="M874 383q0 -37 -34 -37q-11 0 -19 7t-8 19q0 7 2 13q4 12 4 14q0 6 -7 6q-21 0 -51 -57q-4 -8 -13 -25l-5 -10q-22 -43 -62 -62v-3q69 -21 69 -90q0 -22 -13 -74q-9 -35 -9 -48q0 -17 13 -17q14 0 36.5 22t40.5 51l8 -5q-58 -95 -117 -95q-18 0 -28.5 13t-10.5 29
q0 18 19 85q11 37 11 67q0 36 -16.5 46.5t-51.5 10.5h-43l-81 -243h-57l136 403h-174q-29 -120 -62.5 -221t-76.5 -192t-96.5 -143t-110.5 -52q-37 0 -62.5 15.5t-25.5 42.5q0 6 1 9q-61 -67 -124 -67q-38 0 -63 16.5t-25 45.5q0 16 9.5 25.5t24.5 9.5q27 0 33 -25
q2 -7 2 -21.5t1 -18.5q4 -17 23 -17q47 0 84 46q52 67 90.5 182.5t98.5 351.5l3 13h-84l4 14h84q18 68 33 110t40.5 83t62 60t87.5 19q35 0 63.5 -12.5t34.5 -33.5q51 46 125 46q28 0 55 -8h91q5 0 5 -5q0 -2 -2 -7t-5.5 -14t-6.5 -16q-14 -37 -28 -81l-102 -302h51
q53 0 89 69q31 60 47 77q24 25 52 25q20 0 30.5 -13t10.5 -31zM160 -142q50 62 93 188t95 334l5 23h-156q-92 -375 -197 -517q3 1 9 1q25 0 31 -24q2 -6 2.5 -20t1.5 -18q3 -17 28 -17q47 0 88 50zM486 614q-36 -62 -70 -197h176l56 165q1 3 5 14q-24 3 -24 32q0 7 2.5 17.5
t2.5 15.5q0 19 -50 19q-60 0 -98 -66zM201 417h156q33 124 68 180q-26 5 -26 33q0 3 1.5 15t1.5 15q0 20 -41 20q-31 0 -51 -15.5t-40 -50.5q-36 -63 -69 -197z" />
    <glyph glyph-name="f_h" unicode="fh" horiz-adv-x="686" 
d="M57 417h84q18 67 34.5 110t43 83.5t64 59.5t88.5 19q28 0 55 -8h82q5 0 5 -5q0 -1 -13 -40q-8 -21 -29 -87l-101 -307h4q53 91 105.5 139t97.5 48q48 0 48 -54q0 -31 -57 -197q-41 -119 -41 -141q0 -13 13 -13q40 0 97 87l10 -5q-70 -115 -136 -115q-20 0 -31 11.5
t-11 29.5q0 10 2.5 23.5t9 35.5t11 37t16.5 50t18 53q44 134 44 148q0 22 -19 22q-39 0 -97 -65t-108 -184q-15 -35 -54 -152h-58l133 403h-170q-149 -608 -341 -608q-38 0 -63 16.5t-25 45.5q0 16 9.5 25.5t24.5 9.5q27 0 33 -25q2 -7 2 -21.5t1 -18.5q4 -17 23 -17
q47 0 84 46q52 67 90.5 182.5t98.5 351.5l3 13h-84zM201 417h170l60 180q-18 6 -18 31q0 7 2.5 17.5t2.5 15.5q0 19 -50 19q-60 0 -98 -66q-36 -63 -69 -197z" />
    <glyph glyph-name="f_j" unicode="fj" horiz-adv-x="436" 
d="M328 123q-48 -150 -69 -200.5t-47 -81.5q-46 -54 -108 -54q-38 0 -57.5 18.5t-19.5 41.5q0 17 8.5 28t23.5 11q32 0 32 -33q0 -7 -4 -23q-2 -10 -2 -14q0 -15 23 -15q38 0 64 45q21 37 102 291q16 49 46 149q25 85 25 95q0 22 -20 22h-133q-149 -608 -341 -608
q-38 0 -63 16.5t-25 45.5q0 16 9.5 25.5t24.5 9.5q27 0 33 -25q2 -7 2 -21.5t1 -18.5q4 -17 23 -17q47 0 84 46q52 67 90.5 182.5t98.5 351.5l3 13h-84l4 14h84q18 68 33 110t40.5 83t62 60t87.5 19q40 0 67.5 -15t27.5 -41q0 -17 -9.5 -27t-23.5 -10q-15 0 -24.5 9.5
t-9.5 24.5q0 3 1.5 15.5t1.5 15.5q0 19 -34 19q-31 0 -51 -15.5t-40 -50.5q-36 -63 -69 -197h222q-11 -61 -90 -294z" />
    <glyph glyph-name="f_k" unicode="fk" horiz-adv-x="641" 
d="M57 417h84q18 67 34.5 110t43 83.5t64 59.5t88.5 19q28 0 55 -8h87q5 0 5 -5q0 -2 -2 -7t-5.5 -14t-6.5 -16q-14 -37 -28 -81l-102 -302h51q53 0 89 69q31 60 47 77q24 25 52 25q20 0 30.5 -13t10.5 -31q0 -37 -34 -37q-11 0 -19 7t-8 19q0 7 2 13q4 12 4 14q0 6 -7 6
q-21 0 -51 -57q-4 -8 -13 -25l-5 -10q-22 -43 -62 -62v-3q69 -21 69 -90q0 -22 -13 -74q-9 -35 -9 -48q0 -17 13 -17q14 0 36.5 22t40.5 51l8 -5q-58 -95 -117 -95q-18 0 -28.5 13t-10.5 29q0 18 19 85q11 37 11 67q0 36 -16.5 46.5t-51.5 10.5h-43l-81 -243h-57l136 403
h-170q-149 -608 -341 -608q-38 0 -63 16.5t-25 45.5q0 16 9.5 25.5t24.5 9.5q27 0 33 -25q2 -7 2 -21.5t1 -18.5q4 -17 23 -17q47 0 84 46q52 67 90.5 182.5t98.5 351.5l3 13h-84zM201 417h171l56 165q4 10 5 15q-20 5 -20 31q0 7 2.5 17.5t2.5 15.5q0 19 -50 19
q-60 0 -98 -66q-36 -63 -69 -197z" />
    <glyph glyph-name=".notdef" horiz-adv-x="25" 
 />
    <glyph glyph-name=".null" horiz-adv-x="0" 
 />
    <glyph glyph-name="nonmarkingreturn" horiz-adv-x="333" 
 />
    <glyph glyph-name="space" unicode=" " horiz-adv-x="195" 
 />
    <glyph glyph-name="exclam" unicode="!" horiz-adv-x="203" 
d="M227 629q0 -12 -2.5 -27t-9 -36t-10.5 -33t-14.5 -40.5t-13.5 -35.5q-108 -302 -116 -323h-13q46 220 59 294q28 159 39 192q17 49 48 49q33 0 33 -40zM-20 27q0 18 12 31t30 13t30.5 -13t12.5 -31t-12 -30.5t-31 -12.5q-18 0 -30 12.5t-12 30.5z" />
    <glyph glyph-name="quotedbl" unicode="&#x22;" horiz-adv-x="231" 
d="M151 643q0 -20 -37 -99l-29 -65h-8l7 65q8 80 11 95q7 31 31 31q25 0 25 -27zM253 643q0 -20 -37 -99l-29 -65h-8l7 65q8 80 11 95q7 31 31 31q25 0 25 -27z" />
    <glyph glyph-name="numbersign" unicode="#" horiz-adv-x="564" 
d="M585 437h-144l-58 -214h152v-11h-154l-57 -212h-19l57 212h-187l-34 -125q-21 -79 -23 -87h-19l57 212h-156v11h158l58 214h-167v12h169l55 206h19l-55 -206h187l55 206h19l-55 -206h142v-12zM422 437h-187l-58 -214h187zM118 0h1q-1 -3 -1 0z" />
    <glyph glyph-name="dollar" unicode="$" horiz-adv-x="446" 
d="M343 738l-22 -88q62 -5 96.5 -31t34.5 -59q0 -22 -10.5 -35t-28.5 -13q-35 0 -35 33q0 8 6 24t6 22q0 16 -18.5 29.5t-53.5 16.5l-66 -261q4 -5 22 -23.5t22 -23t18 -20t17.5 -21.5t13.5 -19.5t12.5 -22t7.5 -21t6.5 -24t1.5 -24.5q0 -80 -63 -132t-156 -57l-23 -96h-16
l24 95q-63 0 -105.5 31.5t-42.5 76.5q0 18 10.5 31t28.5 13q19 0 28 -12t9 -28q0 -8 -4.5 -27t-4.5 -29q0 -19 22 -31t60 -12h2l78 306l-3 4q-31 33 -48 54t-32 53.5t-15 64.5q0 75 53.5 122t123.5 47h8l22 87h14zM312 145q0 44 -16.5 71t-64.5 78l-73 -294q68 6 111 48.5
t43 96.5zM176 514q0 -54 60 -120q2 -3 5 -5l63 249h-5q-57 0 -90 -36.5t-33 -87.5z" />
    <glyph glyph-name="percent" unicode="%" horiz-adv-x="612" 
d="M313 547q0 -87 -51.5 -151t-119.5 -64q-35 0 -60 29.5t-25 75.5q0 86 51 150.5t119 64.5q35 0 60.5 -29.5t25.5 -75.5zM263 559q0 23 -2 38t-12 28t-28 13q-27 0 -48 -23q-28 -30 -47 -86t-19 -108q0 -75 39 -75q28 0 48 21q25 26 47 83t22 109zM567 648l-471 -668
l-14 11l471 668zM586 201q0 -87 -51.5 -151t-119.5 -64q-35 0 -60 29.5t-25 75.5q0 86 51 150.5t119 64.5q36 0 61 -29.5t25 -75.5zM536 213q0 23 -2 38t-12 28t-28 13q-27 0 -48 -23q-28 -30 -47 -86t-19 -108q0 -75 39 -75q28 0 48 21q25 26 47 83t22 109z" />
    <glyph glyph-name="ampersand" unicode="&#x26;" horiz-adv-x="698" 
d="M175 479q0 -20 5 -42q13 4 28 4q24 0 39.5 -10.5t15.5 -26.5q0 -14 -9 -22t-24 -8q-35 0 -60 42q-33 -21 -55 -64.5t-22 -95.5q0 -88 56 -148.5t171 -60.5q114 0 176 74.5t62 174.5q0 73 -37 104t-87 31q-42 0 -65 -22t-23 -56q0 -27 17 -44.5t35 -17.5q-7 25 4 47.5
t38 22.5q18 0 30 -11.5t12 -28.5q0 -25 -17 -40t-46 -15q-37 0 -62 24.5t-25 63.5q0 46 33.5 80.5t89.5 34.5q21 0 70 -9.5t70 -9.5q43 0 67 24.5t24 62.5q0 62 -45 86q-9 -57 -52 -57q-18 0 -30 12t-12 30t13 30.5t33 12.5q43 0 87.5 -38.5t44.5 -90.5q0 -57 -32.5 -89.5
t-88.5 -32.5q-40 0 -81 17q29 -22 46 -64t17 -84q0 -52 -17.5 -101t-51 -91t-90.5 -67t-129 -25q-118 0 -190 69.5t-72 170.5q0 80 36 132t90 75q-12 28 -12 67q0 67 39.5 111t105.5 44q55 0 86.5 -24.5t31.5 -67.5q0 -53 -50 -73l-3 4q22 15 22 47q0 30 -23.5 51.5
t-69.5 21.5q-47 0 -80.5 -37t-33.5 -97z" />
    <glyph glyph-name="quotesingle" unicode="'" horiz-adv-x="121" 
d="M151 643q0 -20 -37 -99l-29 -65h-8l7 65q8 80 11 95q7 31 31 31q25 0 25 -27z" />
    <glyph glyph-name="parenleft" unicode="(" horiz-adv-x="263" 
d="M348 667q-250 -193 -250 -458q0 -151 74 -301l-15 -9q-77 159 -77 310q0 273 258 470z" />
    <glyph glyph-name="parenright" unicode=")" horiz-adv-x="271" 
d="M-67 -101l-10 12q250 193 250 458q0 151 -74 301l15 9q77 -159 77 -310q0 -273 -258 -470z" />
    <glyph glyph-name="asterisk" unicode="*" horiz-adv-x="328" 
d="M190 490q-22 -2 -76 -10t-69 -8q-24 0 -24 23q0 24 24 24q15 0 68.5 -8.5t75.5 -10.5q-16 13 -60 46t-54 43q-17 17 0 34q16 18 33 -1q11 -11 43 -55t45 -60q-2 22 -10 75.5t-8 68.5q0 24 24 24q23 0 23 -24q0 -12 -3.5 -36t-8.5 -56.5t-7 -51.5q13 16 46 60t43 54
q18 18 34 0q17 -15 -1 -33q-10 -10 -54 -42t-61 -46q22 2 75.5 10t68.5 8q24 0 24 -24q0 -23 -24 -23q-12 0 -36 3.5t-56.5 8.5t-51.5 7q16 -13 60 -46t54 -43q17 -17 1 -34q-17 -15 -34 1q-10 10 -42 54t-46 61q2 -19 7 -51.5t8.5 -56.5t3.5 -36q0 -24 -24 -24
q-23 0 -23 24q0 12 3.5 36t8.5 56.5t7 51.5q-15 -18 -47.5 -61t-42.5 -53q-16 -18 -33 -1t0 34q11 11 56 44z" />
    <glyph glyph-name="plus" unicode="+" horiz-adv-x="455" 
d="M403 253h-175v-174h-16v174h-174v16h174v175h16v-175h175v-16z" />
    <glyph glyph-name="comma" unicode="," horiz-adv-x="179" 
d="M103 25q0 -49 -38.5 -88t-100.5 -60l-4 9q33 13 67 37.5t34 49.5q0 10 -3 16q-40 6 -40 42q0 19 11.5 31.5t30.5 12.5t31 -13.5t12 -36.5z" />
    <glyph glyph-name="hyphen" unicode="-" horiz-adv-x="342" 
d="M295 275l-10 -33h-213l10 33h213z" />
    <glyph glyph-name="period" unicode="." horiz-adv-x="181" 
d="M18 31q0 18 12 31t30 13t30.5 -13t12.5 -31t-12 -30.5t-31 -12.5q-18 0 -30 12.5t-12 30.5z" />
    <glyph glyph-name="slash" unicode="/" horiz-adv-x="242" 
d="M337 678l-435 -777l-12 5l435 778z" />
    <glyph glyph-name="zero" unicode="0" horiz-adv-x="575" 
d="M382 670q89 0 134 -65t45 -167q0 -108 -46 -212.5t-125 -172t-166 -67.5q-89 0 -134.5 67t-45.5 175q0 110 46.5 212.5t125 166t166.5 63.5zM227 0q52 0 96 36q75 61 117.5 175t42.5 272q0 173 -104 173q-54 0 -98 -37q-78 -66 -118.5 -187t-40.5 -259q0 -173 105 -173z
" />
    <glyph glyph-name="one" unicode="1" horiz-adv-x="297" 
d="M282 655l-14 -52l-129 -517q-5 -22 -5 -37q0 -30 26 -39q8 -3 34 -5l-1 -5h-207l1 5l25 4q18 4 32 18t28 66l107 430q17 66 17 79q0 10 -9 13q-13 4 -44 8l-1 5q21 4 73 17q10 3 25.5 7.5t24.5 7t13 2.5q5 0 4 -7z" />
    <glyph glyph-name="two" unicode="2" horiz-adv-x="483" 
d="M325 467l6 -6q-20 -50 -56.5 -84t-87.5 -34q-50 0 -75.5 31.5t-25.5 80.5q0 80 70 147.5t184 67.5q61 0 105.5 -39.5t44.5 -110.5q0 -54 -30.5 -112t-82 -110.5t-103.5 -94.5t-111 -80q-61 -40 -88 -60l1 -1h244q42 0 70 19q20 17 41 50h8l-63 -131h-413q65 45 79 56
q126 93 181 144q194 181 194 357q0 50 -20 74.5t-71 24.5q-68 0 -127.5 -55.5t-59.5 -146.5q0 -40 19.5 -59.5t49.5 -19.5q75 0 117 92z" />
    <glyph glyph-name="three" unicode="3" horiz-adv-x="446" 
d="M435 553q0 -65 -56 -112.5t-163 -94.5l1 -2q87 1 140.5 -42.5t53.5 -111.5q0 -73 -68.5 -138.5t-178.5 -65.5q-65 0 -114.5 36.5t-49.5 86.5q0 23 11.5 36.5t31.5 13.5q39 0 39 -46q0 -13 -3 -30q-1 -4 -2.5 -11.5t-3 -13t-1.5 -7.5q0 -20 26.5 -35.5t66.5 -15.5
q68 0 117 52.5t49 142.5q0 134 -101 134q-41 0 -71 -18l-29 -17l-6 12l67 39q4 3 25 14.5t29.5 17t28 18.5t29 22.5t23.5 26t21 32t12.5 36t5.5 42.5q0 101 -86 101q-56 0 -90.5 -39t-34.5 -91q0 -63 52 -63q49 0 84 51l5 -4q-14 -29 -43.5 -51.5t-65.5 -22.5q-38 0 -57 22
t-19 55q0 64 55 111t126 47q70 0 107 -34.5t37 -82.5z" />
    <glyph glyph-name="four" unicode="4" horiz-adv-x="452" 
d="M446 306l-44 -179h-6q8 38 -5 61q-15 28 -58 28h-46l-29 -122q-7 -29 -7 -48q0 -26 21 -34q12 -5 36 -7l-1 -5h-203l1 5q12 1 23 4q27 9 43 34q10 16 22 62l28 110h-227l2 6l382 436h17q2 0 2 -3l-15 -62l-92 -364h47q43 0 65 20q24 21 38 58h6zM307 555h-1l-286 -327
h204z" />
    <glyph glyph-name="five" unicode="5" horiz-adv-x="477" 
d="M503 686q-37 -73 -82.5 -104t-117.5 -31q-55 0 -97 17l-78 -211l3 -1q62 64 143 64q66 0 110 -43t44 -113q0 -65 -36 -129t-102 -106.5t-142 -42.5q-69 0 -113 33t-44 80q0 23 11.5 37.5t31.5 14.5q38 0 38 -44q0 -11 -3 -30q-4 -24 -4 -32q0 -21 24.5 -34t61.5 -13
q86 0 144 79.5t58 202.5q0 61 -20 92.5t-70 31.5q-45 0 -87.5 -27.5t-68.5 -65.5l-10 4l127 341h5q40 -43 121 -43q105 0 146 75z" />
    <glyph glyph-name="six" unicode="6" horiz-adv-x="499" 
d="M488 585q0 -24 -13.5 -41t-33.5 -17q-15 0 -25.5 10t-10.5 25q0 12 7 29q10 23 10 31q0 32 -43 32q-77 0 -140 -95t-95 -230h4q66 95 159 95q62 0 101 -40t39 -115q0 -104 -70 -193.5t-164 -89.5q-82 0 -124.5 55t-42.5 144q0 92 34 183.5t85 156t110.5 105t109.5 40.5
q103 0 103 -85zM376 262q0 140 -89 140q-58 0 -108 -55q-30 -33 -47.5 -86t-17.5 -107q0 -154 97 -154q51 0 90.5 47t57 105t17.5 110z" />
    <glyph glyph-name="seven" unicode="7" horiz-adv-x="426" 
d="M515 656l-3 -15q-121 -136 -192.5 -259t-146.5 -311q-19 -47 -35 -66.5t-35 -19.5q-33 0 -33 42q0 15 6.5 32.5t22.5 43.5t29 44.5t41 57l44 60.5q115 163 239 329v4h-260q-48 0 -65.5 -12t-33.5 -53h-8l33 148h6q5 -25 38 -25h353z" />
    <glyph glyph-name="eight" unicode="8" horiz-adv-x="478" 
d="M33 144q0 76 55.5 126t140.5 72q-51 46 -75 83t-24 86q0 75 50.5 117t126.5 42q70 0 110 -34.5t40 -93.5q0 -113 -157 -171q50 -46 71.5 -70t35 -55.5t13.5 -73.5q0 -72 -58 -129t-153 -57q-84 0 -130 47t-46 111zM239 333q-68 -26 -105 -77t-37 -121q0 -57 31 -96.5
t81 -39.5q59 0 105 38.5t46 103.5q0 53 -24.5 89.5t-96.5 102.5zM186 543q0 -41 24.5 -76.5t79.5 -86.5q107 40 107 162q0 115 -95 115q-48 0 -82 -28.5t-34 -85.5z" />
    <glyph glyph-name="nine" unicode="9" horiz-adv-x="492" 
d="M20 79q0 23 12.5 37.5t32.5 14.5q18 0 29 -9.5t11 -27.5q0 -13 -8 -31q-11 -25 -11 -31q0 -12 14.5 -22t41.5 -10q62 0 118.5 59.5t90 136.5t44.5 149h-3q-73 -105 -166 -105q-73 0 -107.5 45.5t-34.5 117.5q0 102 68 184.5t164 82.5q81 0 122 -59.5t41 -155.5
q0 -113 -37.5 -207.5t-92.5 -149t-109.5 -83.5t-97.5 -29q-63 0 -92.5 29.5t-29.5 63.5zM416 504q0 63 -24 107.5t-76 44.5q-50 0 -88 -43t-55.5 -102.5t-17.5 -120.5q0 -127 89 -127q83 0 143 101q29 48 29 140z" />
    <glyph glyph-name="colon" unicode=":" horiz-adv-x="200" 
d="M3 31q0 18 12 31t30 13t30.5 -13t12.5 -31t-12 -30.5t-31 -12.5q-18 0 -30 12.5t-12 30.5zM95 378q0 18 12 31t30 13t30.5 -13t12.5 -31t-12 -30.5t-31 -12.5q-18 0 -30 12.5t-12 30.5z" />
    <glyph glyph-name="semicolon" unicode=";" horiz-adv-x="195" 
d="M90 378q0 18 12 31t30 13t30.5 -13t12.5 -31t-12 -30.5t-31 -12.5q-18 0 -30 12.5t-12 30.5zM88 25q0 -49 -38.5 -88t-100.5 -60l-4 9q33 13 67 37.5t34 49.5q0 10 -3 16q-40 6 -40 42q0 19 11.5 31.5t30.5 12.5t31 -13.5t12 -36.5z" />
    <glyph glyph-name="less" unicode="&#x3c;" horiz-adv-x="338" 
d="M298 111l-278 142v18l278 142v-17l-266 -134l266 -134v-17z" />
    <glyph glyph-name="equal" unicode="=" horiz-adv-x="415" 
d="M360 338h-325v16h325v-16zM360 163h-325v16h325v-16z" />
    <glyph glyph-name="greater" unicode="&#x3e;" horiz-adv-x="328" 
d="M308 253l-278 -142v17l266 134l-266 134v17l278 -142v-18z" />
    <glyph glyph-name="question" unicode="?" horiz-adv-x="409" 
d="M449 543q0 -69 -42.5 -108t-146.5 -88q-104 -50 -128 -68q-39 -29 -39 -66q0 -28 16.5 -44t46.5 -16q49 0 90 44l6 -5q-48 -59 -105 -59q-40 0 -68.5 25.5t-28.5 69.5q0 28 9.5 48.5t37.5 41t49.5 32t75.5 36.5q15 7 23 11q84 40 114 69.5t30 81.5q0 49 -29.5 77.5
t-79.5 28.5q-60 0 -90 -32.5t-30 -80.5q0 -36 16.5 -56.5t42.5 -20.5q29 0 34 17q-28 18 -28 43q0 18 12 30t31 12q18 0 28.5 -11.5t10.5 -30.5q0 -32 -30.5 -53t-67.5 -21q-43 0 -66.5 22.5t-23.5 58.5q0 52 50.5 95t128.5 43q71 0 111 -35.5t40 -90.5zM70 31q0 19 11 31
t30 12q18 0 30 -12t12 -31t-12 -30.5t-30 -11.5q-19 0 -30 11.5t-11 30.5z" />
    <glyph glyph-name="at" unicode="@" horiz-adv-x="702" 
d="M679 265q0 -64 -25 -119t-63.5 -89t-81 -52.5t-80.5 -18.5q-22 0 -36.5 14t-14.5 40q0 22 14 66h-3q-34 -51 -59 -76q-44 -44 -86 -44q-33 0 -58.5 29t-25.5 86q0 63 28.5 129.5t81.5 114t112 47.5q29 0 45.5 -19.5t20.5 -48.5h2q2 5 11.5 27t15.5 34h49
q-6 -19 -20.5 -67t-28.5 -91q-19 -57 -33 -116t-14 -73q0 -24 28 -24q32 0 67 16.5t67 47t52.5 80t20.5 108.5q0 131 -75.5 199.5t-207.5 68.5q-154 0 -262 -107t-108 -263q0 -155 93.5 -242t245.5 -87q144 0 271 60l4 -10q-124 -62 -275 -62q-164 0 -258.5 93.5
t-94.5 247.5q0 161 113.5 271.5t270.5 110.5q144 0 220.5 -74.5t76.5 -206.5zM436 295q0 87 -57 87q-50 0 -98 -80q-60 -101 -60 -218q0 -73 40 -73q28 0 64 33q23 21 56 73q22 36 31 65q24 76 24 113z" />
    <glyph glyph-name="A" unicode="A" horiz-adv-x="508" 
d="M327 174l20 80h-178l-119 -141q-33 -39 -33 -63q0 -22 19 -34q14 -8 40 -11l-1 -5h-179l1 5q12 3 27 9q39 17 92 79l479 564h20l-120 -493q-24 -94 -24 -118t26 -35q9 -4 26 -6l-1 -5h-206l1 5q16 2 23 4q27 5 43 32q16 28 44 133zM419 550l-240 -284h171l74 284h-5z" />
    <glyph glyph-name="B" unicode="B" horiz-adv-x="534" 
d="M510 532q0 -70 -54 -117.5t-133 -61.5l-1 -3q72 -10 117 -52.5t45 -96.5q0 -68 -70 -134.5t-173 -66.5h-279l1 5q14 2 31 7q28 9 38 28q16 28 44 134l82 329q21 87 21 107q0 26 -25 36q-9 4 -27 6l1 5h196q80 0 133 -28.5t53 -96.5zM412 227q0 56 -38.5 87t-113.5 31h-72
l-53 -211q-14 -59 -14 -79t9 -29q12 -13 53 -13h39q88 0 139 61t51 153zM441 536q0 49 -26 78.5t-80 29.5h-22q-18 0 -31 -6q-4 -1 -7 -3.5t-6 -6t-5 -6t-4.5 -8.5t-4 -9.5t-3.5 -11.5t-3.5 -12.5t-4 -14.5t-4.5 -16l-49 -192h94q31 0 62.5 14t50.5 33q43 43 43 131z" />
    <glyph glyph-name="C" unicode="C" horiz-adv-x="552" 
d="M599 643l-50 -188h-6q9 201 -127 201q-59 0 -119 -43q-63 -45 -115.5 -148t-52.5 -243q0 -110 51 -168q34 -38 95 -38q41 0 78.5 19t66 50.5t48.5 62t36 64.5l12 -6q-16 -34 -37.5 -67.5t-54 -70t-76 -59.5t-90.5 -23q-58 0 -100.5 22.5t-65 60t-32.5 79t-10 88.5
q0 93 35.5 176.5t90.5 138.5t121 87t129 32q51 0 85.5 -20.5t49.5 -46.5h4l28 40h6z" />
    <glyph glyph-name="D" unicode="D" horiz-adv-x="623" 
d="M608 407q0 -227 -205 -352q-91 -55 -197 -55h-244l1 5q12 1 26 5q32 9 43 30q18 31 43 134l84 328q22 85 22 109q0 22 -22 33q-11 6 -30 8l1 5h221q116 0 186.5 -75t70.5 -175zM529 416q0 129 -49 182q-42 46 -133 46h-40q-9 0 -17 -2t-13 -4t-10 -9t-7.5 -10t-6 -14
t-5 -15t-5 -18.5t-4.5 -19.5l-105 -418q-14 -59 -14 -77q0 -21 9 -31q11 -13 46 -13h31q105 0 190 71q58 49 95.5 134.5t37.5 197.5z" />
    <glyph glyph-name="E" unicode="E" horiz-adv-x="525" 
d="M510 657v-162h-6q-5 28 -8 43t-12.5 38.5t-21.5 36t-33.5 22t-50.5 9.5h-64q-55 0 -72 -71l-55 -225h59q61 0 86.5 23t47.5 80h6l-55 -219h-6q2 24 2 36q0 19 -2 29t-9 20t-23.5 14t-44.5 4h-65l-51 -201q-14 -55 -14 -75q0 -46 53 -46h67q73 0 129 45q64 51 107 127h6
l-69 -185h-449l1 5q32 0 53.5 22.5t30 46.5t25.5 87q3 9 4 14l82 327q21 86 22 109q0 21 -16 31t-37 10l1 5h382z" />
    <glyph glyph-name="F" unicode="F" horiz-adv-x="479" 
d="M521 657l3 -150h-6q-18 59 -41 93q-29 44 -94 44h-69q-61 0 -78 -71l-51 -212h82q62 0 82 18q31 27 53 85h6l-55 -219h-6q7 59 -6 79q-16 24 -70 24h-89l-47 -184q-24 -94 -24 -117q0 -24 24 -35q11 -5 28 -7l-1 -5h-200l1 5q13 2 18 3q30 8 45 33q19 36 43 133l83 329
q22 85 22 108t-27 35q-10 4 -26 6l1 5h399z" />
    <glyph glyph-name="G" unicode="G" horiz-adv-x="606" 
d="M597 297l-1 -5l-19 -4q-32 -11 -48 -40q-16 -32 -33 -108l-28 -124h-5q-6 8 -16 8q-11 0 -35 -12q-52 -26 -112 -26q-124 0 -187 72.5t-63 174.5q0 98 36.5 182.5t93 138.5t123 85t129.5 31q89 0 128 -68h4l28 41h6l-50 -189h-6q4 105 -23.5 154t-88.5 49q-70 0 -129 -43
q-27 -19 -53.5 -50t-55 -79t-46 -118.5t-17.5 -151.5q0 -122 60 -180q20 -19 50.5 -29t55.5 -10q70 0 98 28q16 16 35 93l19 80q8 35 8 57q0 23 -21 32q-10 4 -28 6l1 5h190z" />
    <glyph glyph-name="H" unicode="H" horiz-adv-x="599" 
d="M672 657l-1 -5q-2 0 -7 -1t-9.5 -1.5t-8.5 -1.5q-35 -9 -48 -33q-14 -25 -40 -132l-78 -318q-23 -97 -23 -118q0 -24 27 -36q4 -2 25 -6l-1 -5h-205l1 5q6 0 20 3q33 11 45 34q22 40 45 133l39 154h-271l-41 -164q-22 -88 -22 -117q0 -27 27 -37q11 -4 22 -6l-1 -5h-205
l1 5q14 0 26 3q30 9 43 34q16 29 43 133l79 318q22 87 22 118q0 24 -26 35q-3 1 -27 6l1 5h208l-1 -5q-16 -2 -22 -4q-35 -11 -49 -33q-13 -21 -40 -132l-35 -141h271l36 151q23 90 23 118q0 25 -28 36q-5 2 -21 5l1 5h205z" />
    <glyph glyph-name="I" unicode="I" horiz-adv-x="261" 
d="M332 657l-1 -5q-20 0 -37 -8q-25 -12 -35 -30q-15 -26 -39 -130l-79 -321q-23 -94 -23 -116q0 -26 24 -36q9 -4 28 -6l-1 -5h-208l1 5q18 2 27 4q29 7 42 32q20 36 44 132l79 321q22 87 22 116q0 27 -25 36q-12 5 -27 6l1 5h207z" />
    <glyph glyph-name="J" unicode="J" horiz-adv-x="368" 
d="M445 657l-1 -5q-23 -3 -31 -6q-26 -8 -41 -32q-13 -20 -40 -131l-81 -335q-15 -63 -62.5 -112.5t-120.5 -49.5q-40 0 -71.5 26t-31.5 66q0 24 12.5 38.5t34.5 14.5q20 0 30.5 -11.5t10.5 -28.5q0 -21 -18 -43q-2 -3 -5 -5.5t-5 -4.5l-3.5 -3.5l-3 -3t-2 -3.5t-0.5 -4
q0 -10 16.5 -18t33.5 -8q46 0 69 27q25 29 46 116l86 352q24 94 24 118t-24 34q-11 5 -29 7l1 5h206z" />
    <glyph glyph-name="K" unicode="K" horiz-adv-x="571" 
d="M632 657l-1 -5q-29 -5 -66 -25q-35 -18 -72 -52l-233 -215l2 -2q18 10 45 10q59 0 87.5 -44.5t37.5 -141.5q12 -131 21 -153q8 -20 23 -20q19 0 36 21t24 44l10 -3q-18 -46 -40.5 -65.5t-54.5 -19.5q-43 0 -65.5 34t-27.5 119q-2 33 -2 66t-3 61q-4 45 -20.5 65t-46.5 20
q-27 0 -47 -12.5t-66 -55.5l-30 -119q-22 -93 -22 -117q0 -22 27 -34q10 -5 30 -8l-3 -5h-213l1 5q18 2 31 7q27 10 38 29q19 36 43 133l79 319q23 97 23 118q0 25 -19 33q-13 5 -34 8l1 5h215l-1 -5q-25 -2 -36 -6q-28 -9 -41 -31q-10 -18 -40 -132l-46 -183l282 260
q44 40 44 69q0 13 -11 18q-8 3 -26 5l2 5h165z" />
    <glyph glyph-name="L" unicode="L" horiz-adv-x="508" 
d="M464 172l-68 -172h-434l1 5q18 2 26 4q29 7 43 33q19 33 43 132l80 320q22 87 22 117q0 27 -26 36q-5 1 -26 5l1 5h213l-1 -5q-21 -3 -31 -6q-32 -9 -46 -35q-9 -16 -38 -128l-88 -349q-13 -58 -13 -76q0 -20 9 -31q12 -14 45 -14h47q81 0 132 40q61 48 104 119h5z" />
    <glyph glyph-name="M" unicode="M" horiz-adv-x="745" 
d="M818 657l-1 -5q-23 -4 -30 -6q-28 -9 -43 -31q-6 -10 -12 -27t-9 -28t-10 -40t-9 -37l-78 -320q-22 -87 -22 -112q0 -30 24 -41q7 -3 27 -6l-1 -4h-207v4q6 0 21 3q27 6 45 32q23 35 45 134l98 407h-3l-356 -584h-26l-81 571h-2l-109 -438q-11 -44 -11 -74q0 -38 26 -45
q11 -3 29 -5l-2 -5h-163l3 5q18 3 26 5q26 8 40 25q19 25 31 71l99 398q18 75 18 98q0 33 -29 44q-6 2 -27 6l1 5h129l80 -576h2l352 576h135z" />
    <glyph glyph-name="N" unicode="N" horiz-adv-x="585" 
d="M656 657l-1 -5q-16 -3 -22 -5q-24 -8 -37 -27q-18 -25 -35 -92l-134 -536h-12l-230 551h-4l-102 -414q-11 -42 -11 -73q0 -36 27 -46q8 -3 29 -5l-1 -5h-164l1 5q21 3 25 4q27 8 42 26q19 23 32 76l97 389q13 54 13 75q0 23 -12.5 42t-28.5 27q-11 6 -29 9l1 4h117
l221 -548h3l102 406q14 55 14 83q0 36 -31 48q-9 4 -29 6l1 5h158z" />
    <glyph glyph-name="O" unicode="O" horiz-adv-x="607" 
d="M591 417q0 -89 -36.5 -182.5t-98.5 -153.5q-98 -95 -203 -95q-86 0 -144 64.5t-58 189.5q0 90 35.5 181t100.5 156q93 93 201 93q87 0 145 -63t58 -190zM519 470q0 102 -37.5 144t-92.5 42q-65 0 -120 -50q-55 -51 -100.5 -170.5t-45.5 -249.5q0 -186 131 -186
q63 0 113 43q55 47 103.5 170.5t48.5 256.5z" />
    <glyph glyph-name="P" unicode="P" horiz-adv-x="485" 
d="M523 516q0 -105 -116 -167q-67 -36 -172 -36h-63l-37 -150q-22 -87 -22 -117q0 -21 19 -32q11 -6 32 -9l-1 -5h-203l1 5q11 1 25 6q25 8 37 29q19 33 44 133l83 329q22 85 22 110q0 24 -23 33q-12 5 -30 7l1 5h219q93 0 138.5 -39.5t45.5 -101.5zM449 539
q0 48 -27.5 76.5t-81.5 28.5h-41q-27 0 -40 -15q-10 -13 -24 -64l-59 -239h63q94 0 146 48q26 24 45 71t19 94z" />
    <glyph glyph-name="Q" unicode="Q" horiz-adv-x="620" 
d="M546 -294q-86 0 -178 88q-8 8 -32 30l-30 27.5t-23.5 21t-24.5 19.5t-21.5 13t-24.5 11t-24 4.5t-29 2.5q-22 0 -39.5 -11t-17.5 -22q0 -6 8 -18q9 -12 9 -26q0 -19 -11 -30t-26 -11q-16 0 -26.5 10t-10.5 29q0 55 131 103l84 30q-91 3 -147 72t-56 191q0 91 40.5 183.5
t102.5 153.5q94 93 202 93q92 0 144 -73t52 -191q0 -98 -45.5 -202t-128.5 -163q-48 -35 -121 -61q-101 -32 -133 -47v-1q55 4 98 -7t69 -27t73 -52q11 -9 17 -13q55 -41 84 -54.5t74 -13.5q75 0 125 89l8 -4q-35 -70 -74 -106q-42 -38 -98 -38zM524 469q0 187 -123 187
q-58 0 -115 -50q-55 -49 -105.5 -169t-50.5 -258q0 -95 41 -142t95 -47t108 46q58 49 104 170t46 263z" />
    <glyph glyph-name="R" unicode="R" horiz-adv-x="558" 
d="M542 70q-20 -47 -40.5 -65.5t-49.5 -18.5q-42 0 -66 30.5t-25 112.5q-1 53 -1.5 73t-8 50t-22.5 46q-17 18 -37 24t-60 6h-56l-42 -164q-24 -94 -24 -118q0 -20 22 -32q12 -7 29 -9l-1 -5h-200l1 5q10 1 23 5q27 9 40 31q19 36 43 133l83 328q22 85 22 109t-23 34
q-8 4 -30 8l1 4h226q181 0 181 -117q0 -54 -39.5 -104t-96.5 -77q-35 -17 -87 -25v-3q43 -9 69 -29q33 -25 46 -60t20 -98q10 -101 14 -113q6 -22 22 -22q28 0 57 64zM452 539q0 55 -23 80t-72 25h-46q-39 0 -55 -21q-10 -12 -26 -72l-51 -209h54q110 0 157 38
q27 23 44.5 67t17.5 92z" />
    <glyph glyph-name="S" unicode="S" horiz-adv-x="446" 
d="M456 653l-25 -172h-8q-7 95 -29 130q-29 47 -102 47q-51 0 -84.5 -30t-33.5 -86q0 -17 2.5 -31.5t8.5 -28t10.5 -22.5t15.5 -22t15.5 -18t18.5 -18.5t17 -16.5q10 -10 38.5 -37t38.5 -38t26 -33.5t21.5 -45t5.5 -50.5q0 -47 -20.5 -85.5t-53 -61.5t-68 -35.5t-69.5 -12.5
q-50 0 -87 20t-56 46h-5l-40 -41h-4l45 200h8q3 -111 33.5 -161.5t111.5 -50.5q65 0 101.5 46t36.5 105q0 24 -7 45t-25.5 44.5t-30.5 36.5t-43 43q-4 4 -19 18.5t-19.5 19t-17 18t-17 21.5t-13 22t-11.5 25.5t-6 27t-3 32.5q0 68 48.5 118t132.5 50q41 0 75 -14.5t51 -37.5
h2l28 34h6z" />
    <glyph glyph-name="T" unicode="T" horiz-adv-x="552" 
d="M622 657l-14 -152h-6q-10 70 -40 104q-31 36 -109 36h-43l-119 -481q-22 -88 -22 -118q0 -26 26 -36q12 -5 26 -5l-1 -5h-208l1 5q9 0 25 4q30 9 43 31q18 31 43 134l117 471h-44q-70 0 -119 -36q-43 -33 -91 -104h-6l52 152h489z" />
    <glyph glyph-name="U" unicode="U" horiz-adv-x="596" 
d="M676 657l-1 -5q-15 -2 -22 -4q-23 -8 -37 -28q-16 -21 -37 -102l-77 -304q-30 -119 -86.5 -173.5t-160.5 -54.5q-81 0 -134.5 42.5t-53.5 123.5q0 50 17 118l55 223q22 87 22 117q0 25 -26 36q-9 4 -26 6l2 5h206l-1 -5q-14 -2 -24 -5q-33 -10 -47 -35q-15 -26 -41 -135
l-64 -271q-10 -41 -10 -88q0 -55 34.5 -85.5t93.5 -30.5q102 0 152 54.5t76 158.5l76 301q14 55 14 82q0 34 -32 48q-8 4 -28 6l1 5h159z" />
    <glyph glyph-name="V" unicode="V" horiz-adv-x="522" 
d="M652 657l-1 -5q-14 -2 -25 -7q-37 -16 -91 -79l-475 -566h-34l121 493q22 93 22 117q0 25 -26 36q-9 4 -27 6l1 5h208l-1 -5q-2 0 -6.5 -0.5t-9 -1.5t-8.5 -2q-32 -10 -46 -33q-20 -31 -44 -133l-92 -386h4l373 445q34 41 34 67q0 22 -19 33q-15 8 -40 11l1 5h181z" />
    <glyph glyph-name="W" unicode="W" horiz-adv-x="821" 
d="M338 -1l110 477l-404 -477h-18l121 495q22 93 22 117q0 27 -24 35q-13 4 -29 6l2 5h209l-1 -5q-23 -3 -28 -5q-31 -10 -42 -30q-20 -35 -44 -133l-89 -364h5l327 385l10 44q11 48 11 62q0 25 -25 34q-13 5 -30 7l2 5h206l-1 -5q-16 -2 -24 -5q-28 -9 -44 -31
q-14 -19 -21.5 -43t-22.5 -90l-81 -362h5l355 420q33 39 33 68q0 23 -19 33q-17 8 -40 10l1 5h181l-1 -5q-23 -6 -32 -10q-38 -18 -91 -84l-471 -559h-18z" />
    <glyph glyph-name="X" unicode="X" horiz-adv-x="499" 
d="M285 117l-42 186l-159 -189q-44 -53 -44 -78q0 -13 13 -22q10 -7 26 -9l-1 -5h-147l1 5q25 5 35 10q18 9 34 25q7 7 65 74l173 206l-51 231q-9 43 -24 64q-15 19 -36 28q-13 5 -30 9l1 5h213l-1 -5q-16 -2 -27 -5q-35 -10 -35 -41q0 -15 12 -66l36 -165l137 167
q45 55 45 78q0 16 -15 24q-10 5 -24 8l1 5h145l-1 -5q-17 -4 -34 -11q-22 -11 -41 -32q-15 -15 -57 -65l-152 -186l57 -254q10 -40 22 -60q10 -17 36 -30q13 -6 31 -9l-1 -5h-216l1 5q20 2 30 5q37 9 37 43q0 5 -13 64z" />
    <glyph glyph-name="Y" unicode="Y" horiz-adv-x="470" 
d="M591 657l-1 -5q-17 -2 -34 -8q-22 -8 -41.5 -27.5t-59.5 -76.5l-178 -251l-30 -125q-24 -100 -24 -117q0 -21 20 -32q13 -7 32 -10l-1 -5h-207l1 5q17 2 31 6q26 7 40 31q14 25 32 97l34 149l-82 309q-2 8 -5 15t-6.5 12t-6.5 9t-7.5 6.5t-7 4.5t-8.5 3.5l-8 2t-8.5 1.5
t-7.5 1l1 5h193l-1 -5q-19 -2 -30 -7q-25 -9 -25 -33q0 -7 12 -57l61 -250h3l169 239q36 51 36 81q0 17 -22 23q-11 3 -22 4l1 5h157z" />
    <glyph glyph-name="Z" unicode="Z" horiz-adv-x="530" 
d="M598 657l-1 -5l-541 -640h92q114 0 189 35q41 19 71.5 44t72.5 70h6l-91 -161h-426l1 5l536 640h-116q-96 0 -164 -42q-38 -23 -115 -107h-7l92 161h401z" />
    <glyph glyph-name="bracketleft" unicode="[" horiz-adv-x="392" 
d="M477 676q0 -43 -27.5 -73t-75.5 -30q-74 0 -164 62l-178 -714q103 61 181 61q79 0 79 -65q0 -43 -38 -76l-7 5q17 19 17 39q0 24 -17 36t-58 12q-106 0 -180 -37l190 760q74 -31 161 -31q56 0 80 21t24 49q0 11 -3 18h7q9 -14 9 -37z" />
    <glyph glyph-name="backslash" unicode="\" horiz-adv-x="309" 
d="M254 -96l-13 -2l-136 777l13 3z" />
    <glyph glyph-name="bracketright" unicode="]" horiz-adv-x="395" 
d="M-73 -122q0 43 27.5 73.5t75.5 30.5q73 0 164 -63l178 714q-103 -61 -181 -61q-79 0 -79 65q0 43 38 76l7 -5q-17 -19 -17 -39q0 -24 17 -36t58 -12q106 0 180 37l-190 -760q-77 32 -161 32q-57 0 -80.5 -21.5t-23.5 -49.5q0 -11 3 -18h-7q-9 13 -9 37z" />
    <glyph glyph-name="asciicircum" unicode="^" horiz-adv-x="338" 
d="M73 409l127 248h18l127 -248h-17l-119 236l-119 -236h-17z" />
    <glyph glyph-name="underscore" unicode="_" horiz-adv-x="295" 
d="M210 -157h-305v16h305v-16z" />
    <glyph glyph-name="grave" unicode="`" horiz-adv-x="423" 
d="M429 520l-3 -4q-7 3 -103 58q-28 15 -38.5 26t-10.5 24q0 26 26 26q13 0 23 -7.5t30 -30.5q58 -68 76 -92z" />
    <glyph glyph-name="a" unicode="a" horiz-adv-x="421" 
d="M399 106q-65 -115 -128 -115q-21 0 -34.5 14t-13.5 42q0 17 13 62h-1q-28 -50 -60 -80q-40 -38 -85 -38q-31 0 -57 28t-26 92q0 61 33 134.5t88.5 127t111.5 53.5q55 0 66 -72h1q6 17 27 63h48q-8 -26 -34.5 -113t-36.5 -119q-34 -109 -34 -141q0 -20 18 -20q40 0 94 87z
M292 334q0 35 -13 58t-40 23q-29 0 -51.5 -19.5t-47.5 -58.5q-33 -51 -52 -121.5t-19 -117.5q0 -80 45 -80q31 0 59 29q26 26 52 71q21 36 44 109.5t23 106.5z" />
    <glyph glyph-name="b" unicode="b" horiz-adv-x="380" 
d="M350 291q0 -126 -82 -223q-66 -77 -144 -77q-45 0 -77 35.5t-32 91.5q0 46 30 139l105 328q17 51 17 64q0 14 -14 21q-11 5 -36 9l2 5h117q5 0 5 -5q0 -2 -13 -35q-13 -34 -30 -86l-69 -215h3q56 83 118 83q100 0 100 -135zM288 322q0 85 -49 85q-30 0 -62 -29
q-35 -33 -56 -80q-23 -50 -38.5 -114t-15.5 -102q0 -78 58 -78q72 0 121 116q42 99 42 202z" />
    <glyph glyph-name="c" unicode="c" horiz-adv-x="306" 
d="M303 360q0 -17 -8.5 -28.5t-24.5 -11.5q-33 0 -33 28q0 12 5 20q2 4 6.5 9t7 8.5t2.5 5.5q0 22 -34 22q-39 0 -71 -40q-37 -47 -63 -132.5t-26 -152.5q0 -78 55 -78q79 0 134 108l10 -6q-26 -52 -66 -86t-91 -34q-47 0 -73 36t-26 93q0 139 94 239q63 66 127 66
q27 0 51 -15.5t24 -50.5z" />
    <glyph glyph-name="d" unicode="d" horiz-adv-x="432" 
d="M472 679q0 -5 -12 -38l-29 -86l-112 -360q-36 -121 -36 -151q0 -20 17 -20q40 0 97 89l10 -5q-69 -116 -133 -116q-20 0 -34 13.5t-14 39.5q0 28 12 61h-3q-26 -42 -52 -68q-47 -47 -91 -47q-31 0 -59.5 27t-28.5 92q0 69 32 142.5t87.5 123.5t114.5 50q29 0 47 -20.5
t21 -56.5h3l77 236q16 50 16 65t-15 21q-10 5 -34 8l2 5h112q5 0 5 -5zM294 330q0 36 -14 59.5t-43 23.5q-53 0 -99 -74q-35 -56 -54 -124.5t-19 -117.5q0 -77 51 -77q30 0 61 30q28 27 54 70q26 42 44.5 107.5t18.5 102.5z" />
    <glyph glyph-name="e" unicode="e" horiz-adv-x="313" 
d="M272 298q-68 -55 -193 -100q-15 -57 -15 -105q0 -84 59 -84q39 0 74 34t55 75l10 -5q-63 -122 -156 -122q-46 0 -73 36t-27 93q0 130 100 236q65 70 132 70q33 0 51.5 -15.5t18.5 -43.5q0 -41 -36 -69zM220 413q-42 0 -79 -60t-59 -143q106 39 140 79q28 34 28 83
q0 41 -30 41z" />
    <glyph glyph-name="f" unicode="f" horiz-adv-x="252" 
d="M401 636q0 -31 -30 -31q-32 0 -32 30q0 2 1.5 16t-0.5 16q-2 15 -20 15q-25 0 -42 -28q-40 -65 -84 -237h100l-4 -14h-98q-29 -121 -62 -222t-75 -192t-94 -142.5t-108 -51.5q-37 0 -61 15t-24 41q0 17 8.5 26.5t21.5 9.5q25 0 31 -24q2 -6 2.5 -20t1.5 -18q3 -17 25 -17
q41 0 82 50q50 61 88 175.5t95 334.5l9 35h-85l4 14h84q39 154 82.5 214t108.5 60q29 0 52 -15t23 -40z" />
    <glyph glyph-name="g" unicode="g" horiz-adv-x="364" 
d="M393 393q0 -14 -7.5 -23.5t-20.5 -9.5q-18 0 -29 19q-1 2 -3 5.5t-3 5t-3 4t-4.5 3t-5.5 0.5q-8 0 -14 -10.5t-6 -19.5q0 -3 10 -31q7 -18 7 -41q0 -59 -47 -105.5t-111 -46.5q-25 0 -45 12q-65 -15 -65 -53q0 -23 21.5 -33.5t77.5 -19.5q41 -6 64.5 -12t47.5 -18
t34.5 -32.5t10.5 -51.5q0 -63 -53 -105.5t-142 -42.5q-82 0 -130 30t-48 74q0 38 41 66.5t101 40.5v2q-29 9 -45 29.5t-16 46.5q0 35 27 56.5t65 29.5q-26 18 -42 48.5t-16 64.5q0 59 46.5 105t111.5 46q55 0 83 -49h3q19 50 70 50q16 0 25.5 -10t9.5 -24zM257 320
q0 93 -55 93q-51 0 -80 -61q-21 -46 -21 -100q0 -95 57 -95q47 0 78 63q21 43 21 100zM255 -91q0 56 -75 72q-41 9 -91 15q-22 -7 -34 -12.5t-31.5 -17.5t-29.5 -30t-10 -42q0 -44 33 -69t97 -25q63 0 102 29t39 80z" />
    <glyph glyph-name="h" unicode="h" horiz-adv-x="441" 
d="M402 106q-70 -115 -136 -115q-20 0 -31 11.5t-11 29.5q0 10 2.5 23.5t9 35.5t11 37t16.5 50t18 53q44 134 44 148q0 22 -19 22q-39 0 -97 -65t-108 -184q-15 -35 -54 -152h-58l193 585q15 50 15 65q0 13 -8 20q-9 7 -32 9l2 5h105q5 0 5 -5q0 -1 -13 -40q-8 -22 -30 -90
l-101 -307h4q53 91 105.5 139t97.5 48q48 0 48 -54q0 -31 -57 -197q-41 -119 -41 -141q0 -13 13 -13q40 0 97 87z" />
    <glyph glyph-name="i" unicode="i" 
d="M203 107q-69 -116 -137 -116q-41 0 -41 48q0 16 10.5 52.5t31.5 96t24 70.5q34 107 34 124q0 20 -14 20q-26 0 -73 -77l-9 6q54 95 110 95q41 0 41 -50q0 -15 -6.5 -41t-13.5 -48t-19 -56.5t-16 -47.5q-41 -121 -41 -143q0 -16 11 -16q22 0 49 26t50 62zM144 599
q0 17 10.5 27.5t26.5 10.5q17 0 27.5 -10.5t10.5 -27.5q0 -16 -10.5 -26.5t-27.5 -10.5t-27 10t-10 27z" />
    <glyph glyph-name="j" unicode="j" horiz-adv-x="222" 
d="M188 376q0 -27 -72 -253q-48 -150 -69 -200.5t-47 -81.5q-46 -54 -108 -54q-37 0 -57 19t-20 41q0 17 8.5 28t23.5 11q32 0 32 -33q0 -7 -4 -23q-2 -10 -2 -14q0 -15 23 -15q38 0 64 45q21 37 102 291q33 101 45 146q22 76 22 97q0 20 -16 20q-13 0 -27.5 -14.5
t-43.5 -60.5l-9 5q54 96 109 96q46 0 46 -50zM159 599q0 17 10.5 27.5t26.5 10.5t27 -10.5t11 -27.5q0 -16 -10.5 -26.5t-27.5 -10.5q-16 0 -26.5 10t-10.5 27z" />
    <glyph glyph-name="k" unicode="k" horiz-adv-x="398" 
d="M411 383q0 -37 -34 -37q-11 0 -19 7t-8 19q0 7 2 13q4 12 4 14q0 6 -7 6q-15 0 -28.5 -19.5t-35.5 -62.5q-3 -7 -5 -10q-22 -43 -62 -62v-3q69 -21 69 -90q0 -22 -13 -74q-9 -35 -9 -48q0 -17 13 -17q14 0 36.5 22t40.5 51l8 -5q-58 -95 -117 -95q-18 0 -28.5 13
t-10.5 29q0 18 19 85q11 37 11 67q0 36 -16.5 46.5t-51.5 10.5h-43l-81 -243h-57l198 585q17 49 17 62q0 15 -10 23q-10 7 -31 9l2 5h107q5 0 5 -5q0 -2 -2 -7t-5.5 -14t-6.5 -16q-14 -37 -29 -84l-102 -302h51q53 0 89 69q31 60 47 77q24 25 52 25q20 0 30.5 -13t10.5 -31z
" />
    <glyph glyph-name="l" unicode="l" horiz-adv-x="225" 
d="M280 679q0 -4 -12 -35q-1 -2 -13 -33.5t-19 -52.5l-128 -374q-45 -133 -45 -148q0 -12 13 -12q21 0 53.5 28t53.5 59l9 -5q-29 -44 -68.5 -79t-76.5 -35q-18 0 -29 13t-11 32q0 10 2 21.5t8 29.5t11 33.5t16.5 47t19.5 55.5l124 361q16 48 16 62q0 15 -11 22
q-10 6 -38 10l2 5h118q5 0 5 -5z" />
    <glyph glyph-name="m" unicode="m" horiz-adv-x="642" 
d="M603 105q-26 -44 -63 -79t-71 -35q-20 0 -32 12.5t-12 33.5q0 15 9 45.5t25 77.5t23 70q6 18 19.5 56.5t20 59.5t6.5 31q0 22 -19 22q-37 0 -103.5 -87.5t-111.5 -226.5q-8 -29 -26 -85h-60q22 73 40 130t26 78l7 20q47 143 47 149q0 22 -20 22q-35 0 -92 -69t-101 -191
q-20 -52 -49 -139h-57q40 125 95 287q20 60 20 90q0 23 -15 23q-30 0 -78 -75l-8 6q29 50 60 72.5t50 22.5q41 0 41 -50q0 -36 -32 -135h3q48 92 100 138.5t94 46.5q43 0 43 -53q0 -19 -39 -136h3q51 93 100.5 141t88.5 48q22 0 35.5 -15.5t13.5 -40.5q0 -15 -8.5 -44
t-26.5 -78.5t-25 -70.5q-40 -120 -40 -140q0 -13 10 -13q22 0 50 26t49 61z" />
    <glyph glyph-name="n" unicode="n" horiz-adv-x="455" 
d="M416 106q-27 -44 -64 -79.5t-72 -35.5q-18 0 -28.5 11.5t-10.5 28.5q0 14 6 39.5t13 47t19.5 57.5t17.5 53q5 15 14.5 43t15 44.5t10 34.5t4.5 29q0 20 -17 20q-38 0 -99.5 -72.5t-109.5 -190.5q-23 -59 -49 -136h-57q16 50 52.5 160t42.5 128q21 67 21 92q0 23 -14 23
q-31 0 -75 -77l-9 5q51 95 109 95q40 0 40 -48q0 -43 -35 -148h3q55 93 108 144.5t95 51.5q49 0 49 -53q0 -12 -3 -28.5t-10 -39t-13 -40t-16 -47t-15 -44.5q-41 -125 -41 -139q0 -11 10 -11q18 0 48 27t50 60z" />
    <glyph glyph-name="o" unicode="o" horiz-adv-x="362" 
d="M332 286q0 -62 -23.5 -124.5t-64.5 -107.5q-56 -62 -130 -62q-49 0 -78.5 35.5t-29.5 95.5q0 136 87 236q59 67 135 67q50 0 77 -37t27 -103zM281 322q1 93 -56 93q-44 0 -87 -62q-31 -45 -55 -125t-22 -143q3 -82 58 -82q20 0 38 12t26.5 23t20.5 30q29 49 52.5 125
t24.5 129z" />
    <glyph glyph-name="p" unicode="p" horiz-adv-x="417" 
d="M382 297q0 -109 -69.5 -207.5t-167.5 -98.5q-45 0 -74 30l-44 -126q-13 -37 -13 -66q0 -23 22 -34q10 -5 37 -9l-1 -5h-205l2 5q32 3 47 14q28 18 49 78l139 420q17 51 17 81q0 21 -15 21q-30 0 -88 -88l-8 6q67 108 122 108q38 0 38 -43q0 -24 -6 -50h2q25 45 59 69
t64 24q93 0 93 -129zM319 312q0 90 -46 90q-35 0 -68 -35q-34 -38 -52 -94q-5 -15 -73 -223q21 -46 65 -46q35 0 60 17q47 32 80.5 122t33.5 169z" />
    <glyph glyph-name="q" unicode="q" horiz-adv-x="407" 
d="M403 414l-168 -519q-14 -46 -14 -66q0 -23 23 -35q9 -4 36 -9l-1 -4h-199l1 4q28 3 43 13q26 17 44 70l82 242h-2q-27 -44 -58 -75q-44 -44 -93 -44q-34 0 -60 28t-26 88q0 112 74 215.5t159 103.5q29 0 50.5 -19.5t28.5 -53.5h3l56 61h21zM303 323q0 41 -15 65.5
t-43 24.5q-53 0 -99 -74q-34 -55 -53.5 -126.5t-19.5 -121.5q0 -34 12 -52t31 -18q36 0 69 31q35 33 57 71q22 39 41.5 104.5t19.5 95.5z" />
    <glyph glyph-name="r" unicode="r" horiz-adv-x="321" 
d="M344 379q0 -17 -9.5 -26.5t-20.5 -9.5q-27 0 -34 32q-1 2 -1.5 6t-1 6t-1.5 5t-2 4.5t-3 2.5t-5 1q-52 0 -149 -255q-26 -69 -51 -145h-57l93 283q19 57 19 91q0 25 -18 25q-30 0 -76 -74l-8 5q28 52 58 74t53 22q43 0 43 -47q0 -40 -31 -135h3q45 106 79 144t72 38
q22 0 35 -12.5t13 -34.5z" />
    <glyph glyph-name="s" unicode="s" horiz-adv-x="291" 
d="M276 358q0 -16 -8 -27t-23 -11q-13 0 -21 8t-8 21q0 8 4 19t3 18q-3 28 -45 28q-63 0 -63 -68q0 -32 47 -105q46 -71 55 -88.5t9 -39.5q0 -55 -42.5 -88t-89.5 -33q-43 0 -75 26t-32 67q0 21 10 35t29 14q14 0 22 -9t7 -24t-12.5 -29t-11.5 -24q0 -22 18 -34t43 -12
q34 0 55 24t21 67q0 8 -0.5 14t-3.5 14t-5 12.5t-8.5 15t-10 15.5t-14 20.5t-15.5 23.5q-27 41 -37.5 65t-10.5 51q0 45 35 73.5t85 28.5q39 0 66 -21t27 -47z" />
    <glyph glyph-name="t" unicode="t" 
d="M265 403h-90l-71 -220q-39 -121 -39 -145q0 -14 12 -14q39 0 97 88l10 -5q-75 -116 -134 -116q-19 0 -31 12.5t-12 35.5q0 12 6 36t13 46t19 57.5t17 52.5l55 172h-52l4 14h52l47 155h59l-47 -155h89z" />
    <glyph glyph-name="u" unicode="u" horiz-adv-x="449" 
d="M431 107q-26 -45 -69 -80.5t-83 -35.5q-19 0 -30.5 14.5t-11.5 39.5q0 48 29 133h-3q-54 -92 -104.5 -139.5t-88.5 -47.5q-46 0 -46 56q0 26 56 194q45 135 45 146q0 12 -10 12q-25 0 -73 -74l-8 5q30 54 60 75t52 21q35 0 35 -35q0 -18 -9 -50t-27 -83.5t-24 -70.5
q-40 -128 -40 -142q0 -24 15 -24q33 0 90.5 66.5t103.5 183.5q36 92 54 146h57q-68 -201 -93 -285q-14 -49 -14 -79t19 -30q27 0 56.5 26.5t52.5 62.5z" />
    <glyph glyph-name="v" unicode="v" horiz-adv-x="364" 
d="M351 354q0 -96 -82 -224q-40 -62 -89 -100t-86 -38q-36 0 -55.5 19t-19.5 54q0 13 6 37t12 41.5t19 52t16 44.5q48 133 48 147q0 12 -10 12q-29 0 -78 -73l-8 5q30 51 61.5 73t55.5 22q35 0 35 -36q0 -16 -9.5 -46.5t-28 -82t-26.5 -75.5q-35 -109 -35 -128q0 -37 33 -37
q43 0 92.5 47.5t81 111.5t31.5 113q0 32 -12 63q-11 27 -11 42q0 28 23 28q36 0 36 -72z" />
    <glyph glyph-name="w" unicode="w" horiz-adv-x="580" 
d="M145 22q41 0 102 71q-3 21 -3 42q0 143 63 243q30 48 59 48q35 0 35 -55q0 -108 -103 -243q17 -106 82 -106q40 0 77 45q69 88 69 202q0 43 -19 87q-11 26 -11 41q0 12 6.5 20.5t17.5 8.5q18 0 28 -20.5t10 -53.5q0 -59 -23 -146t-67 -145q-53 -70 -112 -70
q-84 0 -106 88q-75 -88 -135 -88q-82 0 -82 102q0 90 113 264q-32 2 -61 21q-4 3 -13.5 10t-15.5 10.5t-10 3.5q-7 0 -7 -7q0 -4 8 -20q7 -13 7 -24q0 -10 -7 -17.5t-16 -7.5q-27 0 -27 26q0 32 34 58q24 18 40 18q6 0 13 -2t11 -4.5t11 -7t9 -5.5q28 -17 43 -17q5 0 12 10
q16 24 29 24t13 -11q0 -12 -14 -20q-31 -17 -40 -31q-26 -42 -49 -121t-23 -143q0 -78 52 -78zM292 224q0 -53 3 -80q85 118 85 196q0 63 -28 63q-12 0 -25.5 -18.5t-24 -61.5t-10.5 -99z" />
    <glyph glyph-name="x" unicode="x" horiz-adv-x="412" 
d="M428 372q0 -49 -49 -111l-7 2q26 56 26 96q0 47 -36 47q-30 0 -68 -51q-48 -72 -69 -147q-23 -87 -23 -148q0 -42 28 -42q46 0 107 97l8 -5q-27 -49 -64.5 -84t-75.5 -35q-31 0 -46 21.5t-15 56.5q0 27 5 47h-3q-58 -125 -131 -125q-23 0 -36 15t-13 39q0 44 50 111l7 -2
q-26 -52 -26 -96q0 -47 36 -47q30 0 65 48q51 70 72 149q24 90 24 149q0 43 -27 43q-49 0 -108 -98l-8 5q29 51 67 85t74 34q57 0 57 -87q0 -24 -3 -39h3q22 53 58 89.5t72 36.5q22 0 35.5 -15t13.5 -39z" />
    <glyph glyph-name="y" unicode="y" horiz-adv-x="353" 
d="M314 368q0 -146 -75 -282t-186 -232q-78 -67 -120 -67q-16 0 -29 10t-13 28q0 16 9.5 26.5t24.5 10.5q21 0 35 -21q10 -15 21 -15q17 0 54 31q50 38 104 104q-18 212 -56 366q-16 60 -38 60q-6 0 -11.5 -4t-13.5 -15.5t-11.5 -17t-13.5 -23.5l-8 4q45 95 88 95
q29 0 46 -33q19 -37 37.5 -140t28.5 -226h2q48 73 73 143.5t25 114.5q0 33 -18 69q-12 26 -12 39q0 33 28 33q29 0 29 -58z" />
    <glyph glyph-name="z" unicode="z" horiz-adv-x="369" 
d="M369 404q0 -6 -1.5 -11.5t-5 -11.5t-6.5 -10.5t-10 -11t-10.5 -10t-13 -11.5t-13.5 -11l-247 -246h4q17 0 32 -2q31 -3 61 -11q8 -2 26.5 -7.5t30 -7.5t24.5 -2q41 0 70 30q10 11 25 37l10 -5q-13 -27 -29.5 -50.5t-47 -47.5t-62.5 -24q-40 0 -77 41q-32 35 -59 35
q-15 0 -23.5 -9.5t-17.5 -32.5q-14 -34 -34 -34t-20 26q0 25 26 40q12 7 35 17l242 242h-2q-59 0 -118 41q-42 29 -64 29t-35 -14t-13 -37q0 -22 18 -32q2 39 32 39q31 0 31 -34q0 -14 -9 -23t-24 -9q-25 0 -42 18t-17 47q0 37 25 61t59 24q25 0 43.5 -9t44.5 -32
q61 -53 76 -53t22.5 10t12 32.5t6.5 28.5q9 23 28 23q17 0 17 -22z" />
    <glyph glyph-name="braceleft" unicode="{" horiz-adv-x="323" 
d="M224 -139q-64 8 -107 44t-43 91q0 25 24 92.5t24 96.5q0 46 -22.5 67t-68.5 32l3 12q45 5 75 18q33 13 49.5 34t28.5 65q4 17 9.5 60.5t8.5 58.5q13 66 75 108.5t140 44.5l-3 -11q-39 -4 -64 -12t-49.5 -37t-33.5 -78q-3 -14 -7.5 -50t-9.5 -57q-14 -56 -63 -97.5
t-112 -53.5l-1 -5q36 -16 64.5 -44t28.5 -67q0 -49 -23 -117t-23 -92q0 -41 29 -63.5t73 -28.5z" />
    <glyph glyph-name="bar" unicode="|" horiz-adv-x="197" 
d="M122 -99h-13v786h13v-786z" />
    <glyph glyph-name="braceright" unicode="}" horiz-adv-x="344" 
d="M102 674l2 11q64 -8 107 -44t43 -91q0 -25 -24 -92.5t-24 -96.5q0 -46 22.5 -67t68.5 -32l-3 -12q-45 -5 -75 -18q-33 -13 -49.5 -34t-28.5 -65q-4 -17 -9.5 -60.5t-8.5 -58.5q-13 -66 -75 -108.5t-140 -44.5l3 11q39 4 64 12t49.5 37t33.5 78q3 14 7.5 50t9.5 57
q14 56 63 97.5t112 53.5l1 5q-36 16 -64.5 44t-28.5 67q0 49 23 117t23 92q0 41 -29 63.5t-73 28.5z" />
    <glyph glyph-name="asciitilde" unicode="~" horiz-adv-x="330" 
d="M283 332q-15 -93 -82 -93q-26 0 -64.5 14.5t-61.5 14.5q-38 0 -63 -41l-5 3q31 90 84 90q25 0 62 -13t58 -13q25 0 39.5 8t26.5 31z" />
    <glyph glyph-name="uni00A0" unicode="&#xa0;" horiz-adv-x="590" 
 />
    <glyph glyph-name="exclamdown" unicode="&#xa1;" horiz-adv-x="207" 
d="M6 24q0 12 2.5 27t9 36t10.5 33t14.5 40.5t13.5 35.5q108 302 116 323h13q-46 -220 -59 -294q-28 -159 -39 -192q-17 -49 -48 -49q-33 0 -33 40zM252 626q0 -18 -12 -31t-30 -13t-30.5 13t-12.5 31t12 30.5t31 12.5q18 0 30 -12.5t12 -30.5z" />
    <glyph glyph-name="cent" unicode="&#xa2;" horiz-adv-x="319" 
d="M259 506l-22 -80q31 -2 56 -16t25 -44q0 -41 -35 -41q-14 0 -23 8t-9 23q0 12 8 25t8 15q0 13 -33 17l-109 -403q43 1 82.5 31.5t61.5 76.5l8 -5q-25 -50 -68 -85t-89 -36l-23 -87h-13l23 87q-46 2 -73.5 35.5t-27.5 94.5q0 68 28.5 137t80.5 117q51 47 109 50l22 80h13z
M57 96q0 -81 55 -86l109 403q-44 -1 -79 -46q-38 -48 -61.5 -127t-23.5 -144z" />
    <glyph glyph-name="sterling" unicode="&#xa3;" horiz-adv-x="555" 
d="M89 271h134l16 57q37 137 66 194q67 131 181 131q47 0 77.5 -27.5t30.5 -72.5q0 -58 -31.5 -87t-76.5 -29q-36 0 -63 18.5t-33 52.5l8 4q6 -23 25 -36t47 -13q36 0 57 25t21 69q0 38 -18.5 60t-51.5 22q-32 0 -56.5 -16t-39.5 -39.5t-29 -64t-22 -74.5t-20 -87t-21 -87
h183l-8 -19h-181v-3l-1 -2q-27 -88 -102 -171q111 -39 193 -39q94 0 130 69l9 -4q-16 -61 -59 -96t-101 -35q-62 0 -197 79q-67 -64 -146 -64q-37 0 -61.5 20.5t-24.5 50.5q0 26 27 44.5t62 18.5q21 0 42.5 -4t30 -6t33.5 -11.5t26 -9.5q45 77 72 163h-136zM33 6q56 0 97 59
q-65 40 -103 40q-24 0 -36.5 -14.5t-12.5 -36.5q0 -48 55 -48z" />
    <glyph glyph-name="yen" unicode="&#xa5;" horiz-adv-x="496" 
d="M412 178h-161q-22 -98 -22 -131q0 -21 20 -32q13 -7 32 -10l-1 -5h-207l1 5q17 2 31 6q26 7 39 31q15 27 38 136h-157l6 19h155l19 94h-149l6 19h146l-79 274q-2 8 -5 15t-7 12t-6.5 9t-7.5 6.5t-7.5 4.5t-8 3.5t-7.5 2t-8.5 1.5t-7.5 1l1 5h193l-1 -5q-19 -2 -30 -7
q-25 -9 -25 -33q0 -7 12 -57l60 -220h3l170 209q36 46 36 77q0 22 -22 27q-11 3 -22 4l1 5h157l-1 -5q-17 -3 -34 -8q-6 -2 -11 -4.5t-11.5 -8t-10.5 -9t-12.5 -14t-14 -17t-19 -23t-22.5 -28.5l-176 -217h164l-6 -19h-165l-22 -94h162z" />
    <glyph glyph-name="section" unicode="&#xa7;" horiz-adv-x="360" 
d="M320 181q0 -45 -31.5 -80t-76.5 -50q15 -39 15 -82q0 -64 -40.5 -110.5t-96.5 -46.5q-55 0 -77.5 20.5t-22.5 45.5q0 15 8.5 26.5t23.5 11.5q37 0 37 -38q0 -9 -1.5 -19t-1.5 -15q0 -18 37 -18q39 0 66 27.5t27 76.5q0 42 -11.5 69t-52.5 93q-8 13 -12 20
q-54 87 -68.5 118.5t-14.5 70.5q0 45 31.5 80.5t76.5 49.5q-15 37 -15 82q0 65 40 111t99 46q51 0 74.5 -20.5t23.5 -45.5q0 -15 -8.5 -26.5t-23.5 -11.5q-37 0 -37 38q0 9 1.5 19t1.5 15q0 18 -33 18q-43 0 -70 -27.5t-27 -76.5q0 -31 9 -58.5t19.5 -46t47.5 -78.5
q54 -87 68.5 -118.5t14.5 -69.5zM189 334q-33 52 -49 85q-72 -26 -72 -88q0 -15 5 -32.5t16 -38t19.5 -34.5t25.5 -40.5t24 -37.5q37 -60 48 -85q73 25 73 88q0 15 -5 32.5t-16 38t-19.5 34.5t-25.5 40.5t-24 37.5z" />
    <glyph glyph-name="dieresis" unicode="&#xa8;" horiz-adv-x="260" 
d="M69 600q0 17 11 28t27 11q17 0 28 -11.5t11 -27.5t-11 -27t-28 -11t-27.5 11t-10.5 27zM205 600q0 17 11 28t27 11q17 0 28 -11.5t11 -27.5t-11 -27t-28 -11t-27.5 11t-10.5 27z" />
    <glyph glyph-name="copyright" unicode="&#xa9;" horiz-adv-x="935" 
d="M885 257q0 -175 -119.5 -295t-294.5 -120t-295.5 120t-120.5 295q0 174 120.5 293.5t295.5 119.5t294.5 -119.5t119.5 -293.5zM869 257q0 169 -115 284t-283 115q-169 0 -284.5 -115t-115.5 -284t115.5 -285t284.5 -116q168 0 283 116t115 285zM662 190
q-37 -161 -183 -161q-96 0 -161.5 60.5t-65.5 158.5q0 110 66 174t163 64q94 0 144 -58h3l19 38h6v-153h-7q-37 158 -170 158q-40 0 -72 -19q-81 -51 -81 -197q0 -127 65 -174q41 -30 97 -30q126 0 164 142z" />
    <glyph glyph-name="ordfeminine" unicode="&#xaa;" horiz-adv-x="360" 
d="M395 353q-58 -103 -117 -103q-18 0 -31 13t-13 38q0 21 11 56h-1q-22 -43 -52 -73q-36 -34 -77 -34q-29 0 -52.5 25t-23.5 83q0 55 29.5 121.5t80 114.5t100.5 48t59 -65h1q5 15 24 57h46q-8 -24 -32 -103.5t-32 -105.5q-31 -99 -31 -127q0 -17 16 -17q36 0 85 77z
M295 559q0 72 -46 72q-44 0 -88 -69q-29 -47 -46.5 -110.5t-17.5 -104.5q0 -72 40 -72q27 0 52 26q24 26 45 64q19 33 40 98.5t21 95.5z" />
    <glyph glyph-name="guillemotleft" unicode="&#xab;" horiz-adv-x="393" 
d="M248 389l-142 -147l87 -143l-7 -7l-152 149l2 8l205 150zM409 389l-142 -147l87 -143l-7 -7l-152 149l2 8l205 150z" />
    <glyph glyph-name="registered" unicode="&#xae;" horiz-adv-x="561" 
d="M60 423q0 104 73 177t176 73t176.5 -73.5t73.5 -176.5t-73 -176t-177 -73q-103 0 -176 73t-73 176zM76 423q0 -99 67.5 -167.5t165.5 -68.5t166 69t68 167q0 99 -68 168t-166 69t-165.5 -69t-67.5 -168zM300 292h-103v4l14 3q10 4 13 13q5 16 5 67v108q0 51 -5 67
q-3 9 -13 13l-14 3v4h120q37 0 62.5 -17t25.5 -51q0 -28 -20 -46.5t-47 -22.5v-1q18 -2 29 -11q18 -15 26 -60q9 -47 26 -60q6 -4 23 -10v-3h-65q-18 18 -23 58q-9 60 -18 71q-8 10 -51 10h-17v-52q0 -51 5 -67q3 -9 13 -13l14 -3v-4zM301 563h-5q-18 0 -23 -8q-5 -7 -5 -34
v-79h24q29 0 40 3t19 13q12 15 12 46q0 30 -14 44.5t-48 14.5z" />
    <glyph glyph-name="macron" unicode="&#xaf;" horiz-adv-x="254" 
d="M240 567h-196l6 23h196z" />
    <glyph glyph-name="degree" unicode="&#xb0;" horiz-adv-x="299" 
d="M310 544q0 -56 -38.5 -92t-88.5 -36t-88.5 36t-38.5 92t38.5 92t88.5 36t88.5 -36t38.5 -92zM264 544q0 55 -22.5 85t-58.5 30t-58.5 -30t-22.5 -85t22.5 -85t58.5 -30t58.5 30t22.5 85z" />
    <glyph glyph-name="acute" unicode="&#xb4;" horiz-adv-x="430" 
d="M402 626q0 -13 -10 -22.5t-37 -23.5q-19 -10 -61 -30t-74 -36l-4 5q15 14 103 97q35 34 56 34q13 0 20 -7t7 -17z" />
    <glyph glyph-name="paragraph" unicode="&#xb6;" horiz-adv-x="453" 
d="M550 657l-3 -11h-80l-198 -797h-17l198 797h-95l-198 -797h-17l123 494h-27q-78 0 -118 41t-40 103q0 70 58 120t159 50h255z" />
    <glyph glyph-name="periodcentered" unicode="&#xb7;" horiz-adv-x="202" 
d="M62 251q0 18 12 31t30 13t30.5 -13t12.5 -31t-12 -30.5t-31 -12.5q-18 0 -30 12.5t-12 30.5z" />
    <glyph glyph-name="cedilla" unicode="&#xb8;" horiz-adv-x="343" 
d="M198 -88q0 -37 -37 -57t-85 -20q-44 0 -68 18l6 7q24 -10 53 -10q87 0 87 63q0 34 -31 34q-16 0 -29 -11l-12 4l29 60h16l-22 -47q17 10 39 10q27 0 40.5 -15.5t13.5 -35.5z" />
    <glyph glyph-name="ordmasculine" unicode="&#xba;" horiz-adv-x="302" 
d="M326 518q0 -123 -80 -209q-53 -56 -118 -56q-44 0 -71 32t-27 86q0 125 78 213q53 60 123 60q45 0 70 -34t25 -92zM279 550q1 83 -51 83q-40 0 -78 -55q-28 -41 -49.5 -112.5t-19.5 -128.5q1 -73 52 -73q40 0 76 57q27 43 48 112t22 117z" />
    <glyph glyph-name="guillemotright" unicode="&#xbb;" horiz-adv-x="370" 
d="M-22 100l141 149l-85 142l5 8l152 -149l-2 -8l-205 -150zM139 100l141 149l-85 142l5 8l152 -149l-2 -8l-205 -150z" />
    <glyph glyph-name="questiondown" unicode="&#xbf;" horiz-adv-x="401" 
d="M0 109q0 69 42.5 108t146.5 88q104 50 128 68q38 30 39 66q0 28 -16.5 44t-46.5 16q-49 0 -90 -44l-6 5q48 59 105 59q40 0 68.5 -25.5t28.5 -69.5q0 -28 -9.5 -48.5t-37.5 -41t-49.5 -32t-75.5 -36.5q-15 -7 -23 -11q-84 -40 -114 -69.5t-30 -81.5q0 -49 29.5 -77.5
t79.5 -28.5q60 0 90 32.5t30 80.5q0 36 -16.5 56.5t-42.5 20.5q-29 0 -34 -17q28 -18 28 -43q0 -18 -12 -30t-31 -12q-18 0 -28.5 11.5t-10.5 30.5q0 32 30.5 53t67.5 21q43 0 66.5 -22.5t23.5 -58.5q0 -52 -50.5 -95t-128.5 -43q-71 0 -111 35.5t-40 90.5zM379 621
q0 -19 -11 -31t-30 -12q-18 0 -30 12t-12 31t12 30.5t30 11.5q19 0 30 -11.5t11 -30.5z" />
    <glyph glyph-name="Agrave" unicode="&#xc0;" horiz-adv-x="508" 
d="M327 174l20 80h-178l-119 -141q-33 -39 -33 -63q0 -22 19 -34q14 -8 40 -11l-1 -5h-179l1 5q12 3 27 9q39 17 92 79l479 564h20l-120 -493q-24 -94 -24 -118t26 -35q9 -4 26 -6l-1 -5h-206l1 5q16 2 23 4q27 5 43 32q16 28 44 133zM419 550l-240 -284h171l74 284h-5z
M564 720l-3 -5q-113 39 -148 52q-28 11 -39.5 20t-11.5 24q0 26 27 26q16 0 48 -23q24 -17 127 -94z" />
    <glyph glyph-name="Aacute" unicode="&#xc1;" horiz-adv-x="508" 
d="M327 174l20 80h-178l-119 -141q-33 -39 -33 -63q0 -22 19 -34q14 -8 40 -11l-1 -5h-179l1 5q12 3 27 9q39 17 92 79l479 564h20l-120 -493q-24 -94 -24 -118t26 -35q9 -4 26 -6l-1 -5h-206l1 5q16 2 23 4q27 5 43 32q16 28 44 133zM419 550l-240 -284h171l74 284h-5z
M438 715l-3 5q103 77 127 94q32 23 48 23q27 0 27 -26q0 -15 -11.5 -24t-39.5 -20q-35 -13 -148 -52z" />
    <glyph glyph-name="Acircumflex" unicode="&#xc2;" horiz-adv-x="508" 
d="M327 174l20 80h-178l-119 -141q-33 -39 -33 -63q0 -22 19 -34q14 -8 40 -11l-1 -5h-179l1 5q12 3 27 9q39 17 92 79l479 564h20l-120 -493q-24 -94 -24 -118t26 -35q9 -4 26 -6l-1 -5h-206l1 5q16 2 23 4q27 5 43 32q16 28 44 133zM419 550l-240 -284h171l74 284h-5z
M608 717l-7 -4l-74 72l-128 -71l-5 4l119 116h39z" />
    <glyph glyph-name="Atilde" unicode="&#xc3;" horiz-adv-x="508" 
d="M327 174l20 80h-178l-119 -141q-33 -39 -33 -63q0 -22 19 -34q14 -8 40 -11l-1 -5h-179l1 5q12 3 27 9q39 17 92 79l479 564h20l-120 -493q-24 -94 -24 -118t26 -35q9 -4 26 -6l-1 -5h-206l1 5q16 2 23 4q27 5 43 32q16 28 44 133zM419 550l-240 -284h171l74 284h-5z
M643 804l3 -2q-29 -76 -90 -76q-24 0 -62.5 15.5t-60.5 15.5q-37 0 -75 -38l-3 3q21 35 48 55.5t53 20.5q25 0 60 -14.5t51 -14.5q25 0 41 7t35 28z" />
    <glyph glyph-name="Adieresis" unicode="&#xc4;" horiz-adv-x="508" 
d="M327 174l20 80h-178l-119 -141q-33 -39 -33 -63q0 -22 19 -34q14 -8 40 -11l-1 -5h-179l1 5q12 3 27 9q39 17 92 79l479 564h20l-120 -493q-24 -94 -24 -118t26 -35q9 -4 26 -6l-1 -5h-206l1 5q16 2 23 4q27 5 43 32q16 28 44 133zM419 550l-240 -284h171l74 284h-5z
M359 775q0 19 12.5 32t31.5 13t32 -13t13 -32t-13 -31.5t-32 -12.5t-31.5 12.5t-12.5 31.5zM560 775q0 19 12.5 32t31.5 13t32 -13t13 -32t-13 -31.5t-32 -12.5t-31.5 12.5t-12.5 31.5z" />
    <glyph glyph-name="Aring" unicode="&#xc5;" horiz-adv-x="508" 
d="M327 174l20 80h-178l-119 -141q-33 -39 -33 -63q0 -22 19 -34q14 -8 40 -11l-1 -5h-179l1 5q12 3 27 9q39 17 92 79l479 564h20l-120 -493q-24 -94 -24 -118t26 -35q9 -4 26 -6l-1 -5h-206l1 5q16 2 23 4q27 5 43 32q16 28 44 133zM419 550l-240 -284h171l74 284h-5z
M588 776q-1 -32 -21 -53.5t-50 -21.5q-31 0 -51 21.5t-20 53.5t20 53.5t51 21.5t51 -21.5t20 -53.5zM571 776q0 27 -15 44t-39 17t-39 -17t-15 -44t15.5 -44t38.5 -17t38.5 17t15.5 44z" />
    <glyph glyph-name="AE" unicode="&#xc6;" horiz-adv-x="803" 
d="M788 657v-162h-6q-5 28 -8 43t-12.5 38.5t-21.5 36t-33.5 22t-50.5 9.5h-64q-55 0 -72 -71l-55 -225h59q61 0 86.5 23t47.5 80h6l-55 -219h-6q2 24 2 36q0 19 -2 29t-9 20t-23.5 14t-44.5 4h-65l-51 -201q-14 -55 -14 -75q0 -46 53 -46h67q73 0 129 45q64 51 107 127h6
l-69 -185h-449l1 5q32 0 53.5 22.5t30 46.5t25.5 87q3 9 4 14l19 79h-208l-115 -141q-33 -39 -33 -63q0 -22 19 -34q14 -8 40 -11l-1 -5h-179l1 5q12 3 27 9q39 17 92 79l435 532q-13 22 -46 27l1 5h382zM463 611h-5l-283 -345h201z" />
    <glyph glyph-name="Ccedilla" unicode="&#xc7;" horiz-adv-x="552" 
d="M272 -88q0 -37 -37 -57t-85 -20q-44 0 -68 18l6 7q24 -10 53 -10q87 0 87 63q0 34 -31 34q-16 0 -29 -11l-12 4l27 58q-70 23 -101.5 89.5t-31.5 148.5q0 93 35.5 176.5t90.5 138.5t121 87t129 32q51 0 85.5 -20.5t49.5 -46.5h4l28 40h6l-50 -188h-6q9 201 -127 201
q-59 0 -119 -43q-63 -45 -115.5 -148t-52.5 -243q0 -110 51 -168q34 -38 95 -38q41 0 78.5 19t66 50.5t48.5 62t36 64.5l12 -6q-16 -34 -37.5 -67.5t-54 -70t-76 -59.5t-90.5 -23q-28 0 -60 7l-19 -40q17 10 39 10q27 0 40.5 -15.5t13.5 -35.5z" />
    <glyph glyph-name="Egrave" unicode="&#xc8;" horiz-adv-x="525" 
d="M442 720l-3 -5q-113 39 -148 52q-28 11 -39.5 20t-11.5 24q0 26 27 26q16 0 48 -23q24 -17 127 -94zM510 657v-162h-6q-5 28 -8 43t-12.5 38.5t-21.5 36t-33.5 22t-50.5 9.5h-64q-55 0 -72 -71l-55 -225h59q61 0 86.5 23t47.5 80h6l-55 -219h-6q2 24 2 36q0 19 -2 29
t-9 20t-23.5 14t-44.5 4h-65l-51 -201q-14 -55 -14 -75q0 -46 53 -46h67q73 0 129 45q64 51 107 127h6l-69 -185h-449l1 5q32 0 53.5 22.5t30 46.5t25.5 87q3 9 4 14l82 327q21 86 22 109q0 21 -16 31t-37 10l1 5h382z" />
    <glyph glyph-name="Eacute" unicode="&#xc9;" horiz-adv-x="525" 
d="M279 715l-3 5q103 77 127 94q32 23 48 23q27 0 27 -26q0 -15 -11.5 -24t-39.5 -20q-35 -13 -148 -52zM510 657v-162h-6q-5 28 -8 43t-12.5 38.5t-21.5 36t-33.5 22t-50.5 9.5h-64q-55 0 -72 -71l-55 -225h59q61 0 86.5 23t47.5 80h6l-55 -219h-6q2 24 2 36q0 19 -2 29
t-9 20t-23.5 14t-44.5 4h-65l-51 -201q-14 -55 -14 -75q0 -46 53 -46h67q73 0 129 45q64 51 107 127h6l-69 -185h-449l1 5q32 0 53.5 22.5t30 46.5t25.5 87q3 9 4 14l82 327q21 86 22 109q0 21 -16 31t-37 10l1 5h382z" />
    <glyph glyph-name="Ecircumflex" unicode="&#xca;" horiz-adv-x="525" 
d="M457 717l-7 -4l-74 72l-128 -71l-5 4l119 116h39zM510 657v-162h-6q-5 28 -8 43t-12.5 38.5t-21.5 36t-33.5 22t-50.5 9.5h-64q-55 0 -72 -71l-55 -225h59q61 0 86.5 23t47.5 80h6l-55 -219h-6q2 24 2 36q0 19 -2 29t-9 20t-23.5 14t-44.5 4h-65l-51 -201
q-14 -55 -14 -75q0 -46 53 -46h67q73 0 129 45q64 51 107 127h6l-69 -185h-449l1 5q32 0 53.5 22.5t30 46.5t25.5 87q3 9 4 14l82 327q21 86 22 109q0 21 -16 31t-37 10l1 5h382z" />
    <glyph glyph-name="Edieresis" unicode="&#xcb;" horiz-adv-x="525" 
d="M510 657v-162h-6q-5 28 -8 43t-12.5 38.5t-21.5 36t-33.5 22t-50.5 9.5h-64q-55 0 -72 -71l-55 -225h59q61 0 86.5 23t47.5 80h6l-55 -219h-6q2 24 2 36q0 19 -2 29t-9 20t-23.5 14t-44.5 4h-65l-51 -201q-14 -55 -14 -75q0 -46 53 -46h67q73 0 129 45q64 51 107 127h6
l-69 -185h-449l1 5q32 0 53.5 22.5t30 46.5t25.5 87q3 9 4 14l82 327q21 86 22 109q0 21 -16 31t-37 10l1 5h382zM210 775q0 19 12.5 32t31.5 13t32 -13t13 -32t-13 -31.5t-32 -12.5t-31.5 12.5t-12.5 31.5zM411 775q0 19 12.5 32t31.5 13t32 -13t13 -32t-13 -31.5
t-32 -12.5t-31.5 12.5t-12.5 31.5z" />
    <glyph glyph-name="Igrave" unicode="&#xcc;" horiz-adv-x="261" 
d="M332 657l-1 -5q-20 0 -37 -8q-25 -12 -35 -30q-15 -26 -39 -130l-79 -321q-23 -94 -23 -116q0 -26 24 -36q9 -4 28 -6l-1 -5h-208l1 5q18 2 27 4q29 7 42 32q20 36 44 132l79 321q22 87 22 116q0 27 -25 36q-12 5 -27 6l1 5h207zM312 720l-3 -5q-113 39 -148 52
q-28 11 -39.5 20t-11.5 24q0 26 27 26q16 0 48 -23q24 -17 127 -94z" />
    <glyph glyph-name="Iacute" unicode="&#xcd;" horiz-adv-x="261" 
d="M332 657l-1 -5q-20 0 -37 -8q-25 -12 -35 -30q-15 -26 -39 -130l-79 -321q-23 -94 -23 -116q0 -26 24 -36q9 -4 28 -6l-1 -5h-208l1 5q18 2 27 4q29 7 42 32q20 36 44 132l79 321q22 87 22 116q0 27 -25 36q-12 5 -27 6l1 5h207zM185 715l-3 5q104 77 127 94q32 23 48 23
q27 0 27 -26q0 -15 -11.5 -24t-39.5 -20q-35 -13 -148 -52z" />
    <glyph glyph-name="Icircumflex" unicode="&#xce;" horiz-adv-x="261" 
d="M332 657l-1 -5q-20 0 -37 -8q-25 -12 -35 -30q-15 -26 -39 -130l-79 -321q-23 -94 -23 -116q0 -26 24 -36q9 -4 28 -6l-1 -5h-208l1 5q18 2 27 4q29 7 42 32q20 36 44 132l79 321q22 87 22 116q0 27 -25 36q-12 5 -27 6l1 5h207zM349 717l-7 -4l-74 72l-128 -71l-5 4
l119 116h39z" />
    <glyph glyph-name="Idieresis" unicode="&#xcf;" horiz-adv-x="261" 
d="M332 657l-1 -5q-20 0 -37 -8q-25 -12 -35 -30q-15 -26 -39 -130l-79 -321q-23 -94 -23 -116q0 -26 24 -36q9 -4 28 -6l-1 -5h-208l1 5q18 2 27 4q29 7 42 32q20 36 44 132l79 321q22 87 22 116q0 27 -25 36q-12 5 -27 6l1 5h207zM107 775q0 19 12.5 32t31.5 13t32 -13
t13 -32t-13 -31.5t-32 -12.5t-31.5 12.5t-12.5 31.5zM308 775q0 19 12.5 32t31.5 13t32 -13t13 -32t-13 -31.5t-32 -12.5t-31.5 12.5t-12.5 31.5z" />
    <glyph glyph-name="Eth" unicode="&#xd0;" horiz-adv-x="623" 
d="M38 331l4 17h77l40 154q22 85 22 109q0 22 -22 33q-11 6 -30 8l1 5h221q116 0 186.5 -75t70.5 -175q0 -227 -205 -352q-91 -55 -197 -55h-244l1 5q12 1 26 5q32 9 43 30q18 31 43 134l40 157h-77zM529 416q0 129 -49 182q-42 46 -133 46h-40q-9 0 -17 -2t-13 -4t-10 -9
t-7.5 -10t-6 -14t-5 -15t-5 -18.5t-4.5 -19.5l-51 -204h163l-4 -17h-164l-49 -197q-14 -59 -14 -77q0 -21 9 -31q11 -13 46 -13h31q105 0 190 71q58 49 95.5 134.5t37.5 197.5z" />
    <glyph glyph-name="Ntilde" unicode="&#xd1;" horiz-adv-x="585" 
d="M656 657l-1 -5q-16 -3 -22 -5q-24 -8 -37 -27q-18 -25 -35 -92l-134 -536h-12l-230 551h-4l-102 -414q-11 -42 -11 -73q0 -36 27 -46q8 -3 29 -5l-1 -5h-164l1 5q21 3 25 4q27 8 42 26q19 23 32 76l97 389q13 54 13 75q0 23 -12.5 42t-28.5 27q-11 6 -29 9l1 4h117
l221 -548h3l102 406q14 55 14 83q0 36 -31 48q-9 4 -29 6l1 5h158zM550 804l3 -2q-29 -76 -90 -76q-24 0 -62.5 15.5t-60.5 15.5q-37 0 -75 -38l-3 3q21 35 48 55.5t53 20.5q25 0 60 -14.5t51 -14.5q44 0 76 35z" />
    <glyph glyph-name="Ograve" unicode="&#xd2;" horiz-adv-x="607" 
d="M481 720l-3 -5q-113 39 -148 52q-28 11 -39.5 20t-11.5 24q0 26 27 26q16 0 48 -23q23 -17 127 -94zM591 417q0 -89 -36.5 -182.5t-98.5 -153.5q-98 -95 -203 -95q-86 0 -144 64.5t-58 189.5q0 90 35.5 181t100.5 156q93 93 201 93q87 0 145 -63t58 -190zM519 470
q0 102 -37.5 144t-92.5 42q-65 0 -120 -50q-55 -51 -100.5 -170.5t-45.5 -249.5q0 -186 131 -186q63 0 113 43q55 47 103.5 170.5t48.5 256.5z" />
    <glyph glyph-name="Oacute" unicode="&#xd3;" horiz-adv-x="607" 
d="M355 715l-3 5q103 77 127 94q32 23 48 23q27 0 27 -26q0 -15 -11.5 -24t-39.5 -20q-35 -13 -148 -52zM591 417q0 -89 -36.5 -182.5t-98.5 -153.5q-98 -95 -203 -95q-86 0 -144 64.5t-58 189.5q0 90 35.5 181t100.5 156q93 93 201 93q87 0 145 -63t58 -190zM519 470
q0 102 -37.5 144t-92.5 42q-65 0 -120 -50q-55 -51 -100.5 -170.5t-45.5 -249.5q0 -186 131 -186q63 0 113 43q55 47 103.5 170.5t48.5 256.5z" />
    <glyph glyph-name="Ocircumflex" unicode="&#xd4;" horiz-adv-x="607" 
d="M515 717l-7 -4l-74 72l-128 -71l-5 4l119 116h39zM591 417q0 -89 -36.5 -182.5t-98.5 -153.5q-98 -95 -203 -95q-86 0 -144 64.5t-58 189.5q0 90 35.5 181t100.5 156q93 93 201 93q87 0 145 -63t58 -190zM519 470q0 102 -37.5 144t-92.5 42q-65 0 -120 -50
q-55 -51 -100.5 -170.5t-45.5 -249.5q0 -186 131 -186q63 0 113 43q55 47 103.5 170.5t48.5 256.5z" />
    <glyph glyph-name="Otilde" unicode="&#xd5;" horiz-adv-x="607" 
d="M591 417q0 -89 -36.5 -182.5t-98.5 -153.5q-98 -95 -203 -95q-86 0 -144 64.5t-58 189.5q0 90 35.5 181t100.5 156q93 93 201 93q87 0 145 -63t58 -190zM519 470q0 102 -37.5 144t-92.5 42q-65 0 -120 -50q-55 -51 -100.5 -170.5t-45.5 -249.5q0 -186 131 -186
q63 0 113 43q55 47 103.5 170.5t48.5 256.5z" />
    <glyph glyph-name="Odieresis" unicode="&#xd6;" horiz-adv-x="607" 
d="M257 775q0 19 12.5 32t31.5 13t32 -13t13 -32t-13 -31.5t-32 -12.5t-31.5 12.5t-12.5 31.5zM458 775q0 19 12.5 32t31.5 13t32 -13t13 -32t-13 -31.5t-32 -12.5t-31.5 12.5t-12.5 31.5zM591 417q0 -89 -36.5 -182.5t-98.5 -153.5q-98 -95 -203 -95q-86 0 -144 64.5
t-58 189.5q0 90 35.5 181t100.5 156q93 93 201 93q87 0 145 -63t58 -190zM519 470q0 102 -37.5 144t-92.5 42q-65 0 -120 -50q-55 -51 -100.5 -170.5t-45.5 -249.5q0 -186 131 -186q63 0 113 43q55 47 103.5 170.5t48.5 256.5z" />
    <glyph glyph-name="multiply" unicode="&#xd7;" horiz-adv-x="403" 
d="M332 99l-141 145l-140 -145l-10 9l141 146l-142 148l10 9l141 -147l142 147l10 -9l-142 -148l141 -146z" />
    <glyph glyph-name="Oslash" unicode="&#xd8;" horiz-adv-x="607" 
d="M591 417q0 -89 -36.5 -182.5t-98.5 -153.5q-98 -95 -203 -95q-42 0 -82 17l-34 -72l-18 7l35 74q-103 62 -103 228q0 90 35.5 181t100.5 156q93 93 201 93q39 0 72 -13l28 60l18 -8l-28 -59q113 -57 113 -233zM519 470q0 111 -52 158l-287 -606q30 -22 74 -22
q63 0 113 43q55 47 103.5 170.5t48.5 256.5zM123 186q0 -104 42 -151l286 605q-28 16 -62 16q-65 0 -120 -50q-55 -51 -100.5 -170.5t-45.5 -249.5z" />
    <glyph glyph-name="Ugrave" unicode="&#xd9;" horiz-adv-x="596" 
d="M502 720l-3 -5q-113 39 -148 52q-28 11 -39.5 20t-11.5 24q0 26 27 26q16 0 48 -23q23 -17 127 -94zM676 657l-1 -5q-15 -2 -22 -4q-23 -8 -37 -28q-16 -21 -37 -102l-77 -304q-30 -119 -86.5 -173.5t-160.5 -54.5q-81 0 -134.5 42.5t-53.5 123.5q0 50 17 118l55 223
q22 87 22 117q0 25 -26 36q-9 4 -26 6l2 5h206l-1 -5q-14 -2 -24 -5q-33 -10 -47 -35q-15 -26 -41 -135l-64 -271q-10 -41 -10 -88q0 -55 34.5 -85.5t93.5 -30.5q102 0 152 54.5t76 158.5l76 301q14 55 14 82q0 34 -32 48q-8 4 -28 6l1 5h159z" />
    <glyph glyph-name="Uacute" unicode="&#xda;" horiz-adv-x="596" 
d="M375 715l-3 5q103 77 127 94q32 23 48 23q27 0 27 -26q0 -15 -11.5 -24t-39.5 -20q-35 -13 -148 -52zM676 657l-1 -5q-15 -2 -22 -4q-23 -8 -37 -28q-16 -21 -37 -102l-77 -304q-30 -119 -86.5 -173.5t-160.5 -54.5q-81 0 -134.5 42.5t-53.5 123.5q0 50 17 118l55 223
q22 87 22 117q0 25 -26 36q-9 4 -26 6l2 5h206l-1 -5q-14 -2 -24 -5q-33 -10 -47 -35q-15 -26 -41 -135l-64 -271q-10 -41 -10 -88q0 -55 34.5 -85.5t93.5 -30.5q102 0 152 54.5t76 158.5l76 301q14 55 14 82q0 34 -32 48q-8 4 -28 6l1 5h159z" />
    <glyph glyph-name="Ucircumflex" unicode="&#xdb;" horiz-adv-x="596" 
d="M539 717l-7 -4l-74 72l-128 -71l-5 4l119 116h39zM676 657l-1 -5q-15 -2 -22 -4q-23 -8 -37 -28q-16 -21 -37 -102l-77 -304q-30 -119 -86.5 -173.5t-160.5 -54.5q-81 0 -134.5 42.5t-53.5 123.5q0 50 17 118l55 223q22 87 22 117q0 25 -26 36q-9 4 -26 6l2 5h206l-1 -5
q-14 -2 -24 -5q-33 -10 -47 -35q-15 -26 -41 -135l-64 -271q-10 -41 -10 -88q0 -55 34.5 -85.5t93.5 -30.5q102 0 152 54.5t76 158.5l76 301q14 55 14 82q0 34 -32 48q-8 4 -28 6l1 5h159z" />
    <glyph glyph-name="Udieresis" unicode="&#xdc;" horiz-adv-x="596" 
d="M676 657l-1 -5q-15 -2 -22 -4q-23 -8 -37 -28q-16 -21 -37 -102l-77 -304q-30 -119 -86.5 -173.5t-160.5 -54.5q-81 0 -134.5 42.5t-53.5 123.5q0 50 17 118l55 223q22 87 22 117q0 25 -26 36q-9 4 -26 6l2 5h206l-1 -5q-14 -2 -24 -5q-33 -10 -47 -35q-15 -26 -41 -135
l-64 -271q-10 -41 -10 -88q0 -55 34.5 -85.5t93.5 -30.5q102 0 152 54.5t76 158.5l76 301q14 55 14 82q0 34 -32 48q-8 4 -28 6l1 5h159zM289 775q0 19 12.5 32t31.5 13t32 -13t13 -32t-13 -31.5t-32 -12.5t-31.5 12.5t-12.5 31.5zM490 775q0 19 12.5 32t31.5 13t32 -13
t13 -32t-13 -31.5t-32 -12.5t-31.5 12.5t-12.5 31.5z" />
    <glyph glyph-name="Yacute" unicode="&#xdd;" horiz-adv-x="470" 
d="M591 657l-1 -5q-17 -2 -34 -8q-22 -8 -41.5 -27.5t-59.5 -76.5l-178 -251l-30 -125q-24 -100 -24 -117q0 -21 20 -32q13 -7 32 -10l-1 -5h-207l1 5q17 2 31 6q26 7 40 31q14 25 32 97l34 149l-82 309q-2 8 -5 15t-6.5 12t-6.5 9t-7.5 6.5t-7 4.5t-8.5 3.5l-8 2t-8.5 1.5
t-7.5 1l1 5h193l-1 -5q-19 -2 -30 -7q-25 -9 -25 -33q0 -7 12 -57l61 -250h3l169 239q36 51 36 81q0 17 -22 23q-11 3 -22 4l1 5h157zM282 715l-3 5q103 77 127 94q32 23 48 23q27 0 27 -26q0 -15 -11.5 -24t-39.5 -20q-35 -13 -148 -52z" />
    <glyph glyph-name="Thorn" unicode="&#xde;" horiz-adv-x="522" 
d="M147 180l-4 -17q-23 -97 -23 -116q0 -26 24 -36q9 -4 28 -6l-1 -5h-209l1 5q18 2 27 4q29 7 42 32q20 36 44 132l79 321q22 87 22 116q0 27 -25 36q-12 5 -27 6l1 5h207l-1 -5q-20 0 -37 -8q-25 -12 -35 -30q-14 -24 -33 -103h83q93 0 138.5 -37t45.5 -98
q0 -105 -113 -160q-25 -12 -42.5 -18.5t-51.5 -12t-78 -5.5h-62zM150 193h63q94 0 146 48q26 24 43.5 67.5t17.5 90.5q0 99 -109 99h-42q-27 0 -40 -15q-10 -13 -24 -64z" />
    <glyph glyph-name="germandbls" unicode="&#xdf;" horiz-adv-x="451" 
d="M343 234q38 -61 47.5 -83t9.5 -48q0 -50 -39 -80.5t-85 -30.5q-42 0 -72.5 26t-30.5 67q0 21 10 35t29 14q14 0 22 -9t7 -24t-12.5 -29t-11.5 -24q0 -23 16.5 -34.5t40.5 -11.5q33 0 51.5 22.5t18.5 64.5q0 25 -11 46.5t-45 72.5q-31 47 -31 85q0 31 18.5 60t45.5 52.5
t54 48t45.5 56.5t18.5 68q0 59 -22 82t-61 24q-59 2 -94 -47q-43 -59 -89 -239q-158 -623 -344 -623q-37 0 -61 15t-24 41q0 17 8.5 26.5t21.5 9.5q25 0 31 -24q2 -6 2.5 -20t1.5 -18q3 -17 25 -17q41 0 82 50q51 63 95.5 195t101.5 365q36 147 106 221t141 74
q57 0 93.5 -32.5t36.5 -82.5q0 -31 -29 -63.5t-64 -57t-64 -61t-29 -74.5q0 -18 7.5 -34t31.5 -54z" />
    <glyph glyph-name="agrave" unicode="&#xe0;" horiz-adv-x="421" 
d="M399 106q-65 -115 -128 -115q-21 0 -34.5 14t-13.5 42q0 17 13 62h-1q-28 -50 -60 -80q-40 -38 -85 -38q-31 0 -57 28t-26 92q0 61 33 134.5t88.5 127t111.5 53.5q55 0 66 -72h1q6 17 27 63h48q-8 -26 -34.5 -113t-36.5 -119q-34 -109 -34 -141q0 -20 18 -20q40 0 94 87z
M292 334q0 35 -13 58t-40 23q-29 0 -51.5 -19.5t-47.5 -58.5q-33 -51 -52 -121.5t-19 -117.5q0 -80 45 -80q31 0 59 29q26 26 52 71q21 36 44 109.5t23 106.5zM344 520l-3 -4q-7 3 -103 58q-28 15 -38.5 26t-10.5 24q0 26 26 26q13 0 23 -7.5t30 -30.5q58 -68 76 -92z" />
    <glyph glyph-name="aacute" unicode="&#xe1;" horiz-adv-x="421" 
d="M399 106q-65 -115 -128 -115q-21 0 -34.5 14t-13.5 42q0 17 13 62h-1q-28 -50 -60 -80q-40 -38 -85 -38q-31 0 -57 28t-26 92q0 61 33 134.5t88.5 127t111.5 53.5q55 0 66 -72h1q6 17 27 63h48q-8 -26 -34.5 -113t-36.5 -119q-34 -109 -34 -141q0 -20 18 -20q40 0 94 87z
M292 334q0 35 -13 58t-40 23q-29 0 -51.5 -19.5t-47.5 -58.5q-33 -51 -52 -121.5t-19 -117.5q0 -80 45 -80q31 0 59 29q26 26 52 71q21 36 44 109.5t23 106.5zM395 626q0 -13 -10 -22.5t-37 -23.5q-19 -10 -61 -30t-74 -36l-4 5q15 14 103 97q35 34 56 34q13 0 20 -7t7 -17z
" />
    <glyph glyph-name="acircumflex" unicode="&#xe2;" horiz-adv-x="421" 
d="M399 106q-65 -115 -128 -115q-21 0 -34.5 14t-13.5 42q0 17 13 62h-1q-28 -50 -60 -80q-40 -38 -85 -38q-31 0 -57 28t-26 92q0 61 33 134.5t88.5 127t111.5 53.5q55 0 66 -72h1q6 17 27 63h48q-8 -26 -34.5 -113t-36.5 -119q-34 -109 -34 -141q0 -20 18 -20q40 0 94 87z
M292 334q0 35 -13 58t-40 23q-29 0 -51.5 -19.5t-47.5 -58.5q-33 -51 -52 -121.5t-19 -117.5q0 -80 45 -80q31 0 59 29q26 26 52 71q21 36 44 109.5t23 106.5zM368 517l-4 -4l-72 89l-133 -89l-4 4l129 144h36z" />
    <glyph glyph-name="atilde" unicode="&#xe3;" horiz-adv-x="421" 
d="M399 106q-65 -115 -128 -115q-21 0 -34.5 14t-13.5 42q0 17 13 62h-1q-28 -50 -60 -80q-40 -38 -85 -38q-31 0 -57 28t-26 92q0 61 33 134.5t88.5 127t111.5 53.5q55 0 66 -72h1q6 17 27 63h48q-8 -26 -34.5 -113t-36.5 -119q-34 -109 -34 -141q0 -20 18 -20q40 0 94 87z
M292 334q0 35 -13 58t-40 23q-29 0 -51.5 -19.5t-47.5 -58.5q-33 -51 -52 -121.5t-19 -117.5q0 -80 45 -80q31 0 59 29q26 26 52 71q21 36 44 109.5t23 106.5zM417 615l3 -2q-29 -76 -90 -76q-24 0 -62.5 15.5t-60.5 15.5q-37 0 -75 -38l-3 3q21 35 48 55.5t53 20.5
q25 0 60 -14.5t51 -14.5q25 0 41 7t35 28z" />
    <glyph glyph-name="adieresis" unicode="&#xe4;" horiz-adv-x="421" 
d="M399 106q-65 -115 -128 -115q-21 0 -34.5 14t-13.5 42q0 17 13 62h-1q-28 -50 -60 -80q-40 -38 -85 -38q-31 0 -57 28t-26 92q0 61 33 134.5t88.5 127t111.5 53.5q55 0 66 -72h1q6 17 27 63h48q-8 -26 -34.5 -113t-36.5 -119q-34 -109 -34 -141q0 -20 18 -20q40 0 94 87z
M292 334q0 35 -13 58t-40 23q-29 0 -51.5 -19.5t-47.5 -58.5q-33 -51 -52 -121.5t-19 -117.5q0 -80 45 -80q31 0 59 29q26 26 52 71q21 36 44 109.5t23 106.5zM171 600q0 17 11 28t27 11q17 0 28 -11.5t11 -27.5t-11 -27t-28 -11t-27.5 11t-10.5 27zM307 600q0 17 11 28
t27 11q17 0 28 -11.5t11 -27.5t-11 -27t-28 -11t-27.5 11t-10.5 27z" />
    <glyph glyph-name="aring" unicode="&#xe5;" horiz-adv-x="421" 
d="M399 106q-65 -115 -128 -115q-21 0 -34.5 14t-13.5 42q0 17 13 62h-1q-28 -50 -60 -80q-40 -38 -85 -38q-31 0 -57 28t-26 92q0 61 33 134.5t88.5 127t111.5 53.5q55 0 66 -72h1q6 17 27 63h48q-8 -26 -34.5 -113t-36.5 -119q-34 -109 -34 -141q0 -20 18 -20q40 0 94 87z
M292 334q0 35 -13 58t-40 23q-29 0 -51.5 -19.5t-47.5 -58.5q-33 -51 -52 -121.5t-19 -117.5q0 -80 45 -80q31 0 59 29q26 26 52 71q21 36 44 109.5t23 106.5zM344 582q-1 -32 -21 -53.5t-50 -21.5q-31 0 -51 21.5t-20 53.5t20 53.5t51 21.5t51 -21.5t20 -53.5zM327 582
q0 27 -15 44t-39 17t-39 -17t-15 -44t15.5 -44t38.5 -17t38.5 17t15.5 44z" />
    <glyph glyph-name="ae" unicode="&#xe6;" horiz-adv-x="557" 
d="M516 298q-68 -55 -193 -100q-15 -57 -15 -105q0 -84 59 -84q39 0 74 34t55 75l10 -5q-63 -122 -156 -122q-46 0 -73 36t-27 93v23q-14 -35 -36.5 -67.5t-38.5 -47.5q-39 -37 -85 -37q-31 0 -57 28t-26 92q0 61 33 134.5t88.5 127t111.5 53.5q55 0 66 -72h1q6 17 27 63h41
l-20 -64h2q55 73 125 73q33 0 51.5 -15.5t18.5 -43.5q0 -41 -36 -69zM292 334q0 35 -13 58t-40 23q-29 0 -51.5 -19.5t-47.5 -58.5q-33 -51 -52 -121.5t-19 -117.5q0 -80 45 -80q32 0 59 29q25 27 52 71q21 35 44 108.5t23 107.5zM466 413q-42 0 -80 -60.5t-60 -142.5
q106 39 140 79q28 34 28 83q0 41 -28 41z" />
    <glyph glyph-name="ccedilla" unicode="&#xe7;" horiz-adv-x="306" 
d="M165 -88q0 -37 -37 -57t-85 -20q-44 0 -68 18l6 7q24 -10 53 -10q87 0 87 63q0 34 -31 34q-16 0 -29 -11l-12 4l27 57q-34 10 -51.5 43.5t-17.5 80.5q0 139 94 239q63 66 127 66q27 0 51 -15.5t24 -50.5q0 -17 -8.5 -28.5t-24.5 -11.5q-33 0 -33 28q0 12 5 20q2 4 6.5 9
t7 8.5t2.5 5.5q0 22 -34 22q-39 0 -71 -40q-37 -47 -63 -132.5t-26 -152.5q0 -78 55 -78q79 0 134 108l10 -6q-26 -52 -66 -86t-91 -34q-2 0 -7 0.5t-8 0.5l-19 -40q17 10 39 10q27 0 40.5 -15.5t13.5 -35.5z" />
    <glyph glyph-name="egrave" unicode="&#xe8;" horiz-adv-x="313" 
d="M272 298q-68 -55 -193 -100q-15 -57 -15 -105q0 -84 59 -84q39 0 74 34t55 75l10 -5q-63 -122 -156 -122q-46 0 -73 36t-27 93q0 130 100 236q65 70 132 70q33 0 51.5 -15.5t18.5 -43.5q0 -41 -36 -69zM220 413q-42 0 -79 -60t-59 -143q106 39 140 79q28 34 28 83
q0 41 -30 41zM299 520l-3 -4q-7 3 -103 58q-28 15 -38.5 26t-10.5 24q0 26 26 26q13 0 23 -7.5t30 -30.5q58 -68 76 -92z" />
    <glyph glyph-name="eacute" unicode="&#xe9;" horiz-adv-x="313" 
d="M359 626q0 -13 -10 -22.5t-37 -23.5q-19 -10 -61 -30t-74 -36l-4 5q15 14 103 97q35 34 56 34q13 0 20 -7t7 -17zM272 298q-68 -55 -193 -100q-15 -57 -15 -105q0 -84 59 -84q39 0 74 34t55 75l10 -5q-63 -122 -156 -122q-46 0 -73 36t-27 93q0 130 100 236q65 70 132 70
q33 0 51.5 -15.5t18.5 -43.5q0 -41 -36 -69zM220 413q-42 0 -79 -60t-59 -143q106 39 140 79q28 34 28 83q0 41 -30 41z" />
    <glyph glyph-name="ecircumflex" unicode="&#xea;" horiz-adv-x="313" 
d="M333 517l-4 -4l-72 89l-133 -89l-4 4l129 144h36zM272 298q-68 -55 -193 -100q-15 -57 -15 -105q0 -84 59 -84q39 0 74 34t55 75l10 -5q-63 -122 -156 -122q-46 0 -73 36t-27 93q0 130 100 236q65 70 132 70q33 0 51.5 -15.5t18.5 -43.5q0 -41 -36 -69zM220 413
q-42 0 -79 -60t-59 -143q106 39 140 79q28 34 28 83q0 41 -30 41z" />
    <glyph glyph-name="edieresis" unicode="&#xeb;" horiz-adv-x="313" 
d="M136 600q0 17 11 28t27 11t27.5 -11.5t11.5 -27.5t-11 -27t-28 -11q-16 0 -27 11t-11 27zM272 600q0 17 11 28t27 11t27.5 -11.5t11.5 -27.5t-11 -27t-28 -11q-16 0 -27 11t-11 27zM272 298q-68 -55 -193 -100q-15 -57 -15 -105q0 -84 59 -84q39 0 74 34t55 75l10 -5
q-63 -122 -156 -122q-46 0 -73 36t-27 93q0 130 100 236q65 70 132 70q33 0 51.5 -15.5t18.5 -43.5q0 -41 -36 -69zM220 413q-42 0 -79 -60t-59 -143q106 39 140 79q28 34 28 83q0 41 -30 41z" />
    <glyph glyph-name="igrave" unicode="&#xec;" 
d="M203 107q-69 -116 -137 -116q-41 0 -41 48q0 16 10.5 52.5t31.5 96t24 70.5q34 107 34 124q0 20 -14 20q-26 0 -73 -77l-9 6q54 95 110 95q41 0 41 -50q0 -15 -6.5 -41t-13.5 -48t-19 -56.5t-16 -47.5q-41 -121 -41 -143q0 -16 11 -16q22 0 49 26t50 62zM260 520l-3 -4
q-7 3 -103 58q-28 15 -38.5 26t-10.5 24q0 26 26 26q13 0 23 -7.5t30 -30.5q58 -68 76 -92z" />
    <glyph glyph-name="iacute" unicode="&#xed;" 
d="M316 626q0 -13 -10 -22.5t-37 -23.5q-19 -10 -61 -30t-74 -36l-4 5q15 14 103 97q35 34 56 34q13 0 20 -7t7 -17zM203 107q-69 -116 -137 -116q-41 0 -41 48q0 16 10.5 52.5t31.5 96t24 70.5q34 107 34 124q0 20 -14 20q-26 0 -73 -77l-9 6q54 95 110 95q41 0 41 -50
q0 -15 -6.5 -41t-13.5 -48t-19 -56.5t-16 -47.5q-41 -121 -41 -143q0 -16 11 -16q22 0 49 26t50 62z" />
    <glyph glyph-name="icircumflex" unicode="&#xee;" 
d="M283 517l-4 -4l-72 89l-133 -89l-4 4l129 144h36zM203 107q-69 -116 -137 -116q-41 0 -41 48q0 16 10.5 52.5t31.5 96t24 70.5q34 107 34 124q0 20 -14 20q-26 0 -73 -77l-9 6q54 95 110 95q41 0 41 -50q0 -15 -6.5 -41t-13.5 -48t-19 -56.5t-16 -47.5q-41 -121 -41 -143
q0 -16 11 -16q22 0 49 26t50 62z" />
    <glyph glyph-name="idieresis" unicode="&#xef;" 
d="M89 600q0 17 11 28t27 11q17 0 28 -11.5t11 -27.5t-11 -27t-28 -11t-27.5 11t-10.5 27zM225 600q0 17 11 28t27 11q17 0 28 -11.5t11 -27.5t-11 -27t-28 -11t-27.5 11t-10.5 27zM203 107q-69 -116 -137 -116q-41 0 -41 48q0 16 10.5 52.5t31.5 96t24 70.5q34 107 34 124
q0 20 -14 20q-26 0 -73 -77l-9 6q54 95 110 95q41 0 41 -50q0 -15 -6.5 -41t-13.5 -48t-19 -56.5t-16 -47.5q-41 -121 -41 -143q0 -16 11 -16q22 0 49 26t50 62z" />
    <glyph glyph-name="eth" unicode="&#xf0;" horiz-adv-x="360" 
d="M95 550l4 17l79 41q-33 45 -68 76h8q43 -28 81 -66l90 47l-4 -17l-77 -40q130 -132 130 -267q0 -92 -26.5 -167t-68.5 -121q-23 -28 -59 -44.5t-68 -16.5q-50 0 -80 35.5t-30 95.5q0 135 87 236q57 67 131 67q32 0 47 -15q-28 103 -85 186zM280 321q4 94 -56 94
q-49 0 -86 -62q-34 -54 -55.5 -126.5t-21.5 -141.5q0 -82 60 -82q20 0 37.5 12.5t25 22.5t20.5 31q29 47 51.5 122t24.5 130z" />
    <glyph glyph-name="ntilde" unicode="&#xf1;" horiz-adv-x="455" 
d="M416 106q-27 -44 -64 -79.5t-72 -35.5q-18 0 -28.5 11.5t-10.5 28.5q0 14 6 39.5t13 47t19.5 57.5t17.5 53q5 15 14.5 43t15 44.5t10 34.5t4.5 29q0 20 -17 20q-38 0 -99.5 -72.5t-109.5 -190.5q-23 -59 -49 -136h-57q16 50 52.5 160t42.5 128q21 67 21 92q0 23 -14 23
q-31 0 -75 -77l-9 5q51 95 109 95q40 0 40 -48q0 -43 -35 -148h3q55 93 108 144.5t95 51.5q49 0 49 -53q0 -12 -3 -28.5t-10 -39t-13 -40t-16 -47t-15 -44.5q-41 -125 -41 -139q0 -11 10 -11q18 0 48 27t50 60zM417 615l3 -2q-29 -76 -90 -76q-24 0 -62.5 15.5t-60.5 15.5
q-37 0 -75 -38l-3 3q21 35 48 55.5t53 20.5q25 0 60 -14.5t51 -14.5q25 0 41 7t35 28z" />
    <glyph glyph-name="ograve" unicode="&#xf2;" horiz-adv-x="362" 
d="M332 286q0 -62 -23.5 -124.5t-64.5 -107.5q-56 -62 -130 -62q-49 0 -78.5 35.5t-29.5 95.5q0 136 87 236q59 67 135 67q50 0 77 -37t27 -103zM281 322q1 93 -56 93q-44 0 -87 -62q-31 -45 -55 -125t-22 -143q3 -82 58 -82q20 0 38 12t26.5 23t20.5 30q29 49 52.5 125
t24.5 129zM320 520l-3 -4q-7 3 -103 58q-28 15 -38.5 26t-10.5 24q0 26 26 26q13 0 23 -7.5t30 -30.5q58 -68 76 -92z" />
    <glyph glyph-name="oacute" unicode="&#xf3;" horiz-adv-x="362" 
d="M381 626q0 -13 -10 -22.5t-37 -23.5q-19 -10 -61 -30t-74 -36l-4 5q15 14 103 97q35 34 56 34q13 0 20 -7t7 -17zM332 286q0 -62 -23.5 -124.5t-64.5 -107.5q-56 -62 -130 -62q-49 0 -78.5 35.5t-29.5 95.5q0 136 87 236q59 67 135 67q50 0 77 -37t27 -103zM281 322
q1 93 -56 93q-44 0 -87 -62q-31 -45 -55 -125t-22 -143q3 -82 58 -82q20 0 38 12t26.5 23t20.5 30q29 49 52.5 125t24.5 129z" />
    <glyph glyph-name="ocircumflex" unicode="&#xf4;" horiz-adv-x="362" 
d="M354 517l-4 -4l-72 89l-133 -89l-4 4l129 144h36zM332 286q0 -62 -23.5 -124.5t-64.5 -107.5q-56 -62 -130 -62q-49 0 -78.5 35.5t-29.5 95.5q0 136 87 236q59 67 135 67q50 0 77 -37t27 -103zM281 322q1 93 -56 93q-44 0 -87 -62q-31 -45 -55 -125t-22 -143
q3 -82 58 -82q20 0 38 12t26.5 23t20.5 30q29 49 52.5 125t24.5 129z" />
    <glyph glyph-name="otilde" unicode="&#xf5;" horiz-adv-x="362" 
d="M332 286q0 -62 -23.5 -124.5t-64.5 -107.5q-56 -62 -130 -62q-49 0 -78.5 35.5t-29.5 95.5q0 136 87 236q59 67 135 67q50 0 77 -37t27 -103zM281 322q1 93 -56 93q-44 0 -87 -62q-31 -45 -55 -125t-22 -143q3 -82 58 -82q20 0 38 12t26.5 23t20.5 30q29 49 52.5 125
t24.5 129zM392 615l3 -2q-29 -76 -90 -76q-24 0 -62.5 15.5t-60.5 15.5q-37 0 -75 -38l-3 3q21 35 48 55.5t53 20.5q25 0 60 -14.5t51 -14.5q44 0 76 35z" />
    <glyph glyph-name="odieresis" unicode="&#xf6;" horiz-adv-x="362" 
d="M155 600q0 17 11 28t27 11q17 0 28 -11.5t11 -27.5t-11 -27t-28 -11t-27.5 11t-10.5 27zM291 600q0 17 11 28t27 11q17 0 28 -11.5t11 -27.5t-11 -27t-28 -11t-27.5 11t-10.5 27zM332 286q0 -62 -23.5 -124.5t-64.5 -107.5q-56 -62 -130 -62q-49 0 -78.5 35.5t-29.5 95.5
q0 136 87 236q59 67 135 67q50 0 77 -37t27 -103zM281 322q1 93 -56 93q-44 0 -87 -62q-31 -45 -55 -125t-22 -143q3 -82 58 -82q20 0 38 12t26.5 23t20.5 30q29 49 52.5 125t24.5 129z" />
    <glyph glyph-name="divide" unicode="&#xf7;" horiz-adv-x="419" 
d="M246 381q0 -20 -13.5 -31t-30.5 -11q-16 0 -29.5 12t-13.5 30q0 19 13.5 31t29.5 12q17 0 30.5 -11.5t13.5 -31.5zM246 151q0 -20 -13.5 -31t-30.5 -11q-16 0 -29.5 12t-13.5 30q0 19 13.5 31t29.5 12q17 0 30.5 -11.5t13.5 -31.5zM385 259h-365v16h365v-16z" />
    <glyph glyph-name="oslash" unicode="&#xf8;" horiz-adv-x="362" 
d="M332 286q0 -62 -23.5 -124.5t-64.5 -107.5q-56 -62 -130 -62q-11 0 -31 4l-26 -60l-13 5l26 59q-64 29 -64 123q0 136 87 236q59 67 135 67q12 0 30 -4l25 56l13 -5l-25 -56q61 -29 61 -131zM61 85q1 -44 18 -65l173 389q-12 6 -27 6q-44 0 -87 -62q-31 -45 -55 -125
t-22 -143zM281 322q0 56 -18 77l-173 -389q11 -7 29 -7q20 0 38 12t26.5 23t20.5 30q29 49 52.5 125t24.5 129z" />
    <glyph glyph-name="ugrave" unicode="&#xf9;" horiz-adv-x="449" 
d="M431 107q-26 -45 -69 -80.5t-83 -35.5q-19 0 -30.5 14.5t-11.5 39.5q0 48 29 133h-3q-54 -92 -104.5 -139.5t-88.5 -47.5q-46 0 -46 56q0 26 56 194q45 135 45 146q0 12 -10 12q-25 0 -73 -74l-8 5q30 54 60 75t52 21q35 0 35 -35q0 -18 -9 -50t-27 -83.5t-24 -70.5
q-40 -128 -40 -142q0 -24 15 -24q33 0 90.5 66.5t103.5 183.5q36 92 54 146h57q-68 -201 -93 -285q-14 -49 -14 -79t19 -30q27 0 56.5 26.5t52.5 62.5zM341 520l-3 -4q-7 3 -103 58q-28 15 -38.5 26t-10.5 24q0 26 26 26q13 0 23 -7.5t30 -30.5q58 -68 76 -92z" />
    <glyph glyph-name="uacute" unicode="&#xfa;" horiz-adv-x="449" 
d="M401 626q0 -13 -10 -22.5t-37 -23.5q-19 -10 -61 -30t-74 -36l-4 5q15 14 103 97q35 34 56 34q13 0 20 -7t7 -17zM431 107q-26 -45 -69 -80.5t-83 -35.5q-19 0 -30.5 14.5t-11.5 39.5q0 48 29 133h-3q-54 -92 -104.5 -139.5t-88.5 -47.5q-46 0 -46 56q0 26 56 194
q45 135 45 146q0 12 -10 12q-25 0 -73 -74l-8 5q30 54 60 75t52 21q35 0 35 -35q0 -18 -9 -50t-27 -83.5t-24 -70.5q-40 -128 -40 -142q0 -24 15 -24q33 0 90.5 66.5t103.5 183.5q36 92 54 146h57q-68 -201 -93 -285q-14 -49 -14 -79t19 -30q27 0 56.5 26.5t52.5 62.5z" />
    <glyph glyph-name="ucircumflex" unicode="&#xfb;" horiz-adv-x="449" 
d="M374 517l-4 -4l-72 89l-133 -89l-4 4l129 144h36zM431 107q-26 -45 -69 -80.5t-83 -35.5q-19 0 -30.5 14.5t-11.5 39.5q0 48 29 133h-3q-54 -92 -104.5 -139.5t-88.5 -47.5q-46 0 -46 56q0 26 56 194q45 135 45 146q0 12 -10 12q-25 0 -73 -74l-8 5q30 54 60 75t52 21
q35 0 35 -35q0 -18 -9 -50t-27 -83.5t-24 -70.5q-40 -128 -40 -142q0 -24 15 -24q33 0 90.5 66.5t103.5 183.5q36 92 54 146h57q-68 -201 -93 -285q-14 -49 -14 -79t19 -30q27 0 56.5 26.5t52.5 62.5z" />
    <glyph glyph-name="udieresis" unicode="&#xfc;" horiz-adv-x="449" 
d="M186 600q0 17 11 28t27 11t27.5 -11.5t11.5 -27.5t-11 -27t-28 -11q-16 0 -27 11t-11 27zM322 600q0 17 11 28t27 11t27.5 -11.5t11.5 -27.5t-11 -27t-28 -11q-16 0 -27 11t-11 27zM431 107q-26 -45 -69 -80.5t-83 -35.5q-19 0 -30.5 14.5t-11.5 39.5q0 48 29 133h-3
q-54 -92 -104.5 -139.5t-88.5 -47.5q-46 0 -46 56q0 26 56 194q45 135 45 146q0 12 -10 12q-25 0 -73 -74l-8 5q30 54 60 75t52 21q35 0 35 -35q0 -18 -9 -50t-27 -83.5t-24 -70.5q-40 -128 -40 -142q0 -24 15 -24q33 0 90.5 66.5t103.5 183.5q36 92 54 146h57
q-68 -201 -93 -285q-14 -49 -14 -79t19 -30q27 0 56.5 26.5t52.5 62.5z" />
    <glyph glyph-name="yacute" unicode="&#xfd;" horiz-adv-x="353" 
d="M314 368q0 -146 -75 -282t-186 -232q-78 -67 -120 -67q-16 0 -29 10t-13 28q0 16 9.5 26.5t24.5 10.5q21 0 35 -21q10 -15 21 -15q17 0 54 31q50 38 104 104q-18 212 -56 366q-16 60 -38 60q-6 0 -11.5 -4t-13.5 -15.5t-11.5 -17t-13.5 -23.5l-8 4q45 95 88 95
q29 0 46 -33q19 -37 37.5 -140t28.5 -226h2q48 73 73 143.5t25 114.5q0 33 -18 69q-12 26 -12 39q0 33 28 33q29 0 29 -58zM337 626q0 -13 -10 -22.5t-37 -23.5q-19 -10 -61 -30t-74 -36l-4 5q15 14 103 97q35 34 56 34q13 0 20 -7t7 -17z" />
    <glyph glyph-name="thorn" unicode="&#xfe;" horiz-adv-x="386" 
d="M154 364h2q47 62 106 62q89 0 89 -129q0 -109 -71 -207.5t-169 -98.5q-44 0 -74 31l-44 -127q-13 -37 -13 -66q0 -23 22 -34q10 -5 37 -9l-1 -5h-206l2 5q32 3 47 14q28 18 49 78l242 707q16 48 16 62q0 15 -11 22q-10 6 -38 10l2 5h118q5 0 5 -5q0 -4 -12 -35
q-1 -2 -13 -33.5t-19 -52.5zM288 312q0 90 -46 90q-36 0 -68 -34q-34 -37 -52 -95q-13 -41 -40.5 -119.5t-35.5 -103.5q21 -46 65 -46q35 0 60 17q48 33 82.5 123t34.5 168z" />
    <glyph glyph-name="ydieresis" unicode="&#xff;" horiz-adv-x="353" 
d="M314 368q0 -146 -75 -282t-186 -232q-78 -67 -120 -67q-16 0 -29 10t-13 28q0 16 9.5 26.5t24.5 10.5q21 0 35 -21q10 -15 21 -15q17 0 54 31q50 38 104 104q-18 212 -56 366q-16 60 -38 60q-6 0 -11.5 -4t-13.5 -15.5t-11.5 -17t-13.5 -23.5l-8 4q45 95 88 95
q29 0 46 -33q19 -37 37.5 -140t28.5 -226h2q48 73 73 143.5t25 114.5q0 33 -18 69q-12 26 -12 39q0 33 28 33q29 0 29 -58zM83 600q0 17 11 28t27 11q17 0 28 -11.5t11 -27.5t-11 -27t-28 -11t-27.5 11t-10.5 27zM219 600q0 17 11 28t27 11q17 0 28 -11.5t11 -27.5t-11 -27
t-28 -11t-27.5 11t-10.5 27z" />
    <glyph glyph-name="Amacron" unicode="&#x100;" horiz-adv-x="508" 
d="M327 174l20 80h-178l-119 -141q-33 -39 -33 -63q0 -22 19 -34q14 -8 40 -11l-1 -5h-179l1 5q12 3 27 9q39 17 92 79l479 564h20l-120 -493q-24 -94 -24 -118t26 -35q9 -4 26 -6l-1 -5h-206l1 5q16 2 23 4q27 5 43 32q16 28 44 133zM419 550l-240 -284h171l74 284h-5z
M622 732h-216l6 23h216z" />
    <glyph glyph-name="amacron" unicode="&#x101;" horiz-adv-x="421" 
d="M399 106q-65 -115 -128 -115q-21 0 -34.5 14t-13.5 42q0 17 13 62h-1q-28 -50 -60 -80q-40 -38 -85 -38q-31 0 -57 28t-26 92q0 61 33 134.5t88.5 127t111.5 53.5q55 0 66 -72h1q6 17 27 63h48q-8 -26 -34.5 -113t-36.5 -119q-34 -109 -34 -141q0 -20 18 -20q40 0 94 87z
M292 334q0 35 -13 58t-40 23q-29 0 -51.5 -19.5t-47.5 -58.5q-33 -51 -52 -121.5t-19 -117.5q0 -80 45 -80q31 0 59 29q26 26 52 71q21 36 44 109.5t23 106.5zM377 567h-196l6 23h196z" />
    <glyph glyph-name="Abreve" unicode="&#x102;" horiz-adv-x="508" 
d="M327 174l20 80h-178l-119 -141q-33 -39 -33 -63q0 -22 19 -34q14 -8 40 -11l-1 -5h-179l1 5q12 3 27 9q39 17 92 79l479 564h20l-120 -493q-24 -94 -24 -118t26 -35q9 -4 26 -6l-1 -5h-206l1 5q16 2 23 4q27 5 43 32q16 28 44 133zM419 550l-240 -284h171l74 284h-5z
M409 826l8 5q3 -69 94 -69q93 0 128 70l7 -6q-9 -43 -45.5 -77t-92.5 -34q-44 0 -73 23t-28 65q0 11 2 23z" />
    <glyph glyph-name="abreve" unicode="&#x103;" horiz-adv-x="421" 
d="M399 106q-65 -115 -128 -115q-21 0 -34.5 14t-13.5 42q0 17 13 62h-1q-28 -50 -60 -80q-40 -38 -85 -38q-31 0 -57 28t-26 92q0 61 33 134.5t88.5 127t111.5 53.5q55 0 66 -72h1q6 17 27 63h48q-8 -26 -34.5 -113t-36.5 -119q-34 -109 -34 -141q0 -20 18 -20q40 0 94 87z
M292 334q0 35 -13 58t-40 23q-29 0 -51.5 -19.5t-47.5 -58.5q-33 -51 -52 -121.5t-19 -117.5q0 -80 45 -80q31 0 59 29q26 26 52 71q21 36 44 109.5t23 106.5zM173 648l7 5q4 -40 28 -60t60 -20q40 0 67.5 17.5t51.5 62.5l6 -4q-9 -49 -39 -86.5t-90 -37.5q-41 0 -67 27.5
t-26 71.5q0 14 2 24z" />
    <glyph glyph-name="Aogonek" unicode="&#x104;" horiz-adv-x="508" 
d="M419 550l-240 -284h171l74 284h-5zM329 185l18 69h-178l-119 -141q-33 -39 -33 -63q0 -22 19 -34q14 -8 40 -11l-1 -5h-179l1 5q12 3 27 9q39 17 92 79l479 564h20l-120 -493q-24 -94 -24 -118t26 -35q9 -4 26 -6l-1 -5h-125q-57 0 -98 -31q-57 -43 -57 -116
q0 -53 59 -61l-1 -4q-57 0 -87.5 21t-30.5 53q0 17 8.5 32.5t27.5 31t32 25t40.5 26t35.5 21.5q43 28 59 56q17 29 44 131z" />
    <glyph glyph-name="aogonek" unicode="&#x105;" horiz-adv-x="421" 
d="M399 106q-45 -77 -89 -103q-94 -69 -94 -150q0 -53 59 -60v-5q-56 -1 -87.5 19t-31.5 52q0 19 10.5 38t34.5 38.5t36.5 28.5t42.5 28q-3 -1 -9 -1q-21 0 -34.5 14t-13.5 42q0 17 13 62h-1q-28 -50 -60 -80q-40 -38 -85 -38q-31 0 -57 28t-26 92q0 61 33 134.5t88.5 127
t111.5 53.5q55 0 66 -72h1q6 17 27 63h48q-8 -26 -34.5 -113t-36.5 -119q-34 -109 -34 -141q0 -20 18 -20q40 0 94 87zM292 334q0 35 -13 58t-40 23q-29 0 -51.5 -19.5t-47.5 -58.5q-33 -51 -52 -121.5t-19 -117.5q0 -80 45 -80q31 0 59 29q26 26 52 71q21 36 44 109.5
t23 106.5z" />
    <glyph glyph-name="Cacute" unicode="&#x106;" horiz-adv-x="552" 
d="M599 643l-50 -188h-6q9 201 -127 201q-59 0 -119 -43q-63 -45 -115.5 -148t-52.5 -243q0 -110 51 -168q34 -38 95 -38q41 0 78.5 19t66 50.5t48.5 62t36 64.5l12 -6q-16 -34 -37.5 -67.5t-54 -70t-76 -59.5t-90.5 -23q-58 0 -100.5 22.5t-65 60t-32.5 79t-10 88.5
q0 93 35.5 176.5t90.5 138.5t121 87t129 32q51 0 85.5 -20.5t49.5 -46.5h4l28 40h6zM360 715l-3 5q103 77 127 94q32 23 48 23q27 0 27 -26q0 -15 -11.5 -24t-39.5 -20q-35 -13 -148 -52z" />
    <glyph glyph-name="cacute" unicode="&#x107;" horiz-adv-x="306" 
d="M366 626q0 -13 -10 -22.5t-37 -23.5q-19 -10 -61 -30t-74 -36l-4 5q15 14 103 97q35 34 56 34q13 0 20 -7t7 -17zM303 360q0 -17 -8.5 -28.5t-24.5 -11.5q-33 0 -33 28q0 12 5 20q2 4 6.5 9t7 8.5t2.5 5.5q0 22 -34 22q-39 0 -71 -40q-37 -47 -63 -132.5t-26 -152.5
q0 -78 55 -78q79 0 134 108l10 -6q-26 -52 -66 -86t-91 -34q-47 0 -73 36t-26 93q0 139 94 239q63 66 127 66q27 0 51 -15.5t24 -50.5z" />
    <glyph glyph-name="Ccircumflex" unicode="&#x108;" horiz-adv-x="552" 
d="M522 717l-7 -4l-74 72l-128 -71l-5 4l119 116h39zM599 643l-50 -188h-6q9 201 -127 201q-59 0 -119 -43q-63 -45 -115.5 -148t-52.5 -243q0 -110 51 -168q34 -38 95 -38q41 0 78.5 19t66 50.5t48.5 62t36 64.5l12 -6q-16 -34 -37.5 -67.5t-54 -70t-76 -59.5t-90.5 -23
q-58 0 -100.5 22.5t-65 60t-32.5 79t-10 88.5q0 93 35.5 176.5t90.5 138.5t121 87t129 32q51 0 85.5 -20.5t49.5 -46.5h4l28 40h6z" />
    <glyph glyph-name="ccircumflex" unicode="&#x109;" horiz-adv-x="306" 
d="M339 517l-4 -4l-72 89l-133 -89l-4 4l129 144h36zM303 360q0 -17 -8.5 -28.5t-24.5 -11.5q-33 0 -33 28q0 12 5 20q2 4 6.5 9t7 8.5t2.5 5.5q0 22 -34 22q-39 0 -71 -40q-37 -47 -63 -132.5t-26 -152.5q0 -78 55 -78q79 0 134 108l10 -6q-26 -52 -66 -86t-91 -34
q-47 0 -73 36t-26 93q0 139 94 239q63 66 127 66q27 0 51 -15.5t24 -50.5z" />
    <glyph glyph-name="Cdotaccent" unicode="&#x10a;" horiz-adv-x="552" 
d="M599 643l-50 -188h-6q9 201 -127 201q-59 0 -119 -43q-63 -45 -115.5 -148t-52.5 -243q0 -110 51 -168q34 -38 95 -38q41 0 78.5 19t66 50.5t48.5 62t36 64.5l12 -6q-16 -34 -37.5 -67.5t-54 -70t-76 -59.5t-90.5 -23q-58 0 -100.5 22.5t-65 60t-32.5 79t-10 88.5
q0 93 35.5 176.5t90.5 138.5t121 87t129 32q51 0 85.5 -20.5t49.5 -46.5h4l28 40h6zM386 771q0 17 11.5 28.5t29.5 11.5t30 -11.5t12 -28.5t-12 -28t-30 -11t-29.5 11t-11.5 28z" />
    <glyph glyph-name="cdotaccent" unicode="&#x10b;" horiz-adv-x="306" 
d="M303 360q0 -17 -8.5 -28.5t-24.5 -11.5q-33 0 -33 28q0 12 5 20q2 4 6.5 9t7 8.5t2.5 5.5q0 22 -34 22q-39 0 -71 -40q-37 -47 -63 -132.5t-26 -152.5q0 -78 55 -78q79 0 134 108l10 -6q-26 -52 -66 -86t-91 -34q-47 0 -73 36t-26 93q0 139 94 239q63 66 127 66
q27 0 51 -15.5t24 -50.5zM292 600q0 -20 -13.5 -29t-28.5 -9q-13 0 -26 10t-13 28q0 17 13 28t26 11q14 0 28 -10t14 -29z" />
    <glyph glyph-name="Ccaron" unicode="&#x10c;" horiz-adv-x="552" 
d="M340 831l7 4l78 -71l124 71l5 -4l-119 -116h-38zM599 643l-50 -188h-6q9 201 -127 201q-59 0 -119 -43q-63 -45 -115.5 -148t-52.5 -243q0 -110 51 -168q34 -38 95 -38q41 0 78.5 19t66 50.5t48.5 62t36 64.5l12 -6q-16 -34 -37.5 -67.5t-54 -70t-76 -59.5t-90.5 -23
q-58 0 -100.5 22.5t-65 60t-32.5 79t-10 88.5q0 93 35.5 176.5t90.5 138.5t121 87t129 32q51 0 85.5 -20.5t49.5 -46.5h4l28 40h6z" />
    <glyph glyph-name="ccaron" unicode="&#x10d;" horiz-adv-x="306" 
d="M175 651l4 4l73 -89l132 89l4 -4l-128 -144h-36zM303 360q0 -17 -8.5 -28.5t-24.5 -11.5q-33 0 -33 28q0 12 5 20q2 4 6.5 9t7 8.5t2.5 5.5q0 22 -34 22q-39 0 -71 -40q-37 -47 -63 -132.5t-26 -152.5q0 -78 55 -78q79 0 134 108l10 -6q-26 -52 -66 -86t-91 -34
q-47 0 -73 36t-26 93q0 139 94 239q63 66 127 66q27 0 51 -15.5t24 -50.5z" />
    <glyph glyph-name="Dcaron" unicode="&#x10e;" horiz-adv-x="623" 
d="M307 831l7 4l78 -71l124 71l5 -4l-119 -116h-38zM608 407q0 -227 -205 -352q-91 -55 -197 -55h-244l1 5q12 1 26 5q32 9 43 30q18 31 43 134l84 328q22 85 22 109q0 22 -22 33q-11 6 -30 8l1 5h221q116 0 186.5 -75t70.5 -175zM529 416q0 129 -49 182q-42 46 -133 46h-40
q-9 0 -17 -2t-13 -4t-10 -9t-7.5 -10t-6 -14t-5 -15t-5 -18.5t-4.5 -19.5l-105 -418q-14 -59 -14 -77q0 -21 9 -31q11 -13 46 -13h31q105 0 190 71q58 49 95.5 134.5t37.5 197.5z" />
    <glyph glyph-name="dcaron" unicode="&#x10f;" horiz-adv-x="432" 
d="M459 497l68 187h52q-8 -21 -27 -51.5t-47 -72t-41 -63.5h-5zM472 679q0 -5 -12 -38l-29 -86l-112 -360q-36 -121 -36 -151q0 -20 17 -20q40 0 97 89l10 -5q-69 -116 -133 -116q-20 0 -34 13.5t-14 39.5q0 28 12 61h-3q-26 -42 -52 -68q-47 -47 -91 -47q-31 0 -59.5 27
t-28.5 92q0 69 32 142.5t87.5 123.5t114.5 50q29 0 47 -20.5t21 -56.5h3l77 236q16 50 16 65t-15 21q-10 5 -34 8l2 5h112q5 0 5 -5zM294 330q0 36 -14 59.5t-43 23.5q-53 0 -99 -74q-35 -56 -54 -124.5t-19 -117.5q0 -77 51 -77q30 0 61 30q28 27 54 70q26 42 44.5 107.5
t18.5 102.5z" />
    <glyph glyph-name="Dcroat" unicode="&#x110;" horiz-adv-x="646" 
d="M43 330l5 17h94l40 155q22 85 22 109q0 22 -22 33q-11 6 -30 8l1 5h221q116 0 186.5 -75t70.5 -175q0 -227 -205 -352q-91 -55 -197 -55h-244l1 5q12 1 26 5q32 9 43 30q18 31 43 134l40 156h-95zM552 416q0 129 -49 182q-42 46 -133 46h-40q-9 0 -17 -2t-13 -4t-10 -9
t-7.5 -10t-6 -14t-5 -15t-5 -18.5t-4.5 -19.5l-52 -205h167l-4 -17h-167l-49 -196q-14 -59 -14 -77q0 -21 9 -31q11 -13 46 -13h31q105 0 190 71q58 49 95.5 134.5t37.5 197.5z" />
    <glyph glyph-name="dcroat" unicode="&#x111;" horiz-adv-x="432" 
d="M472 679q0 -5 -12 -38l-29 -86l-3 -10h66l-4 -14h-67l-104 -336q-36 -121 -36 -151q0 -20 17 -20q40 0 97 89l10 -5q-69 -116 -133 -116q-20 0 -34 13.5t-14 39.5q0 28 12 61h-3q-26 -42 -52 -68q-47 -47 -91 -47q-31 0 -59.5 27t-28.5 92q0 69 32 142.5t87.5 123.5
t114.5 50q29 0 47 -20.5t21 -56.5h3l59 182h-138l4 14h139l13 40q16 50 16 65t-15 21q-10 5 -34 8l2 5h112q5 0 5 -5zM294 330q0 36 -14 59.5t-43 23.5q-53 0 -99 -74q-35 -56 -54 -124.5t-19 -117.5q0 -77 51 -77q30 0 61 30q28 27 54 70q26 42 44.5 107.5t18.5 102.5z" />
    <glyph glyph-name="Emacron" unicode="&#x112;" horiz-adv-x="525" 
d="M510 657v-162h-6q-5 28 -8 43t-12.5 38.5t-21.5 36t-33.5 22t-50.5 9.5h-64q-55 0 -72 -71l-55 -225h59q61 0 86.5 23t47.5 80h6l-55 -219h-6q2 24 2 36q0 19 -2 29t-9 20t-23.5 14t-44.5 4h-65l-51 -201q-14 -55 -14 -75q0 -46 53 -46h67q73 0 129 45q64 51 107 127h6
l-69 -185h-449l1 5q32 0 53.5 22.5t30 46.5t25.5 87q3 9 4 14l82 327q21 86 22 109q0 21 -16 31t-37 10l1 5h382zM451 732h-216l6 23h216z" />
    <glyph glyph-name="emacron" unicode="&#x113;" horiz-adv-x="313" 
d="M272 298q-68 -55 -193 -100q-15 -57 -15 -105q0 -84 59 -84q39 0 74 34t55 75l10 -5q-63 -122 -156 -122q-46 0 -73 36t-27 93q0 130 100 236q65 70 132 70q33 0 51.5 -15.5t18.5 -43.5q0 -41 -36 -69zM220 413q-42 0 -79 -60t-59 -143q106 39 140 79q28 34 28 83
q0 41 -30 41zM342 567h-196l6 23h196z" />
    <glyph glyph-name="Ebreve" unicode="&#x114;" horiz-adv-x="525" 
d="M510 657v-162h-6q-5 28 -8 43t-12.5 38.5t-21.5 36t-33.5 22t-50.5 9.5h-64q-55 0 -72 -71l-55 -225h59q61 0 86.5 23t47.5 80h6l-55 -219h-6q2 24 2 36q0 19 -2 29t-9 20t-23.5 14t-44.5 4h-65l-51 -201q-14 -55 -14 -75q0 -46 53 -46h67q73 0 129 45q64 51 107 127h6
l-69 -185h-449l1 5q32 0 53.5 22.5t30 46.5t25.5 87q3 9 4 14l82 327q21 86 22 109q0 21 -16 31t-37 10l1 5h382zM254 826l8 5q3 -69 94 -69q93 0 128 70l7 -6q-9 -43 -45.5 -77t-92.5 -34q-44 0 -73 23t-28 65q0 11 2 23z" />
    <glyph glyph-name="ebreve" unicode="&#x115;" horiz-adv-x="313" 
d="M272 298q-68 -55 -193 -100q-15 -57 -15 -105q0 -84 59 -84q39 0 74 34t55 75l10 -5q-63 -122 -156 -122q-46 0 -73 36t-27 93q0 130 100 236q65 70 132 70q33 0 51.5 -15.5t18.5 -43.5q0 -41 -36 -69zM220 413q-42 0 -79 -60t-59 -143q106 39 140 79q28 34 28 83
q0 41 -30 41zM138 648l7 5q4 -40 28 -60t60 -20q40 0 67.5 17.5t51.5 62.5l6 -4q-9 -49 -39 -86.5t-90 -37.5q-41 0 -67 27.5t-26 71.5q0 14 2 24z" />
    <glyph glyph-name="Edotaccent" unicode="&#x116;" horiz-adv-x="525" 
d="M316 771q0 17 11.5 28.5t29.5 11.5t30 -11.5t12 -28.5t-12 -28t-30 -11t-29.5 11t-11.5 28zM510 657v-162h-6q-5 28 -8 43t-12.5 38.5t-21.5 36t-33.5 22t-50.5 9.5h-64q-55 0 -72 -71l-55 -225h59q61 0 86.5 23t47.5 80h6l-55 -219h-6q2 24 2 36q0 19 -2 29t-9 20
t-23.5 14t-44.5 4h-65l-51 -201q-14 -55 -14 -75q0 -46 53 -46h67q73 0 129 45q64 51 107 127h6l-69 -185h-449l1 5q32 0 53.5 22.5t30 46.5t25.5 87q3 9 4 14l82 327q21 86 22 109q0 21 -16 31t-37 10l1 5h382z" />
    <glyph glyph-name="edotaccent" unicode="&#x117;" horiz-adv-x="313" 
d="M272 298q-68 -55 -193 -100q-15 -57 -15 -105q0 -84 59 -84q39 0 74 34t55 75l10 -5q-63 -122 -156 -122q-46 0 -73 36t-27 93q0 130 100 236q65 70 132 70q33 0 51.5 -15.5t18.5 -43.5q0 -41 -36 -69zM220 413q-42 0 -79 -60t-59 -143q106 39 140 79q28 34 28 83
q0 41 -30 41zM286 600q0 -20 -13.5 -29t-28.5 -9q-13 0 -26 10t-13 28q0 17 13 28t26 11q14 0 28 -10t14 -29z" />
    <glyph glyph-name="Eogonek" unicode="&#x118;" horiz-adv-x="525" 
d="M510 657v-162h-6q-5 28 -8 43t-12.5 38.5t-21.5 36t-33.5 22t-50.5 9.5h-64q-55 0 -72 -71l-55 -225h59q61 0 86.5 23t47.5 80h6l-55 -219h-6q2 24 2 36q0 19 -2 29t-9 20t-23.5 14t-44.5 4h-65l-51 -201q-14 -55 -14 -75q0 -46 53 -46h67q73 0 129 45q64 51 107 127h6
l-69 -185h-63q-88 -73 -88 -147q0 -53 59 -61l-1 -4q-52 -1 -85 19.5t-33 51.5q0 23 15.5 45t33 35t47 32.5t40.5 28.5h-374l1 5q32 0 53.5 22.5t30 46.5t25.5 87q3 9 4 14l82 327q21 86 22 109q0 21 -16 31t-37 10l1 5h382z" />
    <glyph glyph-name="eogonek" unicode="&#x119;" horiz-adv-x="313" 
d="M272 298q-68 -55 -193 -100q-15 -57 -15 -105q0 -84 59 -84q39 0 74 34t55 75l10 -5q-33 -64 -79 -96h1l-1 -1l-16 -9q-52 -32 -80.5 -68t-28.5 -86q0 -53 59 -60v-5q-56 -1 -87.5 19t-31.5 52q0 9 2.5 17.5t8.5 17.5t11.5 16t16 16.5t17 15t20 14.5l19.5 13t20 13.5
t18 11.5q-12 -3 -25 -3q-46 0 -73 36t-27 93q0 130 100 236q65 70 132 70q33 0 51.5 -15.5t18.5 -43.5q0 -41 -36 -69zM220 413q-42 0 -79 -60t-59 -143q106 39 140 79q28 34 28 83q0 41 -30 41z" />
    <glyph glyph-name="Ecaron" unicode="&#x11a;" horiz-adv-x="525" 
d="M272 831l7 4l78 -71l124 71l5 -4l-119 -116h-38zM510 657v-162h-6q-5 28 -8 43t-12.5 38.5t-21.5 36t-33.5 22t-50.5 9.5h-64q-55 0 -72 -71l-55 -225h59q61 0 86.5 23t47.5 80h6l-55 -219h-6q2 24 2 36q0 19 -2 29t-9 20t-23.5 14t-44.5 4h-65l-51 -201q-14 -55 -14 -75
q0 -46 53 -46h67q73 0 129 45q64 51 107 127h6l-69 -185h-449l1 5q32 0 53.5 22.5t30 46.5t25.5 87q3 9 4 14l82 327q21 86 22 109q0 21 -16 31t-37 10l1 5h382z" />
    <glyph glyph-name="ecaron" unicode="&#x11b;" horiz-adv-x="313" 
d="M168 651l4 4l73 -89l132 89l4 -4l-128 -144h-36zM272 298q-68 -55 -193 -100q-15 -57 -15 -105q0 -84 59 -84q39 0 74 34t55 75l10 -5q-63 -122 -156 -122q-46 0 -73 36t-27 93q0 130 100 236q65 70 132 70q33 0 51.5 -15.5t18.5 -43.5q0 -41 -36 -69zM220 413
q-42 0 -79 -60t-59 -143q106 39 140 79q28 34 28 83q0 41 -30 41z" />
    <glyph glyph-name="Gcircumflex" unicode="&#x11c;" horiz-adv-x="606" 
d="M530 717l-7 -4l-74 72l-128 -71l-5 4l119 116h39zM597 297l-1 -5l-19 -4q-32 -11 -48 -40q-16 -32 -33 -108l-28 -124h-5q-6 8 -16 8q-11 0 -35 -12q-52 -26 -112 -26q-124 0 -187 72.5t-63 174.5q0 98 36.5 182.5t93 138.5t123 85t129.5 31q89 0 128 -68h4l28 41h6
l-50 -189h-6q4 105 -23.5 154t-88.5 49q-70 0 -129 -43q-27 -19 -53.5 -50t-55 -79t-46 -118.5t-17.5 -151.5q0 -122 60 -180q20 -19 50.5 -29t55.5 -10q70 0 98 28q16 16 35 93l19 80q8 35 8 57q0 23 -21 32q-10 4 -28 6l1 5h190z" />
    <glyph glyph-name="gcircumflex" unicode="&#x11d;" horiz-adv-x="364" 
d="M335 517l-4 -4l-72 89l-133 -89l-4 4l129 144h36zM393 393q0 -14 -7.5 -23.5t-20.5 -9.5q-18 0 -29 19q-1 2 -3 5.5t-3 5t-3 4t-4.5 3t-5.5 0.5q-8 0 -14 -10.5t-6 -19.5q0 -3 10 -31q7 -18 7 -41q0 -59 -47 -105.5t-111 -46.5q-25 0 -45 12q-65 -15 -65 -53
q0 -23 21.5 -33.5t77.5 -19.5q41 -6 64.5 -12t47.5 -18t34.5 -32.5t10.5 -51.5q0 -63 -53 -105.5t-142 -42.5q-82 0 -130 30t-48 74q0 38 41 66.5t101 40.5v2q-29 9 -45 29.5t-16 46.5q0 35 27 56.5t65 29.5q-26 18 -42 48.5t-16 64.5q0 59 46.5 105t111.5 46q55 0 83 -49h3
q19 50 70 50q16 0 25.5 -10t9.5 -24zM257 320q0 93 -55 93q-51 0 -80 -61q-21 -46 -21 -100q0 -95 57 -95q47 0 78 63q21 43 21 100zM255 -91q0 56 -75 72q-41 9 -91 15q-22 -7 -34 -12.5t-31.5 -17.5t-29.5 -30t-10 -42q0 -44 33 -69t97 -25q63 0 102 29t39 80z" />
    <glyph glyph-name="Gbreve" unicode="&#x11e;" horiz-adv-x="606" 
d="M307 826l8 5q3 -69 94 -69q93 0 128 70l7 -6q-9 -43 -45.5 -77t-92.5 -34q-44 0 -73 23t-28 65q0 11 2 23zM597 297l-1 -5l-19 -4q-32 -11 -48 -40q-16 -32 -33 -108l-28 -124h-5q-6 8 -16 8q-11 0 -35 -12q-52 -26 -112 -26q-124 0 -187 72.5t-63 174.5q0 98 36.5 182.5
t93 138.5t123 85t129.5 31q89 0 128 -68h4l28 41h6l-50 -189h-6q4 105 -23.5 154t-88.5 49q-70 0 -129 -43q-27 -19 -53.5 -50t-55 -79t-46 -118.5t-17.5 -151.5q0 -122 60 -180q20 -19 50.5 -29t55.5 -10q70 0 98 28q16 16 35 93l19 80q8 35 8 57q0 23 -21 32q-10 4 -28 6
l1 5h190z" />
    <glyph glyph-name="gbreve" unicode="&#x11f;" horiz-adv-x="364" 
d="M393 393q0 -14 -7.5 -23.5t-20.5 -9.5q-18 0 -29 19q-1 2 -3 5.5t-3 5t-3 4t-4.5 3t-5.5 0.5q-8 0 -14 -10.5t-6 -19.5q0 -3 10 -31q7 -18 7 -41q0 -59 -47 -105.5t-111 -46.5q-25 0 -45 12q-65 -15 -65 -53q0 -23 21.5 -33.5t77.5 -19.5q41 -6 64.5 -12t47.5 -18
t34.5 -32.5t10.5 -51.5q0 -63 -53 -105.5t-142 -42.5q-82 0 -130 30t-48 74q0 38 41 66.5t101 40.5v2q-29 9 -45 29.5t-16 46.5q0 35 27 56.5t65 29.5q-26 18 -42 48.5t-16 64.5q0 59 46.5 105t111.5 46q55 0 83 -49h3q19 50 70 50q16 0 25.5 -10t9.5 -24zM257 320
q0 93 -55 93q-51 0 -80 -61q-21 -46 -21 -100q0 -95 57 -95q47 0 78 63q21 43 21 100zM255 -91q0 56 -75 72q-41 9 -91 15q-22 -7 -34 -12.5t-31.5 -17.5t-29.5 -30t-10 -42q0 -44 33 -69t97 -25q63 0 102 29t39 80zM140 648l7 5q4 -40 28 -60t60 -20q40 0 67.5 17.5
t51.5 62.5l6 -4q-9 -49 -39 -86.5t-90 -37.5q-41 0 -67 27.5t-26 71.5q0 14 2 24z" />
    <glyph glyph-name="Gdotaccent" unicode="&#x120;" horiz-adv-x="612" 
d="M597 297l-1 -5l-19 -4q-32 -11 -48 -40q-16 -32 -33 -108l-28 -124h-5q-6 8 -16 8q-11 0 -35 -12q-52 -26 -112 -26q-124 0 -187 72.5t-63 174.5q0 98 36.5 182.5t93 138.5t123 85t129.5 31q89 0 128 -68h4l28 41h6l-50 -189h-6q4 105 -23.5 154t-88.5 49q-70 0 -129 -43
q-27 -19 -53.5 -50t-55 -79t-46 -118.5t-17.5 -151.5q0 -122 60 -180q20 -19 50.5 -29t55.5 -10q70 0 98 28q16 16 35 93l19 80q8 35 8 57q0 23 -21 32q-10 4 -28 6l1 5h190zM386 771q0 17 11.5 28.5t29.5 11.5t30 -11.5t12 -28.5t-12 -28t-30 -11t-29.5 11t-11.5 28z" />
    <glyph glyph-name="gdotaccent" unicode="&#x121;" horiz-adv-x="364" 
d="M393 393q0 -14 -7.5 -23.5t-20.5 -9.5q-18 0 -29 19q-1 2 -3 5.5t-3 5t-3 4t-4.5 3t-5.5 0.5q-8 0 -14 -10.5t-6 -19.5q0 -3 10 -31q7 -18 7 -41q0 -59 -47 -105.5t-111 -46.5q-25 0 -45 12q-65 -15 -65 -53q0 -23 21.5 -33.5t77.5 -19.5q41 -6 64.5 -12t47.5 -18
t34.5 -32.5t10.5 -51.5q0 -63 -53 -105.5t-142 -42.5q-82 0 -130 30t-48 74q0 38 41 66.5t101 40.5v2q-29 9 -45 29.5t-16 46.5q0 35 27 56.5t65 29.5q-26 18 -42 48.5t-16 64.5q0 59 46.5 105t111.5 46q55 0 83 -49h3q19 50 70 50q16 0 25.5 -10t9.5 -24zM257 320
q0 93 -55 93q-51 0 -80 -61q-21 -46 -21 -100q0 -95 57 -95q47 0 78 63q21 43 21 100zM255 -91q0 56 -75 72q-41 9 -91 15q-22 -7 -34 -12.5t-31.5 -17.5t-29.5 -30t-10 -42q0 -44 33 -69t97 -25q63 0 102 29t39 80zM288 600q0 -20 -13.5 -29t-28.5 -9q-13 0 -26 10t-13 28
q0 17 13 28t26 11q14 0 28 -10t14 -29z" />
    <glyph glyph-name="Gcommaaccent" unicode="&#x122;" horiz-adv-x="612" 
d="M251 -89q0 -47 -33.5 -81.5t-88.5 -51.5l-3 9q40 12 62.5 33.5t22.5 40.5q0 8 -2 16q-42 3 -42 41q0 16 10.5 28.5t31.5 12.5q17 0 29.5 -13t12.5 -35zM597 297l-1 -5l-19 -4q-32 -11 -48 -40q-16 -32 -33 -108l-28 -124h-5q-6 8 -16 8q-11 0 -35 -12q-52 -26 -112 -26
q-124 0 -187 72.5t-63 174.5q0 98 36.5 182.5t93 138.5t123 85t129.5 31q89 0 128 -68h4l28 41h6l-50 -189h-6q4 105 -23.5 154t-88.5 49q-70 0 -129 -43q-27 -19 -53.5 -50t-55 -79t-46 -118.5t-17.5 -151.5q0 -122 60 -180q20 -19 50.5 -29t55.5 -10q70 0 98 28
q16 16 35 93l19 80q8 35 8 57q0 23 -21 32q-10 4 -28 6l1 5h190z" />
    <glyph glyph-name="gcommaaccent" unicode="&#x123;" horiz-adv-x="364" 
d="M177 603q0 91 119 117l2 -9q-81 -21 -81 -62q0 -9 2 -13q42 -3 42 -41q0 -17 -11 -29t-30 -12t-31 14t-12 35zM393 393q0 -14 -7.5 -23.5t-20.5 -9.5q-18 0 -29 19q-1 2 -3 5.5t-3 5t-3 4t-4.5 3t-5.5 0.5q-8 0 -14 -10.5t-6 -19.5q0 -3 10 -31q7 -18 7 -41
q0 -59 -47 -105.5t-111 -46.5q-25 0 -45 12q-65 -15 -65 -53q0 -23 21.5 -33.5t77.5 -19.5q41 -6 64.5 -12t47.5 -18t34.5 -32.5t10.5 -51.5q0 -63 -53 -105.5t-142 -42.5q-82 0 -130 30t-48 74q0 38 41 66.5t101 40.5v2q-29 9 -45 29.5t-16 46.5q0 35 27 56.5t65 29.5
q-26 18 -42 48.5t-16 64.5q0 59 46.5 105t111.5 46q55 0 83 -49h3q19 50 70 50q16 0 25.5 -10t9.5 -24zM257 320q0 93 -55 93q-51 0 -80 -61q-21 -46 -21 -100q0 -95 57 -95q47 0 78 63q21 43 21 100zM255 -91q0 56 -75 72q-41 9 -91 15q-22 -7 -34 -12.5t-31.5 -17.5
t-29.5 -30t-10 -42q0 -44 33 -69t97 -25q63 0 102 29t39 80z" />
    <glyph glyph-name="Hcircumflex" unicode="&#x124;" horiz-adv-x="599" 
d="M672 657l-1 -5q-2 0 -7 -1t-9.5 -1.5t-8.5 -1.5q-35 -9 -48 -33q-14 -25 -40 -132l-78 -318q-23 -97 -23 -118q0 -24 27 -36q4 -2 25 -6l-1 -5h-205l1 5q6 0 20 3q33 11 45 34q22 40 45 133l39 154h-271l-41 -164q-22 -88 -22 -117q0 -27 27 -37q11 -4 22 -6l-1 -5h-205
l1 5q14 0 26 3q30 9 43 34q16 29 43 133l79 318q22 87 22 118q0 24 -26 35q-3 1 -27 6l1 5h208l-1 -5q-16 -2 -22 -4q-35 -11 -49 -33q-13 -21 -40 -132l-35 -141h271l36 151q23 90 23 118q0 25 -28 36q-5 2 -21 5l1 5h205zM522 717l-7 -4l-74 72l-128 -71l-5 4l119 116h39z
" />
    <glyph glyph-name="hcircumflex" unicode="&#x125;" horiz-adv-x="441" 
d="M402 106q-70 -115 -136 -115q-20 0 -31 11.5t-11 29.5q0 10 2.5 23.5t9 35.5t11 37t16.5 50t18 53q44 134 44 148q0 22 -19 22q-39 0 -97 -65t-108 -184q-15 -35 -54 -152h-58l193 585q15 50 15 65q0 13 -8 20q-9 7 -32 9l2 5h105q5 0 5 -5q0 -1 -13 -40q-8 -22 -30 -90
l-101 -307h4q53 91 105.5 139t97.5 48q48 0 48 -54q0 -31 -57 -197q-41 -119 -41 -141q0 -13 13 -13q40 0 97 87zM451 713l-7 -4l-74 72l-128 -71l-5 4l119 116h39z" />
    <glyph glyph-name="Hbar" unicode="&#x126;" horiz-adv-x="603" 
d="M674 657l-1 -5q-2 0 -7 -1t-9.5 -1.5t-8.5 -1.5q-35 -9 -48 -33q-14 -25 -40 -132v-1h99l-3 -13h-99l-75 -304q-23 -97 -23 -118q0 -24 27 -36q4 -2 25 -6l-1 -5h-205l1 5q6 0 20 3q33 11 45 34q22 40 45 133l39 154h-271l-41 -164q-22 -88 -22 -117q0 -27 27 -37
q11 -4 22 -6l-1 -5h-205l1 5q14 0 26 3q30 9 43 34q16 29 43 133l73 294h-93l4 13h92l3 11q22 87 22 118q0 24 -26 35q-3 1 -27 6l1 5h208l-1 -5q-16 -2 -22 -4q-35 -11 -49 -33q-13 -21 -40 -132l-1 -1h270l3 11q23 90 23 118q0 25 -28 36q-5 2 -21 5l1 5h205zM187 342h271
l30 127h-270z" />
    <glyph glyph-name="hbar" unicode="&#x127;" horiz-adv-x="441" 
d="M402 106q-70 -115 -136 -115q-20 0 -31 11.5t-11 29.5q0 10 2.5 23.5t9 35.5t11 37t16.5 50t18 53q44 134 44 148q0 22 -19 22q-39 0 -97 -65t-108 -184q-15 -35 -54 -152h-58l175 531h-60l4 14h60l14 40q15 50 15 65q0 13 -8 20q-9 7 -32 9l2 5h105q5 0 5 -5
q0 -1 -13 -40q-8 -22 -30 -90l-2 -4h131l-4 -14h-131l-95 -289h4q53 91 105.5 139t97.5 48q48 0 48 -54q0 -31 -57 -197q-41 -119 -41 -141q0 -13 13 -13q40 0 97 87z" />
    <glyph glyph-name="Itilde" unicode="&#x128;" horiz-adv-x="261" 
d="M332 657l-1 -5q-20 0 -37 -8q-25 -12 -35 -30q-15 -26 -39 -130l-79 -321q-23 -94 -23 -116q0 -26 24 -36q9 -4 28 -6l-1 -5h-208l1 5q18 2 27 4q29 7 42 32q20 36 44 132l79 321q22 87 22 116q0 27 -25 36q-12 5 -27 6l1 5h207zM388 804l3 -2q-29 -76 -90 -76
q-24 0 -62.5 15.5t-60.5 15.5q-37 0 -75 -38l-3 3q21 35 48 55.5t53 20.5q25 0 60 -14.5t51 -14.5q44 0 76 35z" />
    <glyph glyph-name="itilde" unicode="&#x129;" 
d="M203 107q-69 -116 -137 -116q-41 0 -41 48q0 16 10.5 52.5t31.5 96t24 70.5q34 107 34 124q0 20 -14 20q-26 0 -73 -77l-9 6q54 95 110 95q41 0 41 -50q0 -15 -6.5 -41t-13.5 -48t-19 -56.5t-16 -47.5q-41 -121 -41 -143q0 -16 11 -16q22 0 49 26t50 62zM309 615l3 -2
q-29 -76 -90 -76q-24 0 -62.5 15.5t-60.5 15.5q-37 0 -75 -38l-3 3q21 35 48 55.5t53 20.5q25 0 60 -14.5t51 -14.5q25 0 41 7t35 28z" />
    <glyph glyph-name="Imacron" unicode="&#x12a;" horiz-adv-x="261" 
d="M332 657l-1 -5q-20 0 -37 -8q-25 -12 -35 -30q-15 -26 -39 -130l-79 -321q-23 -94 -23 -116q0 -26 24 -36q9 -4 28 -6l-1 -5h-208l1 5q18 2 27 4q29 7 42 32q20 36 44 132l79 321q22 87 22 116q0 27 -25 36q-12 5 -27 6l1 5h207zM356 732h-216l6 23h216z" />
    <glyph glyph-name="imacron" unicode="&#x12b;" 
d="M254 567h-168l5 23h169zM203 107q-69 -116 -137 -116q-41 0 -41 48q0 16 10.5 52.5t31.5 96t24 70.5q34 107 34 124q0 20 -14 20q-26 0 -73 -77l-9 6q54 95 110 95q41 0 41 -50q0 -15 -6.5 -41t-13.5 -48t-19 -56.5t-16 -47.5q-41 -121 -41 -143q0 -16 11 -16q22 0 49 26
t50 62z" />
    <glyph glyph-name="Ibreve" unicode="&#x12c;" horiz-adv-x="261" 
d="M332 657l-1 -5q-20 0 -37 -8q-25 -12 -35 -30q-15 -26 -39 -130l-79 -321q-23 -94 -23 -116q0 -26 24 -36q9 -4 28 -6l-1 -5h-208l1 5q18 2 27 4q29 7 42 32q20 36 44 132l79 321q22 87 22 116q0 27 -25 36q-12 5 -27 6l1 5h207zM145 826l8 5q3 -69 94 -69q93 0 128 70
l7 -6q-9 -43 -45.5 -77t-92.5 -34q-44 0 -73 23t-28 65q0 11 2 23z" />
    <glyph glyph-name="ibreve" unicode="&#x12d;" 
d="M203 107q-69 -116 -137 -116q-41 0 -41 48q0 16 10.5 52.5t31.5 96t24 70.5q34 107 34 124q0 20 -14 20q-26 0 -73 -77l-9 6q54 95 110 95q41 0 41 -50q0 -15 -6.5 -41t-13.5 -48t-19 -56.5t-16 -47.5q-41 -121 -41 -143q0 -16 11 -16q22 0 49 26t50 62zM99 648l7 5
q4 -40 28 -60t60 -20q40 0 67.5 17.5t51.5 62.5l6 -4q-9 -49 -39 -86.5t-90 -37.5q-41 0 -67 27.5t-26 71.5q0 14 2 24z" />
    <glyph glyph-name="Iogonek" unicode="&#x12e;" horiz-adv-x="261" 
d="M332 657l-1 -5q-20 0 -37 -8q-25 -12 -35 -30q-15 -26 -39 -130l-79 -321q-23 -94 -23 -116q0 -26 24 -36q9 -4 28 -6l-1 -5h-60q-37 -36 -56.5 -69.5t-19.5 -77.5q0 -53 59 -61l-1 -4q-54 -1 -86 19t-32 52q0 23 21 50.5t38 41.5t55 42q3 3 5 4.5t4 2.5h-135l1 5
q18 2 27 4q29 7 42 32q20 36 44 132l79 321q22 87 22 116q0 27 -25 36q-12 5 -27 6l1 5h207z" />
    <glyph glyph-name="iogonek" unicode="&#x12f;" 
d="M129 17q-1 -1 -2 -1l-14 -10q-46 -33 -72 -68.5t-26 -84.5q0 -53 59 -60v-5q-56 -1 -87.5 19t-31.5 52q0 19 10.5 37.5t35 38.5t36.5 28.5t43 28.5v1q-10 -2 -14 -2q-41 0 -41 48q0 16 10.5 52.5t31.5 96t24 70.5q34 107 34 124q0 20 -14 20q-26 0 -73 -77l-9 6
q54 95 110 95q41 0 41 -50q0 -15 -6.5 -41t-13.5 -48t-19 -56.5t-16 -47.5q-41 -121 -41 -143q0 -16 11 -16q22 0 49 26t50 62l9 -5q-37 -62 -75 -91zM144 599q0 17 10.5 27.5t26.5 10.5q17 0 27.5 -10.5t10.5 -27.5q0 -16 -10.5 -26.5t-27.5 -10.5t-27 10t-10 27zM127 15v1
h1z" />
    <glyph glyph-name="Idotaccent" unicode="&#x130;" horiz-adv-x="259" 
d="M332 657l-1 -5q-20 0 -37 -8q-25 -12 -35 -30q-15 -26 -39 -130l-79 -321q-23 -94 -23 -116q0 -26 24 -36q9 -4 28 -6l-1 -5h-208l1 5q18 2 27 4q29 7 42 32q20 36 44 132l79 321q22 87 22 116q0 27 -25 36q-12 5 -27 6l1 5h207zM206 771q0 17 11.5 28.5t29.5 11.5
t30 -11.5t12 -28.5t-12 -28t-30 -11t-29.5 11t-11.5 28z" />
    <glyph glyph-name="dotlessi" unicode="&#x131;" 
d="M203 107q-69 -116 -137 -116q-41 0 -41 48q0 16 10.5 52.5t31.5 96t24 70.5q34 107 34 124q0 20 -14 20q-26 0 -73 -77l-9 6q54 95 110 95q41 0 41 -50q0 -15 -6.5 -41t-13.5 -48t-19 -56.5t-16 -47.5q-41 -121 -41 -143q0 -16 11 -16q22 0 49 26t50 62z" />
    <glyph glyph-name="IJ" unicode="&#x132;" horiz-adv-x="617" 
d="M333 657l-1 -5q-20 0 -37 -8q-25 -12 -35 -30q-15 -26 -39 -130l-79 -321q-23 -94 -23 -116q0 -26 24 -36q9 -4 28 -6l-1 -5h-208l1 5q18 2 27 4q29 7 42 32q20 36 44 132l79 321q22 87 22 116q0 27 -25 36q-12 5 -27 6l1 5h207zM694 657l-1 -5q-23 -3 -31 -6
q-26 -8 -41 -32q-13 -20 -40 -131l-81 -335q-15 -63 -62.5 -112.5t-120.5 -49.5q-40 0 -71.5 26t-31.5 66q0 24 12.5 38.5t34.5 14.5q20 0 30.5 -11.5t10.5 -28.5q0 -21 -18 -43q-2 -3 -5 -5.5t-5 -4.5l-3.5 -3.5l-3 -3t-2 -3.5t-0.5 -4q0 -10 16.5 -18t33.5 -8q46 0 69 27
q25 29 46 116l86 352q24 94 24 118t-24 34q-11 5 -29 7l1 5h206z" />
    <glyph glyph-name="ij" unicode="&#x133;" horiz-adv-x="425" 
d="M203 107q-69 -116 -137 -116q-41 0 -41 48q0 16 10.5 52.5t31.5 96t24 70.5q34 107 34 124q0 20 -14 20q-26 0 -73 -77l-9 6q54 95 110 95q41 0 41 -50q0 -15 -6.5 -41t-13.5 -48t-19 -56.5t-16 -47.5q-41 -121 -41 -143q0 -16 11 -16q22 0 49 26t50 62zM144 599
q0 17 10.5 27.5t26.5 10.5q17 0 27.5 -10.5t10.5 -27.5q0 -16 -10.5 -26.5t-27.5 -10.5t-27 10t-10 27zM391 376q0 -27 -72 -253q-48 -150 -69 -200.5t-47 -81.5q-46 -54 -108 -54q-37 0 -57 19t-20 41q0 17 8.5 28t23.5 11q32 0 32 -33q0 -7 -4 -23q-2 -10 -2 -14
q0 -15 23 -15q38 0 64 45q21 37 102 291q33 101 45 146q22 76 22 97q0 20 -16 20q-13 0 -27.5 -14.5t-43.5 -60.5l-9 5q54 96 109 96q46 0 46 -50zM362 599q0 17 10.5 27.5t26.5 10.5q17 0 27.5 -10.5t10.5 -27.5q0 -16 -10.5 -26.5t-27.5 -10.5t-27 10t-10 27z" />
    <glyph glyph-name="Jcircumflex" unicode="&#x134;" horiz-adv-x="368" 
d="M461 717l-7 -4l-74 72l-128 -71l-5 4l119 116h39zM445 657l-1 -5q-23 -3 -31 -6q-26 -8 -41 -32q-13 -20 -40 -131l-81 -335q-15 -63 -62.5 -112.5t-120.5 -49.5q-40 0 -71.5 26t-31.5 66q0 24 12.5 38.5t34.5 14.5q20 0 30.5 -11.5t10.5 -28.5q0 -21 -18 -43
q-2 -3 -5 -5.5t-5 -4.5l-3.5 -3.5l-3 -3t-2 -3.5t-0.5 -4q0 -10 16.5 -18t33.5 -8q46 0 69 27q25 29 46 116l86 352q24 94 24 118t-24 34q-11 5 -29 7l1 5h206z" />
    <glyph glyph-name="jcircumflex" unicode="&#x135;" horiz-adv-x="222" 
d="M188 376q0 -27 -72 -253q-48 -150 -69 -200.5t-47 -81.5q-46 -54 -108 -54q-37 0 -57 19t-20 41q0 17 8.5 28t23.5 11q32 0 32 -33q0 -7 -4 -23q-2 -10 -2 -14q0 -15 23 -15q38 0 64 45q21 37 102 291q33 101 45 146q22 76 22 97q0 20 -16 20q-13 0 -27.5 -14.5
t-43.5 -60.5l-9 5q54 96 109 96q46 0 46 -50zM277 517l-4 -4l-72 89l-133 -89l-4 4l129 144h36z" />
    <glyph glyph-name="Kcommaaccent" unicode="&#x136;" horiz-adv-x="571" 
d="M300 -89q0 -47 -33.5 -81.5t-88.5 -51.5l-3 9q40 12 62.5 33.5t22.5 40.5q0 8 -2 16q-42 3 -42 41q0 16 10.5 28.5t31.5 12.5q17 0 29.5 -13t12.5 -35zM632 657l-1 -5q-29 -5 -66 -25q-35 -18 -72 -52l-233 -215l2 -2q18 10 45 10q59 0 87.5 -44.5t37.5 -141.5
q12 -131 21 -153q8 -20 23 -20q19 0 36 21t24 44l10 -3q-18 -46 -40.5 -65.5t-54.5 -19.5q-43 0 -65.5 34t-27.5 119q-2 33 -2 66t-3 61q-4 45 -20.5 65t-46.5 20q-27 0 -47 -12.5t-66 -55.5l-30 -119q-22 -93 -22 -117q0 -22 27 -34q10 -5 30 -8l-3 -5h-213l1 5q18 2 31 7
q27 10 38 29q19 36 43 133l79 319q23 97 23 118q0 25 -19 33q-13 5 -34 8l1 5h215l-1 -5q-25 -2 -36 -6q-28 -9 -41 -31q-10 -18 -40 -132l-46 -183l282 260q44 40 44 69q0 13 -11 18q-8 3 -26 5l2 5h165z" />
    <glyph glyph-name="kcommaaccent" unicode="&#x137;" horiz-adv-x="398" 
d="M155 -92q0 -47 -33.5 -81.5t-88.5 -51.5l-3 9q40 12 62.5 33.5t22.5 40.5q0 8 -2 16q-42 3 -42 41q0 16 10.5 28.5t31.5 12.5q17 0 29.5 -13t12.5 -35zM411 383q0 -37 -34 -37q-11 0 -19 7t-8 19q0 7 2 13q4 12 4 14q0 6 -7 6q-15 0 -28.5 -19.5t-35.5 -62.5
q-3 -7 -5 -10q-22 -43 -62 -62v-3q69 -21 69 -90q0 -22 -13 -74q-9 -35 -9 -48q0 -17 13 -17q14 0 36.5 22t40.5 51l8 -5q-58 -95 -117 -95q-18 0 -28.5 13t-10.5 29q0 18 19 85q11 37 11 67q0 36 -16.5 46.5t-51.5 10.5h-43l-81 -243h-57l198 585q17 49 17 62q0 15 -10 23
q-10 7 -31 9l2 5h107q5 0 5 -5q0 -2 -2 -7t-5.5 -14t-6.5 -16q-14 -37 -29 -84l-102 -302h51q53 0 89 69q31 60 47 77q24 25 52 25q20 0 30.5 -13t10.5 -31z" />
    <glyph glyph-name="Lacute" unicode="&#x139;" horiz-adv-x="508" 
d="M176 715l-3 5q103 77 127 94q32 23 48 23q27 0 27 -26q0 -15 -11.5 -24t-39.5 -20q-35 -13 -148 -52zM464 172l-68 -172h-434l1 5q18 2 26 4q29 7 43 33q19 33 43 132l80 320q22 87 22 117q0 27 -26 36q-5 1 -26 5l1 5h213l-1 -5q-21 -3 -31 -6q-32 -9 -46 -35
q-9 -16 -38 -128l-88 -349q-13 -58 -13 -76q0 -20 9 -31q12 -14 45 -14h47q81 0 132 40q61 48 104 119h5z" />
    <glyph glyph-name="lacute" unicode="&#x13a;" horiz-adv-x="225" 
d="M202 711l-3 5q104 77 127 94q32 23 48 23q27 0 27 -26q0 -15 -11.5 -24t-39.5 -20q-35 -13 -148 -52zM280 679q0 -4 -12 -35q-1 -2 -13 -33.5t-19 -52.5l-128 -374q-45 -133 -45 -148q0 -12 13 -12q21 0 53.5 28t53.5 59l9 -5q-29 -44 -68.5 -79t-76.5 -35q-18 0 -29 13
t-11 32q0 10 2 21.5t8 29.5t11 33.5t16.5 47t19.5 55.5l124 361q16 48 16 62q0 15 -11 22q-10 6 -38 10l2 5h118q5 0 5 -5z" />
    <glyph glyph-name="Lcommaaccent" unicode="&#x13b;" horiz-adv-x="508" 
d="M238 -89q0 -47 -33.5 -81.5t-88.5 -51.5l-3 9q40 12 62.5 33.5t22.5 40.5q0 8 -2 16q-42 3 -42 41q0 16 10.5 28.5t31.5 12.5q17 0 29.5 -13t12.5 -35zM464 172l-68 -172h-434l1 5q18 2 26 4q29 7 43 33q19 33 43 132l80 320q22 87 22 117q0 27 -26 36q-5 1 -26 5l1 5
h213l-1 -5q-21 -3 -31 -6q-32 -9 -46 -35q-9 -16 -38 -128l-88 -349q-13 -58 -13 -76q0 -20 9 -31q12 -14 45 -14h47q81 0 132 40q61 48 104 119h5z" />
    <glyph glyph-name="lcommaaccent" unicode="&#x13c;" horiz-adv-x="225" 
d="M68 -92q0 -47 -33.5 -81.5t-88.5 -51.5l-3 9q40 12 62.5 33.5t22.5 40.5q0 8 -2 16q-42 3 -42 41q0 16 10.5 28.5t31.5 12.5q17 0 29.5 -13t12.5 -35zM280 679q0 -4 -12 -35q-1 -2 -13 -33.5t-19 -52.5l-128 -374q-45 -133 -45 -148q0 -12 13 -12q21 0 53.5 28t53.5 59
l9 -5q-29 -44 -68.5 -79t-76.5 -35q-18 0 -29 13t-11 32q0 10 2 21.5t8 29.5t11 33.5t16.5 47t19.5 55.5l124 361q16 48 16 62q0 15 -11 22q-10 6 -38 10l2 5h118q5 0 5 -5z" />
    <glyph glyph-name="Lcaron" unicode="&#x13d;" horiz-adv-x="508" 
d="M378 473l63 184h64q-13 -23 -30 -48.5t-43.5 -64t-48.5 -71.5h-5zM464 172l-68 -172h-434l1 5q18 2 26 4q29 7 43 33q19 33 43 132l80 320q22 87 22 117q0 27 -26 36q-5 1 -26 5l1 5h213l-1 -5q-21 -3 -31 -6q-32 -9 -46 -35q-9 -16 -38 -128l-88 -349q-13 -58 -13 -76
q0 -20 9 -31q12 -14 45 -14h47q81 0 132 40q61 48 104 119h5z" />
    <glyph glyph-name="lcaron" unicode="&#x13e;" horiz-adv-x="225" 
d="M267 497l68 187h52q-8 -21 -27 -51.5t-47 -72t-41 -63.5h-5zM280 679q0 -4 -12 -35q-1 -2 -13 -33.5t-19 -52.5l-128 -374q-45 -133 -45 -148q0 -12 13 -12q21 0 53.5 28t53.5 59l9 -5q-29 -44 -68.5 -79t-76.5 -35q-18 0 -29 13t-11 32q0 10 2 21.5t8 29.5t11 33.5
t16.5 47t19.5 55.5l124 361q16 48 16 62q0 15 -11 22q-10 6 -38 10l2 5h118q5 0 5 -5z" />
    <glyph glyph-name="Ldot" unicode="&#x13f;" horiz-adv-x="508" 
d="M337 344q0 18 12 31t30 13t30.5 -13t12.5 -31t-12 -30.5t-31 -12.5q-18 0 -30 12.5t-12 30.5zM464 172l-68 -172h-434l1 5q18 2 26 4q29 7 43 33q19 33 43 132l80 320q22 87 22 117q0 27 -26 36q-5 1 -26 5l1 5h213l-1 -5q-21 -3 -31 -6q-32 -9 -46 -35q-9 -16 -38 -128
l-88 -349q-13 -58 -13 -76q0 -20 9 -31q12 -14 45 -14h47q81 0 132 40q61 48 104 119h5z" />
    <glyph glyph-name="ldot" unicode="&#x140;" horiz-adv-x="267" 
d="M280 679q0 -4 -12 -35q-1 -2 -13 -33.5t-19 -52.5l-128 -374q-45 -133 -45 -148q0 -12 13 -12q21 0 53.5 28t53.5 59l9 -5q-29 -44 -68.5 -79t-76.5 -35q-18 0 -29 13t-11 32q0 10 2 21.5t8 29.5t11 33.5t16.5 47t19.5 55.5l124 361q16 48 16 62q0 15 -11 22
q-10 6 -38 10l2 5h118q5 0 5 -5zM212 313q0 18 12 31t30 13t30.5 -13t12.5 -31t-12 -30.5t-31 -12.5q-18 0 -30 12.5t-12 30.5z" />
    <glyph glyph-name="Lslash" unicode="&#x141;" horiz-adv-x="521" 
d="M23 241l5 18l90 34l50 201q22 87 22 117q0 27 -26 36q-5 1 -26 5l1 5h213l-1 -5q-21 -3 -31 -6q-32 -9 -46 -35q-9 -16 -38 -128l-40 -160l243 94l-5 -18l-243 -93l-43 -172q-13 -58 -13 -76q0 -20 9 -31q12 -14 45 -14h47q81 0 132 40q61 48 104 119h5l-68 -172h-434
l1 5q18 2 26 4q29 7 43 33q19 33 43 132l25 102z" />
    <glyph glyph-name="lslash" unicode="&#x142;" horiz-adv-x="236" 
d="M286 679q0 -4 -12 -35q-1 -2 -13 -33.5t-19 -52.5l-58 -170l73 39l-4 -19l-76 -41l-63 -183q-45 -133 -45 -148q0 -12 13 -12q21 0 53.5 28t53.5 59l9 -5q-29 -44 -68.5 -79t-76.5 -35q-18 0 -29 13t-11 32q0 10 2 21.5t8 29.5t11 33.5t16.5 47t19.5 55.5l36 106l-70 -37
l5 19l72 38l81 235q16 48 16 62q0 15 -11 22q-10 6 -38 10l2 5h118q5 0 5 -5z" />
    <glyph glyph-name="Nacute" unicode="&#x143;" horiz-adv-x="585" 
d="M338 715l-3 5q104 77 127 94q32 23 48 23q27 0 27 -26q0 -15 -11.5 -24t-39.5 -20q-35 -13 -148 -52zM656 657l-1 -5q-16 -3 -22 -5q-24 -8 -37 -27q-18 -25 -35 -92l-134 -536h-12l-230 551h-4l-102 -414q-11 -42 -11 -73q0 -36 27 -46q8 -3 29 -5l-1 -5h-164l1 5
q21 3 25 4q27 8 42 26q19 23 32 76l97 389q13 54 13 75q0 23 -12.5 42t-28.5 27q-11 6 -29 9l1 4h117l221 -548h3l102 406q14 55 14 83q0 36 -31 48q-9 4 -29 6l1 5h158z" />
    <glyph glyph-name="nacute" unicode="&#x144;" horiz-adv-x="455" 
d="M420 626q0 -13 -10 -22.5t-37 -23.5q-19 -10 -61 -30t-74 -36l-4 5q15 14 103 97q35 34 56 34q13 0 20 -7t7 -17zM416 106q-27 -44 -64 -79.5t-72 -35.5q-18 0 -28.5 11.5t-10.5 28.5q0 14 6 39.5t13 47t19.5 57.5t17.5 53q5 15 14.5 43t15 44.5t10 34.5t4.5 29
q0 20 -17 20q-38 0 -99.5 -72.5t-109.5 -190.5q-23 -59 -49 -136h-57q16 50 52.5 160t42.5 128q21 67 21 92q0 23 -14 23q-31 0 -75 -77l-9 5q51 95 109 95q40 0 40 -48q0 -43 -35 -148h3q55 93 108 144.5t95 51.5q49 0 49 -53q0 -12 -3 -28.5t-10 -39t-13 -40t-16 -47
t-15 -44.5q-41 -125 -41 -139q0 -11 10 -11q18 0 48 27t50 60z" />
    <glyph glyph-name="Ncommaaccent" unicode="&#x145;" horiz-adv-x="585" 
d="M273 -89q0 -47 -33.5 -81.5t-88.5 -51.5l-3 9q40 12 62.5 33.5t22.5 40.5q0 8 -2 16q-42 3 -42 41q0 16 10.5 28.5t31.5 12.5q17 0 29.5 -13t12.5 -35zM656 657l-1 -5q-16 -3 -22 -5q-24 -8 -37 -27q-18 -25 -35 -92l-134 -536h-12l-230 551h-4l-102 -414
q-11 -42 -11 -73q0 -36 27 -46q8 -3 29 -5l-1 -5h-164l1 5q21 3 25 4q27 8 42 26q19 23 32 76l97 389q13 54 13 75q0 23 -12.5 42t-28.5 27q-11 6 -29 9l1 4h117l221 -548h3l102 406q14 55 14 83q0 36 -31 48q-9 4 -29 6l1 5h158z" />
    <glyph glyph-name="ncommaaccent" unicode="&#x146;" horiz-adv-x="455" 
d="M198 -92q0 -47 -33.5 -81.5t-88.5 -51.5l-3 9q40 12 62.5 33.5t22.5 40.5q0 8 -2 16q-42 3 -42 41q0 16 10.5 28.5t31.5 12.5q17 0 29.5 -13t12.5 -35zM416 106q-27 -44 -64 -79.5t-72 -35.5q-18 0 -28.5 11.5t-10.5 28.5q0 14 6 39.5t13 47t19.5 57.5t17.5 53
q5 15 14.5 43t15 44.5t10 34.5t4.5 29q0 20 -17 20q-38 0 -99.5 -72.5t-109.5 -190.5q-23 -59 -49 -136h-57q16 50 52.5 160t42.5 128q21 67 21 92q0 23 -14 23q-31 0 -75 -77l-9 5q51 95 109 95q40 0 40 -48q0 -43 -35 -148h3q55 93 108 144.5t95 51.5q49 0 49 -53
q0 -12 -3 -28.5t-10 -39t-13 -40t-16 -47t-15 -44.5q-41 -125 -41 -139q0 -11 10 -11q18 0 48 27t50 60z" />
    <glyph glyph-name="Ncaron" unicode="&#x147;" horiz-adv-x="585" 
d="M319 831l7 4l78 -71l124 71l5 -4l-119 -116h-38zM656 657l-1 -5q-16 -3 -22 -5q-24 -8 -37 -27q-18 -25 -35 -92l-134 -536h-12l-230 551h-4l-102 -414q-11 -42 -11 -73q0 -36 27 -46q8 -3 29 -5l-1 -5h-164l1 5q21 3 25 4q27 8 42 26q19 23 32 76l97 389q13 54 13 75
q0 23 -12.5 42t-28.5 27q-11 6 -29 9l1 4h117l221 -548h3l102 406q14 55 14 83q0 36 -31 48q-9 4 -29 6l1 5h158z" />
    <glyph glyph-name="ncaron" unicode="&#x148;" horiz-adv-x="455" 
d="M212 651l4 4l73 -89l132 89l4 -4l-128 -144h-36zM416 106q-27 -44 -64 -79.5t-72 -35.5q-18 0 -28.5 11.5t-10.5 28.5q0 14 6 39.5t13 47t19.5 57.5t17.5 53q5 15 14.5 43t15 44.5t10 34.5t4.5 29q0 20 -17 20q-38 0 -99.5 -72.5t-109.5 -190.5q-23 -59 -49 -136h-57
q16 50 52.5 160t42.5 128q21 67 21 92q0 23 -14 23q-31 0 -75 -77l-9 5q51 95 109 95q40 0 40 -48q0 -43 -35 -148h3q55 93 108 144.5t95 51.5q49 0 49 -53q0 -12 -3 -28.5t-10 -39t-13 -40t-16 -47t-15 -44.5q-41 -125 -41 -139q0 -11 10 -11q18 0 48 27t50 60z" />
    <glyph glyph-name="napostrophe" unicode="&#x149;" horiz-adv-x="455" 
d="M416 106q-27 -44 -64 -79.5t-72 -35.5q-18 0 -28.5 11.5t-10.5 28.5q0 14 6 39.5t13 47t19.5 57.5t17.5 53q5 15 14.5 43t15 44.5t10 34.5t4.5 29q0 20 -17 20q-38 0 -99.5 -72.5t-109.5 -190.5q-23 -59 -49 -136h-57q16 50 52.5 160t42.5 128q21 67 21 92q0 23 -14 23
q-31 0 -75 -77l-9 5q51 95 109 95q40 0 40 -48q0 -43 -35 -148h3q55 93 108 144.5t95 51.5q49 0 49 -53q0 -12 -3 -28.5t-10 -39t-13 -40t-16 -47t-15 -44.5q-41 -125 -41 -139q0 -11 10 -11q18 0 48 27t50 60zM48 499l-2 7q66 24 94 79q-21 1 -32.5 13t-11.5 30
q0 21 12 32.5t30 11.5t30.5 -12t12.5 -34q0 -45 -39 -77.5t-94 -49.5z" />
    <glyph glyph-name="Eng" unicode="&#x14a;" horiz-adv-x="585" 
d="M272 -183q50 0 82.5 38t59.5 140l-229 548h-4l-102 -414q-11 -42 -11 -73q0 -36 27 -46q8 -3 29 -5l-1 -5h-164l1 5q21 3 25 4q27 8 42 26q19 23 32 76l97 389q13 54 13 75q0 23 -12.5 42t-28.5 27q-11 6 -29 9l1 4h117l222 -548h3l101 406q14 55 14 83q0 36 -31 48
q-9 4 -29 6l1 5h158l-1 -5q-16 -3 -22 -5q-24 -8 -37 -27q-18 -25 -35 -92l-127 -506q-31 -125 -66 -171.5t-96 -46.5q-47 0 -78 26t-31 64q0 24 13.5 38t31.5 14q19 0 29.5 -11.5t10.5 -28.5t-15 -38q-10 -13 -10 -24t13.5 -19t35.5 -8z" />
    <glyph glyph-name="eng" unicode="&#x14b;" horiz-adv-x="431" 
d="M323 124q-51 -152 -72 -202.5t-47 -80.5q-46 -54 -107 -54q-37 0 -57 19t-20 41q0 17 8.5 28t23.5 11q32 0 32 -33q0 -7 -4 -23q-2 -10 -2 -14q0 -15 23 -15q37 0 63 45q17 29 104 291q7 23 20 61.5t20.5 61.5t16 50t12.5 43.5t4 25.5q0 20 -17 20q-38 0 -99.5 -72.5
t-109.5 -190.5q-23 -59 -49 -136h-57q16 50 52.5 160t42.5 128q21 67 21 92q0 23 -14 23q-31 0 -75 -77l-9 5q51 95 109 95q40 0 40 -48q0 -43 -35 -148h3q55 93 108 144.5t95 51.5q49 0 49 -53q0 -12 -4.5 -33.5t-14 -51.5t-17 -53.5t-20.5 -60.5t-17 -50z" />
    <glyph glyph-name="Omacron" unicode="&#x14c;" horiz-adv-x="607" 
d="M511 732h-216l6 23h216zM591 417q0 -89 -36.5 -182.5t-98.5 -153.5q-98 -95 -203 -95q-86 0 -144 64.5t-58 189.5q0 90 35.5 181t100.5 156q93 93 201 93q87 0 145 -63t58 -190zM519 470q0 102 -37.5 144t-92.5 42q-65 0 -120 -50q-55 -51 -100.5 -170.5t-45.5 -249.5
q0 -186 131 -186q63 0 113 43q55 47 103.5 170.5t48.5 256.5z" />
    <glyph glyph-name="omacron" unicode="&#x14d;" horiz-adv-x="362" 
d="M363 567h-196l6 23h196zM332 286q0 -62 -23.5 -124.5t-64.5 -107.5q-56 -62 -130 -62q-49 0 -78.5 35.5t-29.5 95.5q0 136 87 236q59 67 135 67q50 0 77 -37t27 -103zM281 322q1 93 -56 93q-44 0 -87 -62q-31 -45 -55 -125t-22 -143q3 -82 58 -82q20 0 38 12t26.5 23
t20.5 30q29 49 52.5 125t24.5 129z" />
    <glyph glyph-name="Obreve" unicode="&#x14e;" horiz-adv-x="607" 
d="M312 826l8 5q3 -69 94 -69q93 0 128 70l7 -6q-9 -43 -45.5 -77t-92.5 -34q-44 0 -73 23t-28 65q0 11 2 23zM591 417q0 -89 -36.5 -182.5t-98.5 -153.5q-98 -95 -203 -95q-86 0 -144 64.5t-58 189.5q0 90 35.5 181t100.5 156q93 93 201 93q87 0 145 -63t58 -190zM519 470
q0 102 -37.5 144t-92.5 42q-65 0 -120 -50q-55 -51 -100.5 -170.5t-45.5 -249.5q0 -186 131 -186q63 0 113 43q55 47 103.5 170.5t48.5 256.5z" />
    <glyph glyph-name="obreve" unicode="&#x14f;" horiz-adv-x="362" 
d="M332 286q0 -62 -23.5 -124.5t-64.5 -107.5q-56 -62 -130 -62q-49 0 -78.5 35.5t-29.5 95.5q0 136 87 236q59 67 135 67q50 0 77 -37t27 -103zM281 322q1 93 -56 93q-44 0 -87 -62q-31 -45 -55 -125t-22 -143q3 -82 58 -82q20 0 38 12t26.5 23t20.5 30q29 49 52.5 125
t24.5 129zM159 648l7 5q4 -40 28 -60t60 -20q40 0 67.5 17.5t51.5 62.5l6 -4q-9 -49 -39 -86.5t-90 -37.5q-41 0 -67 27.5t-26 71.5q0 14 2 24z" />
    <glyph glyph-name="Ohungarumlaut" unicode="&#x150;" horiz-adv-x="607" 
d="M591 417q0 -89 -36.5 -182.5t-98.5 -153.5q-98 -95 -203 -95q-86 0 -144 64.5t-58 189.5q0 90 35.5 181t100.5 156q93 93 201 93q87 0 145 -63t58 -190zM519 470q0 102 -37.5 144t-92.5 42q-65 0 -120 -50q-55 -51 -100.5 -170.5t-45.5 -249.5q0 -186 131 -186
q63 0 113 43q55 47 103.5 170.5t48.5 256.5zM497 841q0 -4 -1.5 -8.5t-3 -7.5t-5 -7t-6 -6.5t-8 -6.5t-8 -5.5t-9.5 -6t-9 -5.5q-15 -10 -61 -37t-64 -38h-11l96 100q4 5 12.5 13t11.5 11.5t9 9t9 8t7.5 5t8.5 3.5t8 1q10 0 17 -7t7 -16zM641 841q0 -4 -1.5 -8.5t-3 -7.5
t-5 -7t-6 -6.5t-8 -6.5t-8 -5.5t-9.5 -6t-9 -5.5q-15 -10 -61 -37t-64 -38h-11l96 100q4 5 12.5 13t11.5 11.5t9 9t9 8t7.5 5t8.5 3.5t8 1q10 0 17 -7t7 -16z" />
    <glyph glyph-name="ohungarumlaut" unicode="&#x151;" horiz-adv-x="362" 
d="M332 286q0 -62 -23.5 -124.5t-64.5 -107.5q-56 -62 -130 -62q-49 0 -78.5 35.5t-29.5 95.5q0 136 87 236q59 67 135 67q50 0 77 -37t27 -103zM281 322q1 93 -56 93q-44 0 -87 -62q-31 -45 -55 -125t-22 -143q3 -82 58 -82q20 0 38 12t26.5 23t20.5 30q29 49 52.5 125
t24.5 129zM302 666q25 0 25 -24q0 -9 -5 -17.5t-10.5 -14.5t-19.5 -18q-70 -60 -127 -107l-5 5l93 133q16 24 26.5 33.5t22.5 9.5zM440 666q25 0 25 -24q0 -9 -5 -17.5t-10.5 -14.5t-19.5 -18q-70 -60 -127 -107l-5 5l93 133q16 24 26.5 33.5t22.5 9.5z" />
    <glyph glyph-name="OE" unicode="&#x152;" horiz-adv-x="868" 
d="M754 0h-500q-88 0 -145.5 58t-57.5 177q0 93 35 180.5t101 153.5q88 88 201 88h465v-162h-6q-5 28 -8 43t-12.5 38.5t-21.5 36t-33.5 22t-50.5 9.5h-64q-55 0 -72 -71l-55 -225h59q61 0 86.5 23t47.5 80h6l-55 -219h-6q2 24 2 36q0 19 -2 29t-9 20t-23.5 14t-44.5 4h-65
l-51 -201q-14 -55 -14 -75q0 -46 53 -46h67q73 0 129 45q64 51 107 127h6zM433 643h-44q-70 0 -120 -45q-56 -52 -101 -167.5t-45 -244.5q0 -102 36 -137t96 -35h28q61 0 85 39q17 29 32.5 72t24.5 77.5t30 116.5q33 133 44 196.5t1 88.5q-16 39 -67 39z" />
    <glyph glyph-name="oe" unicode="&#x153;" horiz-adv-x="555" 
d="M514 298q-68 -55 -193 -100q-15 -57 -15 -105q0 -84 59 -84q39 0 74 34t55 75l10 -5q-63 -122 -156 -122q-68 0 -92 76h-2q-6 -9 -10 -13q-56 -62 -130 -62q-49 0 -78.5 35.5t-29.5 95.5q0 136 87 236q59 67 135 67q81 0 99 -94h2q9 13 19 24q65 70 132 70
q33 0 51.5 -15.5t18.5 -43.5q0 -41 -36 -69zM281 322q1 93 -56 93q-44 0 -87 -62q-31 -45 -55 -125t-22 -143q3 -82 58 -82q46 0 85 65q30 50 52.5 121.5t24.5 132.5zM462 413q-42 0 -79 -60t-59 -143q106 39 140 79q28 34 28 83q0 41 -30 41z" />
    <glyph glyph-name="Racute" unicode="&#x154;" horiz-adv-x="558" 
d="M288 715l-3 5q103 77 127 94q32 23 48 23q27 0 27 -26q0 -15 -11.5 -24t-39.5 -20q-35 -13 -148 -52zM542 70q-20 -47 -40.5 -65.5t-49.5 -18.5q-42 0 -66 30.5t-25 112.5q-1 53 -1.5 73t-8 50t-22.5 46q-17 18 -37 24t-60 6h-56l-42 -164q-24 -94 -24 -118q0 -20 22 -32
q12 -7 29 -9l-1 -5h-200l1 5q10 1 23 5q27 9 40 31q19 36 43 133l83 328q22 85 22 109t-23 34q-8 4 -30 8l1 4h226q181 0 181 -117q0 -54 -39.5 -104t-96.5 -77q-35 -17 -87 -25v-3q43 -9 69 -29q33 -25 46 -60t20 -98q10 -101 14 -113q6 -22 22 -22q28 0 57 64zM452 539
q0 55 -23 80t-72 25h-46q-39 0 -55 -21q-10 -12 -26 -72l-51 -209h54q110 0 157 38q27 23 44.5 67t17.5 92z" />
    <glyph glyph-name="racute" unicode="&#x155;" horiz-adv-x="321" 
d="M340 626q0 -13 -10 -22.5t-37 -23.5q-19 -10 -61 -30t-74 -36l-4 5q15 14 103 97q35 34 56 34q13 0 20 -7t7 -17zM344 379q0 -17 -9.5 -26.5t-20.5 -9.5q-27 0 -34 32q-1 2 -1.5 6t-1 6t-1.5 5t-2 4.5t-3 2.5t-5 1q-52 0 -149 -255q-26 -69 -51 -145h-57l93 283
q19 57 19 91q0 25 -18 25q-30 0 -76 -74l-8 5q28 52 58 74t53 22q43 0 43 -47q0 -40 -31 -135h3q45 106 79 144t72 38q22 0 35 -12.5t13 -34.5z" />
    <glyph glyph-name="Rcommaaccent" unicode="&#x156;" horiz-adv-x="558" 
d="M283 -89q0 -47 -33.5 -81.5t-88.5 -51.5l-3 9q40 12 62.5 33.5t22.5 40.5q0 8 -2 16q-42 3 -42 41q0 16 10.5 28.5t31.5 12.5q17 0 29.5 -13t12.5 -35zM542 70q-20 -47 -40.5 -65.5t-49.5 -18.5q-42 0 -66 30.5t-25 112.5q-1 53 -1.5 73t-8 50t-22.5 46q-17 18 -37 24
t-60 6h-56l-42 -164q-24 -94 -24 -118q0 -20 22 -32q12 -7 29 -9l-1 -5h-200l1 5q10 1 23 5q27 9 40 31q19 36 43 133l83 328q22 85 22 109t-23 34q-8 4 -30 8l1 4h226q181 0 181 -117q0 -54 -39.5 -104t-96.5 -77q-35 -17 -87 -25v-3q43 -9 69 -29q33 -25 46 -60t20 -98
q10 -101 14 -113q6 -22 22 -22q28 0 57 64zM452 539q0 55 -23 80t-72 25h-46q-39 0 -55 -21q-10 -12 -26 -72l-51 -209h54q110 0 157 38q27 23 44.5 67t17.5 92z" />
    <glyph glyph-name="rcommaaccent" unicode="&#x157;" horiz-adv-x="321" 
d="M62 -92q0 -47 -33.5 -81.5t-88.5 -51.5l-3 9q40 12 62.5 33.5t22.5 40.5q0 8 -2 16q-42 3 -42 41q0 16 10.5 28.5t31.5 12.5q17 0 29.5 -13t12.5 -35zM344 379q0 -17 -9.5 -26.5t-20.5 -9.5q-27 0 -34 32q-1 2 -1.5 6t-1 6t-1.5 5t-2 4.5t-3 2.5t-5 1q-52 0 -149 -255
q-26 -69 -51 -145h-57l93 283q19 57 19 91q0 25 -18 25q-30 0 -76 -74l-8 5q28 52 58 74t53 22q43 0 43 -47q0 -40 -31 -135h3q45 106 79 144t72 38q22 0 35 -12.5t13 -34.5z" />
    <glyph glyph-name="Rcaron" unicode="&#x158;" horiz-adv-x="558" 
d="M271 831l7 4l78 -71l124 71l5 -4l-119 -116h-38zM542 70q-20 -47 -40.5 -65.5t-49.5 -18.5q-42 0 -66 30.5t-25 112.5q-1 53 -1.5 73t-8 50t-22.5 46q-17 18 -37 24t-60 6h-56l-42 -164q-24 -94 -24 -118q0 -20 22 -32q12 -7 29 -9l-1 -5h-200l1 5q10 1 23 5q27 9 40 31
q19 36 43 133l83 328q22 85 22 109t-23 34q-8 4 -30 8l1 4h226q181 0 181 -117q0 -54 -39.5 -104t-96.5 -77q-35 -17 -87 -25v-3q43 -9 69 -29q33 -25 46 -60t20 -98q10 -101 14 -113q6 -22 22 -22q28 0 57 64zM452 539q0 55 -23 80t-72 25h-46q-39 0 -55 -21
q-10 -12 -26 -72l-51 -209h54q110 0 157 38q27 23 44.5 67t17.5 92z" />
    <glyph glyph-name="rcaron" unicode="&#x159;" horiz-adv-x="321" 
d="M154 651l4 4l73 -89l132 89l4 -4l-128 -144h-36zM344 379q0 -17 -9.5 -26.5t-20.5 -9.5q-27 0 -34 32q-1 2 -1.5 6t-1 6t-1.5 5t-2 4.5t-3 2.5t-5 1q-52 0 -149 -255q-26 -69 -51 -145h-57l93 283q19 57 19 91q0 25 -18 25q-30 0 -76 -74l-8 5q28 52 58 74t53 22
q43 0 43 -47q0 -40 -31 -135h3q45 106 79 144t72 38q22 0 35 -12.5t13 -34.5z" />
    <glyph glyph-name="Sacute" unicode="&#x15a;" horiz-adv-x="446" 
d="M456 653l-25 -172h-8q-7 95 -29 130q-29 47 -102 47q-51 0 -84.5 -30t-33.5 -86q0 -17 2.5 -31.5t8.5 -28t10.5 -22.5t15.5 -22t15.5 -18t18.5 -18.5t17 -16.5q10 -10 38.5 -37t38.5 -38t26 -33.5t21.5 -45t5.5 -50.5q0 -47 -20.5 -85.5t-53 -61.5t-68 -35.5t-69.5 -12.5
q-50 0 -87 20t-56 46h-5l-40 -41h-4l45 200h8q3 -111 33.5 -161.5t111.5 -50.5q65 0 101.5 46t36.5 105q0 24 -7 45t-25.5 44.5t-30.5 36.5t-43 43q-4 4 -19 18.5t-19.5 19t-17 18t-17 21.5t-13 22t-11.5 25.5t-6 27t-3 32.5q0 68 48.5 118t132.5 50q41 0 75 -14.5t51 -37.5
h2l28 34h6zM260 715l-3 5q104 77 127 94q32 23 48 23q27 0 27 -26q0 -15 -11.5 -24t-39.5 -20q-35 -13 -148 -52z" />
    <glyph glyph-name="sacute" unicode="&#x15b;" horiz-adv-x="291" 
d="M337 626q0 -13 -10 -22.5t-37 -23.5q-19 -10 -61 -30t-74 -36l-4 5q15 14 103 97q35 34 56 34q13 0 20 -7t7 -17zM276 358q0 -16 -8 -27t-23 -11q-13 0 -21 8t-8 21q0 8 4 19t3 18q-3 28 -45 28q-63 0 -63 -68q0 -32 47 -105q46 -71 55 -88.5t9 -39.5q0 -55 -42.5 -88
t-89.5 -33q-43 0 -75 26t-32 67q0 21 10 35t29 14q14 0 22 -9t7 -24t-12.5 -29t-11.5 -24q0 -22 18 -34t43 -12q34 0 55 24t21 67q0 8 -0.5 14t-3.5 14t-5 12.5t-8.5 15t-10 15.5t-14 20.5t-15.5 23.5q-27 41 -37.5 65t-10.5 51q0 45 35 73.5t85 28.5q39 0 66 -21t27 -47z
" />
    <glyph glyph-name="Scircumflex" unicode="&#x15c;" horiz-adv-x="446" 
d="M424 717l-7 -4l-74 72l-128 -71l-5 4l119 116h39zM456 653l-25 -172h-8q-7 95 -29 130q-29 47 -102 47q-51 0 -84.5 -30t-33.5 -86q0 -17 2.5 -31.5t8.5 -28t10.5 -22.5t15.5 -22t15.5 -18t18.5 -18.5t17 -16.5q10 -10 38.5 -37t38.5 -38t26 -33.5t21.5 -45t5.5 -50.5
q0 -47 -20.5 -85.5t-53 -61.5t-68 -35.5t-69.5 -12.5q-50 0 -87 20t-56 46h-5l-40 -41h-4l45 200h8q3 -111 33.5 -161.5t111.5 -50.5q65 0 101.5 46t36.5 105q0 24 -7 45t-25.5 44.5t-30.5 36.5t-43 43q-4 4 -19 18.5t-19.5 19t-17 18t-17 21.5t-13 22t-11.5 25.5t-6 27
t-3 32.5q0 68 48.5 118t132.5 50q41 0 75 -14.5t51 -37.5h2l28 34h6z" />
    <glyph glyph-name="scircumflex" unicode="&#x15d;" horiz-adv-x="291" 
d="M310 517l-4 -4l-72 89l-133 -89l-4 4l129 144h36zM276 358q0 -16 -8 -27t-23 -11q-13 0 -21 8t-8 21q0 8 4 19t3 18q-3 28 -45 28q-63 0 -63 -68q0 -32 47 -105q46 -71 55 -88.5t9 -39.5q0 -55 -42.5 -88t-89.5 -33q-43 0 -75 26t-32 67q0 21 10 35t29 14q14 0 22 -9
t7 -24t-12.5 -29t-11.5 -24q0 -22 18 -34t43 -12q34 0 55 24t21 67q0 8 -0.5 14t-3.5 14t-5 12.5t-8.5 15t-10 15.5t-14 20.5t-15.5 23.5q-27 41 -37.5 65t-10.5 51q0 45 35 73.5t85 28.5q39 0 66 -21t27 -47z" />
    <glyph glyph-name="Scedilla" unicode="&#x15e;" horiz-adv-x="446" 
d="M220 -88q0 -37 -37 -57t-85 -20q-44 0 -68 18l6 7q24 -10 53 -10q87 0 87 63q0 34 -31 34q-16 0 -29 -11l-12 4l25 53q-61 15 -91 59h-5l-40 -41h-4l45 200h8q3 -111 33.5 -161.5t111.5 -50.5q65 0 101.5 46t36.5 105q0 24 -7 45t-25.5 44.5t-30.5 36.5t-43 43
q-4 4 -19 18.5t-19.5 19t-17 18t-17 21.5t-13 22t-11.5 25.5t-6 27t-3 32.5q0 68 48.5 118t132.5 50q41 0 75 -14.5t51 -37.5h2l28 34h6l-25 -172h-8q-7 95 -29 130q-29 47 -102 47q-51 0 -84.5 -30t-33.5 -86q0 -17 2.5 -31.5t8.5 -28t10.5 -22.5t15.5 -22t15.5 -18
t18.5 -18.5t17 -16.5q10 -10 38.5 -37t38.5 -38t26 -33.5t21.5 -45t5.5 -50.5q0 -47 -20.5 -85.5t-53 -61.5t-68 -35.5t-69.5 -12.5q-21 0 -37 3l-17 -36q17 10 39 10q27 0 40.5 -15.5t13.5 -35.5z" />
    <glyph glyph-name="scedilla" unicode="&#x15f;" horiz-adv-x="291" 
d="M151 -88q0 -37 -37 -57t-85 -20q-44 0 -68 18l6 7q24 -10 53 -10q87 0 87 63q0 34 -31 34q-16 0 -29 -11l-12 4l27 56q-32 9 -53.5 32.5t-21.5 56.5q0 21 10 35t29 14q14 0 22 -9t7 -24t-12.5 -29t-11.5 -24q0 -22 18 -34t43 -12q34 0 55 24t21 67q0 8 -0.5 14t-3.5 14
t-5 12.5t-8.5 15t-10 15.5t-14 20.5t-15.5 23.5q-27 41 -37.5 65t-10.5 51q0 45 35 73.5t85 28.5q39 0 66 -21t27 -47q0 -16 -8 -27t-23 -11q-13 0 -21 8t-8 21q0 8 4 19t3 18q-3 28 -45 28q-63 0 -63 -68q0 -32 47 -105q46 -71 55 -88.5t9 -39.5q0 -55 -42.5 -88t-89.5 -33
q-12 0 -17 1l-19 -40q17 10 39 10q27 0 40.5 -15.5t13.5 -35.5z" />
    <glyph glyph-name="Scaron" unicode="&#x160;" horiz-adv-x="446" 
d="M242 831l7 4l78 -71l124 71l5 -4l-119 -116h-38zM456 653l-25 -172h-8q-7 95 -29 130q-29 47 -102 47q-51 0 -84.5 -30t-33.5 -86q0 -17 2.5 -31.5t8.5 -28t10.5 -22.5t15.5 -22t15.5 -18t18.5 -18.5t17 -16.5q10 -10 38.5 -37t38.5 -38t26 -33.5t21.5 -45t5.5 -50.5
q0 -47 -20.5 -85.5t-53 -61.5t-68 -35.5t-69.5 -12.5q-50 0 -87 20t-56 46h-5l-40 -41h-4l45 200h8q3 -111 33.5 -161.5t111.5 -50.5q65 0 101.5 46t36.5 105q0 24 -7 45t-25.5 44.5t-30.5 36.5t-43 43q-4 4 -19 18.5t-19.5 19t-17 18t-17 21.5t-13 22t-11.5 25.5t-6 27
t-3 32.5q0 68 48.5 118t132.5 50q41 0 75 -14.5t51 -37.5h2l28 34h6z" />
    <glyph glyph-name="scaron" unicode="&#x161;" horiz-adv-x="291" 
d="M145 651l4 4l73 -89l132 89l4 -4l-128 -144h-36zM276 358q0 -16 -8 -27t-23 -11q-13 0 -21 8t-8 21q0 8 4 19t3 18q-3 28 -45 28q-63 0 -63 -68q0 -32 47 -105q46 -71 55 -88.5t9 -39.5q0 -55 -42.5 -88t-89.5 -33q-43 0 -75 26t-32 67q0 21 10 35t29 14q14 0 22 -9
t7 -24t-12.5 -29t-11.5 -24q0 -22 18 -34t43 -12q34 0 55 24t21 67q0 8 -0.5 14t-3.5 14t-5 12.5t-8.5 15t-10 15.5t-14 20.5t-15.5 23.5q-27 41 -37.5 65t-10.5 51q0 45 35 73.5t85 28.5q39 0 66 -21t27 -47z" />
    <glyph glyph-name="Tcommaaccent" unicode="&#x162;" horiz-adv-x="552" 
d="M242 -89q0 -47 -33.5 -81.5t-88.5 -51.5l-3 9q40 12 62.5 33.5t22.5 40.5q0 8 -2 16q-42 3 -42 41q0 16 10.5 28.5t31.5 12.5q17 0 29.5 -13t12.5 -35zM622 657l-14 -152h-6q-10 70 -40 104q-31 36 -109 36h-43l-119 -481q-22 -88 -22 -118q0 -26 26 -36q12 -5 26 -5
l-1 -5h-208l1 5q9 0 25 4q30 9 43 31q18 31 43 134l117 471h-44q-70 0 -119 -36q-43 -33 -91 -104h-6l52 152h489z" />
    <glyph glyph-name="tcommaaccent" unicode="&#x163;" 
d="M65 -92q0 -47 -33.5 -81.5t-88.5 -51.5l-3 9q40 12 62.5 33.5t22.5 40.5q0 8 -2 16q-42 3 -42 41q0 16 10.5 28.5t31.5 12.5q17 0 29.5 -13t12.5 -35zM265 403h-90l-71 -220q-39 -121 -39 -145q0 -14 12 -14q39 0 97 88l10 -5q-75 -116 -134 -116q-19 0 -31 12.5
t-12 35.5q0 12 6 36t13 46t19 57.5t17 52.5l55 172h-52l4 14h52l47 155h59l-47 -155h89z" />
    <glyph glyph-name="Tcaron" unicode="&#x164;" horiz-adv-x="552" 
d="M314 831l7 4l78 -71l124 71l5 -4l-119 -116h-38zM622 657l-14 -152h-6q-10 70 -40 104q-31 36 -109 36h-43l-119 -481q-22 -88 -22 -118q0 -26 26 -36q12 -5 26 -5l-1 -5h-208l1 5q9 0 25 4q30 9 43 31q18 31 43 134l117 471h-44q-70 0 -119 -36q-43 -33 -91 -104h-6
l52 152h489z" />
    <glyph glyph-name="tcaron" unicode="&#x165;" 
d="M251 497l68 187h52q-8 -21 -27 -51.5t-47 -72t-41 -63.5h-5zM265 403h-90l-71 -220q-39 -121 -39 -145q0 -14 12 -14q39 0 97 88l10 -5q-75 -116 -134 -116q-19 0 -31 12.5t-12 35.5q0 12 6 36t13 46t19 57.5t17 52.5l55 172h-52l4 14h52l47 155h59l-47 -155h89z" />
    <glyph glyph-name="Tbar" unicode="&#x166;" horiz-adv-x="552" 
d="M622 657l-14 -152h-6q-10 70 -40 104q-31 36 -109 36h-43l-58 -234h149l-3 -13h-149l-58 -234q-22 -88 -22 -118q0 -26 26 -36q12 -5 26 -5l-1 -5h-208l1 5q9 0 25 4q30 9 43 31q18 31 43 134l55 224h-149l4 13h148l59 234h-44q-70 0 -119 -36q-43 -33 -91 -104h-6
l52 152h489z" />
    <glyph glyph-name="tbar" unicode="&#x167;" 
d="M265 403h-90l-28 -87h93l-5 -14h-93l-38 -119q-39 -121 -39 -145q0 -14 12 -14q39 0 97 88l10 -5q-75 -116 -134 -116q-19 0 -31 12.5t-12 35.5q0 12 6 36t13 46t19 57.5t17 52.5l22 71h-44l5 14h44l28 87h-52l4 14h52l47 155h59l-47 -155h89z" />
    <glyph glyph-name="Utilde" unicode="&#x168;" horiz-adv-x="596" 
d="M676 657l-1 -5q-15 -2 -22 -4q-23 -8 -37 -28q-16 -21 -37 -102l-77 -304q-30 -119 -86.5 -173.5t-160.5 -54.5q-81 0 -134.5 42.5t-53.5 123.5q0 50 17 118l55 223q22 87 22 117q0 25 -26 36q-9 4 -26 6l2 5h206l-1 -5q-14 -2 -24 -5q-33 -10 -47 -35q-15 -26 -41 -135
l-64 -271q-10 -41 -10 -88q0 -55 34.5 -85.5t93.5 -30.5q102 0 152 54.5t76 158.5l76 301q14 55 14 82q0 34 -32 48q-8 4 -28 6l1 5h159zM566 804l3 -2q-29 -76 -90 -76q-24 0 -62.5 15.5t-60.5 15.5q-37 0 -75 -38l-3 3q21 35 48 55.5t53 20.5q25 0 60 -14.5t51 -14.5
q44 0 76 35z" />
    <glyph glyph-name="utilde" unicode="&#x169;" horiz-adv-x="449" 
d="M431 107q-26 -45 -69 -80.5t-83 -35.5q-19 0 -30.5 14.5t-11.5 39.5q0 48 29 133h-3q-54 -92 -104.5 -139.5t-88.5 -47.5q-46 0 -46 56q0 26 56 194q45 135 45 146q0 12 -10 12q-25 0 -73 -74l-8 5q30 54 60 75t52 21q35 0 35 -35q0 -18 -9 -50t-27 -83.5t-24 -70.5
q-40 -128 -40 -142q0 -24 15 -24q33 0 90.5 66.5t103.5 183.5q36 92 54 146h57q-68 -201 -93 -285q-14 -49 -14 -79t19 -30q27 0 56.5 26.5t52.5 62.5zM419 615l3 -2q-29 -76 -90 -76q-24 0 -62.5 15.5t-60.5 15.5q-37 0 -75 -38l-3 3q21 35 48 55.5t53 20.5q25 0 60 -14.5
t51 -14.5q25 0 41 7t35 28z" />
    <glyph glyph-name="Umacron" unicode="&#x16a;" horiz-adv-x="596" 
d="M676 657l-1 -5q-15 -2 -22 -4q-23 -8 -37 -28q-16 -21 -37 -102l-77 -304q-30 -119 -86.5 -173.5t-160.5 -54.5q-81 0 -134.5 42.5t-53.5 123.5q0 50 17 118l55 223q22 87 22 117q0 25 -26 36q-9 4 -26 6l2 5h206l-1 -5q-14 -2 -24 -5q-33 -10 -47 -35q-15 -26 -41 -135
l-64 -271q-10 -41 -10 -88q0 -55 34.5 -85.5t93.5 -30.5q102 0 152 54.5t76 158.5l76 301q14 55 14 82q0 34 -32 48q-8 4 -28 6l1 5h159zM530 732h-216l6 23h216z" />
    <glyph glyph-name="umacron" unicode="&#x16b;" horiz-adv-x="449" 
d="M431 107q-26 -45 -69 -80.5t-83 -35.5q-19 0 -30.5 14.5t-11.5 39.5q0 48 29 133h-3q-54 -92 -104.5 -139.5t-88.5 -47.5q-46 0 -46 56q0 26 56 194q45 135 45 146q0 12 -10 12q-25 0 -73 -74l-8 5q30 54 60 75t52 21q35 0 35 -35q0 -18 -9 -50t-27 -83.5t-24 -70.5
q-40 -128 -40 -142q0 -24 15 -24q33 0 90.5 66.5t103.5 183.5q36 92 54 146h57q-68 -201 -93 -285q-14 -49 -14 -79t19 -30q27 0 56.5 26.5t52.5 62.5zM384 567h-196l6 23h196z" />
    <glyph glyph-name="Ubreve" unicode="&#x16c;" horiz-adv-x="596" 
d="M676 657l-1 -5q-15 -2 -22 -4q-23 -8 -37 -28q-16 -21 -37 -102l-77 -304q-30 -119 -86.5 -173.5t-160.5 -54.5q-81 0 -134.5 42.5t-53.5 123.5q0 50 17 118l55 223q22 87 22 117q0 25 -26 36q-9 4 -26 6l2 5h206l-1 -5q-14 -2 -24 -5q-33 -10 -47 -35q-15 -26 -41 -135
l-64 -271q-10 -41 -10 -88q0 -55 34.5 -85.5t93.5 -30.5q102 0 152 54.5t76 158.5l76 301q14 55 14 82q0 34 -32 48q-8 4 -28 6l1 5h159zM318 826l8 5q3 -69 94 -69q93 0 128 70l7 -6q-9 -43 -45.5 -77t-92.5 -34q-44 0 -73 23t-28 65q0 11 2 23z" />
    <glyph glyph-name="ubreve" unicode="&#x16d;" horiz-adv-x="449" 
d="M431 107q-26 -45 -69 -80.5t-83 -35.5q-19 0 -30.5 14.5t-11.5 39.5q0 48 29 133h-3q-54 -92 -104.5 -139.5t-88.5 -47.5q-46 0 -46 56q0 26 56 194q45 135 45 146q0 12 -10 12q-25 0 -73 -74l-8 5q30 54 60 75t52 21q35 0 35 -35q0 -18 -9 -50t-27 -83.5t-24 -70.5
q-40 -128 -40 -142q0 -24 15 -24q33 0 90.5 66.5t103.5 183.5q36 92 54 146h57q-68 -201 -93 -285q-14 -49 -14 -79t19 -30q27 0 56.5 26.5t52.5 62.5zM180 648l7 5q4 -40 28 -60t60 -20q40 0 67.5 17.5t51.5 62.5l6 -4q-9 -49 -39 -86.5t-90 -37.5q-41 0 -67 27.5t-26 71.5
q0 14 2 24z" />
    <glyph glyph-name="Uring" unicode="&#x16e;" horiz-adv-x="596" 
d="M676 657l-1 -5q-15 -2 -22 -4q-23 -8 -37 -28q-16 -21 -37 -102l-77 -304q-30 -119 -86.5 -173.5t-160.5 -54.5q-81 0 -134.5 42.5t-53.5 123.5q0 50 17 118l55 223q22 87 22 117q0 25 -26 36q-9 4 -26 6l2 5h206l-1 -5q-14 -2 -24 -5q-33 -10 -47 -35q-15 -26 -41 -135
l-64 -271q-10 -41 -10 -88q0 -55 34.5 -85.5t93.5 -30.5q102 0 152 54.5t76 158.5l76 301q14 55 14 82q0 34 -32 48q-8 4 -28 6l1 5h159zM495 776q-1 -32 -21 -53.5t-50 -21.5q-31 0 -51 21.5t-20 53.5t20 53.5t51 21.5t51 -21.5t20 -53.5zM478 776q0 27 -15 44t-39 17
t-39 -17t-15 -44t15.5 -44t38.5 -17t38.5 17t15.5 44z" />
    <glyph glyph-name="uring" unicode="&#x16f;" horiz-adv-x="449" 
d="M345 582q-1 -32 -21 -53.5t-50 -21.5q-31 0 -51 21.5t-20 53.5t20 53.5t51 21.5t51 -21.5t20 -53.5zM328 582q0 27 -15 44t-39 17t-39 -17t-15 -44t15.5 -44t38.5 -17t38.5 17t15.5 44zM431 107q-26 -45 -69 -80.5t-83 -35.5q-19 0 -30.5 14.5t-11.5 39.5q0 48 29 133h-3
q-54 -92 -104.5 -139.5t-88.5 -47.5q-46 0 -46 56q0 26 56 194q45 135 45 146q0 12 -10 12q-25 0 -73 -74l-8 5q30 54 60 75t52 21q35 0 35 -35q0 -18 -9 -50t-27 -83.5t-24 -70.5q-40 -128 -40 -142q0 -24 15 -24q33 0 90.5 66.5t103.5 183.5q36 92 54 146h57
q-68 -201 -93 -285q-14 -49 -14 -79t19 -30q27 0 56.5 26.5t52.5 62.5z" />
    <glyph glyph-name="Uhungarumlaut" unicode="&#x170;" horiz-adv-x="596" 
d="M676 657l-1 -5q-15 -2 -22 -4q-23 -8 -37 -28q-16 -21 -37 -102l-77 -304q-30 -119 -86.5 -173.5t-160.5 -54.5q-81 0 -134.5 42.5t-53.5 123.5q0 50 17 118l55 223q22 87 22 117q0 25 -26 36q-9 4 -26 6l2 5h206l-1 -5q-14 -2 -24 -5q-33 -10 -47 -35q-15 -26 -41 -135
l-64 -271q-10 -41 -10 -88q0 -55 34.5 -85.5t93.5 -30.5q102 0 152 54.5t76 158.5l76 301q14 55 14 82q0 34 -32 48q-8 4 -28 6l1 5h159zM494 841q0 -4 -1.5 -8.5t-3 -7.5t-5 -7t-6 -6.5t-8 -6.5t-8 -5.5t-9.5 -6t-9 -5.5q-15 -10 -61 -37t-64 -38h-11l96 100q4 5 12.5 13
t11.5 11.5t9 9t9 8t7.5 5t8.5 3.5t8 1q10 0 17 -7t7 -16zM638 841q0 -4 -1.5 -8.5t-3 -7.5t-5 -7t-6 -6.5t-8 -6.5t-8 -5.5t-9.5 -6t-9 -5.5q-15 -10 -61 -37t-64 -38h-11l96 100q4 5 12.5 13t11.5 11.5t9 9t9 8t7.5 5t8.5 3.5t8 1q10 0 17 -7t7 -16z" />
    <glyph glyph-name="uhungarumlaut" unicode="&#x171;" horiz-adv-x="449" 
d="M431 107q-26 -45 -69 -80.5t-83 -35.5q-19 0 -30.5 14.5t-11.5 39.5q0 48 29 133h-3q-54 -92 -104.5 -139.5t-88.5 -47.5q-46 0 -46 56q0 26 56 194q45 135 45 146q0 12 -10 12q-25 0 -73 -74l-8 5q30 54 60 75t52 21q35 0 35 -35q0 -18 -9 -50t-27 -83.5t-24 -70.5
q-40 -128 -40 -142q0 -24 15 -24q33 0 90.5 66.5t103.5 183.5q36 92 54 146h57q-68 -201 -93 -285q-14 -49 -14 -79t19 -30q27 0 56.5 26.5t52.5 62.5zM460 666q25 0 25 -24q0 -9 -5 -17.5t-10.5 -14.5t-19.5 -18q-70 -60 -127 -107l-5 5l93 133q16 24 26.5 33.5t22.5 9.5z
M322 666q25 0 25 -24q0 -9 -5 -17.5t-10.5 -14.5t-19.5 -18q-70 -60 -127 -107l-5 5l93 133q16 24 26.5 33.5t22.5 9.5z" />
    <glyph glyph-name="Uogonek" unicode="&#x172;" horiz-adv-x="596" 
d="M288 -13q-8 -1 -33 -1q-81 0 -134.5 42.5t-53.5 123.5q0 50 17 118l55 223q22 87 22 117q0 25 -26 36q-9 4 -26 6l2 5h206l-1 -5q-14 -2 -24 -5q-33 -10 -47 -35q-15 -26 -41 -135l-64 -271q-10 -41 -10 -88q0 -55 34.5 -85.5t93.5 -30.5q54 0 93.5 15.5t65 46t41 66
t28.5 85.5l76 301q14 55 14 82q0 34 -32 48q-8 4 -28 6l1 5h159l-1 -5q-15 -2 -22 -4q-23 -8 -37 -28q-16 -21 -37 -102l-77 -304q-23 -90 -61 -143.5t-103 -73.5q-59 -18 -85.5 -59t-26.5 -83q0 -54 62 -63l-1 -4q-57 -1 -85.5 18.5t-28.5 52.5q0 39 33 72t82 56z" />
    <glyph glyph-name="uogonek" unicode="&#x173;" horiz-adv-x="449" 
d="M431 107q-39 -67 -96 -99q-50 -35 -78 -70.5t-28 -84.5q0 -53 59 -60v-5q-56 -1 -87.5 19t-31.5 52q0 19 12 38.5t35 38.5t40 30.5t44 27.5q-10 -3 -21 -3q-19 0 -30.5 14.5t-11.5 39.5q0 48 29 133h-3q-54 -92 -104.5 -139.5t-88.5 -47.5q-46 0 -46 56q0 26 56 194
q45 135 45 146q0 12 -10 12q-25 0 -73 -74l-8 5q30 54 60 75t52 21q35 0 35 -35q0 -18 -9 -50t-27 -83.5t-24 -70.5q-40 -128 -40 -142q0 -24 15 -24q33 0 90.5 66.5t103.5 183.5q36 92 54 146h57q-68 -201 -93 -285q-14 -49 -14 -79t19 -30q27 0 56.5 26.5t52.5 62.5z" />
    <glyph glyph-name="Wcircumflex" unicode="&#x174;" horiz-adv-x="821" 
d="M338 -1l110 477l-404 -477h-18l121 495q22 93 22 117q0 27 -24 35q-13 4 -29 6l2 5h209l-1 -5q-23 -3 -28 -5q-31 -10 -42 -30q-20 -35 -44 -133l-89 -364h5l327 385l10 44q11 48 11 62q0 25 -25 34q-13 5 -30 7l2 5h206l-1 -5q-16 -2 -24 -5q-28 -9 -44 -31
q-14 -19 -21.5 -43t-22.5 -90l-81 -362h5l355 420q33 39 33 68q0 23 -19 33q-17 8 -40 10l1 5h181l-1 -5q-23 -6 -32 -10q-38 -18 -91 -84l-471 -559h-18zM658 717l-7 -4l-74 72l-128 -71l-5 4l119 116h39z" />
    <glyph glyph-name="wcircumflex" unicode="&#x175;" horiz-adv-x="580" 
d="M471 517l-4 -4l-72 89l-133 -89l-4 4l129 144h36zM145 22q41 0 102 71q-3 21 -3 42q0 143 63 243q30 48 59 48q35 0 35 -55q0 -108 -103 -243q17 -106 82 -106q40 0 77 45q69 88 69 202q0 43 -19 87q-11 26 -11 41q0 12 6.5 20.5t17.5 8.5q18 0 28 -20.5t10 -53.5
q0 -59 -23 -146t-67 -145q-53 -70 -112 -70q-84 0 -106 88q-75 -88 -135 -88q-82 0 -82 102q0 90 113 264q-32 2 -61 21q-4 3 -13.5 10t-15.5 10.5t-10 3.5q-7 0 -7 -7q0 -4 8 -20q7 -13 7 -24q0 -10 -7 -17.5t-16 -7.5q-27 0 -27 26q0 32 34 58q24 18 40 18q6 0 13 -2
t11 -4.5t11 -7t9 -5.5q28 -17 43 -17q5 0 12 10q16 24 29 24t13 -11q0 -12 -14 -20q-31 -17 -40 -31q-26 -42 -49 -121t-23 -143q0 -78 52 -78zM292 224q0 -53 3 -80q85 118 85 196q0 63 -28 63q-12 0 -25.5 -18.5t-24 -61.5t-10.5 -99z" />
    <glyph glyph-name="Ycircumflex" unicode="&#x176;" horiz-adv-x="470" 
d="M591 657l-1 -5q-17 -2 -34 -8q-22 -8 -41.5 -27.5t-59.5 -76.5l-178 -251l-30 -125q-24 -100 -24 -117q0 -21 20 -32q13 -7 32 -10l-1 -5h-207l1 5q17 2 31 6q26 7 40 31q14 25 32 97l34 149l-82 309q-2 8 -5 15t-6.5 12t-6.5 9t-7.5 6.5t-7 4.5t-8.5 3.5l-8 2t-8.5 1.5
t-7.5 1l1 5h193l-1 -5q-19 -2 -30 -7q-25 -9 -25 -33q0 -7 12 -57l61 -250h3l169 239q36 51 36 81q0 17 -22 23q-11 3 -22 4l1 5h157zM455 717l-7 -4l-74 72l-128 -71l-5 4l119 116h39z" />
    <glyph glyph-name="ycircumflex" unicode="&#x177;" horiz-adv-x="353" 
d="M314 368q0 -146 -75 -282t-186 -232q-78 -67 -120 -67q-16 0 -29 10t-13 28q0 16 9.5 26.5t24.5 10.5q21 0 35 -21q10 -15 21 -15q17 0 54 31q50 38 104 104q-18 212 -56 366q-16 60 -38 60q-6 0 -11.5 -4t-13.5 -15.5t-11.5 -17t-13.5 -23.5l-8 4q45 95 88 95
q29 0 46 -33q19 -37 37.5 -140t28.5 -226h2q48 73 73 143.5t25 114.5q0 33 -18 69q-12 26 -12 39q0 33 28 33q29 0 29 -58zM309 517l-4 -4l-72 89l-133 -89l-4 4l129 144h36z" />
    <glyph glyph-name="Ydieresis" unicode="&#x178;" horiz-adv-x="470" 
d="M591 657l-1 -5q-17 -2 -34 -8q-22 -8 -41.5 -27.5t-59.5 -76.5l-178 -251l-30 -125q-24 -100 -24 -117q0 -21 20 -32q13 -7 32 -10l-1 -5h-207l1 5q17 2 31 6q26 7 40 31q14 25 32 97l34 149l-82 309q-2 8 -5 15t-6.5 12t-6.5 9t-7.5 6.5t-7 4.5t-8.5 3.5l-8 2t-8.5 1.5
t-7.5 1l1 5h193l-1 -5q-19 -2 -30 -7q-25 -9 -25 -33q0 -7 12 -57l61 -250h3l169 239q36 51 36 81q0 17 -22 23q-11 3 -22 4l1 5h157zM222 775q0 19 12.5 32t31.5 13t32 -13t13 -32t-13 -31.5t-32 -12.5t-31.5 12.5t-12.5 31.5zM423 775q0 19 12.5 32t31.5 13t32 -13t13 -32
t-13 -31.5t-32 -12.5t-31.5 12.5t-12.5 31.5z" />
    <glyph glyph-name="Zacute" unicode="&#x179;" horiz-adv-x="530" 
d="M313 715l-3 5q103 77 127 94q32 23 48 23q27 0 27 -26q0 -15 -11.5 -24t-39.5 -20q-35 -13 -148 -52zM598 657l-1 -5l-541 -640h92q114 0 189 35q41 19 71.5 44t72.5 70h6l-91 -161h-426l1 5l536 640h-116q-96 0 -164 -42q-38 -23 -115 -107h-7l92 161h401z" />
    <glyph glyph-name="zacute" unicode="&#x17a;" horiz-adv-x="369" 
d="M328 626q0 -13 -10 -22.5t-37 -23.5q-19 -10 -61 -30t-74 -36l-4 5q15 14 103 97q35 34 56 34q13 0 20 -7t7 -17zM369 404q0 -6 -1.5 -11.5t-5 -11.5t-6.5 -10.5t-10 -11t-10.5 -10t-13 -11.5t-13.5 -11l-247 -246h4q17 0 32 -2q31 -3 61 -11q8 -2 26.5 -7.5t30 -7.5
t24.5 -2q41 0 70 30q10 11 25 37l10 -5q-13 -27 -29.5 -50.5t-47 -47.5t-62.5 -24q-40 0 -77 41q-32 35 -59 35q-15 0 -23.5 -9.5t-17.5 -32.5q-14 -34 -34 -34t-20 26q0 25 26 40q12 7 35 17l242 242h-2q-59 0 -118 41q-42 29 -64 29t-35 -14t-13 -37q0 -22 18 -32
q2 39 32 39q31 0 31 -34q0 -14 -9 -23t-24 -9q-25 0 -42 18t-17 47q0 37 25 61t59 24q25 0 43.5 -9t44.5 -32q61 -53 76 -53t22.5 10t12 32.5t6.5 28.5q9 23 28 23q17 0 17 -22z" />
    <glyph glyph-name="Zdotaccent" unicode="&#x17b;" horiz-adv-x="542" 
d="M598 657l-1 -5l-541 -640h92q114 0 189 35q41 19 71.5 44t72.5 70h6l-91 -161h-426l1 5l536 640h-116q-96 0 -164 -42q-38 -23 -115 -107h-7l92 161h401zM334 771q0 17 11.5 28.5t29.5 11.5t30 -11.5t12 -28.5t-12 -28t-30 -11t-29.5 11t-11.5 28z" />
    <glyph glyph-name="zdotaccent" unicode="&#x17c;" horiz-adv-x="369" 
d="M369 404q0 -6 -1.5 -11.5t-5 -11.5t-6.5 -10.5t-10 -11t-10.5 -10t-13 -11.5t-13.5 -11l-247 -246h4q17 0 32 -2q31 -3 61 -11q8 -2 26.5 -7.5t30 -7.5t24.5 -2q41 0 70 30q10 11 25 37l10 -5q-13 -27 -29.5 -50.5t-47 -47.5t-62.5 -24q-40 0 -77 41q-32 35 -59 35
q-15 0 -23.5 -9.5t-17.5 -32.5q-14 -34 -34 -34t-20 26q0 25 26 40q12 7 35 17l242 242h-2q-59 0 -118 41q-42 29 -64 29t-35 -14t-13 -37q0 -22 18 -32q2 39 32 39q31 0 31 -34q0 -14 -9 -23t-24 -9q-25 0 -42 18t-17 47q0 37 25 61t59 24q25 0 43.5 -9t44.5 -32
q61 -53 76 -53t22.5 10t12 32.5t6.5 28.5q9 23 28 23q17 0 17 -22zM267 600q0 -20 -13.5 -29t-28.5 -9q-13 0 -26 10t-13 28q0 17 13 28t26 11q14 0 28 -10t14 -29z" />
    <glyph glyph-name="Zcaron" unicode="&#x17d;" horiz-adv-x="542" 
d="M311 831l7 4l78 -71l124 71l5 -4l-119 -116h-38zM598 657l-1 -5l-541 -640h92q114 0 189 35q41 19 71.5 44t72.5 70h6l-91 -161h-426l1 5l536 640h-116q-96 0 -164 -42q-38 -23 -115 -107h-7l92 161h401z" />
    <glyph glyph-name="zcaron" unicode="&#x17e;" horiz-adv-x="371" 
d="M148 651l4 4l73 -89l132 89l4 -4l-128 -144h-36zM369 404q0 -6 -1.5 -11.5t-5 -11.5t-6.5 -10.5t-10 -11t-10.5 -10t-13 -11.5t-13.5 -11l-247 -246h4q17 0 32 -2q31 -3 61 -11q8 -2 26.5 -7.5t30 -7.5t24.5 -2q41 0 70 30q10 11 25 37l10 -5q-13 -27 -29.5 -50.5
t-47 -47.5t-62.5 -24q-40 0 -77 41q-32 35 -59 35q-15 0 -23.5 -9.5t-17.5 -32.5q-14 -34 -34 -34t-20 26q0 25 26 40q12 7 35 17l242 242h-2q-59 0 -118 41q-42 29 -64 29t-35 -14t-13 -37q0 -22 18 -32q2 39 32 39q31 0 31 -34q0 -14 -9 -23t-24 -9q-25 0 -42 18t-17 47
q0 37 25 61t59 24q25 0 43.5 -9t44.5 -32q61 -53 76 -53t22.5 10t12 32.5t6.5 28.5q9 23 28 23q17 0 17 -22z" />
    <glyph glyph-name="florin" unicode="&#x192;" horiz-adv-x="303" 
d="M294 410h-96q-51 -244 -104 -395q-36 -102 -83 -149.5t-98 -47.5q-30 0 -52 15.5t-22 41.5q0 15 9 25t23 10q21 0 29 -20q2 -7 3 -22t2 -20q4 -14 20 -14t35 17.5t36 56.5q23 52 46.5 132.5t41 152.5t41.5 177q6 27 9 40h-67l4 14h66l14 57q23 87 70 131t96 44
q31 0 53.5 -16t22.5 -37q0 -30 -28 -30q-32 0 -32 26q0 5 1 14t1 14q0 19 -21 19q-29 0 -49 -33q-30 -48 -64 -189h97z" />
    <glyph glyph-name="Aringacute" unicode="&#x1fa;" horiz-adv-x="508" 
d="M327 174l20 80h-178l-119 -141q-33 -39 -33 -63q0 -22 19 -34q14 -8 40 -11l-1 -5h-179l1 5q12 3 27 9q39 17 92 79l479 564h20l-120 -493q-24 -94 -24 -118t26 -35q9 -4 26 -6l-1 -5h-206l1 5q16 2 23 4q27 5 43 32q16 28 44 133zM419 550l-240 -284h171l74 284h-5z
M465 879l-3 5q104 77 127 94q32 23 48 23q27 0 27 -26q0 -15 -11.5 -24t-39.5 -20q-35 -13 -148 -52zM588 776q-1 -32 -21 -53.5t-50 -21.5q-31 0 -51 21.5t-20 53.5t20 53.5t51 21.5t51 -21.5t20 -53.5zM571 776q0 27 -15 44t-39 17t-39 -17t-15 -44t15.5 -44t38.5 -17
t38.5 17t15.5 44z" />
    <glyph glyph-name="aringacute" unicode="&#x1fb;" horiz-adv-x="421" 
d="M399 106q-65 -115 -128 -115q-21 0 -34.5 14t-13.5 42q0 17 13 62h-1q-28 -50 -60 -80q-40 -38 -85 -38q-31 0 -57 28t-26 92q0 61 33 134.5t88.5 127t111.5 53.5q55 0 66 -72h1q6 17 27 63h48q-8 -26 -34.5 -113t-36.5 -119q-34 -109 -34 -141q0 -20 18 -20q40 0 94 87z
M292 334q0 35 -13 58t-40 23q-29 0 -51.5 -19.5t-47.5 -58.5q-33 -51 -52 -121.5t-19 -117.5q0 -80 45 -80q31 0 59 29q26 26 52 71q21 36 44 109.5t23 106.5zM338 562q-1 -32 -21 -53.5t-50 -21.5q-31 0 -51 21.5t-20 53.5t20 53.5t51 21.5t51 -21.5t20 -53.5zM321 562
q0 27 -15 44t-39 17t-39 -17t-15 -44t15.5 -44t38.5 -17t38.5 17t15.5 44zM218 698l-3 5q104 77 127 94q32 23 48 23q27 0 27 -26q0 -15 -11.5 -24t-39.5 -20q-35 -13 -148 -52z" />
    <glyph glyph-name="AEacute" unicode="&#x1fc;" horiz-adv-x="803" 
d="M788 657v-162h-6q-5 28 -8 43t-12.5 38.5t-21.5 36t-33.5 22t-50.5 9.5h-64q-55 0 -72 -71l-55 -225h59q61 0 86.5 23t47.5 80h6l-55 -219h-6q2 24 2 36q0 19 -2 29t-9 20t-23.5 14t-44.5 4h-65l-51 -201q-14 -55 -14 -75q0 -46 53 -46h67q73 0 129 45q64 51 107 127h6
l-69 -185h-449l1 5q32 0 53.5 22.5t30 46.5t25.5 87q3 9 4 14l19 79h-208l-115 -141q-33 -39 -33 -63q0 -22 19 -34q14 -8 40 -11l-1 -5h-179l1 5q12 3 27 9q39 17 92 79l435 532q-13 22 -46 27l1 5h382zM463 611h-5l-283 -345h201zM567 715l-3 5q104 77 127 94q32 23 48 23
q27 0 27 -26q0 -15 -11.5 -24t-39.5 -20q-35 -13 -148 -52z" />
    <glyph glyph-name="aeacute" unicode="&#x1fd;" horiz-adv-x="557" 
d="M516 298q-68 -55 -193 -100q-15 -57 -15 -105q0 -84 59 -84q39 0 74 34t55 75l10 -5q-63 -122 -156 -122q-46 0 -73 36t-27 93v23q-14 -35 -36.5 -67.5t-38.5 -47.5q-39 -37 -85 -37q-31 0 -57 28t-26 92q0 61 33 134.5t88.5 127t111.5 53.5q55 0 66 -72h1q6 17 27 63h41
l-20 -64h2q55 73 125 73q33 0 51.5 -15.5t18.5 -43.5q0 -41 -36 -69zM292 334q0 35 -13 58t-40 23q-29 0 -51.5 -19.5t-47.5 -58.5q-33 -51 -52 -121.5t-19 -117.5q0 -80 45 -80q32 0 59 29q25 27 52 71q21 35 44 108.5t23 107.5zM466 413q-42 0 -80 -60.5t-60 -142.5
q106 39 140 79q28 34 28 83q0 41 -28 41zM487 626q0 -13 -10 -22.5t-37 -23.5q-19 -10 -61 -30t-74 -36l-4 5q15 14 103 97q35 34 56 34q13 0 20 -7t7 -17z" />
    <glyph glyph-name="Oslashacute" unicode="&#x1fe;" horiz-adv-x="607" 
d="M591 417q0 -89 -36.5 -182.5t-98.5 -153.5q-98 -95 -203 -95q-45 0 -84 18l-35 -73l-12 5l35 74q-106 60 -106 230q0 90 35.5 181t100.5 156q93 93 201 93q41 0 75 -14l29 61l12 -5l-29 -61q116 -55 116 -234zM519 470q0 115 -54 160l-287 -607q30 -23 76 -23
q63 0 113 43q55 47 103.5 170.5t48.5 256.5zM123 186q0 -109 45 -154l286 606q-28 18 -65 18q-65 0 -120 -50q-55 -51 -100.5 -170.5t-45.5 -249.5zM340 715l-3 5q104 77 127 94q32 23 48 23q27 0 27 -26q0 -15 -11.5 -24t-39.5 -20q-35 -13 -148 -52z" />
    <glyph glyph-name="oslashacute" unicode="&#x1ff;" horiz-adv-x="362" 
d="M332 286q0 -62 -23.5 -124.5t-64.5 -107.5q-56 -62 -130 -62q-11 0 -31 4l-26 -60l-13 5l26 59q-64 29 -64 123q0 136 87 236q59 67 135 67q12 0 30 -4l25 56l13 -5l-25 -56q61 -29 61 -131zM61 85q1 -44 18 -65l173 389q-12 6 -27 6q-44 0 -87 -62q-31 -45 -55 -125
t-22 -143zM281 322q0 56 -18 77l-173 -389q11 -7 29 -7q20 0 38 12t26.5 23t20.5 30q29 49 52.5 125t24.5 129zM364 626q0 -13 -10 -22.5t-37 -23.5q-19 -10 -61 -30t-74 -36l-4 5q15 14 103 97q35 34 56 34q13 0 20 -7t7 -17z" />
    <glyph glyph-name="Scommaaccent" unicode="&#x218;" horiz-adv-x="446" 
d="M175 -89q0 -47 -33.5 -81.5t-88.5 -51.5l-3 9q40 12 62.5 33.5t22.5 40.5q0 8 -2 16q-42 3 -42 41q0 16 10.5 28.5t31.5 12.5q17 0 29.5 -13t12.5 -35zM456 653l-25 -172h-8q-7 95 -29 130q-29 47 -102 47q-51 0 -84.5 -30t-33.5 -86q0 -17 2.5 -31.5t8.5 -28t10.5 -22.5
t15.5 -22t15.5 -18t18.5 -18.5t17 -16.5q10 -10 38.5 -37t38.5 -38t26 -33.5t21.5 -45t5.5 -50.5q0 -47 -20.5 -85.5t-53 -61.5t-68 -35.5t-69.5 -12.5q-50 0 -87 20t-56 46h-5l-40 -41h-4l45 200h8q3 -111 33.5 -161.5t111.5 -50.5q65 0 101.5 46t36.5 105q0 24 -7 45
t-25.5 44.5t-30.5 36.5t-43 43q-4 4 -19 18.5t-19.5 19t-17 18t-17 21.5t-13 22t-11.5 25.5t-6 27t-3 32.5q0 68 48.5 118t132.5 50q41 0 75 -14.5t51 -37.5h2l28 34h6z" />
    <glyph glyph-name="scommaaccent" unicode="&#x219;" horiz-adv-x="291" 
d="M103 -92q0 -47 -33.5 -81.5t-88.5 -51.5l-3 9q40 12 62.5 33.5t22.5 40.5q0 8 -2 16q-42 3 -42 41q0 16 10.5 28.5t31.5 12.5q17 0 29.5 -13t12.5 -35zM276 358q0 -16 -8 -27t-23 -11q-13 0 -21 8t-8 21q0 8 4 19t3 18q-3 28 -45 28q-63 0 -63 -68q0 -32 47 -105
q46 -71 55 -88.5t9 -39.5q0 -55 -42.5 -88t-89.5 -33q-43 0 -75 26t-32 67q0 21 10 35t29 14q14 0 22 -9t7 -24t-12.5 -29t-11.5 -24q0 -22 18 -34t43 -12q34 0 55 24t21 67q0 8 -0.5 14t-3.5 14t-5 12.5t-8.5 15t-10 15.5t-14 20.5t-15.5 23.5q-27 41 -37.5 65t-10.5 51
q0 45 35 73.5t85 28.5q39 0 66 -21t27 -47z" />
    <glyph glyph-name="uni0237" unicode="&#x237;" horiz-adv-x="222" 
d="M188 376q0 -27 -72 -253q-48 -150 -69 -200.5t-47 -81.5q-46 -54 -108 -54q-37 0 -57 19t-20 41q0 17 8.5 28t23.5 11q32 0 32 -33q0 -7 -4 -23q-2 -10 -2 -14q0 -15 23 -15q38 0 64 45q21 37 102 291q33 101 45 146q22 76 22 97q0 20 -16 20q-13 0 -27.5 -14.5
t-43.5 -60.5l-9 5q54 96 109 96q46 0 46 -50z" />
    <glyph glyph-name="circumflex" unicode="&#x2c6;" horiz-adv-x="304" 
d="M301 517l-4 -4l-72 89l-133 -89l-4 4l129 144h36z" />
    <glyph glyph-name="caron" unicode="&#x2c7;" horiz-adv-x="298" 
d="M88 651l4 4l73 -89l132 89l4 -4l-128 -144h-36z" />
    <glyph glyph-name="breve" unicode="&#x2d8;" horiz-adv-x="201" 
d="M34 648l7 5q4 -40 28 -60t60 -20q40 0 67.5 17.5t51.5 62.5l6 -4q-9 -49 -39 -86.5t-90 -37.5q-41 0 -67 27.5t-26 71.5q0 14 2 24z" />
    <glyph glyph-name="dotaccent" unicode="&#x2d9;" horiz-adv-x="241" 
d="M238 600q0 -20 -13.5 -29t-28.5 -9q-13 0 -26 10t-13 28q0 17 13 28t26 11q14 0 28 -10t14 -29z" />
    <glyph glyph-name="ring" unicode="&#x2da;" horiz-adv-x="432" 
d="M289 582q-1 -32 -21 -53.5t-50 -21.5q-31 0 -51 21.5t-20 53.5t20 53.5t51 21.5t51 -21.5t20 -53.5zM272 582q0 27 -15 44t-39 17t-39 -17t-15 -44t15.5 -44t38.5 -17t38.5 17t15.5 44z" />
    <glyph glyph-name="ogonek" unicode="&#x2db;" horiz-adv-x="194" 
d="M131 -8l9 4q9 5 20.5 10t16.5 8q-53 -37 -82 -72.5t-29 -88.5t59 -60v-5q-56 -1 -87.5 19t-31.5 52q0 19 10.5 37.5t35 38.5t36.5 28.5t43 28.5zM180 17l-2 -2z" />
    <glyph glyph-name="tilde" unicode="&#x2dc;" horiz-adv-x="266" 
d="M309 615l3 -2q-29 -76 -90 -76q-24 0 -62.5 15.5t-60.5 15.5q-37 0 -75 -38l-3 3q21 35 48 55.5t53 20.5q25 0 60 -14.5t51 -14.5q25 0 41 7t35 28z" />
    <glyph glyph-name="hungarumlaut" unicode="&#x2dd;" horiz-adv-x="356" 
d="M267 666q25 0 25 -24q0 -9 -5 -17.5t-10.5 -14.5t-19.5 -18q-70 -60 -127 -107l-5 5l93 133q16 24 26.5 33.5t22.5 9.5zM405 666q25 0 25 -24q0 -9 -5 -17.5t-10.5 -14.5t-19.5 -18q-70 -60 -127 -107l-5 5l93 133q16 24 26.5 33.5t22.5 9.5z" />
    <glyph glyph-name="Wgrave" unicode="&#x1e80;" horiz-adv-x="821" 
d="M338 -1l110 477l-404 -477h-18l121 495q22 93 22 117q0 27 -24 35q-13 4 -29 6l2 5h209l-1 -5q-23 -3 -28 -5q-31 -10 -42 -30q-20 -35 -44 -133l-89 -364h5l327 385l10 44q11 48 11 62q0 25 -25 34q-13 5 -30 7l2 5h206l-1 -5q-16 -2 -24 -5q-28 -9 -44 -31
q-14 -19 -21.5 -43t-22.5 -90l-81 -362h5l355 420q33 39 33 68q0 23 -19 33q-17 8 -40 10l1 5h181l-1 -5q-23 -6 -32 -10q-38 -18 -91 -84l-471 -559h-18zM620 720l-3 -5q-113 39 -148 52q-28 11 -39.5 20t-11.5 24q0 26 27 26q16 0 48 -23q24 -17 127 -94z" />
    <glyph glyph-name="wgrave" unicode="&#x1e81;" horiz-adv-x="580" 
d="M145 22q41 0 102 71q-3 21 -3 42q0 143 63 243q30 48 59 48q35 0 35 -55q0 -108 -103 -243q17 -106 82 -106q40 0 77 45q69 88 69 202q0 43 -19 87q-11 26 -11 41q0 12 6.5 20.5t17.5 8.5q18 0 28 -20.5t10 -53.5q0 -59 -23 -146t-67 -145q-53 -70 -112 -70
q-84 0 -106 88q-75 -88 -135 -88q-82 0 -82 102q0 90 113 264q-32 2 -61 21q-4 3 -13.5 10t-15.5 10.5t-10 3.5q-7 0 -7 -7q0 -4 8 -20q7 -13 7 -24q0 -10 -7 -17.5t-16 -7.5q-27 0 -27 26q0 32 34 58q24 18 40 18q6 0 13 -2t11 -4.5t11 -7t9 -5.5q28 -17 43 -17q5 0 12 10
q16 24 29 24t13 -11q0 -12 -14 -20q-31 -17 -40 -31q-26 -42 -49 -121t-23 -143q0 -78 52 -78zM292 224q0 -53 3 -80q85 118 85 196q0 63 -28 63q-12 0 -25.5 -18.5t-24 -61.5t-10.5 -99zM443 520l-3 -4q-7 3 -103 58q-28 15 -38.5 26t-10.5 24q0 26 26 26q13 0 23 -7.5
t30 -30.5q58 -68 76 -92z" />
    <glyph glyph-name="Wacute" unicode="&#x1e82;" horiz-adv-x="821" 
d="M338 -1l110 477l-404 -477h-18l121 495q22 93 22 117q0 27 -24 35q-13 4 -29 6l2 5h209l-1 -5q-23 -3 -28 -5q-31 -10 -42 -30q-20 -35 -44 -133l-89 -364h5l327 385l10 44q11 48 11 62q0 25 -25 34q-13 5 -30 7l2 5h206l-1 -5q-16 -2 -24 -5q-28 -9 -44 -31
q-14 -19 -21.5 -43t-22.5 -90l-81 -362h5l355 420q33 39 33 68q0 23 -19 33q-17 8 -40 10l1 5h181l-1 -5q-23 -6 -32 -10q-38 -18 -91 -84l-471 -559h-18zM494 715l-3 5q103 77 127 94q32 23 48 23q27 0 27 -26q0 -15 -11.5 -24t-39.5 -20q-35 -13 -148 -52z" />
    <glyph glyph-name="wacute" unicode="&#x1e83;" horiz-adv-x="580" 
d="M503 626q0 -13 -10 -22.5t-37 -23.5q-19 -10 -61 -30t-74 -36l-4 5q15 14 103 97q35 34 56 34q13 0 20 -7t7 -17zM145 22q41 0 102 71q-3 21 -3 42q0 143 63 243q30 48 59 48q35 0 35 -55q0 -108 -103 -243q17 -106 82 -106q40 0 77 45q69 88 69 202q0 43 -19 87
q-11 26 -11 41q0 12 6.5 20.5t17.5 8.5q18 0 28 -20.5t10 -53.5q0 -59 -23 -146t-67 -145q-53 -70 -112 -70q-84 0 -106 88q-75 -88 -135 -88q-82 0 -82 102q0 90 113 264q-32 2 -61 21q-4 3 -13.5 10t-15.5 10.5t-10 3.5q-7 0 -7 -7q0 -4 8 -20q7 -13 7 -24q0 -10 -7 -17.5
t-16 -7.5q-27 0 -27 26q0 32 34 58q24 18 40 18q6 0 13 -2t11 -4.5t11 -7t9 -5.5q28 -17 43 -17q5 0 12 10q16 24 29 24t13 -11q0 -12 -14 -20q-31 -17 -40 -31q-26 -42 -49 -121t-23 -143q0 -78 52 -78zM292 224q0 -53 3 -80q85 118 85 196q0 63 -28 63q-12 0 -25.5 -18.5
t-24 -61.5t-10.5 -99z" />
    <glyph glyph-name="Wdieresis" unicode="&#x1e84;" horiz-adv-x="821" 
d="M338 -1l110 477l-404 -477h-18l121 495q22 93 22 117q0 27 -24 35q-13 4 -29 6l2 5h209l-1 -5q-23 -3 -28 -5q-31 -10 -42 -30q-20 -35 -44 -133l-89 -364h5l327 385l10 44q11 48 11 62q0 25 -25 34q-13 5 -30 7l2 5h206l-1 -5q-16 -2 -24 -5q-28 -9 -44 -31
q-14 -19 -21.5 -43t-22.5 -90l-81 -362h5l355 420q33 39 33 68q0 23 -19 33q-17 8 -40 10l1 5h181l-1 -5q-23 -6 -32 -10q-38 -18 -91 -84l-471 -559h-18zM616 775q0 19 12.5 32t31.5 13t32 -13t13 -32t-13 -31.5t-32 -12.5t-31.5 12.5t-12.5 31.5zM415 775q0 19 12.5 32
t31.5 13t32 -13t13 -32t-13 -31.5t-32 -12.5t-31.5 12.5t-12.5 31.5z" />
    <glyph glyph-name="wdieresis" unicode="&#x1e85;" horiz-adv-x="580" 
d="M272 600q0 17 11 28t27 11t27.5 -11.5t11.5 -27.5t-11 -27t-28 -11q-16 0 -27 11t-11 27zM408 600q0 17 11 28t27 11t27.5 -11.5t11.5 -27.5t-11 -27t-28 -11q-16 0 -27 11t-11 27zM145 22q41 0 102 71q-3 21 -3 42q0 143 63 243q30 48 59 48q35 0 35 -55
q0 -108 -103 -243q17 -106 82 -106q40 0 77 45q69 88 69 202q0 43 -19 87q-11 26 -11 41q0 12 6.5 20.5t17.5 8.5q18 0 28 -20.5t10 -53.5q0 -59 -23 -146t-67 -145q-53 -70 -112 -70q-84 0 -106 88q-75 -88 -135 -88q-82 0 -82 102q0 90 113 264q-32 2 -61 21
q-4 3 -13.5 10t-15.5 10.5t-10 3.5q-7 0 -7 -7q0 -4 8 -20q7 -13 7 -24q0 -10 -7 -17.5t-16 -7.5q-27 0 -27 26q0 32 34 58q24 18 40 18q6 0 13 -2t11 -4.5t11 -7t9 -5.5q28 -17 43 -17q5 0 12 10q16 24 29 24t13 -11q0 -12 -14 -20q-31 -17 -40 -31q-26 -42 -49 -121
t-23 -143q0 -78 52 -78zM292 224q0 -53 3 -80q85 118 85 196q0 63 -28 63q-12 0 -25.5 -18.5t-24 -61.5t-10.5 -99z" />
    <glyph glyph-name="Ygrave" unicode="&#x1ef2;" horiz-adv-x="470" 
d="M591 657l-1 -5q-17 -2 -34 -8q-22 -8 -41.5 -27.5t-59.5 -76.5l-178 -251l-30 -125q-24 -100 -24 -117q0 -21 20 -32q13 -7 32 -10l-1 -5h-207l1 5q17 2 31 6q26 7 40 31q14 25 32 97l34 149l-82 309q-2 8 -5 15t-6.5 12t-6.5 9t-7.5 6.5t-7 4.5t-8.5 3.5l-8 2t-8.5 1.5
t-7.5 1l1 5h193l-1 -5q-19 -2 -30 -7q-25 -9 -25 -33q0 -7 12 -57l61 -250h3l169 239q36 51 36 81q0 17 -22 23q-11 3 -22 4l1 5h157zM430 720l-3 -5q-113 39 -148 52q-28 11 -39.5 20t-11.5 24q0 26 27 26q16 0 48 -23q23 -17 127 -94z" />
    <glyph glyph-name="ygrave" unicode="&#x1ef3;" horiz-adv-x="353" 
d="M314 368q0 -146 -75 -282t-186 -232q-78 -67 -120 -67q-16 0 -29 10t-13 28q0 16 9.5 26.5t24.5 10.5q21 0 35 -21q10 -15 21 -15q17 0 54 31q50 38 104 104q-18 212 -56 366q-16 60 -38 60q-6 0 -11.5 -4t-13.5 -15.5t-11.5 -17t-13.5 -23.5l-8 4q45 95 88 95
q29 0 46 -33q19 -37 37.5 -140t28.5 -226h2q48 73 73 143.5t25 114.5q0 33 -18 69q-12 26 -12 39q0 33 28 33q29 0 29 -58zM271 520l-3 -4q-7 3 -103 58q-28 15 -38.5 26t-10.5 24q0 26 26 26q13 0 23 -7.5t30 -30.5q58 -68 76 -92z" />
    <glyph glyph-name="uni2009" unicode="&#x2009;" horiz-adv-x="80" 
 />
    <glyph glyph-name="endash" unicode="&#x2013;" horiz-adv-x="500" 
d="M463 235h-440l8 26h440z" />
    <glyph glyph-name="emdash" unicode="&#x2014;" horiz-adv-x="760" 
d="M723 235h-700l8 26h700z" />
    <glyph glyph-name="quoteleft" unicode="&#x2018;" horiz-adv-x="135" 
d="M205 673l2 -7q-66 -24 -94 -79q21 -1 32.5 -13t11.5 -30q0 -21 -12 -32.5t-30 -11.5t-30.5 12t-12.5 34q0 45 39 77.5t94 49.5z" />
    <glyph glyph-name="quoteright" unicode="&#x2019;" horiz-adv-x="135" 
d="M74 499l-2 7q66 24 94 79q-21 1 -32.5 13t-11.5 30q0 21 12 32.5t30 11.5t30.5 -12t12.5 -34q0 -45 -39 -77.5t-94 -49.5z" />
    <glyph glyph-name="quotesinglbase" unicode="&#x201a;" horiz-adv-x="143" 
d="M-42 -94l-2 7q66 24 94 79q-21 1 -32.5 13t-11.5 30q0 21 12 32.5t30 11.5t30.5 -12t12.5 -34q0 -45 -39 -77.5t-94 -49.5z" />
    <glyph glyph-name="quotedblleft" unicode="&#x201c;" horiz-adv-x="260" 
d="M205 673l2 -7q-66 -24 -94 -79q21 -1 32.5 -13t11.5 -30q0 -21 -12 -32.5t-30 -11.5t-30.5 12t-12.5 34q0 45 39 77.5t94 49.5zM330 673l2 -7q-66 -24 -94 -79q21 -1 32.5 -13t11.5 -30q0 -21 -12 -32.5t-30 -11.5t-30.5 12t-12.5 34q0 45 39 77.5t94 49.5z" />
    <glyph glyph-name="quotedblright" unicode="&#x201d;" horiz-adv-x="260" 
d="M74 499l-2 7q66 24 94 79q-21 1 -32.5 13t-11.5 30q0 21 12 32.5t30 11.5t30.5 -12t12.5 -34q0 -45 -39 -77.5t-94 -49.5zM199 499l-2 7q66 24 94 79q-21 1 -32.5 13t-11.5 30q0 21 12 32.5t30 11.5t30.5 -12t12.5 -34q0 -45 -39 -77.5t-94 -49.5z" />
    <glyph glyph-name="quotedblbase" unicode="&#x201e;" horiz-adv-x="269" 
d="M-41 -94l-2 7q66 24 94 79q-21 1 -32.5 13t-11.5 30q0 21 12 32.5t30 11.5t30.5 -12t12.5 -34q0 -45 -39 -77.5t-94 -49.5zM84 -94l-2 7q66 24 94 79q-21 1 -32.5 13t-11.5 30q0 21 12 32.5t30 11.5t30.5 -12t12.5 -34q0 -45 -39 -77.5t-94 -49.5z" />
    <glyph glyph-name="dagger" unicode="&#x2020;" horiz-adv-x="433" 
d="M98 -147l118 549q7 35 7 39q0 13 -8.5 20.5t-20.5 7.5q-7 0 -33 -14q-32 -18 -51 -18q-23 0 -39 14t-16 31q0 24 21 24q22 0 22 -21q0 -6 -4 -14t-4 -14q0 -9 9 -9q10 0 49 28q25 17 40 17q21 0 38 -26q9 -15 17 -15q13 0 13 16q0 2 -2 5.5t-5 9.5l-5 10q-8 14 -8 29
q0 25 27 40q2 1 7.5 4t7 4t5 3.5t4.5 5t1 5.5q0 4 -6 18q-6 12 -6 21q0 14 9 23t22 9q14 0 22 -9t8 -20q0 -20 -17 -31q-19 -13 -19 -22q0 -6 10 -22t10 -31q0 -21 -21 -37q-4 -3 -10.5 -7t-10 -6.5t-6 -6t-2.5 -7.5q0 -15 13 -15q4 0 18 7t25 7q25 0 41 -33q3 -7 8.5 -19
t9 -19t8.5 -12.5t10 -5.5q4 0 6.5 3t3.5 6t1.5 9.5t1.5 9.5q4 17 20 17q9 0 15 -6t6 -15q0 -15 -13 -25t-31 -10q-16 0 -29.5 9t-19.5 17t-17 24q-20 33 -37 33q-20 0 -29 -31l-177 -556z" />
    <glyph glyph-name="daggerdbl" unicode="&#x2021;" horiz-adv-x="423" 
d="M272 407l-91 -318q-5 -15 -5 -31q0 -13 8.5 -20.5t20.5 -7.5q7 0 33 14q32 18 51 18q23 0 39 -14t16 -31q0 -24 -21 -24q-22 0 -22 21q0 6 4 14t4 14q0 9 -9 9q-10 0 -49 -28q-25 -17 -40 -17q-22 0 -39 26q-9 15 -15 15q-15 0 -15 -16q0 -6 10 -24q7 -13 7 -27
q0 -27 -28 -42q-2 -1 -5.5 -3t-5 -2.5t-4.5 -2.5t-4 -3t-2.5 -3t-2 -4t-0.5 -4q0 -9 4 -18q6 -12 6 -21q0 -15 -9 -23.5t-23 -8.5q-13 0 -21 9t-8 20q0 20 17 31q2 2 6 4t6 3.5t4.5 3.5t3.5 5t1 6q0 6 -10 22q-9 14 -9 31q0 22 22 39q6 4 13 8.5t10 6t5 5t2 8.5q0 12 -11 12
q-5 0 -19 -7t-25 -7q-24 0 -41 33q-3 7 -8.5 19t-9 19t-8.5 12.5t-10 5.5q-4 0 -6.5 -3t-3.5 -6t-1.5 -9.5t-1.5 -9.5q-4 -17 -20 -17q-9 0 -15 6t-6 15q0 15 13 25t31 10q16 0 29.5 -9t19.5 -17t17 -24q20 -33 37 -33q20 0 29 31l91 318q5 15 5 31q0 13 -8.5 21.5
t-20.5 8.5q-7 0 -33 -14q-32 -18 -51 -18q-23 0 -39 14t-16 31q0 24 21 24q22 0 22 -21q0 -6 -4 -14t-4 -14q0 -9 9 -9q10 0 49 28q25 17 40 17q20 0 38 -27q10 -16 16 -16q16 0 16 16q0 7 -10 24q-8 14 -8 28q0 29 29 42q23 14 25 21q0 9 -4 18q-6 12 -6 21q0 14 8.5 23
t22.5 9t22 -8.5t8 -20.5q0 -20 -17 -31q-2 -2 -6 -4t-6 -3.5t-4.5 -3.5t-3.5 -5t-1 -6q0 -8 8 -21q10 -16 10 -32q0 -25 -21 -38q-5 -3 -11.5 -7t-9 -5.5t-5.5 -4t-4 -5.5t-1 -7q0 -12 11 -12q4 0 18 7t25 7q25 0 41 -33q3 -7 8.5 -19t9 -19t8.5 -12.5t10 -5.5q4 0 6.5 3
t3.5 6t1.5 9.5t1.5 9.5q4 17 20 17q9 0 15 -6t6 -15q0 -15 -13 -25t-31 -10q-16 0 -29.5 9t-19.5 17t-17 24q-20 33 -37 33q-20 0 -29 -31z" />
    <glyph glyph-name="bullet" unicode="&#x2022;" horiz-adv-x="368" 
d="M115 326q0 44 31 75t75 31t75 -31t31 -75t-31 -75t-75 -31t-75 31t-31 75z" />
    <glyph glyph-name="ellipsis" unicode="&#x2026;" horiz-adv-x="432" 
d="M-18 31q0 20 13.5 34t33.5 14t33.5 -14t13.5 -34t-13.5 -34t-33.5 -14t-33.5 14t-13.5 34zM128 31q0 20 13.5 34t33.5 14t33.5 -14t13.5 -34t-13.5 -34t-33.5 -14t-33.5 14t-13.5 34zM274 31q0 20 13.5 34t33.5 14t33.5 -14t13.5 -34t-13.5 -34t-33.5 -14t-33.5 14
t-13.5 34z" />
    <glyph glyph-name="perthousand" unicode="&#x2030;" horiz-adv-x="911" 
d="M884 201q0 -87 -51.5 -151t-119.5 -64q-35 0 -60 29.5t-25 75.5q0 86 51 150.5t119 64.5q36 0 61 -29.5t25 -75.5zM834 213q0 23 -2 38t-12 28t-28 13q-27 0 -48 -23q-28 -30 -47 -86t-19 -108q0 -75 39 -75q28 0 48 21q25 26 47 83t22 109zM314 547q0 -87 -51.5 -151
t-119.5 -64q-35 0 -60 29.5t-25 75.5q0 86 51 150.5t119 64.5q36 0 61 -29.5t25 -75.5zM264 559q0 23 -2 38t-12 28t-28 13q-27 0 -48 -23q-28 -30 -47 -86t-19 -108q0 -75 39 -75q28 0 48 21q25 26 47 83t22 109zM568 648l-471 -668l-14 11l471 668zM587 201
q0 -87 -51.5 -151t-119.5 -64q-35 0 -60 29.5t-25 75.5q0 86 51 150.5t119 64.5q35 0 60.5 -29.5t25.5 -75.5zM537 213q0 23 -2 38t-12 28t-28 13q-27 0 -48 -23q-28 -30 -47 -86t-19 -108q0 -75 39 -75q28 0 48 21q25 26 47 83t22 109z" />
    <glyph glyph-name="guilsinglleft" unicode="&#x2039;" horiz-adv-x="217" 
d="M248 389l-142 -147l87 -143l-7 -7l-152 149l2 8l205 150z" />
    <glyph glyph-name="guilsinglright" unicode="&#x203a;" horiz-adv-x="209" 
d="M-22 100l141 149l-85 142l5 8l152 -149l-2 -8l-205 -150z" />
    <glyph glyph-name="fraction" unicode="&#x2044;" horiz-adv-x="316" 
d="M428 721l-464 -741l-23 14l463 742z" />
    <glyph glyph-name="Euro" unicode="&#x20ac;" horiz-adv-x="552" 
d="M334 258h-159v-24q0 -216 141 -216q67 0 116 51.5t80 128.5l14 -6q-81 -207 -228 -207q-69 0 -116 37.5t-65.5 90t-18.5 113.5q0 21 1 32h-83l6 19h78q6 55 22 101h-76l6 19h76q41 113 123.5 184.5t178.5 71.5q67 0 105.5 -31t38.5 -69q0 -27 -11.5 -42t-31.5 -15
q-18 0 -28.5 10.5t-10.5 27.5q0 11 10 30t10 25q0 20 -21.5 34.5t-65.5 14.5q-61 0 -112 -47q-78 -74 -114 -194h199l-6 -19h-199q-13 -52 -17 -101h164z" />
    <glyph glyph-name="trademark" unicode="&#x2122;" horiz-adv-x="735" 
d="M735 655v-6l-20 -5q-14 -4 -18 -16q-4 -11 -4 -60v-110q0 -43 4 -59q4 -13 18 -16l20 -5v-6h-124v6l20 5q13 3 17 16q5 22 5 59v158h-3l-94 -246h-12l-97 247h-2v-159q0 -39 5 -59q3 -12 16 -16q8 -2 21 -5v-6h-101v6l20 5q14 4 17 16q5 20 5 59v110q0 49 -4 60
q-4 12 -18 16l-20 5v6h94l82 -222h2l84 222h87zM289 374h-128v6l20 5q15 4 19 17q5 20 5 57v184h-17q-26 0 -44 -11q-26 -16 -52 -57h-6l17 80h243l16 -80h-6q-26 41 -54 57q-18 11 -42 11h-15v-184q0 -37 5 -57q4 -13 19 -17l20 -5v-6z" />
    <glyph glyph-name="minus" unicode="&#x2212;" horiz-adv-x="455" 
d="M403 253h-365v16h365v-16z" />
    <glyph glyph-name="s_t" unicode="&#xfb06;" horiz-adv-x="526" 
d="M554 403h-92l-69 -220q-39 -121 -39 -145q0 -14 12 -14q39 0 97 88l10 -5q-75 -116 -134 -116q-19 0 -31 12.5t-12 35.5q0 12 6 36t13 46t19 57.5t17 52.5l54 172h-51l4 14h52l61 192h-2q-51 -35 -115 -35q-44 0 -88 21q-11 5 -25.5 13t-22 11.5t-16.5 6.5t-17 3
q-23 0 -41 -23t-18 -63q0 -39 22.5 -73.5t64.5 -47.5q28 -7 45.5 -25.5t17.5 -38.5q0 -16 -8 -27t-23 -11q-13 0 -21 8t-8 21q0 8 4 19t3 18q-3 28 -45 28q-63 0 -63 -68q0 -32 47 -105q46 -71 55 -88.5t9 -39.5q0 -55 -42.5 -88t-89.5 -33q-43 0 -75 26t-32 67q0 21 10 35
t29 14q14 0 22 -9t7 -24t-12.5 -29t-11.5 -24q0 -22 18 -34t43 -12q34 0 55 24t21 67q0 8 -0.5 14t-3.5 14t-5 12.5t-8.5 15t-10 15.5t-14 20.5t-15.5 23.5q-27 41 -37.5 65t-10.5 51q0 44 33.5 72t81.5 30q-42 14 -69.5 45t-27.5 67q0 49 42 77t102 28q41 0 99 -23
q47 -19 73 -19q70 0 144 84l8 -5l-83 -263h92z" />
    <glyph glyph-name="space_uni0326" horiz-adv-x="238" 
d="M95 -66q0 -47 -33.5 -81.5t-88.5 -51.5l-3 9q40 12 62.5 33.5t22.5 40.5q0 8 -2 16q-42 3 -42 41q0 16 10.5 28.5t31.5 12.5q17 0 29.5 -13t12.5 -35z" />
    <glyph glyph-name="caron.alt" horiz-adv-x="298" 
d="M132 497l68 187h52q-8 -21 -27 -51.5t-47 -72t-41 -63.5h-5z" />
    <glyph glyph-name="space_uni0326.alt" horiz-adv-x="238" 
d="M64 603q0 91 119 117l2 -9q-81 -21 -81 -62q0 -9 2 -13q42 -3 42 -41q0 -17 -11 -29t-30 -12t-31 14t-12 35z" />
    <glyph glyph-name="grave.uc" horiz-adv-x="553" 
d="M374 720l-3 -5q-113 39 -148 52q-28 11 -39.5 20t-11.5 24q0 26 27 26q16 0 48 -23q23 -17 127 -94z" />
    <glyph glyph-name="dieresis.uc" horiz-adv-x="385" 
d="M141 775q0 19 12.5 32t31.5 13t32 -13t13 -32t-13 -31.5t-32 -12.5t-31.5 12.5t-12.5 31.5zM342 775q0 19 12.5 32t31.5 13t32 -13t13 -32t-13 -31.5t-32 -12.5t-31.5 12.5t-12.5 31.5z" />
    <glyph glyph-name="macron.uc" horiz-adv-x="338" 
d="M371 732h-216l6 23h216z" />
    <glyph glyph-name="acute.uc" horiz-adv-x="400" 
d="M205 715l-3 5q104 77 127 94q32 23 48 23q27 0 27 -26q0 -15 -11.5 -24t-39.5 -20q-35 -13 -148 -52z" />
    <glyph glyph-name="circumflex.uc" horiz-adv-x="262" 
d="M359 717l-7 -4l-74 72l-128 -71l-5 4l119 116h39z" />
    <glyph glyph-name="caron.uc" horiz-adv-x="288" 
d="M137 831l7 4l78 -71l124 71l5 -4l-119 -116h-38z" />
    <glyph glyph-name="breve.uc" horiz-adv-x="194" 
d="M91 826l8 5q3 -69 94 -69q93 0 128 70l7 -6q-9 -43 -45.5 -77t-92.5 -34q-44 0 -73 23t-28 65q0 11 2 23z" />
    <glyph glyph-name="dotaccent.uc" horiz-adv-x="197" 
d="M138 771q0 17 11.5 28.5t29.5 11.5t30 -11.5t12 -28.5t-12 -28t-30 -11t-29.5 11t-11.5 28z" />
    <glyph glyph-name="ring.uc" horiz-adv-x="197" 
d="M271 776q-1 -32 -21 -53.5t-50 -21.5q-31 0 -51 21.5t-20 53.5t20 53.5t51 21.5t51 -21.5t20 -53.5zM254 776q0 27 -15 44t-39 17t-39 -17t-15 -44t15.5 -44t38.5 -17t38.5 17t15.5 44z" />
    <glyph glyph-name="tilde.uc" horiz-adv-x="254" 
d="M282 804l3 -2q-29 -76 -90 -76q-24 0 -62.5 15.5t-60.5 15.5q-37 0 -75 -38l-3 3q21 35 48 55.5t53 20.5q25 0 60 -14.5t51 -14.5q44 0 76 35z" />
    <glyph glyph-name="hungarumlaut.uc" horiz-adv-x="400" 
d="M208 841q0 -4 -1.5 -8.5t-3 -7.5t-5 -7t-6 -6.5t-8 -6.5t-8 -5.5t-9.5 -6t-9 -5.5q-15 -10 -61 -37t-64 -38h-11l96 100q4 5 12.5 13t11.5 11.5t9 9t9 8t7.5 5t8.5 3.5t8 1q10 0 17 -7t7 -16zM352 841q0 -4 -1.5 -8.5t-3 -7.5t-5 -7t-6 -6.5t-8 -6.5t-8 -5.5t-9.5 -6
t-9 -5.5q-15 -10 -61 -37t-64 -38h-11l96 100q4 5 12.5 13t11.5 11.5t9 9t9 8t7.5 5t8.5 3.5t8 1q10 0 17 -7t7 -16z" />
    <glyph glyph-name="idotaccent" 
d="M203 107q-69 -116 -137 -116q-41 0 -41 48q0 16 10.5 52.5t31.5 96t24 70.5q34 107 34 124q0 20 -14 20q-26 0 -73 -77l-9 6q54 95 110 95q41 0 41 -50q0 -15 -6.5 -41t-13.5 -48t-19 -56.5t-16 -47.5q-41 -121 -41 -143q0 -16 11 -16q22 0 49 26t50 62zM144 599
q0 17 10.5 27.5t26.5 10.5q17 0 27.5 -10.5t10.5 -27.5q0 -16 -10.5 -26.5t-27.5 -10.5t-27 10t-10 27z" />
    <glyph glyph-name="c_t" horiz-adv-x="547" 
d="M575 403h-92l-69 -220q-39 -121 -39 -145q0 -14 12 -14q39 0 97 88l10 -5q-75 -116 -134 -116q-19 0 -30.5 12.5t-11.5 35.5q0 12 6 36.5t12.5 45.5t18.5 58t17 52l54 172h-51l4 14h52l61 192h-2q-51 -35 -103 -35q-43 0 -87 21q-11 5 -27.5 13.5t-25.5 13.5t-20.5 8.5
t-19.5 3.5q-24 0 -42 -19.5t-18 -52.5q0 -51 25 -86t68 -51q25 -4 44 -19.5t19 -45.5q0 -17 -8.5 -28.5t-24.5 -11.5q-33 0 -33 28q0 12 5 20q2 4 6.5 9t7 8.5t2.5 5.5q0 22 -34 22q-39 0 -71 -40q-37 -47 -63 -132.5t-26 -152.5q0 -78 55 -78q79 0 134 108l10 -6
q-26 -52 -66 -86t-91 -34q-47 0 -73 36t-26 93q0 139 94 239q55 58 115 65q-51 16 -82.5 48t-31.5 75q0 44 42 71.5t95 27.5q44 0 119 -27q52 -19 67 -19q30 0 62 18.5t43 30.5t32 35l8 -5l-83 -263h92z" />
    <glyph glyph-name="i.low" 
d="M203 107q-69 -116 -137 -116q-41 0 -41 48q0 16 10.5 52.5t31.5 96t24 70.5q34 107 34 124q0 20 -14 20q-26 0 -73 -77l-9 6q54 95 110 95q41 0 41 -50q0 -15 -6.5 -41t-13.5 -48t-19 -56.5t-16 -47.5q-41 -121 -41 -143q0 -16 11 -16q22 0 49 26t50 62zM133 551
q0 17 10.5 27.5t26.5 10.5t27 -10.5t11 -27.5q0 -16 -10.5 -26.5t-27.5 -10.5q-16 0 -26.5 10t-10.5 27z" />
    <glyph glyph-name="j.low" horiz-adv-x="217" 
d="M148 551q0 17 10.5 27.5t26.5 10.5q17 0 27.5 -10.5t10.5 -27.5q0 -16 -10.5 -26.5t-27.5 -10.5t-27 10t-10 27zM188 376q0 -27 -72 -253q-48 -150 -69 -200.5t-47 -81.5q-46 -54 -108 -54q-37 0 -57 19t-20 41q0 17 8.5 28t23.5 11q32 0 32 -33q0 -7 -4 -23
q-2 -10 -2 -14q0 -15 23 -15q38 0 64 45q21 37 102 291q33 101 45 146q22 76 22 97q0 20 -16 20q-13 0 -27.5 -14.5t-43.5 -60.5l-9 5q54 96 109 96q46 0 46 -50z" />
    <glyph glyph-name="adieresis.low" horiz-adv-x="421" 
d="M399 106q-65 -115 -128 -115q-21 0 -34.5 14t-13.5 42q0 17 13 62h-1q-28 -50 -60 -80q-40 -38 -85 -38q-31 0 -57 28t-26 92q0 61 33 134.5t88.5 127t111.5 53.5q55 0 66 -72h1q6 17 27 63h48q-8 -26 -34.5 -113t-36.5 -119q-34 -109 -34 -141q0 -20 18 -20q40 0 94 87z
M292 334q0 35 -13 58t-40 23q-29 0 -51.5 -19.5t-47.5 -58.5q-33 -51 -52 -121.5t-19 -117.5q0 -80 45 -80q31 0 59 29q26 26 52 71q21 36 44 109.5t23 106.5zM157 551q0 17 10.5 27.5t26.5 10.5t27 -10.5t11 -27.5q0 -16 -10.5 -26.5t-27.5 -10.5q-16 0 -26.5 10t-10.5 27z
M293 551q0 17 10.5 27.5t26.5 10.5t27 -10.5t11 -27.5q0 -16 -10.5 -26.5t-27.5 -10.5q-16 0 -26.5 10t-10.5 27z" />
    <glyph glyph-name="edieresis.low" horiz-adv-x="313" 
d="M272 298q-68 -55 -193 -100q-15 -57 -15 -105q0 -84 59 -84q39 0 74 34t55 75l10 -5q-63 -122 -156 -122q-46 0 -73 36t-27 93q0 130 100 236q65 70 132 70q33 0 51.5 -15.5t18.5 -43.5q0 -41 -36 -69zM220 413q-42 0 -79 -60t-59 -143q106 39 140 79q28 34 28 83
q0 41 -30 41zM123 551q0 17 10.5 27.5t26.5 10.5t27 -10.5t11 -27.5q0 -16 -10.5 -26.5t-27.5 -10.5q-16 0 -26.5 10t-10.5 27zM259 551q0 17 10.5 27.5t26.5 10.5t27 -10.5t11 -27.5q0 -16 -10.5 -26.5t-27.5 -10.5q-16 0 -26.5 10t-10.5 27z" />
    <glyph glyph-name="idieresis.low" 
d="M203 107q-69 -116 -137 -116q-41 0 -41 48q0 16 10.5 52.5t31.5 96t24 70.5q34 107 34 124q0 20 -14 20q-26 0 -73 -77l-9 6q54 95 110 95q41 0 41 -50q0 -15 -6.5 -41t-13.5 -48t-19 -56.5t-16 -47.5q-41 -121 -41 -143q0 -16 11 -16q22 0 49 26t50 62zM72 551
q0 17 10.5 27.5t26.5 10.5q17 0 27.5 -10.5t10.5 -27.5q0 -16 -10.5 -26.5t-27.5 -10.5t-27 10t-10 27zM208 551q0 17 10.5 27.5t26.5 10.5q17 0 27.5 -10.5t10.5 -27.5q0 -16 -10.5 -26.5t-27.5 -10.5t-27 10t-10 27z" />
    <glyph glyph-name="odieresis.low" horiz-adv-x="362" 
d="M332 286q0 -62 -23.5 -124.5t-64.5 -107.5q-56 -62 -130 -62q-49 0 -78.5 35.5t-29.5 95.5q0 136 87 236q59 67 135 67q50 0 77 -37t27 -103zM281 322q1 93 -56 93q-44 0 -87 -62q-31 -45 -55 -125t-22 -143q3 -82 58 -82q20 0 38 12t26.5 23t20.5 30q29 49 52.5 125
t24.5 129zM143 551q0 17 10.5 27.5t26.5 10.5t27 -10.5t11 -27.5q0 -16 -10.5 -26.5t-27.5 -10.5q-16 0 -26.5 10t-10.5 27zM279 551q0 17 10.5 27.5t26.5 10.5t27 -10.5t11 -27.5q0 -16 -10.5 -26.5t-27.5 -10.5q-16 0 -26.5 10t-10.5 27z" />
    <glyph glyph-name="udieresis.low" horiz-adv-x="449" 
d="M431 107q-26 -45 -69 -80.5t-83 -35.5q-19 0 -30.5 14.5t-11.5 39.5q0 48 29 133h-3q-54 -92 -104.5 -139.5t-88.5 -47.5q-46 0 -46 56q0 26 56 194q45 135 45 146q0 12 -10 12q-25 0 -73 -74l-8 5q30 54 60 75t52 21q35 0 35 -35q0 -18 -9 -50t-27 -83.5t-24 -70.5
q-40 -128 -40 -142q0 -24 15 -24q33 0 90.5 66.5t103.5 183.5q36 92 54 146h57q-68 -201 -93 -285q-14 -49 -14 -79t19 -30q27 0 56.5 26.5t52.5 62.5zM172 551q0 17 10.5 27.5t26.5 10.5q17 0 27.5 -10.5t10.5 -27.5q0 -16 -10.5 -26.5t-27.5 -10.5t-27 10t-10 27zM308 551
q0 17 10.5 27.5t26.5 10.5q17 0 27.5 -10.5t10.5 -27.5q0 -16 -10.5 -26.5t-27.5 -10.5t-27 10t-10 27z" />
    <glyph glyph-name="ydieresis.low" horiz-adv-x="353" 
d="M314 368q0 -146 -75 -282t-186 -232q-78 -67 -120 -67q-16 0 -29 10t-13 28q0 16 9.5 26.5t24.5 10.5q21 0 35 -21q10 -15 21 -15q17 0 54 31q50 38 104 104q-18 212 -56 366q-16 60 -38 60q-6 0 -11.5 -4t-13.5 -15.5t-11.5 -17t-13.5 -23.5l-8 4q45 95 88 95
q29 0 46 -33q19 -37 37.5 -140t28.5 -226h2q48 73 73 143.5t25 114.5q0 33 -18 69q-12 26 -12 39q0 33 28 33q29 0 29 -58zM77 551q0 17 10.5 27.5t26.5 10.5t27 -10.5t11 -27.5q0 -16 -10.5 -26.5t-27.5 -10.5q-16 0 -26.5 10t-10.5 27zM213 551q0 17 10.5 27.5t26.5 10.5
t27 -10.5t11 -27.5q0 -16 -10.5 -26.5t-27.5 -10.5q-16 0 -26.5 10t-10.5 27z" />
    <glyph glyph-name="wdieresis.low" horiz-adv-x="580" 
d="M145 22q41 0 102 71q-3 21 -3 42q0 143 63 243q30 48 59 48q35 0 35 -55q0 -108 -103 -243q17 -106 82 -106q40 0 77 45q69 88 69 202q0 43 -19 87q-11 26 -11 41q0 12 6.5 20.5t17.5 8.5q18 0 28 -20.5t10 -53.5q0 -59 -23 -146t-67 -145q-53 -70 -112 -70
q-84 0 -106 88q-75 -88 -135 -88q-82 0 -82 102q0 90 113 264q-32 2 -61 21q-4 3 -13.5 10t-15.5 10.5t-10 3.5q-7 0 -7 -7q0 -4 8 -20q7 -13 7 -24q0 -10 -7 -17.5t-16 -7.5q-27 0 -27 26q0 32 34 58q24 18 40 18q6 0 13 -2t11 -4.5t11 -7t9 -5.5q28 -17 43 -17q5 0 12 10
q16 24 29 24t13 -11q0 -12 -14 -20q-31 -17 -40 -31q-26 -42 -49 -121t-23 -143q0 -78 52 -78zM292 224q0 -53 3 -80q85 118 85 196q0 63 -28 63q-12 0 -25.5 -18.5t-24 -61.5t-10.5 -99zM258 551q0 17 10.5 27.5t26.5 10.5q17 0 27.5 -10.5t10.5 -27.5q0 -16 -10.5 -26.5
t-27.5 -10.5t-27 10t-10 27zM394 551q0 17 10.5 27.5t26.5 10.5q17 0 27.5 -10.5t10.5 -27.5q0 -16 -10.5 -26.5t-27.5 -10.5t-27 10t-10 27z" />
    <glyph glyph-name="A.swash" horiz-adv-x="592" 
d="M39 -8q-33 0 -57 17.5t-24 50.5q0 22 13 37.5t35 15.5q17 0 30.5 -12.5t13.5 -30.5q0 -20 -14 -36q-9 -10 -9 -16q0 -10 17 -10q77 0 206 224q5 8 31.5 54t33 57.5t30.5 51t34 54t32 47t36.5 49t35 40t39.5 40.5t40 32h20l-100 -526q-9 -50 -9 -74q0 -32 28 -46
q12 -6 26 -6l-1 -5h-194v5l21 4q24 8 36 29q15 28 31 115l22 114h-157l-19 -35q-131 -240 -227 -240zM500 585q-89 -93 -208 -306h153l60 306h-5z" />
    <glyph glyph-name="J.swash" horiz-adv-x="527" 
d="M575 367h-152q-50 -194 -51 -197q-60 -195 -125.5 -288.5t-156.5 -93.5q-66 0 -98 28.5t-32 58.5q0 23 12.5 37.5t32.5 14.5q21 0 33 -12.5t12 -30.5q0 -16 -6 -32t-6 -23q0 -27 52 -27q54 0 98 73q42 69 134 376q18 59 46 116h-128l4 18h133q10 20 62 120
q-33 -12 -61 -12q-49 0 -72 18.5t-46 62.5q-4 9 -17 35.5t-18 34.5t-16 22.5t-23 19t-27 4.5q-33 0 -50 -20.5t-17 -40.5t22 -26q38 -8 38 -41q0 -17 -12 -28t-29 -11q-22 0 -36.5 17.5t-14.5 46.5q0 48 35.5 88t93.5 40q28 0 48.5 -8t35.5 -27t21.5 -30t19.5 -37
q14 -28 20.5 -40t19 -29.5t25.5 -24t30 -6.5t41 12l1 1q11 40 35.5 82t53.5 42q27 0 27 -28q0 -22 -24 -48t-63 -49q-17 -10 -20 -11q-3 -10 -14 -55.5t-17 -68.5q0 -1 -0.5 -2.5t-1.5 -2.5h152z" />
    <glyph glyph-name="M.swash" horiz-adv-x="881" 
d="M326 567l-69 -276q-15 -58 -28 -99.5t-31.5 -83t-38.5 -67t-48 -41t-61 -15.5q-44 0 -69.5 23t-25.5 53q0 23 12 39t35 16q21 0 33.5 -12.5t12.5 -31.5q0 -20 -13 -36q-11 -15 -11 -18q0 -18 30 -18q69 0 112 77t84 245l45 182q18 75 18 98q0 33 -29 44q-6 2 -27 6l1 5
h128l78 -578h2l352 578h136l-1 -5q-23 -4 -30 -6q-28 -9 -43 -31q-6 -10 -12 -27t-9 -28t-10 -40t-9 -37l-78 -320q-22 -87 -22 -112q0 -30 24 -41q7 -3 27 -6l-1 -4h-207v4q6 0 21 3q27 6 45 32q23 35 45 134l98 407h-3l-356 -584h-26l-79 571h-2z" />
    <glyph glyph-name="N.swash" horiz-adv-x="824" 
d="M610 334l-99 -342h-12l-182 548h-4l-63 -249q-15 -61 -27.5 -101t-30 -82t-36.5 -66.5t-46 -40t-59 -15.5q-44 0 -70 23.5t-26 53.5q0 22 12.5 38t34.5 16q21 0 33 -14t12 -32q0 -20 -12 -34q-11 -13 -11 -18q0 -18 31 -18q65 0 104.5 72.5t83.5 248.5l44 178
q13 54 13 75q0 23 -12.5 42t-28.5 27q-11 6 -29 9l1 4h124l172 -541h3l73 247q11 36 15 50t14 46t15.5 45t15.5 39t17.5 37.5t19 29.5t22 26t23.5 17.5t28 13t31 3.5q42 0 66 -23.5t24 -53.5q0 -22 -12.5 -38t-34.5 -16q-21 0 -33 14t-12 32t13 34q10 13 10 19q0 17 -24 17
q-63 0 -100.5 -69.5t-90.5 -251.5z" />
    <glyph glyph-name="Q.swash" horiz-adv-x="618" 
d="M597 441q0 -251 -259 -394q51 -47 131 -147q87 -109 143.5 -151t112.5 -42q21 0 36.5 9.5t17.5 22.5q-50 7 -50 46q0 20 12.5 34.5t34.5 14.5q20 0 35 -13.5t15 -38.5q0 -31 -30 -62.5t-95 -31.5q-102 0 -173 50.5t-133 142.5q-14 20 -47 71t-50 75q-87 -41 -160 -41
q-51 0 -82 18.5t-31 52.5q0 32 35 53.5t94 21.5q86 0 170 -73q84 52 140.5 153t56.5 208q0 101 -47.5 161.5t-137.5 60.5q-89 0 -137.5 -58.5t-48.5 -151.5q0 -66 39 -108t98 -42t90.5 29.5t31.5 72.5q0 36 -27 53q-17 -49 -57 -49q-20 0 -33.5 14t-13.5 33q0 24 16 38.5
t39 14.5q37 0 65 -25t28 -75q0 -59 -40 -102.5t-105 -43.5q-79 0 -128.5 47t-49.5 126q0 110 81 183t188 73q104 0 164.5 -67.5t60.5 -162.5zM171 11q55 0 118 29q-15 19 -31 35q-44 43 -103 43q-34 0 -50.5 -15.5t-16.5 -38.5q0 -24 23.5 -38.5t59.5 -14.5z" />
    <glyph glyph-name="T.swash" horiz-adv-x="626" 
d="M188 425q0 -21 -14 -32t-33 -11q-38 0 -59.5 33t-21.5 77q0 74 62 131t165 57q66 0 219 -14t162 -14q23 0 23 17q0 5 -6 19t-6 26q0 33 27 33q28 0 28 -33q0 -105 -211 -105q-12 0 -64 2l-110 -447q-22 -88 -22 -118q0 -26 26 -36q12 -5 26 -5l-1 -5h-208l1 5q9 0 25 4
q30 9 43 31q18 31 43 134l109 441q-137 9 -143 9q-28 0 -55 -5.5t-55 -18t-45.5 -39t-17.5 -63.5q0 -18 7.5 -34.5t21.5 -16.5q3 0 18 9t28 9q17 0 27.5 -11t10.5 -29z" />
    <glyph glyph-name="V.swash" horiz-adv-x="609" 
d="M393 421q-10 -15 -55.5 -80.5t-105 -151.5t-130.5 -189h-32l99 525q9 44 9 77q0 30 -28 44q-12 6 -25 6l1 5h191l-1 -5l-20 -4q-22 -7 -36 -31q-17 -29 -31 -115l-73 -392h5l223 324q91 132 128 171q57 60 106 60q34 0 53.5 -18.5t19.5 -47.5q0 -24 -13.5 -38.5
t-33.5 -14.5q-19 0 -32.5 13t-13.5 30q0 18 14 35q6 8 6 12q0 10 -12 10q-21 0 -43 -13.5t-54 -53t-44 -56t-53 -75.5q-13 -18 -19 -27z" />
    <glyph glyph-name="W.swash" horiz-adv-x="873" 
d="M675 424q-12 -19 -52 -83t-97 -152.5t-123 -188.5h-35l99 526l7 45q-13 -20 -147.5 -232.5t-221.5 -338.5h-35l97 526q9 49 9 76q0 30 -29 44q-12 6 -25 6l1 5h196l-1 -5l-22 -5q-23 -6 -38 -31q-6 -10 -10.5 -23.5t-6 -21t-6.5 -33t-7 -34.5l-74 -400h5
q31 45 156.5 243.5t160.5 249.5v5q0 30 -32 44q-6 3 -23 6l1 5h192l-2 -5l-20 -4q-22 -7 -36 -31q-5 -8 -8.5 -16.5t-6.5 -21.5l-4.5 -19.5t-5.5 -27.5t-5 -28l-71 -392h5q36 54 108 169t97 154q7 11 24 37t25 38l23 34.5t24 33.5t23 28t24.5 25t23.5 17.5t25.5 13t24.5 3.5
q33 0 52 -19t19 -49q0 -23 -14 -37t-33 -14q-20 0 -33 12.5t-13 30.5q0 17 14 35q6 7 6 12q0 10 -13 10q-12 0 -25 -7t-28.5 -23.5t-28 -30t-31 -40t-27 -40t-28 -44t-24.5 -37.5z" />
    <glyph glyph-name="Y.swash" horiz-adv-x="550" 
d="M331 353l-45 -189q-24 -100 -24 -117q0 -21 20 -32q13 -7 32 -10l-1 -5h-207l1 5q17 2 31 6q26 7 40 31q14 25 32 97l42 179q31 136 31 185q0 51 -24 87t-72 36q-90 0 -126 -123l-11 2q16 70 57.5 118t100.5 48q64 0 97.5 -45t33.5 -110q0 -43 -8 -88h4q18 51 37.5 89
t48 76t68 58t87.5 20q38 0 57 -15t19 -38q0 -19 -11 -32t-31 -13q-31 0 -44 34q-7 20 -15 28t-24 8q-57 0 -110 -79q-56 -83 -86 -211z" />
    <glyph glyph-name="Adieresis.swash" horiz-adv-x="592" 
d="M39 -8q-33 0 -57 17.5t-24 50.5q0 22 13 37.5t35 15.5q17 0 30.5 -12.5t13.5 -30.5q0 -20 -14 -36q-9 -10 -9 -16q0 -10 17 -10q77 0 206 224q5 8 31.5 54t33 57.5t30.5 51t34 54t32 47t36.5 49t35 40t39.5 40.5t40 32h20l-100 -526q-9 -50 -9 -74q0 -32 28 -46
q12 -6 26 -6l-1 -5h-194v5l21 4q24 8 36 29q15 28 31 115l22 114h-157l-19 -35q-131 -240 -227 -240zM500 585q-89 -93 -208 -306h153l60 306h-5zM611 775q0 19 12.5 32t31.5 13t32 -13t13 -32t-13 -31.5t-32 -12.5t-31.5 12.5t-12.5 31.5zM410 775q0 19 12.5 32t31.5 13
t32 -13t13 -32t-13 -31.5t-32 -12.5t-31.5 12.5t-12.5 31.5z" />
    <glyph glyph-name="Aring.swash" horiz-adv-x="592" 
d="M39 -8q-33 0 -57 17.5t-24 50.5q0 22 13 37.5t35 15.5q17 0 30.5 -12.5t13.5 -30.5q0 -20 -14 -36q-9 -10 -9 -16q0 -10 17 -10q77 0 206 224q5 8 31.5 54t33 57.5t30.5 51t34 54t32 47t36.5 49t35 40t39.5 40.5t40 32h20l-100 -526q-9 -50 -9 -74q0 -32 28 -46
q12 -6 26 -6l-1 -5h-194v5l21 4q24 8 36 29q15 28 31 115l22 114h-157l-19 -35q-131 -240 -227 -240zM500 585q-89 -93 -208 -306h153l60 306h-5zM642 776q-1 -32 -21 -53.5t-50 -21.5q-31 0 -51 21.5t-20 53.5t20 53.5t51 21.5t51 -21.5t20 -53.5zM625 776q0 27 -15 44
t-39 17t-39 -17t-15 -44t15.5 -44t38.5 -17t38.5 17t15.5 44z" />
    <glyph glyph-name="Agrave.swash" horiz-adv-x="592" 
d="M39 -8q-33 0 -57 17.5t-24 50.5q0 22 13 37.5t35 15.5q17 0 30.5 -12.5t13.5 -30.5q0 -20 -14 -36q-9 -10 -9 -16q0 -10 17 -10q77 0 206 224q5 8 31.5 54t33 57.5t30.5 51t34 54t32 47t36.5 49t35 40t39.5 40.5t40 32h20l-100 -526q-9 -50 -9 -74q0 -32 28 -46
q12 -6 26 -6l-1 -5h-194v5l21 4q24 8 36 29q15 28 31 115l22 114h-157l-19 -35q-131 -240 -227 -240zM500 585q-89 -93 -208 -306h153l60 306h-5zM614 720l-3 -5q-113 39 -148 52q-28 11 -39.5 20t-11.5 24q0 26 27 26q16 0 48 -23q23 -17 127 -94z" />
    <glyph glyph-name="Atilde.swash" horiz-adv-x="592" 
d="M39 -8q-33 0 -57 17.5t-24 50.5q0 22 13 37.5t35 15.5q17 0 30.5 -12.5t13.5 -30.5q0 -20 -14 -36q-9 -10 -9 -16q0 -10 17 -10q77 0 206 224q5 8 31.5 54t33 57.5t30.5 51t34 54t32 47t36.5 49t35 40t39.5 40.5t40 32h20l-100 -526q-9 -50 -9 -74q0 -32 28 -46
q12 -6 26 -6l-1 -5h-194v5l21 4q24 8 36 29q15 28 31 115l22 114h-157l-19 -35q-131 -240 -227 -240zM500 585q-89 -93 -208 -306h153l60 306h-5zM699 804l3 -2q-29 -76 -90 -76q-24 0 -62.5 15.5t-60.5 15.5q-37 0 -75 -38l-3 3q21 35 48 55.5t53 20.5q25 0 60 -14.5
t51 -14.5q25 0 41 7t35 28z" />
    <glyph glyph-name="Acircumflex.swash" horiz-adv-x="592" 
d="M39 -8q-33 0 -57 17.5t-24 50.5q0 22 13 37.5t35 15.5q17 0 30.5 -12.5t13.5 -30.5q0 -20 -14 -36q-9 -10 -9 -16q0 -10 17 -10q77 0 206 224q5 8 31.5 54t33 57.5t30.5 51t34 54t32 47t36.5 49t35 40t39.5 40.5t40 32h20l-100 -526q-9 -50 -9 -74q0 -32 28 -46
q12 -6 26 -6l-1 -5h-194v5l21 4q24 8 36 29q15 28 31 115l22 114h-157l-19 -35q-131 -240 -227 -240zM500 585q-89 -93 -208 -306h153l60 306h-5zM652 717l-7 -4l-74 72l-128 -71l-5 4l119 116h39z" />
    <glyph glyph-name="Aacute.swash" horiz-adv-x="592" 
d="M39 -8q-33 0 -57 17.5t-24 50.5q0 22 13 37.5t35 15.5q17 0 30.5 -12.5t13.5 -30.5q0 -20 -14 -36q-9 -10 -9 -16q0 -10 17 -10q77 0 206 224q5 8 31.5 54t33 57.5t30.5 51t34 54t32 47t36.5 49t35 40t39.5 40.5t40 32h20l-100 -526q-9 -50 -9 -74q0 -32 28 -46
q12 -6 26 -6l-1 -5h-194v5l21 4q24 8 36 29q15 28 31 115l22 114h-157l-19 -35q-131 -240 -227 -240zM500 585q-89 -93 -208 -306h153l60 306h-5zM488 715l-3 5q103 77 127 94q32 23 48 23q27 0 27 -26q0 -15 -11.5 -24t-39.5 -20q-35 -13 -148 -52z" />
    <glyph glyph-name="Abreve.swash" horiz-adv-x="592" 
d="M39 -8q-33 0 -57 17.5t-24 50.5q0 22 13 37.5t35 15.5q17 0 30.5 -12.5t13.5 -30.5q0 -20 -14 -36q-9 -10 -9 -16q0 -10 17 -10q77 0 206 224q5 8 31.5 54t33 57.5t30.5 51t34 54t32 47t36.5 49t35 40t39.5 40.5t40 32h20l-100 -526q-9 -50 -9 -74q0 -32 28 -46
q12 -6 26 -6l-1 -5h-194v5l21 4q24 8 36 29q15 28 31 115l22 114h-157l-19 -35q-131 -240 -227 -240zM500 585q-89 -93 -208 -306h153l60 306h-5zM458 826l8 5q3 -69 94 -69q93 0 128 70l7 -6q-9 -43 -45.5 -77t-92.5 -34q-44 0 -73 23t-28 65q0 11 2 23z" />
    <glyph glyph-name="Amacron.swash" horiz-adv-x="592" 
d="M39 -8q-33 0 -57 17.5t-24 50.5q0 22 13 37.5t35 15.5q17 0 30.5 -12.5t13.5 -30.5q0 -20 -14 -36q-9 -10 -9 -16q0 -10 17 -10q77 0 206 224q5 8 31.5 54t33 57.5t30.5 51t34 54t32 47t36.5 49t35 40t39.5 40.5t40 32h20l-100 -526q-9 -50 -9 -74q0 -32 28 -46
q12 -6 26 -6l-1 -5h-194v5l21 4q24 8 36 29q15 28 31 115l22 114h-157l-19 -35q-131 -240 -227 -240zM500 585q-89 -93 -208 -306h153l60 306h-5zM659 732h-216l6 23h216z" />
    <glyph glyph-name="Aogonek.swash" horiz-adv-x="592" 
d="M526 0h-124q-57 0 -98 -31q-57 -43 -57 -116q0 -53 59 -61l-1 -4q-57 0 -87.5 21t-30.5 53q0 17 8.5 32.5t27.5 31t32 25t40.5 26t35.5 21.5q43 28 59 56q18 37 30 99l22 114h-157l-19 -35q-131 -240 -227 -240q-33 0 -57 17.5t-24 50.5q0 22 13 37.5t35 15.5
q17 0 30.5 -12.5t13.5 -30.5q0 -20 -14 -36q-9 -10 -9 -16q0 -10 17 -10q77 0 206 224q5 8 31.5 54t33 57.5t30.5 51t34 54t32 47t36.5 49t35 40t39.5 40.5t40 32h20l-100 -526q-9 -50 -9 -74q0 -32 28 -46q12 -6 26 -6zM500 585q-89 -93 -208 -306h153l60 306h-5z" />
    <glyph glyph-name="Aringacute.swash" horiz-adv-x="592" 
d="M39 -8q-33 0 -57 17.5t-24 50.5q0 22 13 37.5t35 15.5q17 0 30.5 -12.5t13.5 -30.5q0 -20 -14 -36q-9 -10 -9 -16q0 -10 17 -10q77 0 206 224q5 8 31.5 54t33 57.5t30.5 51t34 54t32 47t36.5 49t35 40t39.5 40.5t40 32h20l-100 -526q-9 -50 -9 -74q0 -32 28 -46
q12 -6 26 -6l-1 -5h-194v5l21 4q24 8 36 29q15 28 31 115l22 114h-157l-19 -35q-131 -240 -227 -240zM500 585q-89 -93 -208 -306h153l60 306h-5zM642 776q-1 -32 -21 -53.5t-50 -21.5q-31 0 -51 21.5t-20 53.5t20 53.5t51 21.5t51 -21.5t20 -53.5zM625 776q0 27 -15 44
t-39 17t-39 -17t-15 -44t15.5 -44t38.5 -17t38.5 17t15.5 44zM509 879l-3 5q103 77 127 94q32 23 48 23q27 0 27 -26q0 -15 -11.5 -24t-39.5 -20q-35 -13 -148 -52z" />
    <glyph glyph-name="Jcircumflex.swash" horiz-adv-x="527" 
d="M575 367h-152q-50 -194 -51 -197q-60 -195 -125.5 -288.5t-156.5 -93.5q-66 0 -98 28.5t-32 58.5q0 23 12.5 37.5t32.5 14.5q21 0 33 -12.5t12 -30.5q0 -16 -6 -32t-6 -23q0 -27 52 -27q54 0 98 73q42 69 134 376q18 59 46 116h-128l4 18h133q10 20 62 120
q-33 -12 -61 -12q-49 0 -72 18.5t-46 62.5q-4 9 -17 35.5t-18 34.5t-16 22.5t-23 19t-27 4.5q-33 0 -50 -20.5t-17 -40.5t22 -26q38 -8 38 -41q0 -17 -12 -28t-29 -11q-22 0 -36.5 17.5t-14.5 46.5q0 48 35.5 88t93.5 40q28 0 48.5 -8t35.5 -27t21.5 -30t19.5 -37
q14 -28 20.5 -40t19 -29.5t25.5 -24t30 -6.5t41 12l1 1q11 40 35.5 82t53.5 42q27 0 27 -28q0 -22 -24 -48t-63 -49q-17 -10 -20 -11q-3 -10 -14 -55.5t-17 -68.5q0 -1 -0.5 -2.5t-1.5 -2.5h152zM538 717l-7 -4l-74 72l-128 -71l-5 4l119 116h39z" />
    <glyph glyph-name="Ntilde.swash" horiz-adv-x="824" 
d="M610 334l-99 -342h-12l-182 548h-4l-63 -249q-15 -61 -27.5 -101t-30 -82t-36.5 -66.5t-46 -40t-59 -15.5q-44 0 -70 23.5t-26 53.5q0 22 12.5 38t34.5 16q21 0 33 -14t12 -32q0 -20 -12 -34q-11 -13 -11 -18q0 -18 31 -18q65 0 104.5 72.5t83.5 248.5l44 178
q13 54 13 75q0 23 -12.5 42t-28.5 27q-11 6 -29 9l1 4h124l172 -541h3l73 247q11 36 15 50t14 46t15.5 45t15.5 39t17.5 37.5t19 29.5t22 26t23.5 17.5t28 13t31 3.5q42 0 66 -23.5t24 -53.5q0 -22 -12.5 -38t-34.5 -16q-21 0 -33 14t-12 32t13 34q10 13 10 19q0 17 -24 17
q-63 0 -100.5 -69.5t-90.5 -251.5zM716 804l3 -2q-29 -76 -90 -76q-24 0 -62.5 15.5t-60.5 15.5q-37 0 -75 -38l-3 3q21 35 48 55.5t53 20.5q25 0 60 -14.5t51 -14.5q44 0 76 35z" />
    <glyph glyph-name="Nacute.swash" horiz-adv-x="824" 
d="M499 715l-3 5q103 77 127 94q32 23 48 23q27 0 27 -26q0 -15 -11.5 -24t-39.5 -20q-35 -13 -148 -52zM610 334l-99 -342h-12l-182 548h-4l-63 -249q-15 -61 -27.5 -101t-30 -82t-36.5 -66.5t-46 -40t-59 -15.5q-44 0 -70 23.5t-26 53.5q0 22 12.5 38t34.5 16q21 0 33 -14
t12 -32q0 -20 -12 -34q-11 -13 -11 -18q0 -18 31 -18q65 0 104.5 72.5t83.5 248.5l44 178q13 54 13 75q0 23 -12.5 42t-28.5 27q-11 6 -29 9l1 4h124l172 -541h3l73 247q11 36 15 50t14 46t15.5 45t15.5 39t17.5 37.5t19 29.5t22 26t23.5 17.5t28 13t31 3.5q42 0 66 -23.5
t24 -53.5q0 -22 -12.5 -38t-34.5 -16q-21 0 -33 14t-12 32t13 34q10 13 10 19q0 17 -24 17q-63 0 -100.5 -69.5t-90.5 -251.5z" />
    <glyph glyph-name="Ncaron.swash" horiz-adv-x="824" 
d="M475 831l7 4l78 -71l124 71l5 -4l-119 -116h-38zM610 334l-99 -342h-12l-182 548h-4l-63 -249q-15 -61 -27.5 -101t-30 -82t-36.5 -66.5t-46 -40t-59 -15.5q-44 0 -70 23.5t-26 53.5q0 22 12.5 38t34.5 16q21 0 33 -14t12 -32q0 -20 -12 -34q-11 -13 -11 -18
q0 -18 31 -18q65 0 104.5 72.5t83.5 248.5l44 178q13 54 13 75q0 23 -12.5 42t-28.5 27q-11 6 -29 9l1 4h124l172 -541h3l73 247q11 36 15 50t14 46t15.5 45t15.5 39t17.5 37.5t19 29.5t22 26t23.5 17.5t28 13t31 3.5q42 0 66 -23.5t24 -53.5q0 -22 -12.5 -38t-34.5 -16
q-21 0 -33 14t-12 32t13 34q10 13 10 19q0 17 -24 17q-63 0 -100.5 -69.5t-90.5 -251.5z" />
    <glyph glyph-name="Ncommaaccent.swash" horiz-adv-x="824" 
d="M341 -89q0 -47 -33.5 -81.5t-88.5 -51.5l-3 9q40 12 62.5 33.5t22.5 40.5q0 8 -2 16q-42 3 -42 41q0 16 10.5 28.5t31.5 12.5q17 0 29.5 -13t12.5 -35zM610 334l-99 -342h-12l-182 548h-4l-63 -249q-15 -61 -27.5 -101t-30 -82t-36.5 -66.5t-46 -40t-59 -15.5
q-44 0 -70 23.5t-26 53.5q0 22 12.5 38t34.5 16q21 0 33 -14t12 -32q0 -20 -12 -34q-11 -13 -11 -18q0 -18 31 -18q65 0 104.5 72.5t83.5 248.5l44 178q13 54 13 75q0 23 -12.5 42t-28.5 27q-11 6 -29 9l1 4h124l172 -541h3l73 247q11 36 15 50t14 46t15.5 45t15.5 39
t17.5 37.5t19 29.5t22 26t23.5 17.5t28 13t31 3.5q42 0 66 -23.5t24 -53.5q0 -22 -12.5 -38t-34.5 -16q-21 0 -33 14t-12 32t13 34q10 13 10 19q0 17 -24 17q-63 0 -100.5 -69.5t-90.5 -251.5z" />
    <glyph glyph-name="Tcaron.swash" horiz-adv-x="626" 
d="M188 425q0 -21 -14 -32t-33 -11q-38 0 -59.5 33t-21.5 77q0 74 62 131t165 57q66 0 219 -14t162 -14q23 0 23 17q0 5 -6 19t-6 26q0 33 27 33q28 0 28 -33q0 -105 -211 -105q-12 0 -64 2l-110 -447q-22 -88 -22 -118q0 -26 26 -36q12 -5 26 -5l-1 -5h-208l1 5q9 0 25 4
q30 9 43 31q18 31 43 134l109 441q-137 9 -143 9q-28 0 -55 -5.5t-55 -18t-45.5 -39t-17.5 -63.5q0 -18 7.5 -34.5t21.5 -16.5q3 0 18 9t28 9q17 0 27.5 -11t10.5 -29zM370 831l7 4l78 -71l124 71l5 -4l-119 -116h-38z" />
    <glyph glyph-name="Tcommaaccent.swash" horiz-adv-x="626" 
d="M188 425q0 -21 -14 -32t-33 -11q-38 0 -59.5 33t-21.5 77q0 74 62 131t165 57q66 0 219 -14t162 -14q23 0 23 17q0 5 -6 19t-6 26q0 33 27 33q28 0 28 -33q0 -105 -211 -105q-12 0 -64 2l-110 -447q-22 -88 -22 -118q0 -26 26 -36q12 -5 26 -5l-1 -5h-208l1 5q9 0 25 4
q30 9 43 31q18 31 43 134l109 441q-137 9 -143 9q-28 0 -55 -5.5t-55 -18t-45.5 -39t-17.5 -63.5q0 -18 7.5 -34.5t21.5 -16.5q3 0 18 9t28 9q17 0 27.5 -11t10.5 -29zM298 -89q0 -47 -33.5 -81.5t-88.5 -51.5l-3 9q40 12 62.5 33.5t22.5 40.5q0 8 -2 16q-42 3 -42 41
q0 16 10.5 28.5t31.5 12.5q17 0 29.5 -13t12.5 -35z" />
    <glyph glyph-name="Tbar.swash" horiz-adv-x="626" 
d="M188 425q0 -21 -14 -32t-33 -11q-38 0 -59.5 33t-21.5 77q0 74 62 131t165 57q66 0 219 -14t162 -14q23 0 23 17q0 5 -6 19t-6 26q0 33 27 33q28 0 28 -33q0 -105 -211 -105q-12 0 -64 2l-49 -200h149l-3 -13h-149l-58 -234q-22 -88 -22 -118q0 -26 26 -36q12 -5 26 -5
l-1 -5h-208l1 5q9 0 25 4q30 9 43 31q18 31 43 134l55 224h-97l4 13h96l51 204q-137 9 -143 9q-28 0 -55 -5.5t-55 -18t-45.5 -39t-17.5 -63.5q0 -18 7.5 -34.5t21.5 -16.5q3 0 18 9t28 9q17 0 27.5 -11t10.5 -29z" />
    <glyph glyph-name="Wacute.swash" horiz-adv-x="873" 
d="M675 424q-12 -19 -52 -83t-97 -152.5t-123 -188.5h-35l99 526l7 45q-13 -20 -147.5 -232.5t-221.5 -338.5h-35l97 526q9 49 9 76q0 30 -29 44q-12 6 -25 6l1 5h196l-1 -5l-22 -5q-23 -6 -38 -31q-6 -10 -10.5 -23.5t-6 -21t-6.5 -33t-7 -34.5l-74 -400h5
q31 45 156.5 243.5t160.5 249.5v5q0 30 -32 44q-6 3 -23 6l1 5h192l-2 -5l-20 -4q-22 -7 -36 -31q-5 -8 -8.5 -16.5t-6.5 -21.5l-4.5 -19.5t-5.5 -27.5t-5 -28l-71 -392h5q36 54 108 169t97 154q7 11 24 37t25 38l23 34.5t24 33.5t23 28t24.5 25t23.5 17.5t25.5 13t24.5 3.5
q33 0 52 -19t19 -49q0 -23 -14 -37t-33 -14q-20 0 -33 12.5t-13 30.5q0 17 14 35q6 7 6 12q0 10 -13 10q-12 0 -25 -7t-28.5 -23.5t-28 -30t-31 -40t-27 -40t-28 -44t-24.5 -37.5zM471 715l-3 5q104 77 127 94q32 23 48 23q27 0 27 -26q0 -15 -11.5 -24t-39.5 -20
q-35 -13 -148 -52z" />
    <glyph glyph-name="Wcircumflex.swash" horiz-adv-x="873" 
d="M675 424q-12 -19 -52 -83t-97 -152.5t-123 -188.5h-35l99 526l7 45q-13 -20 -147.5 -232.5t-221.5 -338.5h-35l97 526q9 49 9 76q0 30 -29 44q-12 6 -25 6l1 5h196l-1 -5l-22 -5q-23 -6 -38 -31q-6 -10 -10.5 -23.5t-6 -21t-6.5 -33t-7 -34.5l-74 -400h5
q31 45 156.5 243.5t160.5 249.5v5q0 30 -32 44q-6 3 -23 6l1 5h192l-2 -5l-20 -4q-22 -7 -36 -31q-5 -8 -8.5 -16.5t-6.5 -21.5l-4.5 -19.5t-5.5 -27.5t-5 -28l-71 -392h5q36 54 108 169t97 154q7 11 24 37t25 38l23 34.5t24 33.5t23 28t24.5 25t23.5 17.5t25.5 13t24.5 3.5
q33 0 52 -19t19 -49q0 -23 -14 -37t-33 -14q-20 0 -33 12.5t-13 30.5q0 17 14 35q6 7 6 12q0 10 -13 10q-12 0 -25 -7t-28.5 -23.5t-28 -30t-31 -40t-27 -40t-28 -44t-24.5 -37.5zM635 717l-7 -4l-74 72l-128 -71l-5 4l119 116h39z" />
    </font>
</defs>
</svg>
