<?xml version="1.0" standalone="no"?>
<!DOCTYPE svg PUBLIC "-//W3C//DTD SVG 1.1//EN" "http://www.w3.org/Graphics/SVG/1.1/DTD/svg11.dtd" >
<svg xmlns="http://www.w3.org/2000/svg" xmlns:xlink="http://www.w3.org/1999/xlink" version="1.1">
<metadata>
Created by FontForge 20150824 at Mon Sep  5 12:14:19 2016
 By Everything Fonts
Copyright (c) 1988, 1994, 2001 Adobe Systems Incorporated.  All Rights Reserved.
</metadata>
<defs>
<font id="ClearfaceStdBold" horiz-adv-x="500" >
  <font-face 
    font-family="ClearfaceStdBold"
    font-weight="600"
    font-stretch="normal"
    units-per-em="1000"
    panose-1="2 7 6 3 6 7 5 2 4 4"
    ascent="748"
    descent="-252"
    x-height="479"
    cap-height="700"
    bbox="-167 -250 1001 950"
    underline-thickness="50"
    underline-position="-150"
    unicode-range="U+0020-FB02"
  />
<missing-glyph 
d="M0 0v700h500v-700h-500zM250 395l170 255h-340zM280 350l170 -255v510zM80 50h340l-170 255zM50 605v-510l170 255z" />
    <glyph glyph-name="fi" unicode="fi" horiz-adv-x="556" 
d="M531 0h-210v27l55 10v352q0 23 -9 34t-32 11h-148v-397l48 -10v-27h-203v27l55 10v397h-58v45h58q1 124 89.5 204.5t195.5 80.5q32 0 59 -13.5t27 -44.5q0 -24 -14.5 -38t-38.5 -14q-25 0 -58 27t-48 27q-17 0 -34.5 -11t-36 -35t-30 -71.5t-11.5 -111.5h151q54 0 138 16
v-458l55 -10v-27z" />
    <glyph glyph-name="fl" unicode="fl" horiz-adv-x="556" 
d="M531 0h-210v27l55 10v629q-10 5 -35.5 23.5t-36.5 18.5q-49 0 -83 -62t-34 -167h135v-45h-135v-397l47 -10v-27h-202v27l55 10v397h-55v45h55q4 116 92 200.5t180 84.5q40 0 74 -19l43 19v-727l55 -10v-27z" />
    <glyph glyph-name=".notdef" 
d="M0 0v700h500v-700h-500zM250 395l170 255h-340zM280 350l170 -255v510zM80 50h340l-170 255zM50 605v-510l170 255z" />
    <glyph glyph-name=".null" horiz-adv-x="0" 
 />
    <glyph glyph-name="nonmarkingreturn" horiz-adv-x="333" 
 />
    <glyph glyph-name="space" unicode=" " horiz-adv-x="250" 
 />
    <glyph glyph-name="exclam" unicode="!" horiz-adv-x="333" 
d="M186 193h-34q0 125 -13 232q-3 24 -20 100t-17 106q0 84 67 84t67 -84q0 -30 -17 -106t-20 -100q-13 -107 -13 -232zM230 56q0 -28 -19 -47t-47 -19q-27 0 -46.5 19t-19.5 47t19.5 47t46.5 19q28 0 47 -19t19 -47z" />
    <glyph glyph-name="quotedbl" unicode="&#x22;" horiz-adv-x="333" 
d="M86 399q-20 0 -22 31l-18 204q-1 8 -1 28q0 53 41 53t41 -53q0 -20 -1 -28l-18 -204q-2 -31 -22 -31zM247 399q-20 0 -22 31l-18 204q-1 8 -1 28q0 53 41 53t41 -53q0 -20 -1 -28l-18 -204q-2 -31 -22 -31z" />
    <glyph glyph-name="numbersign" unicode="#" 
d="M466 281l-3 -67h-96l-30 -214h-72l30 214h-119l-30 -214h-72l30 214h-100l3 67h106l20 138h-99l3 67h105l29 214h73l-30 -214h119l29 214h73l-30 -214h91l-3 -67h-97l-20 -138h90zM324 419h-119l-20 -138h119z" />
    <glyph glyph-name="dollar" unicode="$" 
d="M223 32v274q-83 37 -124.5 84.5t-41.5 119.5q0 74 47 128.5t119 61.5v84h41v-84q26 0 51 -4t51.5 -14t42.5 -29.5t16 -47.5q0 -19 -15 -32.5t-33 -13.5q-32 0 -51.5 28t-26.5 70q-15 8 -35 8v-247q45 -22 72 -39t56.5 -43.5t43 -61t13.5 -78.5q0 -76 -54 -133.5
t-131 -65.5v-105h-41v105q-187 10 -187 114q0 24 15.5 40t39.5 16q39 0 56 -35.5t17 -79.5q28 -14 59 -20zM223 433v232q-103 -20 -103 -119q0 -75 103 -113zM264 289v-257q52 7 82.5 37.5t30.5 79.5q0 53 -28.5 83.5t-84.5 56.5z" />
    <glyph glyph-name="percent" unicode="%" horiz-adv-x="833" 
d="M556 127q0 -115 44 -115q34 0 47 63t13 212q0 115 -44 115q-34 0 -47 -63t-13 -212zM168 -15l416 730h60l-416 -730h-60zM150 413q0 -115 44 -115q34 0 47 63t13 212q0 115 -44 115q-34 0 -47 -63t-13 -212zM465 207q0 81 44 151.5t99 70.5q64 0 103.5 -62t39.5 -160
q0 -81 -44 -151.5t-99 -70.5q-64 0 -103.5 62t-39.5 160zM59 493q0 81 44 151.5t99 70.5q64 0 103.5 -62t39.5 -160q0 -81 -44 -151.5t-99 -70.5q-64 0 -103.5 62t-39.5 160z" />
    <glyph glyph-name="ampersand" unicode="&#x26;" horiz-adv-x="722" 
d="M465 387v32h218v-32q-45 -6 -60 -23.5t-35 -79.5q-20 -60 -75 -158q28 -31 49.5 -45t51.5 -14q15 0 30 7.5t20 12.5l22 22l26 -19q-28 -39 -72.5 -72t-78.5 -33q-58 0 -125 61q-85 -61 -191 -61q-91 0 -150.5 54t-59.5 144q0 145 173 234q-22 68 -22 117q0 80 53.5 130.5
t134.5 50.5q33 0 69 -12t64 -40.5t28 -65.5q0 -28 -15 -44.5t-38 -16.5q-30 0 -47 19t-17 45q0 32 11 60q-17 15 -52 15q-40 0 -65.5 -25t-25.5 -72q0 -77 63.5 -195.5t136.5 -221.5q23 26 43.5 76.5t20.5 82.5q0 57 -85 67zM142 245q0 -72 55.5 -134.5t127.5 -62.5
q32 0 84 28q-100 117 -186 305q-81 -43 -81 -136z" />
    <glyph glyph-name="quotesingle" unicode="'" horiz-adv-x="222" 
d="M111 399q-20 0 -22 31l-18 204q-1 8 -1 28q0 53 41 53t41 -53q0 -20 -1 -28l-18 -204q-2 -31 -22 -31z" />
    <glyph glyph-name="parenleft" unicode="(" horiz-adv-x="389" 
d="M288 764l14 -14q-102 -109 -102 -470q0 -307 99 -418l-15 -12q-193 187 -193 446q0 140 54 265t143 203z" />
    <glyph glyph-name="parenright" unicode=")" horiz-adv-x="389" 
d="M90 752l15 12q98 -95 145.5 -210.5t47.5 -265.5q0 -120 -54.5 -241t-142.5 -197l-14 13q102 110 102 442q0 91 -4.5 159t-28 154t-66.5 134z" />
    <glyph glyph-name="asterisk" unicode="*" 
d="M57 415q0 21 15.5 30.5t38 10.5t56 10.5t60.5 28.5l-1 11q-21 16 -53 25t-56 12t-41.5 13t-17.5 30q0 19 11.5 30.5t30.5 11.5q21 0 35 -17t38 -45.5t62 -46.5l9 5q0 52 -16 96t-16 53q0 20 11 31t27 11t27 -11t11 -31q0 -9 -16 -53t-16 -96l9 -5q38 18 62 46.5t38 45.5
t35 17q19 0 30.5 -11.5t11.5 -30.5q0 -20 -17.5 -30t-41.5 -13t-56 -12t-53 -25l-1 -11q27 -19 60.5 -28.5t56 -10.5t38 -10.5t15.5 -30.5q0 -17 -11 -29t-27 -12q-17 0 -32 12t-26 28.5t-33 36t-49 31.5l-6 -5q0 -59 17 -99t17 -52q0 -19 -12 -31t-31 -12t-31 12t-12 31
q0 12 17 52t17 99l-6 5q-27 -12 -49 -31.5t-33 -36t-26 -28.5t-32 -12q-16 0 -27 12t-11 29z" />
    <glyph glyph-name="plus" unicode="+" horiz-adv-x="600" 
d="M262 278v201h77v-201h201v-77h-201v-201h-77v201h-201v77h201z" />
    <glyph glyph-name="comma" unicode="," horiz-adv-x="250" 
d="M69 -147l-24 25q66 62 91 111q-30 22 -44.5 41t-14.5 48q0 27 18 44t45 17q66 0 66 -81q0 -51 -42 -106t-95 -99z" />
    <glyph glyph-name="hyphen" unicode="-" horiz-adv-x="333" 
d="M289 199h-245v80h245v-80z" />
    <glyph glyph-name="period" unicode="." horiz-adv-x="250" 
d="M57 58q0 28 19 48t49 20t49 -20t19 -48t-19 -48t-49 -20t-49 20t-19 48z" />
    <glyph glyph-name="slash" unicode="/" horiz-adv-x="278" 
d="M-11 -15l222 730h78l-222 -730h-78z" />
    <glyph glyph-name="zero" unicode="0" 
d="M247 -15q-61 0 -110 55.5t-74 138.5t-25 171q0 87 26.5 170.5t75.5 139t107 55.5q61 0 110 -55.5t74 -138.5t25 -171q0 -87 -26.5 -170.5t-75.5 -139t-107 -55.5zM247 20q41 0 66 79.5t25 250.5q0 138 -10 210t-28 96t-53 24q-41 0 -66 -79.5t-25 -250.5q0 -138 10 -210
t28 -96t53 -24z" />
    <glyph glyph-name="one" unicode="1" 
d="M426 0h-340v35l119 12v503q0 45 -12 57t-46 12q-19 0 -59 -2v37q144 28 231 61v-668l107 -12v-35z" />
    <glyph glyph-name="two" unicode="2" 
d="M109 108h171q57 0 81.5 20.5t45.5 74.5l35 -6l-45 -212q-11 7 -39 12q-24 3 -57 3h-276v46q106 161 137 198q83 101 107 144q39 69 39 134q0 62 -31 105t-93 43q-51 0 -76 -42q39 -45 39 -82q0 -68 -59 -68t-59 68q0 72 55.5 120.5t138.5 48.5q84 0 143.5 -49.5
t59.5 -137.5q0 -51 -18.5 -92.5t-53 -76.5t-72.5 -67t-87 -81.5t-86 -102.5z" />
    <glyph glyph-name="three" unicode="3" 
d="M427 547q0 -129 -155 -168v-2q172 -49 172 -201q0 -92 -70.5 -141.5t-166.5 -49.5q-70 0 -131.5 37t-61.5 94q0 25 13.5 45.5t38.5 20.5q66 0 66 -84q0 -33 -9 -56q24 -22 77 -22q59 0 92.5 50t33.5 122q0 89 -35.5 129t-93.5 40q-7 0 -17 -1t-16 -1q-23 0 -23 23
q0 18 23 18q8 0 21 -2t21 -2q55 0 81 38.5t26 103.5t-26 103.5t-81 38.5q-33 0 -58 -17q11 -42 11 -64q0 -33 -18 -55t-46 -22q-25 0 -39.5 17t-14.5 43q0 56 53 94.5t122 38.5q92 0 151.5 -41.5t59.5 -126.5z" />
    <glyph glyph-name="four" unicode="4" 
d="M261 161h-238v58q75 110 131 239t75 242h130v-2q-30 -76 -118 -223t-183 -269h203v211q52 65 108 164v-375h101v-45h-101v-116l57 -10v-35h-227v35l62 10v116z" />
    <glyph glyph-name="five" unicode="5" 
d="M60 338l26 362h260q25 0 36 8t18 29h38l-34 -145h-279l-14 -194q39 30 68 41t69 11q99 0 151 -62.5t52 -168.5q0 -102 -69 -168t-174 -66q-72 0 -126.5 40.5t-54.5 88.5q0 31 16.5 52t46.5 21t46.5 -21t16.5 -52q0 -14 -5.5 -39.5t-6.5 -31.5q31 -23 78 -23q50 0 82 50.5
t32 141.5q0 184 -114 184q-79 0 -123 -64z" />
    <glyph glyph-name="six" unicode="6" 
d="M259 -15q-58 0 -102 30.5t-68 80.5t-35.5 106t-11.5 115q0 56 9.5 111t31.5 107.5t53.5 92t78.5 63.5t103 24q47 0 87.5 -24t40.5 -65q0 -25 -16 -42.5t-41 -17.5q-28 0 -49.5 22t-25.5 68q-1 15 -4.5 19.5t-12.5 4.5q-51 0 -91.5 -76t-41.5 -237h2q47 79 125 79
q82 0 130.5 -64t48.5 -151q0 -95 -56 -170.5t-155 -75.5zM256 20q30 0 50.5 21.5t29.5 55.5t12.5 62t3.5 55q0 170 -93 170q-40 0 -69.5 -40.5t-29.5 -139.5q0 -184 96 -184z" />
    <glyph glyph-name="seven" unicode="7" 
d="M170 700h294v-45q-44 -73 -65.5 -112.5t-47.5 -97t-37 -104.5t-19 -111.5t-8 -142.5q0 -102 -63 -102q-38 0 -56.5 22.5t-18.5 59.5q0 59 28 136.5t58.5 133.5t81 140.5t66.5 114.5h-236q-36 0 -53.5 -16t-36.5 -66l-32 5l49 200q29 -15 96 -15z" />
    <glyph glyph-name="eight" unicode="8" 
d="M217 467l85 -50q63 51 63 139q0 56 -32.5 90t-86.5 34q-46 0 -78 -28.5t-32 -73.5q0 -63 81 -111zM259 715q70 0 122 -42.5t52 -111.5q0 -54 -23.5 -88t-77.5 -73q65 -42 96 -87.5t31 -118.5q0 -94 -60.5 -151.5t-157.5 -57.5q-85 0 -143 49t-58 132q0 61 36.5 109.5
t93.5 77.5q-102 74 -102 173q0 83 50.5 136t140.5 53zM289 281l-89 52q-39 -23 -61 -69t-22 -96q0 -65 35 -106.5t98 -41.5t97.5 32.5t34.5 96.5q0 45 -24 75t-69 57z" />
    <glyph glyph-name="nine" unicode="9" 
d="M247 715q58 0 102 -30.5t68 -80.5t35.5 -106t11.5 -115q0 -56 -9.5 -111t-31.5 -107.5t-53.5 -92t-78.5 -63.5t-103 -24q-47 0 -87.5 24t-40.5 65q0 25 16 42.5t41 17.5q28 0 49.5 -22t25.5 -68q1 -15 4.5 -19.5t12.5 -4.5q51 0 91.5 76t41.5 237h-2q-47 -79 -125 -79
q-89 0 -134 62t-45 153q0 95 56 170.5t155 75.5zM250 680q-30 0 -50.5 -21.5t-29.5 -55.5t-12.5 -62t-3.5 -55q0 -170 93 -170q40 0 69.5 40.5t29.5 139.5q0 184 -96 184z" />
    <glyph glyph-name="colon" unicode=":" horiz-adv-x="250" 
d="M57 58q0 28 19 48t49 20t49 -20t19 -48t-19 -48t-49 -20t-49 20t-19 48zM57 402q0 28 19 48t49 20t49 -20t19 -48t-19 -48t-49 -20t-49 20t-19 48z" />
    <glyph glyph-name="semicolon" unicode=";" horiz-adv-x="250" 
d="M69 -147l-24 25q66 62 91 111q-30 22 -44.5 41t-14.5 48q0 27 18 44t45 17q66 0 66 -81q0 -51 -42 -106t-95 -99zM70 402q0 28 19 48t49 20t49 -20t19 -48t-19 -48t-49 -20t-49 20t-19 48z" />
    <glyph glyph-name="less" unicode="&#x3c;" horiz-adv-x="600" 
d="M540 70v-78l-479 209v77l479 209v-78l-382 -170z" />
    <glyph glyph-name="equal" unicode="=" horiz-adv-x="600" 
d="M540 355v-77h-479v77h479zM540 201v-77h-479v77h479z" />
    <glyph glyph-name="greater" unicode="&#x3e;" horiz-adv-x="600" 
d="M61 -8v78l382 170l-382 169v78l479 -209v-77z" />
    <glyph glyph-name="question" unicode="?" horiz-adv-x="389" 
d="M181 300v-110h-33v215q68 24 102 56.5t34 94.5q0 52 -30 88.5t-80 36.5q-25 0 -54 -18q17 -43 17 -63q0 -28 -15.5 -42t-38.5 -14t-38.5 14t-15.5 42q0 54 45.5 84.5t103.5 30.5q78 0 127.5 -58t49.5 -138q0 -88 -40.5 -136.5t-133.5 -82.5zM94 56q0 28 19.5 47t46.5 19
q28 0 47 -19t19 -47t-19 -47t-47 -19q-27 0 -46.5 19t-19.5 47z" />
    <glyph glyph-name="at" unicode="@" horiz-adv-x="800" 
d="M332 292q0 -44 17 -66t43 -22q48 0 84.5 72.5t36.5 143.5q0 67 -45 67q-43 0 -89.5 -56.5t-46.5 -138.5zM532 486l11 39h75l-60 -241q-9 -34 -9 -47q0 -45 37 -45q53 0 89.5 68.5t36.5 142.5q0 98 -81.5 181.5t-211.5 83.5q-119 0 -202.5 -89.5t-83.5 -255.5
q0 -115 85.5 -200.5t210.5 -85.5q64 0 109 12.5t101 38.5l12 -40q-124 -63 -221 -63q-79 0 -146.5 22.5t-112.5 59t-77 83t-46.5 93.5t-14.5 91q0 167 112.5 274t273.5 107q148 0 248 -89t100 -222q0 -57 -22 -113.5t-69 -98t-106 -41.5q-45 0 -70.5 29t-24.5 47h-2
q-12 -22 -46 -48.5t-76 -26.5q-16 0 -31 5t-32.5 17.5t-28 40.5t-10.5 67q0 33 13 75t37.5 84t66.5 70.5t92 28.5q8 0 15 -1t13 -3t10.5 -4t8.5 -6t6.5 -7t6 -8t5 -8t5 -9t4.5 -8z" />
    <glyph glyph-name="A" unicode="A" horiz-adv-x="611" 
d="M174 0h-198v32q42 13 61.5 32.5t33.5 61.5l167 516l-25 59l135 7l219 -664l55 -12v-32h-239v32l55 12l-58 178h-238l-30 -95q-7 -24 -7 -44q0 -7 1.5 -13t6.5 -10.5t8.5 -8t12 -6.5t12 -4.5t14.5 -4.5t14 -4v-32zM157 264h211l-105 326h-2z" />
    <glyph glyph-name="B" unicode="B" horiz-adv-x="667" 
d="M220 658v-258h64q170 0 170 138q0 65 -37 97.5t-117 32.5q-47 0 -80 -10zM98 40v620l-55 8v32h336q50 0 92 -14t73.5 -50t31.5 -90q0 -75 -55 -114t-136 -50v-2q97 -21 160 -68t63 -126q0 -85 -66 -135.5t-177 -50.5h-322v32zM220 368v-328q36 -8 64 -8q192 0 192 163
q0 90 -58.5 131.5t-155.5 41.5h-42z" />
    <glyph glyph-name="C" unicode="C" horiz-adv-x="611" 
d="M544 203l33 -12q-31 -92 -99 -149t-157 -57q-130 0 -206.5 99.5t-76.5 247.5q0 67 18.5 133.5t53 123t90.5 91.5t123 35q36 0 73 -10q42 -11 57 -11q26 0 73 21l49 -217l-38 -9q-43 82 -91.5 134t-112.5 52q-58 0 -98.5 -41.5t-57.5 -98.5t-17 -121q0 -62 12 -120.5
t36 -111t66.5 -84t97.5 -31.5q57 0 104 39t68 97z" />
    <glyph glyph-name="D" unicode="D" horiz-adv-x="667" 
d="M93 40v620l-55 8v32h269q82 0 145 -32t99 -84t53.5 -111.5t17.5 -122.5t-17.5 -122.5t-53.5 -111.5t-99 -84t-145 -32h-269v32zM215 660v-620q22 -8 74 -8q46 0 80.5 14t63 48.5t43 98.5t14.5 157t-14.5 157t-43 98.5t-63 48.5t-80.5 14q-52 0 -74 -8z" />
    <glyph glyph-name="E" unicode="E" horiz-adv-x="611" 
d="M569 211l-50 -226q-15 8 -38 11q-21 4 -55 4h-385v32l55 8v620l-55 8v32h378q66 0 93 15l46 -203l-37 -8q-42 91 -94 127.5t-158 36.5q-28 0 -51 -8v-268h40q50 0 74 25t36 87h32v-256h-32q-12 62 -36 87t-74 25h-40v-320q23 -8 51 -8q103 0 161 44.5t102 142.5z" />
    <glyph glyph-name="F" unicode="F" horiz-adv-x="556" 
d="M275 0h-232v32l55 8v620l-55 8v32h363q66 0 93 15l55 -214l-38 -9q-26 48 -45.5 75.5t-48 53t-65 36.5t-86.5 11q-28 0 -51 -8v-278h59q46 0 67 27.5t29 77.5h32v-253h-32q-7 57 -28.5 86.5t-67.5 29.5h-59v-310l55 -8v-32z" />
    <glyph glyph-name="G" unicode="G" horiz-adv-x="667" 
d="M468 47v198l-55 8v32h232v-32l-55 -8v-213q-35 0 -109 -23.5t-130 -23.5q-140 0 -225 99.5t-85 243.5q0 90 34 177t103.5 148.5t158.5 61.5q31 0 73 -10q48 -11 61 -11q39 0 69 21l47 -213l-34 -12q-21 40 -37.5 65t-43 56.5t-59.5 47.5t-72 16q-60 0 -102.5 -47
t-59 -108.5t-16.5 -127.5q0 -43 8 -89t27 -94.5t46.5 -86.5t70.5 -62.5t95 -24.5q34 0 58 12z" />
    <glyph glyph-name="H" unicode="H" horiz-adv-x="722" 
d="M624 660v-620l55 -8v-32h-232v32l55 8v306h-282v-306l55 -8v-32h-232v32l55 8v620l-55 8v32h232v-32l-55 -8v-272h282v272l-55 8v32h232v-32z" />
    <glyph glyph-name="I" unicode="I" horiz-adv-x="333" 
d="M282 0h-232v32l55 8v620l-55 8v32h232v-32l-55 -8v-620l55 -8v-32z" />
    <glyph glyph-name="J" unicode="J" horiz-adv-x="389" 
d="M119 700h232v-32l-55 -8v-408q0 -97 -65.5 -182t-153.5 -85q-32 0 -54 18.5t-22 53.5q0 23 18.5 39.5t47.5 16.5q37 0 58 -29q2 -3 6 -8.5t6 -8.5t5 -6t5.5 -4.5t5.5 -1.5q12 0 16.5 21.5t4.5 84.5v499l-55 8v32z" />
    <glyph glyph-name="K" unicode="K" horiz-adv-x="667" 
d="M109 40v620l-55 8v32h232v-32l-55 -8v-338h2l159 193q5 6 17 20.5t17 20.5t14 17.5t13 18t8.5 14.5t6.5 14.5t2 12.5q0 31 -65 35v32h236v-32q-43 -5 -74.5 -24t-69.5 -66l-87 -107l199 -405q6 -12 11 -18t17.5 -10.5t33.5 -5.5v-32h-240v32l55 8l-160 333l-95 -112v-221
l55 -8v-32h-232v32z" />
    <glyph glyph-name="L" unicode="L" horiz-adv-x="556" 
d="M98 40v620l-55 8v32h232v-32l-55 -8v-620q25 -8 51 -8q50 0 86.5 11t65 36.5t48 53t45.5 75.5l38 -9l-55 -214q-15 8 -38 11q-21 4 -55 4h-363v32z" />
    <glyph glyph-name="M" unicode="M" horiz-adv-x="778" 
d="M225 0h-206v32q29 10 42 17t24 27t12 54l17 530l-55 8v32h182l147 -385l149 385h180v-32l-55 -8l21 -620l55 -8v-32h-234v32l55 8l-16 556h-2l-182 -462h-26l-175 460h-2l-12 -471q-3 -85 81 -91v-32z" />
    <glyph glyph-name="N" unicode="N" horiz-adv-x="667" 
d="M201 700l325 -499h2v393q0 39 -17.5 53.5t-59.5 20.5v32h198v-32q-77 -11 -77 -86v-597h-47l-377 572h-2v-440q0 -38 23.5 -59.5t61.5 -25.5v-32h-214v32q37 4 61 29t24 67v442q0 43 -24 68.5t-61 29.5v32h184z" />
    <glyph glyph-name="O" unicode="O" horiz-adv-x="667" 
d="M333 -15q-135 0 -215 106t-80 259q0 63 22.5 127.5t60.5 117.5t94 86.5t118 33.5q135 0 215 -106t80 -259q0 -63 -22.5 -127.5t-60.5 -117.5t-94 -86.5t-118 -33.5zM333 25q70 0 116.5 81.5t46.5 243.5q0 176 -41.5 250.5t-121.5 74.5q-70 0 -116.5 -81.5t-46.5 -243.5
q0 -176 41.5 -250.5t121.5 -74.5z" />
    <glyph glyph-name="P" unicode="P" horiz-adv-x="611" 
d="M105 40v620l-55 8v32h260q74 0 133 -16t100.5 -57.5t41.5 -104.5q0 -200 -311 -200h-47v-282l55 -8v-32h-232v32zM227 658v-296q24 -8 50 -8q79 0 127.5 40.5t48.5 120.5q0 72 -40 112.5t-118 40.5q-35 0 -68 -10z" />
    <glyph glyph-name="Q" unicode="Q" horiz-adv-x="667" 
d="M620 -37v-42q-52 -36 -88 -36q-49 0 -77.5 28.5t-49.5 84.5q-21 -8 -35 -10q-18 -3 -37 -3q-135 0 -215 106t-80 259q0 63 22.5 127.5t60.5 117.5t94 86.5t118 33.5q135 0 215 -106t80 -259q0 -84 -38 -167.5t-102 -136.5q27 -51 47.5 -71t44.5 -20q21 0 40 8zM312 119
l7 35q45 -5 70.5 -17.5t51.5 -42.5q55 85 55 256q0 176 -41.5 250.5t-121.5 74.5q-70 0 -116.5 -81.5t-46.5 -243.5q0 -176 41.5 -250.5t121.5 -74.5q28 0 52 14q-13 58 -73 80z" />
    <glyph glyph-name="R" unicode="R" horiz-adv-x="667" 
d="M227 663v-285h45q96 0 138 36t42 110t-44.5 109t-114.5 35q-9 0 -66 -5zM105 40v620l-55 8v32h255q44 0 80 -4t74.5 -16t64.5 -31.5t43 -54t17 -80.5q0 -62 -48 -106t-111 -55l165 -313l55 -8v-32h-170l-179 346h-69v-306l55 -8v-32h-232v32z" />
    <glyph glyph-name="S" unicode="S" horiz-adv-x="556" 
d="M447 715l37 -208l-35 -9q-17 35 -32.5 60.5t-39 55t-54 45.5t-65.5 16q-54 0 -85.5 -28t-31.5 -75q0 -40 20.5 -68.5t53.5 -45t73 -31t80 -32t73 -41t53.5 -64.5t20.5 -97q0 -90 -64 -149t-156 -59q-42 0 -96.5 16t-66.5 16q-19 0 -64 -17l-38 213l38 5q39 -83 98 -138
t136 -55q51 0 88.5 35.5t37.5 85.5q0 38 -20 66t-52.5 45t-71.5 32t-78.5 34t-72 43.5t-52.5 66.5t-20 99q0 73 54 128t138 55q38 0 70 -10q35 -11 55 -11q36 0 69 21z" />
    <glyph glyph-name="T" unicode="T" horiz-adv-x="611" 
d="M149 700h312q66 0 93 15l44 -212l-32 -8q-35 83 -79 128t-121 45v-628l55 -8v-32h-232v32l55 8v628q-77 0 -121 -45t-79 -128l-32 8l44 212q27 -15 93 -15z" />
    <glyph glyph-name="U" unicode="U" horiz-adv-x="667" 
d="M33 700h232v-32l-55 -8v-470q0 -68 48.5 -114.5t109.5 -46.5q73 0 120.5 44t47.5 121v389q0 38 -23.5 59.5t-61.5 25.5v32h214v-32q-38 -4 -61.5 -25.5t-23.5 -59.5v-363q0 -235 -238 -235q-254 0 -254 205v470l-55 8v32z" />
    <glyph glyph-name="V" unicode="V" horiz-adv-x="556" 
d="M361 -8h-130l-202 668l-55 8v32h233v-32l-55 -8l163 -542h2l126 413q21 72 21 82q0 40 -70 55v32h196v-32q-67 -14 -83 -67l-169 -548z" />
    <glyph glyph-name="W" unicode="W" horiz-adv-x="833" 
d="M329 -8h-124l-171 668l-55 8v32h233v-32l-55 -8l126 -520h2l110 406l-41 136l118 33l147 -575h2l109 410q11 39 11 57q0 29 -16 43t-51 18v32h187v-32q-34 -4 -51 -24t-28 -60l-138 -519l24 -73h-129l-122 478h-2l-109 -405z" />
    <glyph glyph-name="X" unicode="X" horiz-adv-x="611" 
d="M227 0h-220v32q68 11 94 54l147 246l-192 328l-55 8v32h250v-32l-55 -8l129 -225l78 132q24 39 24 60q0 37 -66 41v32h206v-32q-61 -2 -104 -76l-115 -199l212 -353l55 -8v-32h-253v32l55 8l-146 253l-63 -109q-5 -9 -18.5 -30.5t-18.5 -31t-10 -24t-5 -25.5
q0 -21 23.5 -31t47.5 -10v-32z" />
    <glyph glyph-name="Y" unicode="Y" horiz-adv-x="556" 
d="M-20 700h246v-32l-55 -8l152 -308l95 184q29 56 29 82q0 17 -11.5 27.5t-22.5 14t-33 8.5v32h201v-32q-56 -6 -94 -81l-147 -292v-255l55 -8v-32h-232v32l55 8v258l-183 362l-55 8v32z" />
    <glyph glyph-name="Z" unicode="Z" horiz-adv-x="556" 
d="M79 509l-34 5l49 201q15 -8 38 -11q21 -4 55 -4h328v-42l-363 -626h91q47 0 86 14t67.5 41.5t47.5 55t39 65.5l36 -4l-54 -219q-15 8 -38 11q-21 4 -55 4h-349v42l361 626h-86q-43 0 -77.5 -12.5t-60.5 -37t-43.5 -48.5t-37.5 -61z" />
    <glyph glyph-name="bracketleft" unicode="[" horiz-adv-x="389" 
d="M118 -136v886h183v-28q-53 0 -72 -12t-19 -48v-710q0 -36 19 -48t72 -12v-28h-183z" />
    <glyph glyph-name="backslash" unicode="\" horiz-adv-x="278" 
d="M67 715l222 -730h-78l-222 730h78z" />
    <glyph glyph-name="bracketright" unicode="]" horiz-adv-x="389" 
d="M88 750h183v-886h-183v28q53 0 72 12t19 48v710q0 36 -19 48t-72 12v28z" />
    <glyph glyph-name="asciicircum" unicode="^" horiz-adv-x="600" 
d="M166 335h-82l180 365h72l180 -365h-83l-133 277z" />
    <glyph glyph-name="underscore" unicode="_" 
d="M500 -125h-500v50h500v-50z" />
    <glyph glyph-name="grave" unicode="`" horiz-adv-x="278" 
d="M218 545h-51l-103 64q-11 7 -27.5 17t-22.5 14l-15 10t-11.5 10.5t-4.5 11t-2 15.5q0 14 13.5 26t34.5 12t55 -36z" />
    <glyph glyph-name="a" unicode="a" horiz-adv-x="444" 
d="M369 334v-247q0 -37 24 -37q15 0 34 14l17 -21q-10 -19 -37 -38t-57 -19q-61 0 -77 67q-64 -67 -133 -67q-47 0 -79.5 34.5t-32.5 83.5q0 27 6.5 50t23.5 42t30 32t42.5 28t43 21t50 20.5t45.5 18.5v49q0 38 -23.5 65.5t-50.5 27.5q-7 0 -15.5 -17t-24.5 -33.5t-39 -16.5
q-57 0 -57 47q0 29 25.5 42t59.5 13q30 0 66.5 -9t73 -27t61 -50t24.5 -73zM269 88v191q-137 -37 -137 -143q0 -30 21.5 -55t44.5 -25q20 0 40.5 9.5t30.5 22.5z" />
    <glyph glyph-name="b" unicode="b" 
d="M126 60l-72 -74l-19 8q35 82 35 171v481q0 29 -39 29v27l139 62v-337q32 35 59 50.5t65 15.5q58 0 96.5 -34.5t53.5 -83t15 -107.5q0 -62 -21 -124.5t-68.5 -110t-110.5 -47.5q-75 0 -133 74zM170 371v-251q0 -43 21 -71t64 -28q49 0 76.5 50t27.5 146q0 30 -5 61
t-17 63.5t-36 53t-57 20.5q-24 0 -49 -16t-25 -28z" />
    <glyph glyph-name="c" unicode="c" horiz-adv-x="444" 
d="M388 100l28 -22q-80 -92 -163 -92q-96 0 -153.5 65t-57.5 166q0 120 65.5 198t168.5 78q43 0 78 -19.5t35 -62.5q0 -21 -16.5 -35t-38.5 -14q-25 0 -40 15t-18.5 33t-9.5 33t-16 15q-45 0 -76.5 -48.5t-31.5 -141.5q0 -76 42.5 -141.5t113.5 -65.5q48 0 90 39z" />
    <glyph glyph-name="d" unicode="d" 
d="M319 470v164q0 24 -13.5 33.5t-41.5 9.5v27l155 60v-640q0 -37 10 -55t38 -21v-27l-111 -35q-18 18 -30 73q-71 -73 -126 -73q-74 0 -116 69.5t-42 153.5q0 54 10.5 102.5t32.5 90.5t60.5 66.5t89.5 24.5q48 0 84 -23zM319 136v253q0 29 -23.5 49t-54.5 20
q-50 0 -74.5 -52t-24.5 -138q0 -29 5.5 -61.5t17.5 -66t35 -55t53 -21.5q29 0 47.5 21.5t18.5 50.5z" />
    <glyph glyph-name="e" unicode="e" horiz-adv-x="444" 
d="M409 303l-275 -74q3 -67 39 -117.5t100 -50.5q15 0 27.5 3t20.5 5.5t18.5 11.5t13.5 12t15.5 17t14.5 17l27 -21q-41 -60 -84.5 -90t-107.5 -30q-84 0 -134 69t-50 163q0 66 21 127t68 104.5t112 43.5q76 0 124.5 -57t49.5 -133zM124 271l116 30q30 7 42.5 25.5
t12.5 54.5q0 37 -20.5 57t-54.5 20q-49 0 -72.5 -52.5t-23.5 -134.5z" />
    <glyph glyph-name="f" unicode="f" horiz-adv-x="278" 
d="M259 479v-45h-79v-397l55 -10v-27h-210v27l55 10v397h-59v45h59q0 106 63 195.5t120 89.5q26 0 44 -14t18 -40t-15 -41t-38 -15q-25 0 -50 14t-26 14q-8 0 -13.5 -41t-5.5 -84v-78h82z" />
    <glyph glyph-name="g" unicode="g" 
d="M52 316q0 86 64 131.5t163 45.5q4 4 25 23.5t30.5 27.5t27.5 20.5t34 18t33 5.5q24 0 40 -14t16 -36q0 -21 -13.5 -35.5t-33.5 -14.5q-22 0 -45 15.5t-25 15.5q-6 0 -22.5 -11.5t-27.5 -24.5q57 -21 91 -62.5t34 -97.5q0 -83 -59 -131t-144 -48q-18 0 -54 6
q-2 -2 -17 -11t-21 -16t-6 -16q0 -14 32.5 -18t120.5 -7q190 -5 190 -123q0 -47 -24 -77.5t-67 -42.5t-75.5 -15.5t-77.5 -3.5q-47 0 -81.5 3t-68 10.5t-51.5 24.5t-18 42q0 9 3.5 18t11 18t14 15.5t18 15t17.5 13t17.5 12t13.5 8.5q-57 10 -70 25q-9 9 -9 22
q0 26 16.5 45.5t48 41.5t42.5 33q-39 21 -66 63t-27 86zM104 -81q0 -37 33.5 -50.5t109.5 -13.5q156 0 156 65q0 31 -26.5 43.5t-82.5 16.5q-84 7 -123 7q-14 0 -40.5 -23.5t-26.5 -44.5zM152 319q0 -57 23 -98.5t71 -41.5q50 0 73.5 44t23.5 98q0 53 -24 95t-75 42
q-49 0 -70.5 -41.5t-21.5 -97.5z" />
    <glyph glyph-name="h" unicode="h" horiz-adv-x="556" 
d="M531 0h-210v27l55 10v297q0 52 -30 78t-68 26q-33 0 -61.5 -18.5t-28.5 -33.5v-349l48 -10v-27h-203v27l55 10v597q0 24 -13.5 33.5t-41.5 9.5v27l155 60v-330q61 59 131 59q25 0 50.5 -8t50.5 -25.5t40.5 -50t15.5 -75.5v-297l55 -10v-27z" />
    <glyph glyph-name="i" unicode="i" horiz-adv-x="278" 
d="M250 0h-210v27l55 10v331q0 30 -13 40.5t-42 10.5v27l155 47v-456l55 -10v-27zM83 643q0 27 18 44.5t44 17.5t44 -17.5t18 -44.5t-18 -44.5t-44 -17.5t-44 17.5t-18 44.5z" />
    <glyph glyph-name="j" unicode="j" horiz-adv-x="278" 
d="M200 493v-427q0 -84 -59 -165t-120 -81q-22 0 -36 14t-14 36q0 23 16 36.5t47 13.5q20 0 36.5 -11.5t20.5 -11.5q9 0 9 62v417q0 24 -13.5 33.5t-41.5 9.5v27zM88 643q0 27 18 44.5t44 17.5t44 -17.5t18 -44.5t-18 -44.5t-44 -17.5t-44 17.5t-18 44.5z" />
    <glyph glyph-name="k" unicode="k" 
d="M505 0h-213v27l55 10l-120 211l-46 -74v-137l48 -10v-27h-203v27l55 10v597q0 24 -13.5 33.5t-41.5 9.5v27l155 60v-517h2l55 87q42 66 88 112.5t82 46.5q22 0 39.5 -16t17.5 -39q0 -31 -19.5 -47t-41.5 -16q-13 0 -32.5 11t-27.5 11q-12 0 -29.5 -21.5t-27.5 -39.5
l170 -299l48 -10v-27z" />
    <glyph glyph-name="l" unicode="l" horiz-adv-x="278" 
d="M250 0h-210v27l55 10v597q0 24 -13.5 33.5t-41.5 9.5v27l155 60v-727l55 -10v-27z" />
    <glyph glyph-name="m" unicode="m" horiz-adv-x="833" 
d="M520 0h-196v27l48 10v293q0 38 -22 63t-56 25q-37 0 -70.5 -27.5t-33.5 -47.5v-306l48 -10v-27h-203v27l55 10v321q0 61 -55 61v27l113 47q32 -40 40 -88q37 40 71 64t75 24q46 0 79.5 -23t44.5 -63q26 38 63 62t75 24q89 0 123.5 -49t34.5 -136v-271l55 -10v-27h-203v27
l48 10v296q0 39 -26.5 62t-64.5 23q-30 0 -62 -22t-32 -33q0 -6 1.5 -29.5t1.5 -41.5v-255l48 -10v-27z" />
    <glyph glyph-name="n" unicode="n" horiz-adv-x="556" 
d="M23 446l118 47q27 -24 42 -83q30 36 68 59.5t72 23.5q71 0 111.5 -43.5t40.5 -121.5v-291l48 -10v-27h-196v27l48 10v283q0 41 -22 69.5t-70 28.5q-14 0 -25 -2.5t-22 -10.5t-15.5 -12t-17 -17.5t-15.5 -16.5v-322l48 -10v-27h-203v27l55 10v296q0 48 -12 67t-53 19v27z
" />
    <glyph glyph-name="o" unicode="o" 
d="M250 21q28 0 49 21t31.5 56t15.5 70t5 71q0 110 -24 164.5t-77 54.5q-54 0 -77.5 -54t-23.5 -165q0 -109 22 -163.5t79 -54.5zM250 -14q-97 0 -156 71t-59 182q0 104 60.5 179t154.5 75t154.5 -75t60.5 -179q0 -94 -61 -173.5t-154 -79.5z" />
    <glyph glyph-name="p" unicode="p" 
d="M176 -130l48 -10v-27h-196v27l48 10v492q0 33 -9 43.5t-39 13.5v27l104 47q29 -30 36 -81q55 81 128 81q69 0 114 -63t45 -177q0 -57 -22 -117.5t-67.5 -105t-102.5 -44.5q-47 0 -87 23v-139zM176 370v-293q0 -13 26 -34.5t56 -21.5q49 0 73 53t24 134q0 50 -10 95
t-36.5 78.5t-65.5 33.5q-22 0 -44.5 -14.5t-22.5 -30.5z" />
    <glyph glyph-name="q" unicode="q" 
d="M375 417l65 76l24 -12q-40 -74 -40 -168v-443l48 -10v-27h-203v27l55 10v174h-2q-19 -25 -54 -41.5t-61 -16.5q-82 0 -123 63.5t-41 154.5q0 115 55 202t149 87q78 0 128 -76zM324 91v255q0 112 -80 112q-44 0 -72.5 -53t-28.5 -151q0 -87 29 -138.5t85 -51.5q37 0 67 27
z" />
    <glyph glyph-name="r" unicode="r" horiz-adv-x="389" 
d="M21 454l112 39q33 -28 48 -153h2q2 4 8.5 19.5t9.5 22.5t10.5 22t12.5 23t13 20t16 19t17.5 14t20 10t22.5 3q67 0 67 -59q0 -21 -20.5 -40t-47.5 -19q-16 0 -37 5.5t-22 5.5q-12 0 -25 -25t-23.5 -86.5t-10.5 -144.5q0 -56 6 -93l55 -10v-27h-216v27l55 10v270
q0 50 -17 85t-56 35v27z" />
    <glyph glyph-name="s" unicode="s" horiz-adv-x="389" 
d="M179 -14q-27 0 -52 3.5t-50.5 12t-41 26.5t-15.5 43q0 22 16 38t38 16q33 0 50.5 -20.5t20.5 -50.5q3 -21 13 -27t31 -6q41 0 65.5 19.5t24.5 57.5q0 31 -24.5 53.5t-59 37.5t-69 32t-59 46t-24.5 69q0 71 64 114t136 43q34 0 58 -15.5t24 -44.5q0 -24 -15 -37t-37 -13
q-62 0 -79 75q-33 -4 -56 -25t-23 -52q0 -27 25 -46t61 -32.5t72.5 -30t61.5 -50.5t25 -83q0 -74 -51 -113.5t-130 -39.5z" />
    <glyph glyph-name="t" unicode="t" horiz-adv-x="333" 
d="M83 434h-55v45h55v138l100 57v-195h113v-45h-113v-336q0 -23 15 -35t38 -12q29 0 71 33l15 -27q-25 -29 -60.5 -50t-69.5 -21q-59 0 -84 34.5t-25 78.5v335z" />
    <glyph glyph-name="u" unicode="u" horiz-adv-x="556" 
d="M182 493v-363q0 -79 91 -79q36 0 67.5 23t31.5 41v247q0 33 -9 43.5t-39 13.5v27l148 47v-388q0 -33 9 -43.5t39 -13.5v-27l-108 -35q-21 22 -35 77q-60 -77 -164 -77q-48 0 -89.5 35t-41.5 100v241q0 33 -9 43.5t-39 13.5v27z" />
    <glyph glyph-name="v" unicode="v" horiz-adv-x="444" 
d="M-13 428v27l121 38l143 -385l110 243q-24 10 -41 31t-17 46q0 29 16 47t45 18t45 -18t16 -47q0 -37 -33 -108l-154 -328h-41l-161 402q-13 31 -49 34z" />
    <glyph glyph-name="w" unicode="w" horiz-adv-x="667" 
d="M444 -8l-122 331h-2l-113 -331h-35l-139 409q-9 26 -51 27v27l128 38l108 -349h2l117 349h27l129 -362l52 116q30 68 40 108q-21 12 -41 35.5t-20 38.5q0 31 16.5 47.5t45.5 16.5q61 0 61 -64q0 -18 -16.5 -71.5t-34.5 -93.5l-117 -272h-35z" />
    <glyph glyph-name="x" unicode="x" horiz-adv-x="444" 
d="M453 0h-215v27l48 10l-97 163l-52 -83q-18 -30 -18 -47q0 -16 12.5 -29t35.5 -14v-27h-171v27q33 7 52.5 27.5t50.5 72.5l67 111l-123 204l-41 10v27h203v-27l-48 -10l80 -136l44 69q17 27 17 48q0 11 -12 19t-29 10v27h155v-27q-34 -7 -50 -22t-39 -55l-61 -106
l143 -232l48 -10v-27z" />
    <glyph glyph-name="y" unicode="y" horiz-adv-x="444" 
d="M-11 428v27l124 38l154 -380q82 185 96 242q-60 31 -60 74q0 64 61 64t61 -64q0 -51 -82 -243q-89 -209 -142 -287.5t-91 -78.5q-74 0 -74 52q0 58 55 58q20 0 43 -7t27 -7q19 0 47 84l-121 305q-32 81 -48 100.5t-50 22.5z" />
    <glyph glyph-name="z" unicode="z" horiz-adv-x="444" 
d="M415 452l-276 -417h55q71 0 121 47.5t73 104.5l32 -9l-50 -185q-10 3 -27 5q-9 2 -33 2h-286v40l267 402q-22 2 -39 2q-61 0 -106.5 -35.5t-71.5 -94.5l-30 8l43 164q18 -4 27 -5q20 -2 33 -2h268v-27z" />
    <glyph glyph-name="braceleft" unicode="{" horiz-adv-x="389" 
d="M118 -3v190q0 53 -15.5 79.5t-60.5 40.5q45 14 60.5 40.5t15.5 79.5v190q0 89 38 118t127 29v-27q-40 -12 -56.5 -42t-16.5 -82v-168q0 -62 -16 -93t-65 -44v-2q49 -14 65 -44.5t16 -93.5v-167q0 -52 16.5 -82t56.5 -42v-27q-89 0 -127 29t-38 118z" />
    <glyph glyph-name="bar" unicode="|" horiz-adv-x="222" 
d="M73 -250v1000h77v-1000h-77z" />
    <glyph glyph-name="braceright" unicode="}" horiz-adv-x="389" 
d="M271 617v-190q0 -53 15.5 -79.5t60.5 -40.5q-45 -14 -60.5 -40.5t-15.5 -79.5v-190q0 -89 -38 -118t-127 -29v27q40 12 56.5 42t16.5 82v167q0 63 16 93.5t65 44.5v2q-49 13 -65 44t-16 93v168q0 52 -16.5 82t-56.5 42v27q89 0 127 -29t38 -118z" />
    <glyph glyph-name="asciitilde" unicode="~" horiz-adv-x="600" 
d="M495 315l35 -62q-19 -27 -32 -42.5t-38 -29.5t-54 -14q-33 0 -105 34t-112 34q-50 0 -85 -72l-35 62q45 86 125 86q42 0 118 -34t95 -34t36.5 12t27 24.5t24.5 35.5z" />
    <glyph glyph-name="uni00A0" unicode="&#xa0;" horiz-adv-x="250" 
 />
    <glyph glyph-name="exclamdown" unicode="&#xa1;" horiz-adv-x="333" 
d="M147 342h34q0 -125 13 -232q3 -24 20 -100t17 -106q0 -84 -67 -84t-67 84q0 30 17 106t20 100q13 107 13 232zM103 479q0 28 19 47t47 19q27 0 46.5 -19t19.5 -47t-19.5 -47t-46.5 -19q-28 0 -47 19t-19 47z" />
    <glyph glyph-name="cent" unicode="&#xa2;" 
d="M248 594v96h41v-93q32 0 62 -7t55.5 -26t25.5 -48q0 -19 -14 -33t-35 -14q-35 0 -53 25.5t-21 63.5q-14 4 -20 4v-376q8 -2 22 -2q54 0 100 67l26 -20q-64 -110 -148 -118v-108h-41v108q-78 11 -123 77t-45 145q0 90 45.5 163t122.5 96zM248 200v358q-77 -46 -77 -188
q0 -50 20.5 -95.5t56.5 -74.5z" />
    <glyph glyph-name="sterling" unicode="&#xa3;" 
d="M41 390h91q-5 32 -5 54q0 99 80.5 185t175.5 86q40 0 66.5 -20.5t26.5 -59.5q0 -28 -15.5 -48.5t-43.5 -20.5q-13 0 -23.5 4t-17.5 8t-15 15t-12 17.5t-12.5 22.5t-12.5 22q-45 -1 -67 -43t-22 -89q0 -68 16 -133h123v-45h-117q9 -47 9 -123q0 -12 -2.5 -32.5t-2.5 -24.5
q64 -54 134 -54q38 0 58.5 28.5t33.5 79.5h34q0 -42 -6 -79.5t-19.5 -74t-41.5 -58.5t-66 -22q-21 0 -43.5 11t-35.5 22t-38.5 36.5t-34.5 33.5q-20 -46 -59.5 -74.5t-90.5 -28.5q-44 0 -76 33t-32 88t32 88t76 33q57 0 107 -33q-3 30 -23.5 82.5t-24.5 68.5h-104v45z
M21 106q0 -32 22 -54t53 -22q40 0 67.5 31t30.5 69q-17 17 -29 26.5t-30.5 17.5t-38.5 8q-36 0 -55.5 -20.5t-19.5 -55.5z" />
    <glyph glyph-name="currency" unicode="&#xa4;" 
d="M2 350q0 91 50 147l-55 58l48 48l55 -58q59 53 151 53t151 -53l55 58l48 -48l-55 -58q50 -56 50 -147t-50 -147l55 -58l-48 -48l-55 58q-59 -53 -151 -53t-151 53l-55 -58l-48 48l55 58q-50 56 -50 147zM84 350q0 -70 48.5 -120.5t118.5 -50.5t118.5 50.5t48.5 120.5
t-48.5 120.5t-118.5 50.5t-118.5 -50.5t-48.5 -120.5z" />
    <glyph glyph-name="yen" unicode="&#xa5;" 
d="M409 309v-45h-115v-224l46 -8v-32h-188v32l46 8v224h-116v45h111l-39 90h-105v45h85l-94 215l-40 9v32h200v-32l-45 -9l128 -307l76 177q27 63 27 89q0 7 -1.5 13t-3.5 10t-6.5 8t-6.5 6t-9 4.5t-9 3t-10 3t-9 2.5v32h169v-32q-44 0 -79 -81l-62 -143h84v-45h-105
l-37 -90h108z" />
    <glyph glyph-name="brokenbar" unicode="&#xa6;" horiz-adv-x="222" 
d="M73 -175v350h77v-350h-77zM73 325v350h77v-350h-77z" />
    <glyph glyph-name="section" unicode="&#xa7;" 
d="M439 286q0 -55 -33.5 -87.5t-88.5 -30.5v-9q28 -25 42.5 -41t27 -41.5t12.5 -54.5q0 -62 -45.5 -96t-110.5 -34q-57 0 -102 24.5t-45 77.5q0 28 17 43.5t46 15.5q21 0 37 -15.5t16 -36.5q0 -16 -10.5 -27t-21 -18t-10.5 -13q0 -14 25.5 -22.5t50.5 -8.5q35 0 57 20.5
t22 55.5q0 27 -27 56.5t-66 58t-77.5 59t-65.5 69.5t-27 79q0 64 32 98t94 31v9q-84 71 -84 131q0 64 39.5 100t105.5 36q52 0 95 -26.5t43 -73.5q0 -25 -16 -41.5t-45 -16.5q-20 0 -36 14.5t-16 32.5q0 17 10 30t20 20.5t10 13.5q0 11 -20 19t-41 8q-37 0 -60 -22t-23 -60
q0 -20 27.5 -47t67 -56t79.5 -61.5t67.5 -75.5t27.5 -87zM373 249q0 10 -3.5 19.5t-7 16.5t-13.5 18t-15 16t-19 18.5t-19 17.5q-68 64 -108 64q-26 0 -43 -17.5t-17 -40.5q0 -9 2 -17.5t4 -14.5t7.5 -14t8.5 -12.5t12 -13t12 -11.5t14.5 -12.5t14.5 -12.5q42 -37 64 -51
t46 -14q27 0 43.5 18.5t16.5 42.5z" />
    <glyph glyph-name="dieresis" unicode="&#xa8;" horiz-adv-x="278" 
d="M183 616q0 24 16.5 41.5t42.5 17.5t42.5 -17.5t16.5 -41.5t-16.5 -41.5t-42.5 -17.5t-42.5 17.5t-16.5 41.5zM-22 616q0 24 16.5 41.5t42.5 17.5t42.5 -17.5t16.5 -41.5t-16.5 -41.5t-42.5 -17.5t-42.5 17.5t-16.5 41.5z" />
    <glyph glyph-name="copyright" unicode="&#xa9;" horiz-adv-x="800" 
d="M46 350q0 149 100.5 257t253.5 108t253.5 -108t100.5 -257t-100.5 -257t-253.5 -108t-253.5 108t-100.5 257zM114 350q0 -127 83 -221t203 -94t203 94t83 221t-83 221t-203 94t-203 -94t-83 -221zM557 522v-73h-19q-7 39 -33 66t-75 27q-70 0 -102.5 -52.5t-32.5 -132.5
q0 -79 32.5 -132t102.5 -53q86 0 125 93h19l-16 -76q-3 -14 -28 -21q-57 -18 -106 -18q-100 0 -162.5 52.5t-62.5 154.5q0 94 66 150.5t159 56.5q58 0 111 -19q22 -8 22 -23z" />
    <glyph glyph-name="ordfeminine" unicode="&#xaa;" horiz-adv-x="266" 
d="M224 620v-149q0 -22 16 -22q9 0 22 9l11 -13q-7 -11 -24 -22.5t-37 -11.5q-40 0 -50 40q-42 -40 -87 -40q-31 0 -51.5 20.5t-20.5 50.5q0 16 4.5 30t15 25t19.5 19t27.5 16.5t28 12.5t32 12.5t29.5 11.5v29q0 23 -15.5 39.5t-32.5 16.5q-4 0 -10 -10t-16 -20t-25 -10
q-37 0 -37 28q0 33 55 33q30 0 62 -9t58 -31.5t26 -54.5zM159 472v115q-89 -23 -89 -86q0 -19 12 -33.5t31 -14.5q31 0 46 19z" />
    <glyph glyph-name="guillemotleft" unicode="&#xab;" horiz-adv-x="444" 
d="M7 235v4q57 43 111.5 92.5t81 74.5t32.5 25q5 0 9.5 -4t4.5 -9q0 -29 -128 -180q128 -155 128 -180q0 -11 -18 -11q-4 0 -36 29.5t-86.5 77.5t-98.5 81zM192 235v4q57 43 111.5 92.5t81 74.5t32.5 25q5 0 9.5 -4t4.5 -9q0 -29 -128 -180q128 -155 128 -180q0 -11 -18 -11
q-4 0 -36 29.5t-86.5 77.5t-98.5 81z" />
    <glyph glyph-name="logicalnot" unicode="&#xac;" horiz-adv-x="600" 
d="M463 124v154h-402v77h479v-231h-77z" />
    <glyph glyph-name="uni00AD" unicode="&#xad;" horiz-adv-x="333" 
d="M289 199h-245v80h245v-80z" />
    <glyph glyph-name="registered" unicode="&#xae;" horiz-adv-x="800" 
d="M46 350q0 149 100.5 257t253.5 108t253.5 -108t100.5 -257t-100.5 -257t-253.5 -108t-253.5 108t-100.5 257zM114 350q0 -127 83 -221t203 -94t203 94t83 221t-83 221t-203 94t-203 -94t-83 -221zM404 162h-173v22q34 4 41 10.5t7 36.5v253q0 30 -7 36.5t-41 10.5v22h193
q50 0 84 -25.5t34 -73.5q0 -37 -22.5 -67t-59.5 -41l60 -86q36 -53 73 -86v-12h-76q-14 0 -25 13t-28 43q-3 4 -4 7l-63 109h-41v-103q0 -30 7 -36.5t41 -10.5v-22zM356 531v-175h39q66 0 66 94q0 81 -66 81h-39z" />
    <glyph glyph-name="macron" unicode="&#xaf;" horiz-adv-x="278" 
d="M301 584h-324v65h324v-65z" />
    <glyph glyph-name="degree" unicode="&#xb0;" horiz-adv-x="400" 
d="M297 572q0 43 -26.5 74t-70.5 31t-70.5 -31t-26.5 -74q0 -44 26.5 -74.5t70.5 -30.5t70.5 30.5t26.5 74.5zM345 572q0 -60 -42.5 -101.5t-102.5 -41.5t-102.5 41.5t-42.5 101.5t42.5 101.5t102.5 41.5t102.5 -41.5t42.5 -101.5z" />
    <glyph glyph-name="plusminus" unicode="&#xb1;" horiz-adv-x="600" 
d="M262 334v145h77v-145h201v-77h-201v-146h-77v146h-201v77h201zM61 0v77h479v-77h-479z" />
    <glyph glyph-name="twosuperior" unicode="&#xb2;" horiz-adv-x="300" 
d="M215 286h-199v28q67 93 89 118q32 36 47 55t30.5 51.5t15.5 63.5q0 30 -19.5 55.5t-58.5 25.5q-32 0 -50 -20q1 -1 5 -5.5t5 -6t4.5 -5t4.5 -5.5t3 -5.5t3 -6t2 -6t1.5 -7t0.5 -7.5q0 -15 -12.5 -25.5t-29.5 -10.5q-20 0 -30 13.5t-10 31.5q0 40 39 68.5t89 28.5
q55 0 95 -29.5t40 -82.5q0 -38 -20.5 -69t-48 -51t-68 -55t-67.5 -72h106q37 0 53 12t30 45l22 -9l-29 -127q-6 5 -16 6q-11 3 -27 3z" />
    <glyph glyph-name="threesuperior" unicode="&#xb3;" horiz-adv-x="300" 
d="M201 611q0 32 -17 55.5t-50 23.5q-8 0 -21.5 -3t-15.5 -3q1 -4 3.5 -12.5t4.5 -15t2 -11.5q0 -19 -13 -32.5t-31 -13.5q-16 0 -27 10.5t-11 25.5q0 33 35.5 56.5t80.5 23.5q60 0 100 -25t40 -76q0 -77 -103 -101v-2q114 -29 114 -119q0 -55 -46.5 -85t-109.5 -30
q-46 0 -87.5 22.5t-41.5 56.5q0 14 10.5 26.5t26.5 12.5q45 0 45 -50q0 -13 -8 -34q18 -9 50 -9q39 0 59 28t20 71q0 100 -81 100q-5 0 -11.5 -1t-9.5 -1q-15 4 -15 16q0 10 15 13q4 0 13 -1t14 -1q66 0 66 85z" />
    <glyph glyph-name="acute" unicode="&#xb4;" horiz-adv-x="278" 
d="M111 545h-51l134 144q34 36 55 36t34.5 -12t13.5 -26q0 -9 -2 -15.5t-4.5 -11t-11.5 -10.5l-15 -10t-22.5 -14t-27.5 -17z" />
    <glyph glyph-name="mu" unicode="&#xb5;" horiz-adv-x="556" 
d="M472 493v-388q0 -33 9 -43.5t39 -13.5v-27l-108 -35q-21 22 -35 77q-60 -77 -164 -77q-15 0 -31 4v-157h-148v27l48 10v492q0 33 -9 43.5t-39 13.5v27l148 47v-363q0 -79 91 -79q36 0 67.5 23t31.5 41v247q0 33 -9 43.5t-39 13.5v27z" />
    <glyph glyph-name="paragraph" unicode="&#xb6;" horiz-adv-x="600" 
d="M475 -162h-82v830h-59v-830h-82v451q-88 0 -134.5 58t-46.5 155q0 105 48.5 151.5t160.5 46.5h273v-24q-47 -5 -62.5 -12.5t-15.5 -33.5v-792z" />
    <glyph glyph-name="periodcentered" unicode="&#xb7;" horiz-adv-x="250" 
d="M57 239q0 28 19 48t49 20t49 -20t19 -48t-19 -48t-49 -20t-49 20t-19 48z" />
    <glyph glyph-name="cedilla" unicode="&#xb8;" horiz-adv-x="278" 
d="M45 -96l43 96h42l-32 -64q20 4 30 4q40 0 65 -17t25 -54q0 -45 -37.5 -65t-90.5 -20q-59 0 -91 16l15 35q30 -12 65 -12q53 0 53 41q0 17 -13 26.5t-33 9.5q-13 0 -29 -4z" />
    <glyph glyph-name="onesuperior" unicode="&#xb9;" horiz-adv-x="300" 
d="M277 286h-221v26l77 6v294q0 27 -7.5 34t-29.5 7q-26 0 -39 -1v26q90 16 156 37v-397l64 -6v-26z" />
    <glyph glyph-name="ordmasculine" unicode="&#xba;" horiz-adv-x="300" 
d="M150 432q37 0 51.5 33t14.5 98q0 71 -15 101t-51 30t-51 -30t-15 -101q0 -65 14.5 -98t51.5 -33zM150 411q-62 0 -101 45t-39 107q0 63 39.5 107.5t100.5 44.5t100.5 -44.5t39.5 -107.5q0 -62 -39 -107t-101 -45z" />
    <glyph glyph-name="guillemotright" unicode="&#xbb;" horiz-adv-x="444" 
d="M437 243v-4q-57 -43 -111.5 -92.5t-81 -74.5t-32.5 -25q-5 0 -9.5 4t-4.5 9q0 29 128 180q-128 155 -128 180q0 11 18 11q4 0 36 -29.5t86.5 -77.5t98.5 -81zM252 243v-4q-57 -43 -111.5 -92.5t-81 -74.5t-32.5 -25q-5 0 -9.5 4t-4.5 9q0 29 128 180q-128 155 -128 180
q0 11 18 11q4 0 36 -29.5t86.5 -77.5t98.5 -81z" />
    <glyph glyph-name="onequarter" unicode="&#xbc;" horiz-adv-x="750" 
d="M564 97h-155v34q108 148 134 289h84v-2q-19 -46 -76.5 -133t-118.5 -156h132v121q38 43 76 99h2v-220h58v-32h-58v-68l37 -6v-23h-156v23l41 6v68zM155 -15l441 730h60l-441 -730h-60zM271 286h-221v26l77 6v294q0 27 -7.5 34t-29.5 7q-26 0 -39 -1v26q90 16 156 37v-397
l64 -6v-26z" />
    <glyph glyph-name="onehalf" unicode="&#xbd;" horiz-adv-x="750" 
d="M119 -15l441 730h60l-441 -730h-60zM271 286h-221v26l77 6v294q0 27 -7.5 34t-29.5 7q-26 0 -39 -1v26q90 16 156 37v-397l64 -6v-26zM630 0h-199v28q67 93 89 118q34 38 48 55.5t30.5 50.5t16.5 64q0 34 -20.5 60t-59.5 26q-34 0 -50 -25q26 -29 26 -54q0 -16 -11 -26
t-28 -10q-38 0 -38 45q0 40 38 68.5t88 28.5q55 0 93.5 -29.5t38.5 -82.5q0 -38 -20 -69t-47.5 -51.5t-68.5 -57t-70 -74.5h111q37 0 53 12t30 45l22 -4l-29 -127q-14 9 -43 9z" />
    <glyph glyph-name="threequarters" unicode="&#xbe;" horiz-adv-x="750" 
d="M564 97h-155v34q108 148 134 289h84v-2q-19 -46 -76.5 -133t-118.5 -156h132v121q38 43 76 99h2v-220h58v-32h-58v-68l37 -6v-23h-156v23l41 6v68zM150 -15l441 730h60l-441 -730h-60zM289 614q0 -77 -103 -101v-2q114 -29 114 -119q0 -55 -46.5 -85t-109.5 -30
q-46 0 -87.5 22.5t-41.5 56.5q0 14 10.5 26.5t26.5 12.5q45 0 45 -50q0 -13 -8 -34q18 -9 50 -9q39 0 59 28t20 71q0 100 -81 100q-5 0 -11.5 -1t-9.5 -1q-15 4 -15 16q0 10 15 13q4 0 13 -1t14 -1q66 0 66 85q0 32 -17 55.5t-50 23.5q-8 0 -21.5 -3t-15.5 -3
q1 -4 3.5 -12.5t4.5 -15t2 -11.5q0 -19 -13 -32.5t-31 -13.5q-16 0 -27 10.5t-11 25.5q0 33 35.5 56.5t80.5 23.5q60 0 100 -25t40 -76z" />
    <glyph glyph-name="questiondown" unicode="&#xbf;" horiz-adv-x="389" 
d="M208 235v110h33v-215q-68 -24 -102 -56.5t-34 -94.5q0 -52 30 -88.5t80 -36.5q25 0 54 18q-17 43 -17 63q0 28 15.5 42t38.5 14t38.5 -14t15.5 -42q0 -54 -45.5 -84.5t-103.5 -30.5q-78 0 -127.5 58t-49.5 138q0 88 40.5 136.5t133.5 82.5zM295 479q0 -28 -19.5 -47
t-46.5 -19q-28 0 -47 19t-19 47t19 47t47 19q27 0 46.5 -19t19.5 -47z" />
    <glyph glyph-name="Agrave" unicode="&#xc0;" horiz-adv-x="611" 
d="M174 0h-198v32q42 13 61.5 32.5t33.5 61.5l167 516l-25 59l135 7l219 -664l55 -12v-32h-239v32l55 12l-58 178h-238l-30 -95q-7 -24 -7 -44q0 -7 1.5 -13t6.5 -10.5t8.5 -8t12 -6.5t12 -4.5t14.5 -4.5t14 -4v-32zM157 264h211l-105 326h-2zM370 743h-51l-103 64
q-11 7 -27.5 17t-22.5 14l-15 10t-11.5 10.5t-4.5 11t-2 15.5q0 14 13.5 26t34.5 12t55 -36z" />
    <glyph glyph-name="Aacute" unicode="&#xc1;" horiz-adv-x="611" 
d="M174 0h-198v32q42 13 61.5 32.5t33.5 61.5l167 516l-25 59l135 7l219 -664l55 -12v-32h-239v32l55 12l-58 178h-238l-30 -95q-7 -24 -7 -44q0 -7 1.5 -13t6.5 -10.5t8.5 -8t12 -6.5t12 -4.5t14.5 -4.5t14 -4v-32zM157 264h211l-105 326h-2zM263 743h-51l134 144
q34 36 55 36t34.5 -12t13.5 -26q0 -9 -2 -15.5t-4.5 -11t-11.5 -10.5l-15 -10t-22.5 -14t-27.5 -17z" />
    <glyph glyph-name="Acircumflex" unicode="&#xc2;" horiz-adv-x="611" 
d="M174 0h-198v32q42 13 61.5 32.5t33.5 61.5l167 516l-25 59l135 7l219 -664l55 -12v-32h-239v32l55 12l-58 178h-238l-30 -95q-7 -24 -7 -44q0 -7 1.5 -13t6.5 -10.5t8.5 -8t12 -6.5t12 -4.5t14.5 -4.5t14 -4v-32zM157 264h211l-105 326h-2zM252 916h78l124 -173h-50
l-113 101l-113 -101h-50z" />
    <glyph glyph-name="Atilde" unicode="&#xc3;" horiz-adv-x="611" 
d="M174 0h-198v32q42 13 61.5 32.5t33.5 61.5l167 516l-25 59l135 7l219 -664l55 -12v-32h-239v32l55 12l-58 178h-238l-30 -95q-7 -24 -7 -44q0 -7 1.5 -13t6.5 -10.5t8.5 -8t12 -6.5t12 -4.5t14.5 -4.5t14 -4v-32zM157 264h211l-105 326h-2zM152 765h-37q25 118 116 118
q34 0 82 -25q44 -24 65 -24q20 0 33 15t19 33h37q-25 -118 -116 -118q-34 0 -82 25q-44 24 -65 24q-20 0 -33 -15t-19 -33z" />
    <glyph glyph-name="Adieresis" unicode="&#xc4;" horiz-adv-x="611" 
d="M174 0h-198v32q42 13 61.5 32.5t33.5 61.5l167 516l-25 59l135 7l219 -664l55 -12v-32h-239v32l55 12l-58 178h-238l-30 -95q-7 -24 -7 -44q0 -7 1.5 -13t6.5 -10.5t8.5 -8t12 -6.5t12 -4.5t14.5 -4.5t14 -4v-32zM157 264h211l-105 326h-2zM335 814q0 24 16.5 41.5
t42.5 17.5t42.5 -17.5t16.5 -41.5t-16.5 -41.5t-42.5 -17.5t-42.5 17.5t-16.5 41.5zM130 814q0 24 16.5 41.5t42.5 17.5t42.5 -17.5t16.5 -41.5t-16.5 -41.5t-42.5 -17.5t-42.5 17.5t-16.5 41.5z" />
    <glyph glyph-name="Aring" unicode="&#xc5;" horiz-adv-x="611" 
d="M174 0h-198v32q42 13 61.5 32.5t33.5 61.5l167 516l-25 59l135 7l219 -664l55 -12v-32h-239v32l55 12l-58 178h-238l-30 -95q-7 -24 -7 -44q0 -7 1.5 -13t6.5 -10.5t8.5 -8t12 -6.5t12 -4.5t14.5 -4.5t14 -4v-32zM157 264h211l-105 326h-2zM188 847q0 42 29.5 72.5
t73.5 30.5t73.5 -30.5t29.5 -72.5t-29.5 -72.5t-73.5 -30.5t-73.5 30.5t-29.5 72.5zM236 847q0 -22 15.5 -38.5t39.5 -16.5q25 0 40 16t15 39t-15 39t-40 16q-24 0 -39.5 -16.5t-15.5 -38.5z" />
    <glyph glyph-name="AE" unicode="&#xc6;" horiz-adv-x="889" 
d="M287 700h409q66 0 93 15l46 -203l-37 -8q-42 91 -90 127.5t-140 36.5q-50 0 -73 -8v-268h41q50 0 74 25t36 87h32v-256h-32q-12 62 -36 87t-74 25h-41v-320q31 -8 70 -8q52 0 90.5 11.5t67 38t48 56t43.5 78.5l35 -7l-51 -224q-15 8 -38 11q-21 4 -55 4h-387v32l55 8v237
h-218l-78 -142q-19 -35 -19 -54q0 -17 19 -32t46 -17v-32h-201v32q53 6 84 64l303 560zM176 319h197v344h-17z" />
    <glyph glyph-name="Ccedilla" unicode="&#xc7;" horiz-adv-x="611" 
d="M544 203l33 -12q-31 -91 -98 -148t-155 -58l-25 -49q20 4 30 4q40 0 65 -17t25 -54q0 -45 -37.5 -65t-90.5 -20q-59 0 -91 16l15 35q30 -12 65 -12q53 0 53 41q0 17 -13 26.5t-33 9.5q-13 0 -29 -4l-12 8l38 84q-114 14 -180 110.5t-66 233.5q0 67 18.5 133.5t53 123
t90.5 91.5t123 35q36 0 73 -10q42 -11 57 -11q26 0 73 21l49 -217l-38 -9q-43 82 -91.5 134t-112.5 52q-58 0 -98.5 -41.5t-57.5 -98.5t-17 -121q0 -62 12 -120.5t36 -111t66.5 -84t97.5 -31.5q57 0 104 39t68 97z" />
    <glyph glyph-name="Egrave" unicode="&#xc8;" horiz-adv-x="611" 
d="M569 211l-50 -226q-15 8 -38 11q-21 4 -55 4h-385v32l55 8v620l-55 8v32h378q66 0 93 15l46 -203l-37 -8q-42 91 -94 127.5t-158 36.5q-28 0 -51 -8v-268h40q50 0 74 25t36 87h32v-256h-32q-12 62 -36 87t-74 25h-40v-320q23 -8 51 -8q103 0 161 44.5t102 142.5zM370 743
h-51l-103 64q-11 7 -27.5 17t-22.5 14l-15 10t-11.5 10.5t-4.5 11t-2 15.5q0 14 13.5 26t34.5 12t55 -36z" />
    <glyph glyph-name="Eacute" unicode="&#xc9;" horiz-adv-x="611" 
d="M569 211l-50 -226q-15 8 -38 11q-21 4 -55 4h-385v32l55 8v620l-55 8v32h378q66 0 93 15l46 -203l-37 -8q-42 91 -94 127.5t-158 36.5q-28 0 -51 -8v-268h40q50 0 74 25t36 87h32v-256h-32q-12 62 -36 87t-74 25h-40v-320q23 -8 51 -8q103 0 161 44.5t102 142.5zM263 743
h-51l134 144q34 36 55 36t34.5 -12t13.5 -26q0 -9 -2 -15.5t-4.5 -11t-11.5 -10.5l-15 -10t-22.5 -14t-27.5 -17z" />
    <glyph glyph-name="Ecircumflex" unicode="&#xca;" horiz-adv-x="611" 
d="M569 211l-50 -226q-15 8 -38 11q-21 4 -55 4h-385v32l55 8v620l-55 8v32h378q66 0 93 15l46 -203l-37 -8q-42 91 -94 127.5t-158 36.5q-28 0 -51 -8v-268h40q50 0 74 25t36 87h32v-256h-32q-12 62 -36 87t-74 25h-40v-320q23 -8 51 -8q103 0 161 44.5t102 142.5zM252 916
h78l124 -173h-50l-113 101l-113 -101h-50z" />
    <glyph glyph-name="Edieresis" unicode="&#xcb;" horiz-adv-x="611" 
d="M569 211l-50 -226q-15 8 -38 11q-21 4 -55 4h-385v32l55 8v620l-55 8v32h378q66 0 93 15l46 -203l-37 -8q-42 91 -94 127.5t-158 36.5q-28 0 -51 -8v-268h40q50 0 74 25t36 87h32v-256h-32q-12 62 -36 87t-74 25h-40v-320q23 -8 51 -8q103 0 161 44.5t102 142.5zM335 814
q0 24 16.5 41.5t42.5 17.5t42.5 -17.5t16.5 -41.5t-16.5 -41.5t-42.5 -17.5t-42.5 17.5t-16.5 41.5zM130 814q0 24 16.5 41.5t42.5 17.5t42.5 -17.5t16.5 -41.5t-16.5 -41.5t-42.5 -17.5t-42.5 17.5t-16.5 41.5z" />
    <glyph glyph-name="Igrave" unicode="&#xcc;" horiz-adv-x="333" 
d="M282 0h-232v32l55 8v620l-55 8v32h232v-32l-55 -8v-620l55 -8v-32zM246 743h-51l-103 64q-11 7 -27.5 17t-22.5 14l-15 10t-11.5 10.5t-4.5 11t-2 15.5q0 14 13.5 26t34.5 12t55 -36z" />
    <glyph glyph-name="Iacute" unicode="&#xcd;" horiz-adv-x="333" 
d="M282 0h-232v32l55 8v620l-55 8v32h232v-32l-55 -8v-620l55 -8v-32zM139 743h-51l134 144q34 36 55 36t34.5 -12t13.5 -26q0 -9 -2 -15.5t-4.5 -11t-11.5 -10.5l-15 -10t-22.5 -14t-27.5 -17z" />
    <glyph glyph-name="Icircumflex" unicode="&#xce;" horiz-adv-x="333" 
d="M282 0h-232v32l55 8v620l-55 8v32h232v-32l-55 -8v-620l55 -8v-32zM128 916h78l124 -173h-50l-113 101l-113 -101h-50z" />
    <glyph glyph-name="Idieresis" unicode="&#xcf;" horiz-adv-x="333" 
d="M282 0h-232v32l55 8v620l-55 8v32h232v-32l-55 -8v-620l55 -8v-32zM211 814q0 24 16.5 41.5t42.5 17.5t42.5 -17.5t16.5 -41.5t-16.5 -41.5t-42.5 -17.5t-42.5 17.5t-16.5 41.5zM6 814q0 24 16.5 41.5t42.5 17.5t42.5 -17.5t16.5 -41.5t-16.5 -41.5t-42.5 -17.5
t-42.5 17.5t-16.5 41.5z" />
    <glyph glyph-name="Eth" unicode="&#xd0;" horiz-adv-x="667" 
d="M93 40v306h-61v42h61v272l-55 8v32h269q82 0 145 -32t99 -84t53.5 -111.5t17.5 -122.5t-17.5 -122.5t-53.5 -111.5t-99 -84t-145 -32h-269v32zM215 346v-306q22 -8 74 -8q46 0 80.5 14t63 48.5t43 98.5t14.5 157t-14.5 157t-43 98.5t-63 48.5t-80.5 14q-52 0 -74 -8v-272
h129v-42h-129z" />
    <glyph glyph-name="Ntilde" unicode="&#xd1;" horiz-adv-x="667" 
d="M201 700l325 -499h2v393q0 39 -17.5 53.5t-59.5 20.5v32h198v-32q-77 -11 -77 -86v-597h-47l-377 572h-2v-440q0 -38 23.5 -59.5t61.5 -25.5v-32h-214v32q37 4 61 29t24 67v442q0 43 -24 68.5t-61 29.5v32h184zM195 765h-37q25 118 116 118q34 0 82 -25q44 -24 65 -24
q20 0 33 15t19 33h37q-25 -118 -116 -118q-34 0 -82 25q-44 24 -65 24q-20 0 -33 -15t-19 -33z" />
    <glyph glyph-name="Ograve" unicode="&#xd2;" horiz-adv-x="667" 
d="M333 -15q-135 0 -215 106t-80 259q0 63 22.5 127.5t60.5 117.5t94 86.5t118 33.5q135 0 215 -106t80 -259q0 -63 -22.5 -127.5t-60.5 -117.5t-94 -86.5t-118 -33.5zM333 25q70 0 116.5 81.5t46.5 243.5q0 176 -41.5 250.5t-121.5 74.5q-70 0 -116.5 -81.5t-46.5 -243.5
q0 -176 41.5 -250.5t121.5 -74.5zM413 743h-51l-103 64q-11 7 -27.5 17t-22.5 14l-15 10t-11.5 10.5t-4.5 11t-2 15.5q0 14 13.5 26t34.5 12t55 -36z" />
    <glyph glyph-name="Oacute" unicode="&#xd3;" horiz-adv-x="667" 
d="M333 -15q-135 0 -215 106t-80 259q0 63 22.5 127.5t60.5 117.5t94 86.5t118 33.5q135 0 215 -106t80 -259q0 -63 -22.5 -127.5t-60.5 -117.5t-94 -86.5t-118 -33.5zM333 25q70 0 116.5 81.5t46.5 243.5q0 176 -41.5 250.5t-121.5 74.5q-70 0 -116.5 -81.5t-46.5 -243.5
q0 -176 41.5 -250.5t121.5 -74.5zM306 743h-51l134 144q34 36 55 36t34.5 -12t13.5 -26q0 -9 -2 -15.5t-4.5 -11t-11.5 -10.5l-15 -10t-22.5 -14t-27.5 -17z" />
    <glyph glyph-name="Ocircumflex" unicode="&#xd4;" horiz-adv-x="667" 
d="M333 -15q-135 0 -215 106t-80 259q0 63 22.5 127.5t60.5 117.5t94 86.5t118 33.5q135 0 215 -106t80 -259q0 -63 -22.5 -127.5t-60.5 -117.5t-94 -86.5t-118 -33.5zM333 25q70 0 116.5 81.5t46.5 243.5q0 176 -41.5 250.5t-121.5 74.5q-70 0 -116.5 -81.5t-46.5 -243.5
q0 -176 41.5 -250.5t121.5 -74.5zM295 916h78l124 -173h-50l-113 101l-113 -101h-50z" />
    <glyph glyph-name="Otilde" unicode="&#xd5;" horiz-adv-x="667" 
d="M333 -15q-135 0 -215 106t-80 259q0 63 22.5 127.5t60.5 117.5t94 86.5t118 33.5q135 0 215 -106t80 -259q0 -63 -22.5 -127.5t-60.5 -117.5t-94 -86.5t-118 -33.5zM333 25q70 0 116.5 81.5t46.5 243.5q0 176 -41.5 250.5t-121.5 74.5q-70 0 -116.5 -81.5t-46.5 -243.5
q0 -176 41.5 -250.5t121.5 -74.5zM195 765h-37q25 118 116 118q34 0 82 -25q44 -24 65 -24q20 0 33 15t19 33h37q-25 -118 -116 -118q-34 0 -82 25q-44 24 -65 24q-20 0 -33 -15t-19 -33z" />
    <glyph glyph-name="Odieresis" unicode="&#xd6;" horiz-adv-x="667" 
d="M333 -15q-135 0 -215 106t-80 259q0 63 22.5 127.5t60.5 117.5t94 86.5t118 33.5q135 0 215 -106t80 -259q0 -63 -22.5 -127.5t-60.5 -117.5t-94 -86.5t-118 -33.5zM333 25q70 0 116.5 81.5t46.5 243.5q0 176 -41.5 250.5t-121.5 74.5q-70 0 -116.5 -81.5t-46.5 -243.5
q0 -176 41.5 -250.5t121.5 -74.5zM378 814q0 24 16.5 41.5t42.5 17.5t42.5 -17.5t16.5 -41.5t-16.5 -41.5t-42.5 -17.5t-42.5 17.5t-16.5 41.5zM173 814q0 24 16.5 41.5t42.5 17.5t42.5 -17.5t16.5 -41.5t-16.5 -41.5t-42.5 -17.5t-42.5 17.5t-16.5 41.5z" />
    <glyph glyph-name="multiply" unicode="&#xd7;" horiz-adv-x="600" 
d="M247 242l-186 184l54 51l184 -183l187 185l54 -51l-188 -186l188 -188l-53 -53l-188 188l-187 -185l-51 52z" />
    <glyph glyph-name="Oslash" unicode="&#xd8;" horiz-adv-x="667" 
d="M473 551l-264 -445q40 -81 124 -81q70 0 116.5 81.5t46.5 243.5q0 127 -23 201zM189 163l262 442q-38 70 -118 70q-70 0 -116.5 -81.5t-46.5 -243.5q0 -114 19 -187zM60 -55l75 126q-97 105 -97 279q0 63 22.5 127.5t60.5 117.5t94 86.5t118 33.5q88 0 155 -48l47 78h53
l-64 -109q104 -106 104 -286q0 -63 -22.5 -127.5t-60.5 -117.5t-94 -86.5t-118 -33.5q-92 0 -163 55l-57 -95h-53z" />
    <glyph glyph-name="Ugrave" unicode="&#xd9;" horiz-adv-x="667" 
d="M33 700h232v-32l-55 -8v-470q0 -68 48.5 -114.5t109.5 -46.5q73 0 120.5 44t47.5 121v389q0 38 -23.5 59.5t-61.5 25.5v32h214v-32q-38 -4 -61.5 -25.5t-23.5 -59.5v-363q0 -235 -238 -235q-254 0 -254 205v470l-55 8v32zM427 743h-51l-103 64q-11 7 -27.5 17t-22.5 14
l-15 10t-11.5 10.5t-4.5 11t-2 15.5q0 14 13.5 26t34.5 12t55 -36z" />
    <glyph glyph-name="Uacute" unicode="&#xda;" horiz-adv-x="667" 
d="M33 700h232v-32l-55 -8v-470q0 -68 48.5 -114.5t109.5 -46.5q73 0 120.5 44t47.5 121v389q0 38 -23.5 59.5t-61.5 25.5v32h214v-32q-38 -4 -61.5 -25.5t-23.5 -59.5v-363q0 -235 -238 -235q-254 0 -254 205v470l-55 8v32zM320 743h-51l134 144q34 36 55 36t34.5 -12
t13.5 -26q0 -9 -2 -15.5t-4.5 -11t-11.5 -10.5l-15 -10t-22.5 -14t-27.5 -17z" />
    <glyph glyph-name="Ucircumflex" unicode="&#xdb;" horiz-adv-x="667" 
d="M33 700h232v-32l-55 -8v-470q0 -68 48.5 -114.5t109.5 -46.5q73 0 120.5 44t47.5 121v389q0 38 -23.5 59.5t-61.5 25.5v32h214v-32q-38 -4 -61.5 -25.5t-23.5 -59.5v-363q0 -235 -238 -235q-254 0 -254 205v470l-55 8v32zM309 916h78l124 -173h-50l-113 101l-113 -101
h-50z" />
    <glyph glyph-name="Udieresis" unicode="&#xdc;" horiz-adv-x="667" 
d="M33 700h232v-32l-55 -8v-470q0 -68 48.5 -114.5t109.5 -46.5q73 0 120.5 44t47.5 121v389q0 38 -23.5 59.5t-61.5 25.5v32h214v-32q-38 -4 -61.5 -25.5t-23.5 -59.5v-363q0 -235 -238 -235q-254 0 -254 205v470l-55 8v32zM392 814q0 24 16.5 41.5t42.5 17.5t42.5 -17.5
t16.5 -41.5t-16.5 -41.5t-42.5 -17.5t-42.5 17.5t-16.5 41.5zM187 814q0 24 16.5 41.5t42.5 17.5t42.5 -17.5t16.5 -41.5t-16.5 -41.5t-42.5 -17.5t-42.5 17.5t-16.5 41.5z" />
    <glyph glyph-name="Yacute" unicode="&#xdd;" horiz-adv-x="556" 
d="M-20 700h246v-32l-55 -8l152 -308l95 184q29 56 29 82q0 17 -11.5 27.5t-22.5 14t-33 8.5v32h201v-32q-56 -6 -94 -81l-147 -292v-255l55 -8v-32h-232v32l55 8v258l-183 362l-55 8v32zM250 743h-51l134 144q34 36 55 36t34.5 -12t13.5 -26q0 -9 -2 -15.5t-4.5 -11
t-11.5 -10.5l-15 -10t-22.5 -14t-27.5 -17z" />
    <glyph glyph-name="Thorn" unicode="&#xde;" horiz-adv-x="611" 
d="M105 40v620l-55 8v32h232v-32l-55 -8v-98h83q55 0 102 -10t87 -30.5t63 -59t23 -89.5t-23 -89.5t-63 -59t-87 -30.5t-102 -10h-83v-144l55 -8v-32h-232v32zM227 520v-296q24 -8 50 -8q77 0 126.5 40.5t49.5 120.5q0 72 -40 112.5t-118 40.5q-35 0 -68 -10z" />
    <glyph glyph-name="germandbls" unicode="&#xdf;" horiz-adv-x="611" 
d="M192 0h-155v27l55 10v397h-57v45h57v50q0 110 60 172.5t170 62.5q79 0 138 -48t59 -121q0 -42 -20 -71.5t-48.5 -43.5t-56.5 -23t-48 -17t-20 -17q0 -16 25.5 -29.5t62 -28t73 -35.5t62 -62.5t25.5 -98.5q0 -70 -60.5 -126.5t-134.5 -56.5q-63 0 -105.5 27t-42.5 63
q0 22 15.5 38t38.5 16q26 0 44 -16t20 -42q3 -28 12 -36t33 -8q37 0 65.5 30.5t28.5 62.5q0 46 -26 77.5t-63 49t-74 33t-63 41t-26 62.5q0 32 19 52t46 31t53.5 23t45.5 36t19 61q0 68 -27.5 105t-77.5 37q-54 0 -88 -46t-34 -118v-565z" />
    <glyph glyph-name="agrave" unicode="&#xe0;" horiz-adv-x="444" 
d="M369 334v-247q0 -37 24 -37q15 0 34 14l17 -21q-10 -19 -37 -38t-57 -19q-61 0 -77 67q-64 -67 -133 -67q-47 0 -79.5 34.5t-32.5 83.5q0 27 6.5 50t23.5 42t30 32t42.5 28t43 21t50 20.5t45.5 18.5v49q0 38 -23.5 65.5t-50.5 27.5q-7 0 -15.5 -17t-24.5 -33.5t-39 -16.5
q-57 0 -57 47q0 29 25.5 42t59.5 13q30 0 66.5 -9t73 -27t61 -50t24.5 -73zM269 88v191q-137 -37 -137 -143q0 -30 21.5 -55t44.5 -25q20 0 40.5 9.5t30.5 22.5zM289 545h-51l-103 64q-11 7 -27.5 17t-22.5 14l-15 10t-11.5 10.5t-4.5 11t-2 15.5q0 14 13.5 26t34.5 12
t55 -36z" />
    <glyph glyph-name="aacute" unicode="&#xe1;" horiz-adv-x="444" 
d="M369 334v-247q0 -37 24 -37q15 0 34 14l17 -21q-10 -19 -37 -38t-57 -19q-61 0 -77 67q-64 -67 -133 -67q-47 0 -79.5 34.5t-32.5 83.5q0 27 6.5 50t23.5 42t30 32t42.5 28t43 21t50 20.5t45.5 18.5v49q0 38 -23.5 65.5t-50.5 27.5q-7 0 -15.5 -17t-24.5 -33.5t-39 -16.5
q-57 0 -57 47q0 29 25.5 42t59.5 13q30 0 66.5 -9t73 -27t61 -50t24.5 -73zM269 88v191q-137 -37 -137 -143q0 -30 21.5 -55t44.5 -25q20 0 40.5 9.5t30.5 22.5zM182 545h-51l134 144q34 36 55 36t34.5 -12t13.5 -26q0 -9 -2 -15.5t-4.5 -11t-11.5 -10.5l-15 -10t-22.5 -14
t-27.5 -17z" />
    <glyph glyph-name="acircumflex" unicode="&#xe2;" horiz-adv-x="444" 
d="M369 334v-247q0 -37 24 -37q15 0 34 14l17 -21q-10 -19 -37 -38t-57 -19q-61 0 -77 67q-64 -67 -133 -67q-47 0 -79.5 34.5t-32.5 83.5q0 27 6.5 50t23.5 42t30 32t42.5 28t43 21t50 20.5t45.5 18.5v49q0 38 -23.5 65.5t-50.5 27.5q-7 0 -15.5 -17t-24.5 -33.5t-39 -16.5
q-57 0 -57 47q0 29 25.5 42t59.5 13q30 0 66.5 -9t73 -27t61 -50t24.5 -73zM269 88v191q-137 -37 -137 -143q0 -30 21.5 -55t44.5 -25q20 0 40.5 9.5t30.5 22.5zM171 718h78l124 -173h-50l-113 101l-113 -101h-50z" />
    <glyph glyph-name="atilde" unicode="&#xe3;" horiz-adv-x="444" 
d="M369 334v-247q0 -37 24 -37q15 0 34 14l17 -21q-10 -19 -37 -38t-57 -19q-61 0 -77 67q-64 -67 -133 -67q-47 0 -79.5 34.5t-32.5 83.5q0 27 6.5 50t23.5 42t30 32t42.5 28t43 21t50 20.5t45.5 18.5v49q0 38 -23.5 65.5t-50.5 27.5q-7 0 -15.5 -17t-24.5 -33.5t-39 -16.5
q-57 0 -57 47q0 29 25.5 42t59.5 13q30 0 66.5 -9t73 -27t61 -50t24.5 -73zM269 88v191q-137 -37 -137 -143q0 -30 21.5 -55t44.5 -25q20 0 40.5 9.5t30.5 22.5zM71 567h-37q25 118 116 118q34 0 82 -25q44 -24 65 -24q20 0 33 15t19 33h37q-25 -118 -116 -118q-34 0 -82 25
q-44 24 -65 24q-20 0 -33 -15t-19 -33z" />
    <glyph glyph-name="adieresis" unicode="&#xe4;" horiz-adv-x="444" 
d="M369 334v-247q0 -37 24 -37q15 0 34 14l17 -21q-10 -19 -37 -38t-57 -19q-61 0 -77 67q-64 -67 -133 -67q-47 0 -79.5 34.5t-32.5 83.5q0 27 6.5 50t23.5 42t30 32t42.5 28t43 21t50 20.5t45.5 18.5v49q0 38 -23.5 65.5t-50.5 27.5q-7 0 -15.5 -17t-24.5 -33.5t-39 -16.5
q-57 0 -57 47q0 29 25.5 42t59.5 13q30 0 66.5 -9t73 -27t61 -50t24.5 -73zM269 88v191q-137 -37 -137 -143q0 -30 21.5 -55t44.5 -25q20 0 40.5 9.5t30.5 22.5zM254 616q0 24 16.5 41.5t42.5 17.5t42.5 -17.5t16.5 -41.5t-16.5 -41.5t-42.5 -17.5t-42.5 17.5t-16.5 41.5z
M49 616q0 24 16.5 41.5t42.5 17.5t42.5 -17.5t16.5 -41.5t-16.5 -41.5t-42.5 -17.5t-42.5 17.5t-16.5 41.5z" />
    <glyph glyph-name="aring" unicode="&#xe5;" horiz-adv-x="444" 
d="M369 334v-247q0 -37 24 -37q15 0 34 14l17 -21q-10 -19 -37 -38t-57 -19q-61 0 -77 67q-64 -67 -133 -67q-47 0 -79.5 34.5t-32.5 83.5q0 27 6.5 50t23.5 42t30 32t42.5 28t43 21t50 20.5t45.5 18.5v49q0 38 -23.5 65.5t-50.5 27.5q-7 0 -15.5 -17t-24.5 -33.5t-39 -16.5
q-57 0 -57 47q0 29 25.5 42t59.5 13q30 0 66.5 -9t73 -27t61 -50t24.5 -73zM269 88v191q-137 -37 -137 -143q0 -30 21.5 -55t44.5 -25q20 0 40.5 9.5t30.5 22.5zM107 649q0 42 29.5 72.5t73.5 30.5t73.5 -30.5t29.5 -72.5t-29.5 -72.5t-73.5 -30.5t-73.5 30.5t-29.5 72.5z
M155 649q0 -22 15.5 -38.5t39.5 -16.5q25 0 40 16t15 39t-15 39t-40 16q-24 0 -39.5 -16.5t-15.5 -38.5z" />
    <glyph glyph-name="ae" unicode="&#xe6;" horiz-adv-x="722" 
d="M389 272l126 34q28 8 40.5 22t12.5 41q0 38 -20.5 63.5t-57.5 25.5q-47 0 -75 -43t-28 -98q0 -30 2 -45zM682 303l-285 -73q19 -169 147 -169q38 0 64 17t53 50l29 -23q-79 -119 -204 -119q-51 0 -89 21t-82 70q-81 -91 -162 -91q-53 0 -87.5 31t-34.5 79q0 21 4.5 40
t11.5 34.5t20 30t23 24.5t29.5 21.5t31 18t34.5 15.5t34 13t35.5 12.5t32.5 11.5v65q0 27 -30.5 51.5t-59.5 24.5q-18 -76 -82 -76q-22 0 -39 13.5t-17 35.5q0 32 25 47t63 15q108 0 205 -67q69 67 140 67q76 0 130.5 -55.5t59.5 -134.5zM287 99v182q-35 -12 -56.5 -21.5
t-46.5 -26.5t-37 -41.5t-12 -56.5q0 -33 21 -53.5t57 -20.5q26 0 50 13t24 25z" />
    <glyph glyph-name="ccedilla" unicode="&#xe7;" horiz-adv-x="444" 
d="M388 100l28 -22q-80 -92 -173 -92l-25 -50q20 4 30 4q40 0 65 -17t25 -54q0 -45 -37.5 -65t-90.5 -20q-59 0 -91 16l15 35q30 -12 65 -12q53 0 53 41q0 17 -13 26.5t-33 9.5q-13 0 -29 -4l-12 8l39 87q-75 16 -118.5 77.5t-43.5 148.5q0 120 65.5 198t168.5 78
q43 0 78 -19.5t35 -62.5q0 -21 -16.5 -35t-38.5 -14q-25 0 -40 15t-18.5 33t-9.5 33t-16 15q-45 0 -76.5 -48.5t-31.5 -141.5q0 -76 42.5 -141.5t113.5 -65.5q48 0 90 39z" />
    <glyph glyph-name="egrave" unicode="&#xe8;" horiz-adv-x="444" 
d="M409 303l-275 -74q3 -67 39 -117.5t100 -50.5q15 0 27.5 3t20.5 5.5t18.5 11.5t13.5 12t15.5 17t14.5 17l27 -21q-41 -60 -84.5 -90t-107.5 -30q-84 0 -134 69t-50 163q0 66 21 127t68 104.5t112 43.5q76 0 124.5 -57t49.5 -133zM124 271l116 30q30 7 42.5 25.5
t12.5 54.5q0 37 -20.5 57t-54.5 20q-49 0 -72.5 -52.5t-23.5 -134.5zM313 545h-51l-103 64q-11 7 -27.5 17t-22.5 14l-15 10t-11.5 10.5t-4.5 11t-2 15.5q0 14 13.5 26t34.5 12t55 -36z" />
    <glyph glyph-name="eacute" unicode="&#xe9;" horiz-adv-x="444" 
d="M409 303l-275 -74q3 -67 39 -117.5t100 -50.5q15 0 27.5 3t20.5 5.5t18.5 11.5t13.5 12t15.5 17t14.5 17l27 -21q-41 -60 -84.5 -90t-107.5 -30q-84 0 -134 69t-50 163q0 66 21 127t68 104.5t112 43.5q76 0 124.5 -57t49.5 -133zM124 271l116 30q30 7 42.5 25.5
t12.5 54.5q0 37 -20.5 57t-54.5 20q-49 0 -72.5 -52.5t-23.5 -134.5zM206 545h-51l134 144q34 36 55 36t34.5 -12t13.5 -26q0 -9 -2 -15.5t-4.5 -11t-11.5 -10.5l-15 -10t-22.5 -14t-27.5 -17z" />
    <glyph glyph-name="ecircumflex" unicode="&#xea;" horiz-adv-x="444" 
d="M409 303l-275 -74q3 -67 39 -117.5t100 -50.5q15 0 27.5 3t20.5 5.5t18.5 11.5t13.5 12t15.5 17t14.5 17l27 -21q-41 -60 -84.5 -90t-107.5 -30q-84 0 -134 69t-50 163q0 66 21 127t68 104.5t112 43.5q76 0 124.5 -57t49.5 -133zM124 271l116 30q30 7 42.5 25.5
t12.5 54.5q0 37 -20.5 57t-54.5 20q-49 0 -72.5 -52.5t-23.5 -134.5zM195 718h78l124 -173h-50l-113 101l-113 -101h-50z" />
    <glyph glyph-name="edieresis" unicode="&#xeb;" horiz-adv-x="444" 
d="M409 303l-275 -74q3 -67 39 -117.5t100 -50.5q15 0 27.5 3t20.5 5.5t18.5 11.5t13.5 12t15.5 17t14.5 17l27 -21q-41 -60 -84.5 -90t-107.5 -30q-84 0 -134 69t-50 163q0 66 21 127t68 104.5t112 43.5q76 0 124.5 -57t49.5 -133zM124 271l116 30q30 7 42.5 25.5
t12.5 54.5q0 37 -20.5 57t-54.5 20q-49 0 -72.5 -52.5t-23.5 -134.5zM278 616q0 24 16.5 41.5t42.5 17.5t42.5 -17.5t16.5 -41.5t-16.5 -41.5t-42.5 -17.5t-42.5 17.5t-16.5 41.5zM73 616q0 24 16.5 41.5t42.5 17.5t42.5 -17.5t16.5 -41.5t-16.5 -41.5t-42.5 -17.5
t-42.5 17.5t-16.5 41.5z" />
    <glyph glyph-name="igrave" unicode="&#xec;" horiz-adv-x="278" 
d="M250 0h-210v27l55 10v339q0 24 -13.5 33.5t-41.5 9.5v27l155 47v-456l55 -10v-27zM218 545h-51l-103 64q-11 7 -27.5 17t-22.5 14l-15 10t-11.5 10.5t-4.5 11t-2 15.5q0 14 13.5 26t34.5 12t55 -36z" />
    <glyph glyph-name="iacute" unicode="&#xed;" horiz-adv-x="278" 
d="M250 0h-210v27l55 10v339q0 24 -13.5 33.5t-41.5 9.5v27l155 47v-456l55 -10v-27zM111 545h-51l134 144q34 36 55 36t34.5 -12t13.5 -26q0 -9 -2 -15.5t-4.5 -11t-11.5 -10.5l-15 -10t-22.5 -14t-27.5 -17z" />
    <glyph glyph-name="icircumflex" unicode="&#xee;" horiz-adv-x="278" 
d="M250 0h-210v27l55 10v339q0 24 -13.5 33.5t-41.5 9.5v27l155 47v-456l55 -10v-27zM100 718h78l124 -173h-50l-113 101l-113 -101h-50z" />
    <glyph glyph-name="idieresis" unicode="&#xef;" horiz-adv-x="278" 
d="M250 0h-210v27l55 10v339q0 24 -13.5 33.5t-41.5 9.5v27l155 47v-456l55 -10v-27zM183 616q0 24 16.5 41.5t42.5 17.5t42.5 -17.5t16.5 -41.5t-16.5 -41.5t-42.5 -17.5t-42.5 17.5t-16.5 41.5zM-22 616q0 24 16.5 41.5t42.5 17.5t42.5 -17.5t16.5 -41.5t-16.5 -41.5
t-42.5 -17.5t-42.5 17.5t-16.5 41.5z" />
    <glyph glyph-name="eth" unicode="&#xf0;" 
d="M250 458q-55 0 -78 -49.5t-23 -169.5q0 -109 22 -163.5t79 -54.5t79 54.5t22 163.5q0 120 -23 169.5t-78 49.5zM138 754l30 10q54 -46 86 -81l166 51l12 -32l-151 -47q84 -93 134 -195t50 -198q0 -119 -59 -197.5t-156 -78.5q-96 0 -155.5 74.5t-59.5 178.5t60.5 179
t154.5 75q30 0 58 -9q-17 64 -80 155l-152 -47l-12 32l143 44q-40 57 -69 86z" />
    <glyph glyph-name="ntilde" unicode="&#xf1;" horiz-adv-x="556" 
d="M23 446l118 47q27 -24 42 -83q30 36 68 59.5t72 23.5q71 0 111.5 -43.5t40.5 -121.5v-291l48 -10v-27h-196v27l48 10v283q0 41 -22 69.5t-70 28.5q-14 0 -25 -2.5t-22 -10.5t-15.5 -12t-17 -17.5t-15.5 -16.5v-322l48 -10v-27h-203v27l55 10v296q0 48 -12 67t-53 19v27z
M139 567h-37q25 118 116 118q34 0 82 -25q44 -24 65 -24q20 0 33 15t19 33h37q-25 -118 -116 -118q-34 0 -82 25q-44 24 -65 24q-20 0 -33 -15t-19 -33z" />
    <glyph glyph-name="ograve" unicode="&#xf2;" 
d="M250 21q28 0 49 21t31.5 56t15.5 70t5 71q0 110 -24 164.5t-77 54.5q-54 0 -77.5 -54t-23.5 -165q0 -109 22 -163.5t79 -54.5zM250 -14q-97 0 -156 71t-59 182q0 104 60.5 179t154.5 75t154.5 -75t60.5 -179q0 -94 -61 -173.5t-154 -79.5zM329 545h-51l-103 64
q-11 7 -27.5 17t-22.5 14l-15 10t-11.5 10.5t-4.5 11t-2 15.5q0 14 13.5 26t34.5 12t55 -36z" />
    <glyph glyph-name="oacute" unicode="&#xf3;" 
d="M250 21q28 0 49 21t31.5 56t15.5 70t5 71q0 110 -24 164.5t-77 54.5q-54 0 -77.5 -54t-23.5 -165q0 -109 22 -163.5t79 -54.5zM250 -14q-97 0 -156 71t-59 182q0 104 60.5 179t154.5 75t154.5 -75t60.5 -179q0 -94 -61 -173.5t-154 -79.5zM222 545h-51l134 144
q34 36 55 36t34.5 -12t13.5 -26q0 -9 -2 -15.5t-4.5 -11t-11.5 -10.5l-15 -10t-22.5 -14t-27.5 -17z" />
    <glyph glyph-name="ocircumflex" unicode="&#xf4;" 
d="M250 21q28 0 49 21t31.5 56t15.5 70t5 71q0 110 -24 164.5t-77 54.5q-54 0 -77.5 -54t-23.5 -165q0 -109 22 -163.5t79 -54.5zM250 -14q-97 0 -156 71t-59 182q0 104 60.5 179t154.5 75t154.5 -75t60.5 -179q0 -94 -61 -173.5t-154 -79.5zM211 718h78l124 -173h-50
l-113 101l-113 -101h-50z" />
    <glyph glyph-name="otilde" unicode="&#xf5;" 
d="M250 21q28 0 49 21t31.5 56t15.5 70t5 71q0 110 -24 164.5t-77 54.5q-54 0 -77.5 -54t-23.5 -165q0 -109 22 -163.5t79 -54.5zM250 -14q-97 0 -156 71t-59 182q0 104 60.5 179t154.5 75t154.5 -75t60.5 -179q0 -94 -61 -173.5t-154 -79.5zM111 567h-37q25 118 116 118
q34 0 82 -25q44 -24 65 -24q20 0 33 15t19 33h37q-25 -118 -116 -118q-34 0 -82 25q-44 24 -65 24q-20 0 -33 -15t-19 -33z" />
    <glyph glyph-name="odieresis" unicode="&#xf6;" 
d="M250 21q28 0 49 21t31.5 56t15.5 70t5 71q0 110 -24 164.5t-77 54.5q-54 0 -77.5 -54t-23.5 -165q0 -109 22 -163.5t79 -54.5zM250 -14q-97 0 -156 71t-59 182q0 104 60.5 179t154.5 75t154.5 -75t60.5 -179q0 -94 -61 -173.5t-154 -79.5zM294 616q0 24 16.5 41.5
t42.5 17.5t42.5 -17.5t16.5 -41.5t-16.5 -41.5t-42.5 -17.5t-42.5 17.5t-16.5 41.5zM89 616q0 24 16.5 41.5t42.5 17.5t42.5 -17.5t16.5 -41.5t-16.5 -41.5t-42.5 -17.5t-42.5 17.5t-16.5 41.5z" />
    <glyph glyph-name="divide" unicode="&#xf7;" horiz-adv-x="600" 
d="M540 201h-479v77h479v-77zM233 435q0 28 19 48t49 20t49 -20t19 -48t-19 -48t-49 -20t-49 20t-19 48zM233 44q0 28 19 48t49 20t49 -20t19 -48t-19 -48t-49 -20t-49 20t-19 48z" />
    <glyph glyph-name="oslash" unicode="&#xf8;" 
d="M341 362l-173 -278q23 -63 82 -63q57 0 79 54.5t22 163.5q0 77 -10 123zM38 -52l64 104q-67 73 -67 187q0 104 60.5 179t154.5 75q60 0 106 -31l42 68h48l-58 -93q77 -75 77 -198q0 -104 -59.5 -178.5t-155.5 -74.5q-67 0 -119 39l-48 -77h-45zM156 138l169 275
q-23 45 -75 45q-55 0 -78 -49.5t-23 -169.5q0 -54 5 -101h2z" />
    <glyph glyph-name="ugrave" unicode="&#xf9;" horiz-adv-x="556" 
d="M182 493v-363q0 -79 91 -79q36 0 67.5 23t31.5 41v247q0 33 -9 43.5t-39 13.5v27l148 47v-388q0 -33 9 -43.5t39 -13.5v-27l-108 -35q-21 22 -35 77q-60 -77 -164 -77q-48 0 -89.5 35t-41.5 100v241q0 33 -9 43.5t-39 13.5v27zM357 545h-51l-103 64q-11 7 -27.5 17
t-22.5 14l-15 10t-11.5 10.5t-4.5 11t-2 15.5q0 14 13.5 26t34.5 12t55 -36z" />
    <glyph glyph-name="uacute" unicode="&#xfa;" horiz-adv-x="556" 
d="M182 493v-363q0 -79 91 -79q36 0 67.5 23t31.5 41v247q0 33 -9 43.5t-39 13.5v27l148 47v-388q0 -33 9 -43.5t39 -13.5v-27l-108 -35q-21 22 -35 77q-60 -77 -164 -77q-48 0 -89.5 35t-41.5 100v241q0 33 -9 43.5t-39 13.5v27zM250 545h-51l134 144q34 36 55 36t34.5 -12
t13.5 -26q0 -9 -2 -15.5t-4.5 -11t-11.5 -10.5l-15 -10t-22.5 -14t-27.5 -17z" />
    <glyph glyph-name="ucircumflex" unicode="&#xfb;" horiz-adv-x="556" 
d="M182 493v-363q0 -79 91 -79q36 0 67.5 23t31.5 41v247q0 33 -9 43.5t-39 13.5v27l148 47v-388q0 -33 9 -43.5t39 -13.5v-27l-108 -35q-21 22 -35 77q-60 -77 -164 -77q-48 0 -89.5 35t-41.5 100v241q0 33 -9 43.5t-39 13.5v27zM239 718h78l124 -173h-50l-113 101
l-113 -101h-50z" />
    <glyph glyph-name="udieresis" unicode="&#xfc;" horiz-adv-x="556" 
d="M182 493v-363q0 -79 91 -79q36 0 67.5 23t31.5 41v247q0 33 -9 43.5t-39 13.5v27l148 47v-388q0 -33 9 -43.5t39 -13.5v-27l-108 -35q-21 22 -35 77q-60 -77 -164 -77q-48 0 -89.5 35t-41.5 100v241q0 33 -9 43.5t-39 13.5v27zM322 616q0 24 16.5 41.5t42.5 17.5
t42.5 -17.5t16.5 -41.5t-16.5 -41.5t-42.5 -17.5t-42.5 17.5t-16.5 41.5zM117 616q0 24 16.5 41.5t42.5 17.5t42.5 -17.5t16.5 -41.5t-16.5 -41.5t-42.5 -17.5t-42.5 17.5t-16.5 41.5z" />
    <glyph glyph-name="yacute" unicode="&#xfd;" horiz-adv-x="444" 
d="M-11 428v27l124 38l154 -380q82 185 96 242q-60 31 -60 74q0 64 61 64t61 -64q0 -51 -82 -243q-89 -209 -142 -287.5t-91 -78.5q-74 0 -74 52q0 58 55 58q20 0 43 -7t27 -7q19 0 47 84l-121 305q-32 81 -48 100.5t-50 22.5zM194 545h-51l134 144q34 36 55 36t34.5 -12
t13.5 -26q0 -9 -2 -15.5t-4.5 -11t-11.5 -10.5l-15 -10t-22.5 -14t-27.5 -17z" />
    <glyph glyph-name="thorn" unicode="&#xfe;" 
d="M224 -167h-196v27l48 10v781q0 24 -39 24v27l139 62v-337q57 66 120 66q69 0 114 -63t45 -177q0 -59 -19.5 -118t-65 -104t-107.5 -45q-47 0 -87 23v-139l48 -10v-27zM176 370v-293q0 -13 26 -34.5t56 -21.5q49 0 73 53t24 134q0 55 -10 99.5t-36.5 76t-65.5 31.5
q-22 0 -44.5 -14.5t-22.5 -30.5z" />
    <glyph glyph-name="ydieresis" unicode="&#xff;" horiz-adv-x="444" 
d="M-11 428v27l124 38l154 -380q82 185 96 242q-60 31 -60 74q0 64 61 64t61 -64q0 -51 -82 -243q-89 -209 -142 -287.5t-91 -78.5q-74 0 -74 52q0 58 55 58q20 0 43 -7t27 -7q19 0 47 84l-121 305q-32 81 -48 100.5t-50 22.5zM266 616q0 24 16.5 41.5t42.5 17.5t42.5 -17.5
t16.5 -41.5t-16.5 -41.5t-42.5 -17.5t-42.5 17.5t-16.5 41.5zM61 616q0 24 16.5 41.5t42.5 17.5t42.5 -17.5t16.5 -41.5t-16.5 -41.5t-42.5 -17.5t-42.5 17.5t-16.5 41.5z" />
    <glyph glyph-name="dotlessi" unicode="&#x131;" horiz-adv-x="278" 
d="M250 0h-210v27l55 10v339q0 24 -13.5 33.5t-41.5 9.5v27l155 47v-456l55 -10v-27z" />
    <glyph glyph-name="Lslash" unicode="&#x141;" horiz-adv-x="556" 
d="M220 660v-260l138 53v-42l-138 -53v-318q25 -8 51 -8q50 0 86.5 11t65 36.5t48 53t45.5 75.5l38 -9l-55 -214q-15 8 -38 11q-21 4 -55 4h-363v32l55 8v273l-82 -31v42l82 31v305l-55 8v32h232v-32z" />
    <glyph glyph-name="lslash" unicode="&#x142;" horiz-adv-x="278" 
d="M195 401v-364l55 -10v-27h-210v27l55 10v326l-81 -31v42l81 31v229q0 24 -13.5 33.5t-41.5 9.5v27l155 60v-321l83 31v-42z" />
    <glyph glyph-name="OE" unicode="&#x152;" horiz-adv-x="1000" 
d="M814 0h-292q-22 0 -90 -7q-58 -8 -85 -8q-142 0 -226 106t-84 259t84 259t226 106q12 0 101 -7q78 -8 118 -8h240q66 0 93 15l45 -203l-34 -6q-38 87 -91 124.5t-143 37.5q-35 0 -67 -8v-268h38q51 0 74.5 25t35.5 87h32v-256h-32q-12 62 -35.5 87t-74.5 25h-38v-320
q25 -8 67 -8q94 0 151 46.5t95 142.5l35 -10l-50 -226q-15 8 -38 11q-21 4 -55 4zM487 173v384q0 118 -135 118q-92 0 -137.5 -87.5t-45.5 -244.5q0 -158 39.5 -238t137.5 -80q141 0 141 148z" />
    <glyph glyph-name="oe" unicode="&#x153;" horiz-adv-x="778" 
d="M248 21q53 0 74.5 55t21.5 163q0 119 -22.5 169t-73.5 50q-55 0 -78 -49.5t-23 -169.5q0 -109 22 -163.5t79 -54.5zM445 271l144 37q16 4 27.5 20.5t11.5 42.5q0 39 -19.5 63t-59.5 24q-46 0 -75.5 -42.5t-29.5 -104.5q0 -29 1 -40zM742 305l-288 -76q4 -64 43 -116
t102 -52q32 0 62.5 19.5t51.5 46.5l29 -20q-31 -57 -81.5 -89t-114.5 -32q-85 0 -144 65q-28 -24 -41.5 -33.5t-44 -20.5t-68.5 -11q-96 0 -155.5 74.5t-59.5 178.5t60.5 179t154.5 75q90 0 161 -76q69 76 144 76q76 0 131 -55.5t58 -132.5z" />
    <glyph glyph-name="Scaron" unicode="&#x160;" horiz-adv-x="556" 
d="M447 715l37 -208l-35 -9q-17 35 -32.5 60.5t-39 55t-54 45.5t-65.5 16q-54 0 -85.5 -28t-31.5 -75q0 -40 20.5 -68.5t53.5 -45t73 -31t80 -32t73 -41t53.5 -64.5t20.5 -97q0 -90 -64 -149t-156 -59q-42 0 -96.5 16t-66.5 16q-19 0 -64 -17l-38 213l38 5q39 -83 98 -138
t136 -55q51 0 88.5 35.5t37.5 85.5q0 38 -20 66t-52.5 45t-71.5 32t-78.5 34t-72 43.5t-52.5 66.5t-20 99q0 73 54 128t138 55q38 0 70 -10q35 -11 55 -11q36 0 69 21zM317 743h-78l-124 173h50l113 -101l113 101h50z" />
    <glyph glyph-name="scaron" unicode="&#x161;" horiz-adv-x="389" 
d="M179 -14q-27 0 -52 3.5t-50.5 12t-41 26.5t-15.5 43q0 22 16 38t38 16q33 0 50.5 -20.5t20.5 -50.5q3 -21 13 -27t31 -6q41 0 65.5 19.5t24.5 57.5q0 31 -24.5 53.5t-59 37.5t-69 32t-59 46t-24.5 69q0 71 64 114t136 43q34 0 58 -15.5t24 -44.5q0 -24 -15 -37t-37 -13
q-62 0 -79 75q-33 -4 -56 -25t-23 -52q0 -27 25 -46t61 -32.5t72.5 -30t61.5 -50.5t25 -83q0 -74 -51 -113.5t-130 -39.5zM234 545h-78l-124 173h50l113 -101l113 101h50z" />
    <glyph glyph-name="Ydieresis" unicode="&#x178;" horiz-adv-x="556" 
d="M-20 700h246v-32l-55 -8l152 -308l95 184q29 56 29 82q0 17 -11.5 27.5t-22.5 14t-33 8.5v32h201v-32q-56 -6 -94 -81l-147 -292v-255l55 -8v-32h-232v32l55 8v258l-183 362l-55 8v32zM322 814q0 24 16.5 41.5t42.5 17.5t42.5 -17.5t16.5 -41.5t-16.5 -41.5t-42.5 -17.5
t-42.5 17.5t-16.5 41.5zM117 814q0 24 16.5 41.5t42.5 17.5t42.5 -17.5t16.5 -41.5t-16.5 -41.5t-42.5 -17.5t-42.5 17.5t-16.5 41.5z" />
    <glyph glyph-name="Zcaron" unicode="&#x17d;" horiz-adv-x="556" 
d="M79 509l-34 5l49 201q15 -8 38 -11q21 -4 55 -4h328v-42l-363 -626h91q47 0 86 14t67.5 41.5t47.5 55t39 65.5l36 -4l-54 -219q-15 8 -38 11q-21 4 -55 4h-349v42l361 626h-86q-43 0 -77.5 -12.5t-60.5 -37t-43.5 -48.5t-37.5 -61zM317 743h-78l-124 173h50l113 -101
l113 101h50z" />
    <glyph glyph-name="zcaron" unicode="&#x17e;" horiz-adv-x="444" 
d="M415 452l-276 -417h55q71 0 121 47.5t73 104.5l32 -9l-50 -185q-10 3 -27 5q-9 2 -33 2h-286v40l267 402q-22 2 -39 2q-61 0 -106.5 -35.5t-71.5 -94.5l-30 8l43 164q18 -4 27 -5q20 -2 33 -2h268v-27zM261 545h-78l-124 173h50l113 -101l113 101h50z" />
    <glyph glyph-name="florin" unicode="&#x192;" 
d="M208 400h-88v45h96q5 49 21.5 102t43 103t67.5 82t88 32q20 0 39.5 -15t19.5 -38q0 -50 -50 -50q-17 0 -36 19q-17 19 -28 19q-22 0 -35 -51.5t-27 -202.5h98v-45h-102q0 -3 -4.5 -47t-7 -68t-8.5 -67.5t-13 -83t-16 -75.5q-24 -100 -82.5 -169.5t-118.5 -69.5
q-29 0 -47 15t-18 42q0 20 14 34t35 14q20 0 42.5 -20t25.5 -20q14 0 31.5 80.5t27.5 170.5z" />
    <glyph glyph-name="circumflex" unicode="&#x2c6;" horiz-adv-x="278" 
d="M100 718h78l124 -173h-50l-113 101l-113 -101h-50z" />
    <glyph glyph-name="caron" unicode="&#x2c7;" horiz-adv-x="278" 
d="M178 545h-78l-124 173h50l113 -101l113 101h50z" />
    <glyph glyph-name="uni02C9" unicode="&#x2c9;" horiz-adv-x="278" 
d="M301 584h-324v65h324v-65z" />
    <glyph glyph-name="breve" unicode="&#x2d8;" horiz-adv-x="278" 
d="M-8 706h38q15 -90 110 -90t110 90h38q-2 -79 -43 -120t-105 -41t-105 41t-43 120z" />
    <glyph glyph-name="dotaccent" unicode="&#x2d9;" horiz-adv-x="278" 
d="M139 675q26 0 42.5 -17.5t16.5 -41.5t-16.5 -41.5t-42.5 -17.5t-42.5 17.5t-16.5 41.5t16.5 41.5t42.5 17.5z" />
    <glyph glyph-name="ring" unicode="&#x2da;" horiz-adv-x="278" 
d="M36 649q0 42 29.5 72.5t73.5 30.5t73.5 -30.5t29.5 -72.5t-29.5 -72.5t-73.5 -30.5t-73.5 30.5t-29.5 72.5zM84 649q0 -22 15.5 -38.5t39.5 -16.5q25 0 40 16t15 39t-15 39t-40 16q-24 0 -39.5 -16.5t-15.5 -38.5z" />
    <glyph glyph-name="ogonek" unicode="&#x2db;" horiz-adv-x="278" 
d="M258 19v-10q-22 -9 -37 -15.5t-38 -19.5t-37 -25.5t-25 -30t-11 -35.5q0 -21 14 -37t34 -16q36 0 102 44l18 -23q-31 -20 -49 -30t-47 -20t-56 -10q-46 0 -74 21.5t-28 61.5q0 108 234 145z" />
    <glyph glyph-name="tilde" unicode="&#x2dc;" horiz-adv-x="278" 
d="M0 567h-37q25 118 116 118q34 0 82 -25q44 -24 65 -24q20 0 33 15t19 33h37q-25 -118 -116 -118q-34 0 -82 25q-44 24 -65 24q-20 0 -33 -15t-19 -33z" />
    <glyph glyph-name="hungarumlaut" unicode="&#x2dd;" horiz-adv-x="278" 
d="M59 545h-56l123 153q22 27 51 27q18 0 30.5 -12.5t12.5 -27.5q0 -24 -20 -38zM254 545h-54l133 145q25 27 53 27q17 0 29.5 -12t12.5 -27q0 -27 -21 -39z" />
    <glyph glyph-name="uni03A9" unicode="&#x3a9;" horiz-adv-x="655" 
d="M624 154l-23 -154h-220l-8 18q5 15 24.5 63.5t29.5 77.5t23.5 73.5t20 84.5t6.5 77q-1 148 -43.5 217t-107.5 69q-149 0 -149 -290q0 -60 18 -133t35 -118t49 -120l-9 -19h-220l-21 154l29 1q14 -45 28 -58.5t43 -13.5h88q-31 29 -51.5 52.5t-48.5 64t-43 91t-15 107.5
q0 143 77 229.5t193 86.5t190.5 -84t74.5 -227q0 -52 -14 -99.5t-43 -90.5t-49.5 -67.5t-56.5 -62.5h96q29 0 41.5 12.5t26.5 59.5z" />
    <glyph glyph-name="uni03BC" unicode="&#x3bc;" horiz-adv-x="556" 
d="M472 493v-388q0 -33 9 -43.5t39 -13.5v-27l-108 -35q-21 22 -35 77q-60 -77 -164 -77q-15 0 -31 4v-157h-148v27l48 10v492q0 33 -9 43.5t-39 13.5v27l148 47v-363q0 -79 91 -79q36 0 67.5 23t31.5 41v247q0 33 -9 43.5t-39 13.5v27z" />
    <glyph glyph-name="pi" unicode="&#x3c0;" horiz-adv-x="531" 
d="M480 476l27 -8q-9 -62 -34 -101q-19 -5 -60 -5q-5 -54 -5 -216q0 -91 38 -91q20 0 44 26l13 -23q-18 -32 -46.5 -51.5t-57.5 -19.5q-91 0 -91 135q0 81 10 243q-23 0 -65.5 1t-60.5 1v-15q0 -107 -13.5 -189t-25 -111.5t-23.5 -45.5q-30 -15 -64 -19l-7 20
q48 67 68.5 167t20.5 194q-41 1 -63.5 -7.5t-54.5 -31.5l-15 26q1 1 10 13t12.5 15.5t14 14.5t18 15.5t21 12.5t25.5 11.5t29 6.5t36 3q213 -3 244 -3q24 0 34.5 6t20.5 26z" />
    <glyph glyph-name="endash" unicode="&#x2013;" 
d="M500 209h-500v60h500v-60z" />
    <glyph glyph-name="emdash" unicode="&#x2014;" horiz-adv-x="1000" 
d="M1000 209h-1000v60h1000v-60z" />
    <glyph glyph-name="quoteleft" unicode="&#x2018;" horiz-adv-x="222" 
d="M149 715l26 -18q-62 -77 -63 -122q63 -27 63 -80q0 -28 -17 -44t-45 -16q-33 0 -49.5 23t-16.5 57q0 98 102 200z" />
    <glyph glyph-name="quoteright" unicode="&#x2019;" horiz-adv-x="222" 
d="M73 435l-26 18q62 77 63 122q-63 27 -63 80q0 28 17 44t45 16q33 0 49.5 -23t16.5 -57q0 -98 -102 -200z" />
    <glyph glyph-name="quotesinglbase" unicode="&#x201a;" horiz-adv-x="222" 
d="M73 -131l-26 18q62 77 63 122q-63 27 -63 80q0 28 17 44t45 16q33 0 49.5 -23t16.5 -57q0 -98 -102 -200z" />
    <glyph glyph-name="quotedblleft" unicode="&#x201c;" horiz-adv-x="389" 
d="M316 715l26 -18q-62 -77 -63 -122q63 -27 63 -80q0 -28 -17 -44t-45 -16q-33 0 -49.5 23t-16.5 57q0 98 102 200zM149 715l26 -18q-62 -77 -63 -122q63 -27 63 -80q0 -28 -17 -44t-45 -16q-33 0 -49.5 23t-16.5 57q0 98 102 200z" />
    <glyph glyph-name="quotedblright" unicode="&#x201d;" horiz-adv-x="389" 
d="M73 435l-26 18q62 77 63 122q-63 27 -63 80q0 28 17 44t45 16q33 0 49.5 -23t16.5 -57q0 -98 -102 -200zM240 435l-26 18q62 77 63 122q-63 27 -63 80q0 28 17 44t45 16q33 0 49.5 -23t16.5 -57q0 -98 -102 -200z" />
    <glyph glyph-name="quotedblbase" unicode="&#x201e;" horiz-adv-x="389" 
d="M73 -131l-26 18q62 77 63 122q-63 27 -63 80q0 28 17 44t45 16q33 0 49.5 -23t16.5 -57q0 -98 -102 -200zM240 -131l-26 18q62 77 63 122q-63 27 -63 80q0 28 17 44t45 16q33 0 49.5 -23t16.5 -57q0 -98 -102 -200z" />
    <glyph glyph-name="dagger" unicode="&#x2020;" 
d="M260 -110h-20q-3 90 -6 139.5t-15 124t-35 140.5q22 34 31 51t17 50t8 76q-39 0 -80.5 -22t-60.5 -22q-52 0 -52 54t52 54q19 0 60.5 -22t80.5 -22q0 44 -11.5 75t-23 52t-11.5 39q0 58 56 58t56 -58q0 -18 -11.5 -39t-23 -52t-11.5 -75q39 0 80.5 22t60.5 22
q52 0 52 -54t-52 -54q-19 0 -60.5 22t-80.5 22q0 -43 8 -76t17 -50t31 -51q-23 -66 -35 -140.5t-15 -124t-6 -139.5z" />
    <glyph glyph-name="daggerdbl" unicode="&#x2021;" 
d="M47 125q0 23 12.5 36t34.5 13q21 0 71 -18.5t75 -18.5q-5 52 -16.5 86.5t-39.5 78.5q22 35 34 65.5t15.5 49t6.5 52.5q-24 0 -73.5 -20t-72.5 -20t-35 14.5t-12 34.5q0 23 12.5 36t34.5 13q21 0 71 -18.5t75 -18.5q0 55 -21.5 105t-21.5 68q0 24 13.5 38t39.5 14
t39.5 -14t13.5 -38q0 -18 -21 -68t-21 -105q25 0 74.5 18.5t70.5 18.5q22 0 34.5 -13t12.5 -36q0 -20 -12 -34.5t-35 -14.5q-24 0 -73 20t-72 20q4 -49 13.5 -82.5t41.5 -84.5q-29 -44 -40 -78.5t-15 -86.5q25 0 74.5 18.5t70.5 18.5q22 0 34.5 -13t12.5 -36
q0 -20 -12 -34.5t-35 -14.5q-24 0 -73 20t-72 20q0 -55 21 -105t21 -68q0 -24 -13.5 -38t-39.5 -14t-39.5 14t-13.5 38q0 18 21.5 68t21.5 105q-24 0 -73.5 -20t-72.5 -20t-35 14.5t-12 34.5z" />
    <glyph glyph-name="bullet" unicode="&#x2022;" 
d="M75 350q0 73 51 124t124 51t124 -51t51 -124t-51 -124t-124 -51t-124 51t-51 124z" />
    <glyph glyph-name="ellipsis" unicode="&#x2026;" horiz-adv-x="1000" 
d="M99 58q0 28 19 48t49 20t49 -20t19 -48t-19 -48t-49 -20t-49 20t-19 48zM432 58q0 28 19 48t49 20t49 -20t19 -48t-19 -48t-49 -20t-49 20t-19 48zM765 58q0 28 19 48t49 20t49 -20t19 -48t-19 -48t-49 -20t-49 20t-19 48z" />
    <glyph glyph-name="perthousand" unicode="&#x2030;" horiz-adv-x="1000" 
d="M481 127q0 -115 44 -115q34 0 47 63t13 212q0 115 -44 115q-34 0 -47 -63t-13 -212zM108 -15l416 730h60l-416 -730h-60zM108 413q0 -115 44 -115q34 0 47 63t13 212q0 115 -44 115q-34 0 -47 -63t-13 -212zM390 207q0 81 44 151.5t99 70.5q64 0 103.5 -62t39.5 -160
q0 -81 -44 -151.5t-99 -70.5q-64 0 -103.5 62t-39.5 160zM17 493q0 81 44 151.5t99 70.5q64 0 103.5 -62t39.5 -160q0 -81 -44 -151.5t-99 -70.5q-64 0 -103.5 62t-39.5 160zM806 127q0 -115 44 -115q34 0 47 63t13 212q0 115 -44 115q-34 0 -47 -63t-13 -212zM715 207
q0 81 44 151.5t99 70.5q64 0 103.5 -62t39.5 -160q0 -81 -44 -151.5t-99 -70.5q-64 0 -103.5 62t-39.5 160z" />
    <glyph glyph-name="guilsinglleft" unicode="&#x2039;" horiz-adv-x="278" 
d="M16 235v4q57 43 111.5 92.5t81 74.5t32.5 25q5 0 9.5 -4t4.5 -9q0 -29 -128 -180q128 -155 128 -180q0 -11 -18 -11q-4 0 -36 29.5t-86.5 77.5t-98.5 81z" />
    <glyph glyph-name="guilsinglright" unicode="&#x203a;" horiz-adv-x="278" 
d="M262 243v-4q-57 -43 -111.5 -92.5t-81 -74.5t-32.5 -25q-5 0 -9.5 4t-4.5 9q0 29 128 180q-128 155 -128 180q0 11 18 11q4 0 36 -29.5t86.5 -77.5t98.5 -81z" />
    <glyph glyph-name="fraction" unicode="&#x2044;" horiz-adv-x="167" 
d="M-167 -15l441 730h60l-441 -730h-60z" />
    <glyph glyph-name="Euro" unicode="&#x20ac;" 
d="M355 304h-172q13 -103 48.5 -170t95.5 -67q30 0 64.5 32.5t54.5 84.5l34 -13q-25 -89 -76.5 -137.5t-115.5 -48.5q-94 0 -152 90.5t-63 228.5h-72v45h71q2 36 6 70h-77v45h85q23 107 76 179t127 72q28 0 56 -10q33 -11 44 -11q18 0 55 21l34 -196l-33 -10
q-68 171 -148 171q-36 0 -62.5 -33.5t-39 -80t-16.5 -102.5h176v-45h-178q0 -47 2 -70h176v-45z" />
    <glyph glyph-name="afii61289" unicode="&#x2113;" horiz-adv-x="400" 
d="M363 123l22 -18q-57 -118 -164 -118q-71 0 -102 39q-18 24 -25 54t-7 93v82l-52 -39l-13 28l64 51v138q0 114 10.5 166t39.5 91q41 57 94 57q44 0 68 -38t24 -99q0 -83 -34 -151t-100 -140v-93q0 -97 17.5 -134.5t58.5 -37.5q54 0 99 69zM188 488v-116q35 44 56.5 108
t21.5 129q0 105 -39 105q-23 0 -31 -46.5t-8 -179.5z" />
    <glyph glyph-name="trademark" unicode="&#x2122;" horiz-adv-x="990" 
d="M23 700h355v-88h-22q-15 66 -65 66h-48v-310q0 -32 7 -39t43 -11v-22h-185v22q36 4 43 11t7 39v310h-48q-50 0 -65 -66h-22v88zM664 295l-143 297h-2v-206q0 -37 8.5 -51t42.5 -17v-22h-131v22q34 3 42.5 17t8.5 51v241q-10 23 -29 37t-41 14v22h133l146 -296l154 296
h114v-22q-33 -1 -44 -13t-11 -38v-259q0 -33 7 -39.5t43 -10.5v-22h-185v22q36 4 43 10.5t7 39.5v225h-2l-149 -298h-12z" />
    <glyph glyph-name="Omega" unicode="&#x2126;" horiz-adv-x="655" 
d="M624 154l-23 -154h-220l-8 18q5 15 24.5 63.5t29.5 77.5t23.5 73.5t20 84.5t6.5 77q-1 148 -43.5 217t-107.5 69q-149 0 -149 -290q0 -60 18 -133t35 -118t49 -120l-9 -19h-220l-21 154l29 1q14 -45 28 -58.5t43 -13.5h88q-31 29 -51.5 52.5t-48.5 64t-43 91t-15 107.5
q0 143 77 229.5t193 86.5t190.5 -84t74.5 -227q0 -52 -14 -99.5t-43 -90.5t-49.5 -67.5t-56.5 -62.5h96q29 0 41.5 12.5t26.5 59.5z" />
    <glyph glyph-name="estimated" unicode="&#x212e;" horiz-adv-x="879" 
d="M844 339h-656q-5 0 -5 -4v-198q0 -13 8 -23q105 -108 248 -108q77 0 144.5 32.5t116.5 88.5h59q-56 -65 -140.5 -103t-180.5 -38q-167 0 -285.5 106t-118.5 257t118.5 257.5t285.5 106.5q169 0 287.5 -106.5t118.5 -257.5v-10zM695 365v200q0 14 -10 23
q-104 104 -246 104t-246 -107q-10 -9 -10 -25v-195q0 -6 5 -6h503q4 0 4 6z" />
    <glyph glyph-name="partialdiff" unicode="&#x2202;" 
d="M249 431h1q72 0 112 -60q9 75 11 113q5 87 -22 155q-15 34 -45 57t-71 23q-64 0 -128 -56q-12 -1 -25 27t-7 46q61 40 131 40q129 0 199 -146q48 -100 48 -241q0 -150 -45 -248q-30 -71 -80 -112.5t-117 -41.5q-79 0 -125.5 52t-46.5 145q0 97 57 171q27 34 67.5 55
t85.5 21zM271 388h-1q-53 0 -88 -58q-43 -80 -43 -207q0 -47 19 -75.5t53 -28.5q53 0 97 110q30 74 45 197q-8 22 -30.5 42t-51.5 20z" />
    <glyph glyph-name="Delta" unicode="&#x2206;" horiz-adv-x="594" 
d="M561 0h-530v31l239 671l43 11l248 -682v-31zM434 54l-175 494l-169 -494h344z" />
    <glyph glyph-name="product" unicode="&#x220f;" horiz-adv-x="651" 
d="M625 705v-30q-59 -5 -72.5 -19t-13.5 -66v-556q0 -58 13.5 -73t70.5 -20v-29h-260v29q50 5 61 18.5t11 73.5v600q0 23 -6.5 29t-29.5 6h-151q-22 0 -27.5 -5t-5.5 -27v-603q0 -58 9 -72.5t56 -19.5v-29h-254v29q58 5 71.5 20t13.5 72v557q0 53 -13.5 66.5t-74.5 18.5v30
h602z" />
    <glyph glyph-name="summation" unicode="&#x2211;" horiz-adv-x="516" 
d="M496 104l-43 -198h-427v28l207 334l-203 409v28h425q3 -65 11 -165l-31 -5q-11 59 -31 97q-11 21 -30 28.5t-70 7.5h-148l166 -323l-210 -346h220q63 0 84.5 17t49.5 96z" />
    <glyph glyph-name="minus" unicode="&#x2212;" horiz-adv-x="600" 
d="M61 201v77h479v-77h-479z" />
    <glyph glyph-name="uni2215" unicode="&#x2215;" horiz-adv-x="167" 
d="M-167 -15l441 730h60l-441 -730h-60z" />
    <glyph glyph-name="uni2219" unicode="&#x2219;" horiz-adv-x="250" 
d="M57 239q0 28 19 48t49 20t49 -20t19 -48t-19 -48t-49 -20t-49 20t-19 48z" />
    <glyph glyph-name="radical" unicode="&#x221a;" horiz-adv-x="526" 
d="M512 889l-164 -1054l-23 -11l-199 552l-82 -37l-12 36l163 71l141 -412h2l130 864z" />
    <glyph glyph-name="infinity" unicode="&#x221e;" horiz-adv-x="725" 
d="M679 292v-2q0 -73 -44.5 -117t-104.5 -44q-43 0 -82.5 24t-84.5 83q-42 -52 -81.5 -79.5t-91.5 -27.5q-59 0 -102.5 44.5t-43.5 112.5q0 70 44 115t110 45q87 0 168 -105q2 2 12 13.5t13 15t13 14t15 14.5t15 12.5t17 12l18 9t20.5 8t21.5 4.5t24 2q62 -1 103 -43.5
t41 -110.5zM198 192h2q25 0 50 15.5t39.5 31t38.5 44.5q-20 28 -29.5 39.5t-27.5 29.5t-36 25t-40 7q-40 0 -63 -28t-23 -71q0 -39 25.5 -66t63.5 -27zM529 384h-1q-17 0 -32 -5.5t-31 -19.5t-23.5 -21t-25 -27.5t-18.5 -21.5q44 -55 71.5 -76t62.5 -21q37 0 59.5 29
t22.5 65q0 44 -23.5 71t-61.5 27z" />
    <glyph glyph-name="integral" unicode="&#x222b;" horiz-adv-x="375" 
d="M154 0l-20 410q-5 105 2.5 184.5t23.5 126t39.5 75.5t46.5 39t50 10q25 0 45.5 -14t21.5 -38q0 -25 -16 -38.5t-37 -13.5q-15 0 -23.5 13.5t-14 27t-14.5 13.5q-39 0 -32 -156l18 -374q6 -128 -4.5 -222t-35.5 -146t-56 -76t-70 -24q-27 0 -46.5 16t-19.5 38
q-1 24 17.5 40t41.5 16q17 0 29.5 -29.5t21.5 -29.5q40 0 32 152z" />
    <glyph glyph-name="approxequal" unicode="&#x2248;" horiz-adv-x="494" 
d="M415 441l43 -36q-21 -44 -53 -71t-70 -27q-43 0 -99 37q-48 32 -77 32q-27 0 -45 -17.5t-38 -50.5l-43 35q20 43 55 70t77 27q11 0 21.5 -2t17.5 -3.5t17.5 -7t13.5 -7t14 -8.5l11 -6q3 -2 11 -7t11 -7t9.5 -5.5t9.5 -5t8.5 -4t9 -3t8 -1.5t9.5 -1q24 0 41.5 17t37.5 52z
M415 270l43 -36q-47 -98 -123 -98q-42 0 -99 36q-49 33 -77 33q-19 0 -35.5 -11.5t-25 -23t-22.5 -34.5l-43 35q20 44 55 71t76 27q13 0 24.5 -2t23.5 -7t17 -7.5t17.5 -10.5t13.5 -8q2 -1 15 -9.5t16.5 -10t13 -6t16.5 -6t15 -1.5q24 0 41 16.5t38 52.5z" />
    <glyph glyph-name="notequal" unicode="&#x2260;" horiz-adv-x="494" 
d="M362 498l-35 -82h122v-67h-146l-54 -128h200v-66h-224l-44 -104l-52 20l36 84h-121v66h146l53 128h-199v67h223l44 102z" />
    <glyph glyph-name="lessequal" unicode="&#x2264;" horiz-adv-x="494" 
d="M447 104l-398 212v72l398 212v-79l-334 -167v-3l334 -168v-79zM451 0h-406v67h406v-67z" />
    <glyph glyph-name="greaterequal" unicode="&#x2265;" horiz-adv-x="494" 
d="M51 600l397 -212v-72l-397 -212v79l333 168v2l-333 168v79zM450 0h-404v67h404v-67z" />
    <glyph glyph-name="lozenge" unicode="&#x25ca;" horiz-adv-x="527" 
d="M481 341l-177 -408h-82l-176 408l178 410h81zM407 341l-141 338h-3l-143 -337l143 -340h3z" />
    </font>
</defs>
</svg>
