<?xml version="1.0" standalone="no"?>
<!DOCTYPE svg PUBLIC "-//W3C//DTD SVG 1.1//EN" "http://www.w3.org/Graphics/SVG/1.1/DTD/svg11.dtd" >
<svg xmlns="http://www.w3.org/2000/svg" xmlns:xlink="http://www.w3.org/1999/xlink" version="1.1">
<metadata>
Created by FontForge 20150824 at Mon Sep  5 12:14:28 2016
 By Everything Fonts
(c) 2013 Klim Type Foundry. All Rights Reserved.
</metadata>
<defs>
<font id="DomaineDispCondSemibold" horiz-adv-x="500" >
  <font-face 
    font-family="DomaineDispCondSemibold"
    font-weight="600"
    font-stretch="condensed"
    units-per-em="1000"
    panose-1="2 10 7 8 8 5 5 6 2 3"
    ascent="780"
    descent="-220"
    x-height="492"
    cap-height="700"
    bbox="-123 -246 975 946"
    underline-thickness="38"
    underline-position="-132"
    unicode-range="U+0020-FB04"
  />
<missing-glyph 
 />
    <glyph glyph-name="ff" unicode="ff" horiz-adv-x="498" 
d="M183 491h111v60q0 14 1 20q-31 6 -44 31q43 12 43 64q0 55 -48 55q-63 0 -63 -103v-127zM219 2v-2h-205v2q24 16 30.5 33.5t6.5 67.5v362h-53v9l53 22v41q0 96 56.5 148t139.5 52q67 0 104 -33q52 50 133 50q53 0 88 -23.5t35 -68.5q0 -33 -20.5 -54t-52.5 -21
q-43 0 -60 32q43 14 43 67q0 52 -37 52q-55 0 -55 -111v-136h78l-5 -26h-73v-366q0 -48 9.5 -64t38.5 -33v-2h-216v2q24 16 30.5 33.5t6.5 64.5v365h-111v-362q0 -49 6.5 -67t29.5 -34z" />
    <glyph glyph-name="fi" unicode="fi" horiz-adv-x="475" 
d="M183 613v-121h243v-389q0 -50 6.5 -67.5t30.5 -33.5v-2h-205v2q24 16 30 33.5t6 67.5v317q0 25 -10.5 35.5t-34.5 10.5h-66v-363q0 -50 6 -67.5t30 -33.5v-2h-205v2q24 16 30.5 33.5t6.5 67.5v362h-53v9l53 22v32q0 110 56 168t154 58q69 0 112.5 -27t43.5 -75
q0 -34 -23.5 -55t-59.5 -21q-43 0 -63 27q47 8 47 70q0 65 -57 65q-38 0 -58 -35t-20 -90z" />
    <glyph glyph-name="fl" unicode="fl" horiz-adv-x="475" 
d="M426 755v-652q0 -50 6.5 -67.5t30.5 -33.5v-2h-205v2q24 16 30 33.5t6 67.5v576q0 24 -14 41.5t-41 17.5q-56 0 -56 -82v-165h82l-5 -26h-77v-362q0 -50 6 -67.5t30 -33.5v-2h-205v2q24 16 30.5 33.5t6.5 67.5v362h-53v9l53 22v65q0 94 47.5 143.5t128.5 49.5
q69 0 112 -51q41 15 85 52h2z" />
    <glyph glyph-name="ffi" unicode="ffi" horiz-adv-x="718" 
d="M183 492h111v36q0 15 2 43q-32 6 -45 31q43 12 43 64q0 55 -48 55q-63 0 -63 -103v-126zM219 2v-2h-205v2q24 16 30.5 33.5t6.5 67.5v362h-53v9l53 22v41q0 96 56.5 148t139.5 52q71 0 108 -37q54 54 150 54q69 0 112 -27t43 -75q0 -34 -23 -55t-59 -21q-44 0 -64 27
q46 8 46 70q0 65 -55 65q-39 0 -59.5 -35t-20.5 -90v-121h244v-389q0 -50 6.5 -67.5t30.5 -33.5v-2h-205v2q24 16 30.5 33.5t6.5 67.5v317q0 25 -10.5 35.5t-34.5 10.5h-67v-363q0 -50 6.5 -67.5t30.5 -33.5v-2h-205v2q24 16 30.5 34t5.5 67v363h-111v-364q0 -49 6 -66.5
t30 -33.5z" />
    <glyph glyph-name="ffl" unicode="ffl" horiz-adv-x="718" 
d="M183 491h111v80q-31 8 -43 31q43 12 43 64q0 55 -48 55q-63 0 -63 -103v-127zM219 2v-2h-205v2q24 16 30.5 33.5t6.5 67.5v362h-53v9l53 22v41q0 96 56.5 148t139.5 52q63 0 99 -29q46 46 125 46q70 0 111 -51q40 14 85 52h2v-652q0 -50 6.5 -67.5t30.5 -33.5v-2h-205v2
q24 16 30.5 33.5t6.5 67.5v576q0 24 -14.5 41.5t-41.5 17.5q-56 0 -56 -82v-165h82l-5 -26h-77v-362q0 -50 6.5 -67.5t30.5 -33.5v-2h-205v2q24 16 30 33.5t6 67.5v362h-111v-362q0 -50 6 -67.5t30 -33.5z" />
    <glyph glyph-name="f_b" unicode="fb" horiz-adv-x="726" 
d="M426 755v-371q10 57 43 87.5t82 30.5q68 0 113 -68.5t45 -185.5q0 -114 -52 -186t-129 -72q-45 0 -79.5 26t-50.5 78q-27 -74 -113 -103q9 60 9 222v466q0 24 -14 41.5t-41 17.5q-56 0 -56 -82v-165h82l-5 -26h-77v-362q0 -50 6 -67.5t30 -33.5v-2h-205v2
q24 16 30.5 33.5t6.5 67.5v362h-53v9l53 22v65q0 94 47.5 143.5t128.5 49.5q69 0 112 -51q41 15 85 52h2zM498 447q-29 0 -50.5 -38.5t-21.5 -106.5v-131q0 -72 20.5 -110.5t49.5 -38.5q36 0 54.5 59.5t18.5 165.5q0 200 -71 200z" />
    <glyph glyph-name="f_f_b" unicode="ffb" horiz-adv-x="970" 
d="M772 -10q-46 0 -80.5 26t-50.5 78q-13 -39 -45 -66t-67 -37q9 67 9 222v466q0 24 -14.5 41.5t-41.5 17.5q-56 0 -56 -82v-165h82l-5 -26h-77v-362q0 -50 6.5 -67.5t30.5 -33.5v-2h-205v2q24 16 30 33.5t6 67.5v362h-111v-362q0 -50 6 -67.5t30 -33.5v-2h-205v2
q24 16 30.5 33.5t6.5 67.5v362h-53v9l53 22v41q0 96 56.5 148t139.5 52q63 0 99 -29q46 46 125 46q70 0 111 -51q40 14 85 52h2v-371q11 57 43.5 87.5t81.5 30.5q68 0 113.5 -68.5t45.5 -185.5q0 -114 -52 -186t-129 -72zM183 491h111v80q-31 8 -43 31q43 12 43 64
q0 55 -48 55q-63 0 -63 -103v-127zM742 447q-29 0 -51 -39t-22 -106v-131q0 -72 21 -110.5t50 -38.5q36 0 54.5 59.5t18.5 165.5q0 95 -18 147.5t-53 52.5z" />
    <glyph glyph-name="f_f_h" unicode="ffh" horiz-adv-x="961" 
d="M183 491h111v80q-31 8 -43 31q43 12 43 64q0 55 -48 55q-63 0 -63 -103v-127zM219 2v-2h-205v2q24 16 30.5 33.5t6.5 67.5v362h-53v9l53 22v41q0 96 56.5 148t139.5 52q63 0 99 -29q46 46 125 46q70 0 111 -51q40 14 85 52h2v-367q14 54 48 84t81 30q56 0 86.5 -35.5
t30.5 -99.5v-264q0 -49 6.5 -67t30.5 -34v-2h-205v2q24 16 30.5 33.5t6.5 67.5v262q0 66 -49 66q-28 0 -47 -28.5t-19 -85.5v-214q0 -50 6.5 -67.5t30.5 -33.5v-2h-205v2q24 16 30.5 33.5t6.5 67.5v576q0 24 -14.5 41.5t-41.5 17.5q-56 0 -56 -82v-165h82l-5 -26h-77v-362
q0 -50 6.5 -67.5t30.5 -33.5v-2h-205v2q24 16 30 33.5t6 67.5v362h-111v-362q0 -50 6 -67.5t30 -33.5z" />
    <glyph glyph-name="f_f_j" unicode="ffj" horiz-adv-x="715" 
d="M183 492h111v36q0 15 2 43q-32 6 -45 31q43 12 43 64q0 55 -48 55q-63 0 -63 -103v-126zM494 -231q-58 0 -94 24.5t-36 71.5q0 33 21.5 54.5t52.5 21.5q20 0 36.5 -9.5t23.5 -23.5q-45 -11 -45 -66q0 -26 11 -41.5t30 -15.5q44 0 44 103v532q0 25 -10.5 35.5t-34.5 10.5
h-67v-363q0 -50 6.5 -67.5t30.5 -33.5v-2h-205v2q24 16 30.5 34t5.5 67v363h-111v-364q0 -49 6 -66.5t30 -33.5v-2h-205v2q24 16 30.5 33.5t6.5 67.5v362h-53v9l53 22v41q0 96 56.5 148t139.5 52q71 0 108 -37q54 54 150 54q69 0 112 -27t43 -75q0 -34 -23 -55t-59 -21
q-44 0 -64 27q46 8 46 70q0 65 -55 65q-39 0 -59.5 -35t-20.5 -90v-121h244v-529q0 -95 -48.5 -144.5t-126.5 -49.5z" />
    <glyph glyph-name="f_f_k" unicode="ffk" horiz-adv-x="962" 
d="M183 491h111v80q-31 8 -43 31q43 12 43 64q0 55 -48 55q-63 0 -63 -103v-127zM219 2v-2h-205v2q24 16 30.5 33.5t6.5 67.5v362h-53v9l53 22v41q0 96 56.5 148t139.5 52q63 0 99 -29q46 46 125 46q70 0 111 -51q40 14 85 52h2v-475h23q34 0 55 29l64 90q18 22 18 44
q0 33 -33 47v2h169v-2q-75 -23 -117 -82l-51 -76l97 -223q31 -72 81 -107v-2h-184q-1 27 -19 71l-70 165q-10 23 -25 23h-8v-156q0 -50 6.5 -67.5t30.5 -33.5v-2h-205v2q24 16 30.5 33.5t6.5 67.5v576q0 24 -14.5 41.5t-41.5 17.5q-56 0 -56 -82v-165h82l-5 -26h-77v-362
q0 -50 6.5 -67.5t30.5 -33.5v-2h-205v2q24 16 30 33.5t6 67.5v362h-111v-362q0 -50 6 -67.5t30 -33.5z" />
    <glyph glyph-name="f_h" unicode="fh" horiz-adv-x="718" 
d="M426 755v-367q14 55 48 84.5t81 29.5q56 0 86.5 -36t30.5 -99v-264q0 -50 6.5 -67.5t30.5 -33.5v-2h-205v2q24 16 30.5 33.5t6.5 67.5v262q0 66 -50 66q-28 0 -46.5 -28.5t-18.5 -85.5v-214q0 -49 6.5 -67t29.5 -34v-2h-204v2q23 16 29.5 34t6.5 67v576q0 24 -14 41.5
t-41 17.5q-56 0 -56 -82v-165h82l-5 -26h-77v-362q0 -50 6 -67.5t30 -33.5v-2h-205v2q24 16 30.5 33.5t6.5 67.5v362h-53v9l53 22v65q0 94 47.5 143.5t128.5 49.5q69 0 112 -51q41 15 85 52h2z" />
    <glyph glyph-name="f_j" unicode="fj" horiz-adv-x="471" 
d="M250 -231q-57 0 -93.5 24.5t-36.5 71.5q0 33 22 54.5t52 21.5q20 0 36.5 -9.5t23.5 -23.5q-45 -11 -45 -66q0 -26 11 -41.5t31 -15.5q26 0 34.5 27.5t8.5 75.5v532q0 25 -10.5 35.5t-34.5 10.5h-66v-363q0 -50 6 -67.5t30 -33.5v-2h-205v2q24 16 30.5 33.5t6.5 67.5v362
h-53v9l53 22v32q0 110 56 168t154 58q69 0 112.5 -27t43.5 -75q0 -34 -23.5 -55t-59.5 -21q-43 0 -63 27q47 8 47 70q0 65 -57 65q-38 0 -58 -35t-20 -90v-121h243v-529q0 -95 -48.5 -144.5t-127.5 -49.5z" />
    <glyph glyph-name="f_k" unicode="fk" horiz-adv-x="719" 
d="M426 755v-475h23q33 0 54 29l65 90q18 24 18 44q0 33 -33 47v2h169v-2q-75 -22 -118 -82l-51 -76l97 -223q31 -71 82 -107v-2h-185q-1 29 -18 71l-71 165q-9 23 -25 23h-7v-156q0 -49 6.5 -67t29.5 -34v-2h-204v2q23 16 29.5 34t6.5 67v576q0 24 -14 41.5t-41 17.5
q-56 0 -56 -82v-165h82l-5 -26h-77v-362q0 -50 6 -67.5t30 -33.5v-2h-205v2q24 16 30.5 33.5t6.5 67.5v362h-53v9l53 22v65q0 94 47.5 143.5t128.5 49.5q69 0 112 -51q41 15 85 52h2z" />
    <glyph glyph-name="f_idieresis" unicode="f&#xef;" horiz-adv-x="475" 
d="M438 565q-29 0 -48 20t-19 48t19 49t48 21q27 0 47 -21t20 -49q0 -27 -20 -47.5t-47 -20.5zM183 650v-158h243v-389q0 -50 6.5 -67.5t30.5 -33.5v-2h-205v2q24 16 30 33.5t6 67.5v317q0 25 -10.5 35.5t-34.5 10.5h-66v-363q0 -50 6 -67.5t30 -33.5v-2h-205v2
q24 16 30.5 33.5t6.5 67.5v362h-53v9l53 22v52q0 95 48.5 150.5t125.5 55.5q56 0 90 -29.5t34 -76.5q0 -37 -19.5 -60t-50.5 -23q-39 0 -56 29q20 4 33.5 25.5t13.5 54.5q0 29 -10.5 47t-30.5 18q-46 0 -46 -89z" />
    <glyph glyph-name="f_f_idieresis" unicode="ff&#xef;" horiz-adv-x="717" 
d="M706 1v-2h-206v2q24 16 30.5 33.5t6.5 67.5v318q0 45 -45 45h-67v-366q0 -48 9.5 -64t38.5 -33v-2h-216v2q24 16 30.5 33.5t6.5 64.5v365h-111v-362q0 -49 6.5 -67t29.5 -34v-2h-205v2q24 16 30.5 33.5t6.5 67.5v362h-53v9l53 22v41q0 96 56.5 148t139.5 52q66 0 102 -32
q46 49 118 49q56 0 90.5 -30t34.5 -77q0 -37 -20 -60t-51 -23q-38 0 -56 30q20 3 33.5 24.5t13.5 54.5q0 65 -40 65q-47 0 -47 -89v-158h243v-389q0 -50 6.5 -67.5t31.5 -33.5zM183 491h111v57q0 16 1 23q-31 6 -44 31q43 12 43 64q0 55 -48 55q-63 0 -63 -103v-127z
M680 564q-29 0 -47.5 20.5t-18.5 48.5q0 29 18.5 49.5t47.5 20.5q27 0 47 -21t20 -49t-19.5 -48.5t-47.5 -20.5z" />
    <glyph glyph-name=".notdef" 
 />
    <glyph glyph-name=".null" horiz-adv-x="0" 
 />
    <glyph glyph-name="nonmarkingreturn" horiz-adv-x="333" 
 />
    <glyph glyph-name="space" unicode=" " horiz-adv-x="156" 
 />
    <glyph glyph-name="exclam" unicode="!" horiz-adv-x="255" 
d="M37 700h180l-87 -475h-5zM209 76q0 -35 -24 -59t-58 -24t-58 24t-24 59t24 59t58 24t58 -24t24 -59z" />
    <glyph glyph-name="quotedbl" unicode="&#x22;" horiz-adv-x="366" 
d="M268 408h-3q-25 163 -73 247q8 24 28.5 39.5t45.5 15.5t45.5 -15.5t28.5 -39.5q-21 -37 -39 -99t-25 -105zM102 408h-4q-24 163 -72 247q9 24 29 39.5t45 15.5t45 -15.5t29 -39.5q-21 -37 -39 -99t-25 -105z" />
    <glyph glyph-name="numbersign" unicode="#" horiz-adv-x="501" 
d="M305 243l30 215h-139l-30 -215h139zM270 0l31 219h-139l-31 -219h-23l31 219h-120l4 24h120l30 215h-134l4 23h134l31 219h23l-31 -219h139l31 219h24l-31 -219h119l-4 -23h-119l-30 -215h134l-5 -24h-133l-31 -219h-24z" />
    <glyph glyph-name="dollar" unicode="$" horiz-adv-x="497" 
d="M245 692q-9 0 -25 -2v-242l46 -18v261q-7 1 -21 1zM122 571q0 -45 20.5 -71t60.5 -45v231q-37 -12 -59 -43t-22 -72zM238 8q10 0 28 2v265l-46 18v-284q6 -1 18 -1zM282 269v-256q47 11 73 46t26 87q0 49 -22.5 75.5t-76.5 47.5zM238 -10h-18v-104h-17v105
q-87 8 -138.5 46.5t-51.5 96.5q0 37 24.5 61t58.5 24q40 0 59 -28q-19 -2 -32 -19.5t-13 -46.5q0 -43 24.5 -73.5t68.5 -39.5v288l-10 4q-78 32 -121 77.5t-43 122.5q0 80 48 135t126 68v103h17v-101q8 1 25 1q14 0 21 -1v101h16v-102q77 -7 122 -41t45 -86q0 -35 -21 -55
t-52 -20q-44 0 -57 26q18 2 31 19t13 44q0 35 -21.5 60t-59.5 33v-265l23 -9q81 -33 123.5 -76.5t42.5 -125.5q0 -87 -53.5 -146t-135.5 -72v-108h-16v105q-9 -1 -28 -1z" />
    <glyph glyph-name="percent" unicode="%" horiz-adv-x="538" 
d="M102 0h-42l366 673q-51 -45 -107 -45q-33 0 -61 9q19 -32 19 -76q0 -62 -38 -106t-91 -44t-90.5 44t-37.5 106q0 61 38 105t90 44q41 0 87 -31t85 -31t68 17t68 54l12 -9zM148 429q47 0 47 132q0 131 -47 131t-47 -131q0 -132 47 -132zM389 -5q-53 0 -90.5 44t-37.5 105
t37.5 105t90.5 44t91 -43.5t38 -105.5t-38 -105.5t-91 -43.5zM389 12q47 0 47 132t-47 132t-47 -132t47 -132z" />
    <glyph glyph-name="ampersand" unicode="&#x26;" horiz-adv-x="552" 
d="M243 459l24 -39q52 50 52 146q0 54 -17 90t-50 36q-27 0 -44 -26.5t-17 -66.5q0 -36 12.5 -66.5t39.5 -73.5zM258 33q38 0 74 25l-170 274q-37 -49 -37 -129q0 -77 37.5 -123.5t95.5 -46.5zM368 0l-25 40q-66 -50 -142 -50q-81 0 -135.5 46t-54.5 127q0 66 39.5 111
t103.5 70l-27 44q-47 74 -47 144q0 82 51 130t120 48q72 0 115.5 -41t43.5 -107q0 -59 -41 -98t-96 -55l146 -241q29 64 29 131q1 36 -13 55.5t-51 37.5v3h155v-3q-32 -14 -43 -33.5t-16 -59.5q-10 -80 -48 -152l40 -66q20 -31 36 -47t42 -32v-2h-182z" />
    <glyph glyph-name="quotesingle" unicode="'" horiz-adv-x="200" 
d="M102 408h-4q-24 163 -72 247q9 24 29 39.5t45 15.5t45 -15.5t29 -39.5q-21 -37 -39 -99t-25 -105z" />
    <glyph glyph-name="parenleft" unicode="(" horiz-adv-x="286" 
d="M37 313q0 150 64 259t166 177h12q-114 -125 -114 -436t114 -436h-12q-102 68 -166 177t-64 259z" />
    <glyph glyph-name="parenright" unicode=")" horiz-adv-x="286" 
d="M19 749q102 -68 166 -177t64 -259t-64 -259t-166 -177h-12q114 125 114 436t-114 436h12z" />
    <glyph glyph-name="asterisk" unicode="*" horiz-adv-x="411" 
d="M147 749h117q-13 -12 -29 -57t-20 -86q39 18 76 46.5t44 44.5l36 -111q-16 9 -62 10t-88 -7q28 -31 66.5 -58t56.5 -30l-94 -68q4 17 -9.5 62t-34.5 82q-21 -37 -35 -81.5t-10 -62.5l-94 68q18 3 57 30t67 58q-42 8 -88.5 7t-62.5 -10l36 111q8 -16 45 -44.5t75 -46.5
q-4 41 -20 86t-29 57z" />
    <glyph glyph-name="plus" unicode="+" horiz-adv-x="399" 
d="M356 308h-143v-142h-28v142h-142v28h142v142h28v-142h143v-28z" />
    <glyph glyph-name="comma" unicode="," horiz-adv-x="219" 
d="M143 27q-18 -23 -53 -23q-29 0 -48.5 19.5t-19.5 51.5q0 34 22.5 56t57.5 22q41 0 65.5 -29t24.5 -75q0 -76 -48.5 -119t-126.5 -42v14q62 6 96 39.5t30 85.5z" />
    <glyph glyph-name="hyphen" unicode="-" horiz-adv-x="203" 
d="M30 251v51h144v-51h-144z" />
    <glyph glyph-name="period" unicode="." horiz-adv-x="219" 
d="M192 76q0 -35 -24 -59t-59 -24q-34 0 -58 24t-24 59t24 59t58 24q35 0 59 -24t24 -59z" />
    <glyph glyph-name="slash" unicode="/" horiz-adv-x="328" 
d="M0 -123l276 872h32l-276 -872h-32z" />
    <glyph glyph-name="zero" unicode="0" horiz-adv-x="539" 
d="M515 350q0 -157 -67 -258.5t-179 -101.5t-178.5 101.5t-66.5 258.5t66.5 258.5t178.5 101.5t179 -101.5t67 -258.5zM363 350q0 183 -20 261.5t-74 78.5q-53 0 -73.5 -79t-20.5 -261t20.5 -261t73.5 -79q54 0 74 78.5t20 261.5z" />
    <glyph glyph-name="one" unicode="1" horiz-adv-x="313" 
d="M307 0h-296v4q55 23 67.5 35t12.5 47v526q0 35 -13 46.5t-72 37.5v4h222v-614q0 -35 12.5 -46.5t66.5 -35.5v-4z" />
    <glyph glyph-name="two" unicode="2" horiz-adv-x="444" 
d="M201 693q-38 0 -63 -35t-25 -88q0 -45 21.5 -72t56.5 -27q24 0 38 10h2q-11 -34 -37.5 -53.5t-62.5 -19.5q-53 0 -85 35.5t-32 93.5q0 76 53 124.5t134 48.5q96 0 158.5 -51t62.5 -145q0 -96 -69.5 -181.5t-241.5 -220.5h141q76 0 108 15.5t64 75.5h3l-19 -203h-412v2
q173 195 232 308.5t59 227.5q0 155 -86 155z" />
    <glyph glyph-name="three" unicode="3" horiz-adv-x="451" 
d="M202 8q46 0 72.5 49.5t26.5 132.5q0 91 -35.5 136.5t-100.5 45.5v9q112 6 112 166q0 145 -73 145q-31 0 -50 -28t-19 -72q0 -36 13.5 -57.5t39.5 -20.5q14 0 21 3h2q-20 -48 -84 -48q-39 0 -65.5 27t-26.5 72q0 62 49 102t123 40q92 0 147.5 -45.5t55.5 -120.5
q0 -70 -44.5 -111.5t-117.5 -51.5q78 -6 133 -57.5t55 -132.5q0 -94 -66 -147.5t-167 -53.5q-83 0 -138.5 39.5t-55.5 111.5q0 49 31 78.5t74 29.5q66 0 84 -52h-2q-8 4 -22 4q-23 0 -37 -22.5t-14 -60.5q0 -50 21 -80t58 -30z" />
    <glyph glyph-name="four" unicode="4" horiz-adv-x="504" 
d="M245 221v368l-194 -368h194zM245 118v75h-239v2l276 511h99v-485h16q40 0 54.5 12.5t34.5 56.5h2v-168h-2q-20 45 -35 58t-54 13h-16v-75q0 -50 11 -74t44 -42v-2h-246v2q34 18 44.5 41.5t10.5 74.5z" />
    <glyph glyph-name="five" unicode="5" horiz-adv-x="462" 
d="M201 8q55 0 80 59t25 155q0 85 -29 134t-84 49q-32 0 -64 -21.5t-53 -50.5h-1l33 374q91 -17 178 -17q55 0 83.5 8t50.5 39h3q0 -81 -31.5 -127t-109.5 -46q-82 0 -160 30l-18 -206q52 59 141 59q88 0 143 -59.5t55 -152.5q0 -110 -67 -177.5t-171 -67.5q-80 0 -137 40
t-57 115q0 49 31.5 80t74.5 31q63 0 84 -52h-2q-9 4 -23 4q-24 0 -39 -23t-15 -63q0 -51 22 -82.5t57 -31.5z" />
    <glyph glyph-name="six" unicode="6" horiz-adv-x="497" 
d="M298 710q73 0 119.5 -37t46.5 -100q0 -40 -25.5 -66t-62.5 -26q-29 0 -54 16.5t-33 47.5h2q11 -8 27 -8q22 0 37 20t15 55q0 37 -18 58.5t-51 21.5q-70 0 -107 -92.5t-37 -221.5q0 -9 0.5 -27t0.5 -25q38 110 138 110q73 0 125.5 -55t52.5 -157q0 -105 -59.5 -169.5
t-153.5 -64.5q-108 0 -172.5 99.5t-64.5 240.5q0 96 32.5 182t96.5 142t145 56zM342 211q0 88 -21.5 140.5t-62.5 52.5q-40 0 -62.5 -54t-22.5 -139q0 -89 22 -145.5t66 -56.5q39 0 60 55.5t21 146.5z" />
    <glyph glyph-name="seven" unicode="7" horiz-adv-x="449" 
d="M108 700h338v-2l-101 -182q-104 -193 -84 -509l-141 -15q12 147 63 267.5t142 264.5l32 49h-210q-49 0 -77.5 -20t-53.5 -75h-2l20 233q22 -11 74 -11z" />
    <glyph glyph-name="eight" unicode="8" horiz-adv-x="466" 
d="M288 412q84 -41 124.5 -93t40.5 -122q0 -92 -61.5 -149.5t-157.5 -57.5t-159 48.5t-63 131.5q0 60 40.5 99.5t103.5 53.5q-50 27 -83 76.5t-33 111.5q0 89 55.5 144t137.5 55q80 0 133.5 -42.5t53.5 -112.5q0 -61 -40 -96.5t-92 -46.5zM142 577q1 -46 21.5 -75t63.5 -55
l49 -28q53 49 53 137q0 61 -25 98.5t-72 37.5q-40 0 -65 -33t-25 -82zM169 318q-62 -45 -62 -144q0 -73 35 -119t94 -46q51 0 81 34.5t30 93.5q0 46 -25.5 76.5t-82.5 63.5z" />
    <glyph glyph-name="nine" unicode="9" horiz-adv-x="497" 
d="M155 489q0 -88 21.5 -140.5t62.5 -52.5q40 0 62.5 54t22.5 139q0 89 -22 145.5t-66 56.5q-39 0 -60 -55.5t-21 -146.5zM199 -10q-73 0 -119.5 37t-46.5 100q0 40 25.5 66t62.5 26q29 0 54 -16.5t33 -47.5h-2q-11 8 -27 8q-22 0 -37 -20t-15 -55q0 -37 18 -58.5t51 -21.5
q70 0 107 92.5t37 221.5q0 9 -0.5 27t-0.5 25q-38 -110 -138 -110q-73 0 -125.5 55t-52.5 157q0 105 59.5 169.5t153.5 64.5q108 0 172.5 -99.5t64.5 -240.5q0 -96 -32.5 -182t-96.5 -142t-145 -56z" />
    <glyph glyph-name="colon" unicode=":" horiz-adv-x="219" 
d="M192 376q0 -35 -24 -59t-59 -24q-34 0 -58 24t-24 59t24 59t58 24q35 0 59 -24t24 -59zM192 76q0 -35 -24 -59t-59 -24q-34 0 -58 24t-24 59t24 59t58 24q35 0 59 -24t24 -59z" />
    <glyph glyph-name="semicolon" unicode=";" horiz-adv-x="219" 
d="M192 376q0 -35 -24 -59t-59 -24q-34 0 -58 24t-24 59t24 59t58 24q35 0 59 -24t24 -59zM143 27q-18 -23 -53 -23q-29 0 -48.5 19.5t-19.5 51.5q0 34 22.5 56t57.5 22q41 0 65.5 -29t24.5 -75q0 -76 -48.5 -119t-126.5 -42v14q62 6 96 39.5t30 85.5z" />
    <glyph glyph-name="less" unicode="&#x3c;" horiz-adv-x="271" 
d="M17 310v20l226 133v-33l-190 -110l190 -110v-33z" />
    <glyph glyph-name="equal" unicode="=" horiz-adv-x="404" 
d="M45 362v28h314v-28h-314zM45 256v28h314v-28h-314z" />
    <glyph glyph-name="greater" unicode="&#x3e;" horiz-adv-x="271" 
d="M253 330v-20l-226 -133v33l190 110l-190 110v33z" />
    <glyph glyph-name="question" unicode="?" horiz-adv-x="439" 
d="M207 691q-43 0 -68 -29t-25 -75q0 -37 17.5 -59.5t44.5 -22.5q19 0 29 9l1 -1q-9 -32 -32.5 -50t-55.5 -18q-42 0 -72 30.5t-30 79.5q0 68 54 111.5t138 43.5q97 0 155.5 -54.5t58.5 -140.5q0 -90 -59.5 -153.5t-147.5 -84.5v-57h-19v180q113 35 113 166q0 54 -26.5 89.5
t-75.5 35.5zM204 159q34 0 58 -24t24 -59t-24 -59t-58 -24q-35 0 -58.5 24t-23.5 59t23.5 59t58.5 24z" />
    <glyph glyph-name="at" unicode="@" horiz-adv-x="692" 
d="M554 457l-62 -298q-15 -79 34 -79q41 0 72.5 68.5t31.5 181.5q0 146 -72 228.5t-184 82.5q-127 0 -210.5 -119t-83.5 -295q0 -169 84 -265.5t208 -96.5q147 0 242 101l3 -5q-90 -124 -255 -124q-149 0 -247 103.5t-98 287.5q0 186 103.5 311t253.5 125q128 0 214.5 -89.5
t86.5 -244.5q0 -138 -53.5 -213.5t-123.5 -75.5q-91 0 -104 96q-38 -96 -111 -96q-50 0 -82.5 42t-32.5 111q0 109 54.5 188.5t132.5 79.5q39 0 64 -23.5t32 -58.5q17 28 46.5 50.5t56.5 26.5zM401 224l21 99q19 105 -32 105q-42 0 -75 -79t-33 -166q0 -94 48 -94
q47 0 71 135z" />
    <glyph glyph-name="A" unicode="A" horiz-adv-x="566" 
d="M226 476l-77 -229h153zM151 2v-2h-152v2q27 16 43.5 44t34.5 81l207 583h3l210 -598q18 -51 30.5 -72t39.5 -38v-2h-246v2q37 20 37 57q0 18 -12 56l-35 105h-171l-29 -85q-11 -31 -11 -56q0 -56 51 -77z" />
    <glyph glyph-name="B" unicode="B" horiz-adv-x="532" 
d="M258 0h-246v2q30 17 39.5 40.5t9.5 75.5v464q0 52 -9.5 75.5t-39.5 40.5v2h231q107 0 171.5 -44t64.5 -133q0 -69 -50.5 -112t-124.5 -49q52 -3 97.5 -21t78.5 -58.5t33 -96.5q0 -97 -68.5 -141.5t-186.5 -44.5zM203 369h19q57 0 89.5 40t32.5 113t-32.5 114t-89.5 41
h-19v-308zM203 23h31q65 0 101.5 42t36.5 121q0 77 -36.5 119t-101.5 42h-31v-324z" />
    <glyph glyph-name="C" unicode="C" horiz-adv-x="491" 
d="M455 710l8 -246h-4q-28 100 -67 162t-86 62q-63 0 -95.5 -88t-32.5 -229q0 -143 41 -224t110 -81q97 0 138 140l6 -2q-12 -98 -66.5 -156t-134.5 -58q-110 0 -180 97t-70 254q0 161 78.5 265t192.5 104q29 0 65 -14t49 -14q28 0 48 28z" />
    <glyph glyph-name="D" unicode="D" horiz-adv-x="571" 
d="M12 0v2q30 17 39.5 40.5t9.5 75.5v464q0 52 -9.5 75.5t-39.5 40.5v2h205q146 0 239 -89t93 -256q0 -172 -91.5 -263.5t-228.5 -91.5h-217zM203 24h20q172 0 172 331q0 157 -47 239t-132 82h-13v-652z" />
    <glyph glyph-name="E" unicode="E" horiz-adv-x="482" 
d="M12 700h351q43 0 60 8l24 -186h-2q-42 82 -87.5 118.5t-127.5 36.5h-27v-305h15q61 0 88 22t52 91h2v-238h-2q-24 67 -50.5 85t-89.5 18h-15v-327h32q84 0 133.5 41.5t90.5 132.5h2l-22 -197h-427v2q30 17 39.5 40.5t9.5 75.5v464q0 52 -9.5 75.5t-39.5 40.5v2z" />
    <glyph glyph-name="F" unicode="F" horiz-adv-x="457" 
d="M203 338v-222q0 -50 12.5 -72.5t53.5 -41.5v-2h-257v2q30 17 39.5 40.5t9.5 75.5v464q0 52 -9.5 75.5t-39.5 40.5v2h351q42 0 59 8l23 -202h-2q-40 89 -86 130t-128 41h-26v-317h15q61 0 88 22t52 91h2v-238h-2q-24 67 -50.5 85t-89.5 18h-15z" />
    <glyph glyph-name="G" unicode="G" horiz-adv-x="544" 
d="M305 688q-64 0 -96.5 -91t-32.5 -255q0 -323 111 -323q37 0 60.5 36.5t23.5 100.5v53q0 49 -11 74.5t-41 43.5v2h217v-2q-22 -17 -28 -40.5t-6 -75.5v-221h-2l-84 97q-18 -45 -59.5 -71t-95.5 -26q-104 0 -172 98.5t-68 250.5q0 166 82 268.5t192 102.5q31 0 71 -14
t52 -14q29 0 50 28l8 -246h-4q-29 98 -72.5 161t-94.5 63z" />
    <glyph glyph-name="H" unicode="H" horiz-adv-x="592" 
d="M61 118v464q0 52 -9.5 75.5t-39.5 40.5v2h240v-2q-30 -17 -39.5 -40.5t-9.5 -75.5v-209h186v209q0 52 -9 75.5t-40 40.5v2h240v-2q-30 -17 -39.5 -40.5t-9.5 -75.5v-464q0 -52 9.5 -75.5t39.5 -40.5v-2h-240v2q31 17 40 40.5t9 75.5v227h-186v-227q0 -52 9.5 -75.5
t39.5 -40.5v-2h-240v2q30 17 39.5 40.5t9.5 75.5z" />
    <glyph glyph-name="I" unicode="I" horiz-adv-x="264" 
d="M203 118q0 -52 9.5 -75.5t39.5 -40.5v-2h-240v2q30 17 39.5 40.5t9.5 75.5v464q0 52 -9.5 75.5t-39.5 40.5v2h240v-2q-30 -17 -39.5 -40.5t-9.5 -75.5v-464z" />
    <glyph glyph-name="J" unicode="J" horiz-adv-x="475" 
d="M280 152v430q0 52 -9.5 75.5t-39.5 40.5v2h241v-2q-30 -17 -39.5 -40.5t-10.5 -75.5v-383q0 -105 -65.5 -157t-160.5 -52q-80 0 -135 39t-55 109q0 48 31.5 77t76.5 29q60 0 86 -41q-26 -2 -46 -26.5t-20 -65.5q0 -44 17.5 -73t50.5 -29q78 0 78 143z" />
    <glyph glyph-name="K" unicode="K" horiz-adv-x="582" 
d="M252 0h-240v2q30 17 39.5 40.5t9.5 75.5v464q0 52 -9.5 75.5t-39.5 40.5v2h240v-2q-30 -17 -39.5 -40.5t-9.5 -75.5v-265l196 282q18 24 18 46q0 34 -42 53v2h198v-2q-92 -28 -150 -110l-94 -142l171 -335q24 -45 43.5 -70t47.5 -39v-2h-242v2q19 18 19 42t-17 60
l-115 221l-33 -48v-159q0 -52 9.5 -75.5t39.5 -40.5v-2z" />
    <glyph glyph-name="L" unicode="L" horiz-adv-x="463" 
d="M12 700h240v-2q-30 -17 -39.5 -40.5t-9.5 -75.5v-559h36q76 0 122 45t92 154h2l-19 -222h-424v2q30 17 39.5 40.5t9.5 75.5v464q0 52 -9.5 75.5t-39.5 40.5v2z" />
    <glyph glyph-name="M" unicode="M" horiz-adv-x="658" 
d="M91 154q0 -68 16.5 -101t53.5 -51v-2h-164v2q64 35 64 133v447q0 52 -9.5 75.5t-39.5 40.5v2h203l121 -428l114 428h197v-2q-31 -17 -40.5 -40.5t-9.5 -75.5v-462q0 -49 12 -74.5t44 -43.5v-2h-251v2q31 18 43 43t12 75v504l-175 -635h-4l-187 635v-470z" />
    <glyph glyph-name="N" unicode="N" horiz-adv-x="530" 
d="M536 698q-65 -36 -65 -133v-571h-43l-337 625v-465q0 -68 16.5 -101t53.5 -51v-2h-164v2q64 35 64 133v447q0 52 -9.5 75.5t-39.5 40.5v2h201l228 -430v276q0 68 -16 101t-53 51v2h164v-2z" />
    <glyph glyph-name="O" unicode="O" horiz-adv-x="572" 
d="M550 350q0 -157 -75.5 -258.5t-188.5 -101.5q-114 0 -189 101.5t-75 258.5t75 258.5t189 101.5q113 0 188.5 -101.5t75.5 -258.5zM391 350q0 339 -105 339t-105 -339t105 -339t105 339z" />
    <glyph glyph-name="P" unicode="P" horiz-adv-x="523" 
d="M266 283h-64v-167q0 -50 13 -72.5t54 -41.5v-2h-257v2q30 17 39.5 40.5t9.5 75.5v464q0 52 -9.5 75.5t-39.5 40.5v2h253q110 0 178 -55t68 -154q0 -98 -68 -153t-177 -55zM202 307h29q68 0 102.5 50.5t34.5 133.5q0 84 -34.5 134.5t-102.5 50.5h-29v-369z" />
    <glyph glyph-name="Q" unicode="Q" horiz-adv-x="572" 
d="M473 -92q-39 0 -64 25.5t-45 70.5q-36 -15 -78 -15q-114 0 -189 101.5t-75 258.5t75 258.5t189 101.5q113 0 188.5 -101.5t75.5 -258.5q0 -99 -31.5 -178.5t-87.5 -126.5q33 -38 71 -38q44 0 54 43h3q13 -63 -11.5 -102t-74.5 -39zM181 349q0 -175 26 -257q-2 35 19.5 59
t55.5 24q50 0 92 -49q17 81 17 223q0 339 -105 339t-105 -339zM286 10q36 0 60 38q-14 33 -22 49.5t-23.5 31.5t-34.5 15q-26 0 -40.5 -23.5t-5.5 -61.5q24 -49 66 -49z" />
    <glyph glyph-name="R" unicode="R" horiz-adv-x="556" 
d="M203 675v-324h24q65 0 102.5 41t37.5 123q0 77 -37 118.5t-103 41.5h-24zM12 700h252q114 0 183 -45t69 -141q0 -84 -63 -128.5t-153 -46.5q154 -11 175 -133l14 -81q9 -53 27.5 -78.5t61.5 -44.5v-2h-194q-26 39 -37 108l-15 109q-8 53 -33 81.5t-75 28.5h-21v-209
q0 -52 9.5 -75.5t39.5 -40.5v-2h-240v2q30 17 39.5 40.5t9.5 75.5v464q0 52 -9.5 75.5t-39.5 40.5v2z" />
    <glyph glyph-name="S" unicode="S" horiz-adv-x="458" 
d="M235 689q-43 0 -72 -32.5t-29 -80.5q0 -29 10 -52t32 -42t39.5 -30t51.5 -29q43 -24 64 -37.5t51.5 -41.5t44 -63.5t13.5 -82.5q0 -94 -63 -151t-150 -57q-38 0 -83.5 14t-58.5 14q-27 0 -53 -28l-13 248h2q38 -103 92 -165t110 -62q51 0 80.5 32.5t29.5 89.5
q0 30 -10.5 53.5t-33.5 44t-41.5 32.5t-52.5 32q-3 2 -5 3t-4.5 2.5t-4.5 2.5q-36 20 -58.5 36t-48 41t-38 57t-12.5 72q0 90 59 145.5t147 55.5q34 0 73.5 -12.5t52.5 -12.5q26 0 44 25l10 -218h-2q-35 95 -73 146t-100 51z" />
    <glyph glyph-name="T" unicode="T" horiz-adv-x="575" 
d="M89 700h397q43 0 60 8l17 -240h-2q-25 61 -42 95.5t-39.5 63.5t-49 40.5t-62.5 11.5h-10v-566q0 -49 12 -70.5t48 -40.5v-2h-261v2q35 19 47.5 41t12.5 70v566h-9q-70 0 -107.5 -45t-86.5 -166h-2l18 240q16 -8 59 -8z" />
    <glyph glyph-name="U" unicode="U" horiz-adv-x="531" 
d="M479 565v-354q0 -100 -55 -160.5t-154 -60.5q-103 0 -160.5 58.5t-57.5 164.5v369q-1 52 -10 75.5t-39 40.5v2h240v-2q-30 -17 -39.5 -40.5t-10.5 -75.5v-363q0 -170 127 -170q60 0 94.5 44.5t34.5 121.5v331q0 68 -16.5 101t-53.5 51v2h164v-2q-64 -34 -64 -133z" />
    <glyph glyph-name="V" unicode="V" horiz-adv-x="566" 
d="M452 561q11 31 11 58q0 58 -50 79v2h154v-2q-27 -16 -44.5 -46t-35.5 -83l-200 -579h-3l-215 598q-20 53 -32 73t-38 37v2h245v-2q-36 -20 -36 -57q0 -18 12 -56l121 -363z" />
    <glyph glyph-name="W" unicode="W" horiz-adv-x="760" 
d="M507 -10l-125 452l-127 -452h-4l-187 598q-15 50 -27 72t-38 38v2h233v-2q-34 -18 -34 -54q0 -20 12 -59l95 -326l63 233l-26 96q-13 48 -25.5 71t-39.5 39v2h231v-2q-38 -19 -38 -57q0 -19 10 -56l80 -331l90 317q8 27 8 50q0 56 -54 77v2h156v-2q-52 -30 -80 -129
l-169 -579h-4z" />
    <glyph glyph-name="X" unicode="X" horiz-adv-x="563" 
d="M163 2v-2h-164v2q66 31 110 112l113 221l-122 253q-41 86 -83 110v2h234v-2q-22 -18 -22 -43q0 -21 18 -59l76 -156l69 138q18 38 18 61q0 37 -35 59v2h161v-2q-65 -29 -108 -112l-91 -176l145 -298q23 -47 40.5 -72t41.5 -38v-2h-234v2q22 17 22 43q0 21 -18 59l-98 202
l-91 -184q-17 -37 -17 -60q0 -37 35 -60z" />
    <glyph glyph-name="Y" unicode="Y" horiz-adv-x="550" 
d="M329 338l109 242q13 26 13 51q0 44 -48 67v2h148v-2q-43 -31 -75 -103l-134 -302v-180q0 -49 11.5 -70.5t46.5 -40.5v-2h-253v2q35 19 46.5 40.5t11.5 70.5v180l-135 302q-16 38 -31 60t-40 43v2h243v-2q-35 -23 -35 -52q0 -18 13 -50z" />
    <glyph glyph-name="Z" unicode="Z" horiz-adv-x="505" 
d="M460 0h-450v2l306 676h-72q-79 0 -122 -43t-89 -139h-2l19 212q17 -8 59 -8h369v-2l-305 -676h75q87 0 133.5 43t95.5 157h2z" />
    <glyph glyph-name="bracketleft" unicode="[" horiz-adv-x="277" 
d="M62 -123v872h194v-3l-79 -35v-795l79 -36v-3h-194z" />
    <glyph glyph-name="backslash" unicode="\" horiz-adv-x="328" 
d="M52 749l276 -872h-32l-276 872h32z" />
    <glyph glyph-name="bracketright" unicode="]" horiz-adv-x="277" 
d="M215 749v-872h-194v3l79 36v795l-79 35v3h194z" />
    <glyph glyph-name="asciicircum" unicode="^" horiz-adv-x="336" 
d="M166 710h4l134 -298h-42l-94 213l-93 -213h-43z" />
    <glyph glyph-name="underscore" unicode="_" horiz-adv-x="245" 
d="M30 -108v51h186v-51h-186z" />
    <glyph glyph-name="grave" unicode="`" 
d="M287 732q0 -122 32 -191h-4q-62 39 -98 84t-52 107h122z" />
    <glyph glyph-name="a" unicode="a" horiz-adv-x="429" 
d="M442 45v-3q-25 -50 -92 -50q-40 0 -64.5 21t-30.5 61l-2 17q-9 -45 -40.5 -71.5t-78.5 -26.5q-49 0 -81.5 31t-32.5 87q0 29 11 53t27 39.5t42 29t48.5 21t55.5 16.5l47 13v126q0 74 -53 74q-23 0 -36.5 -18.5t-13.5 -48.5q0 -61 39 -61q7 0 13 3q-7 -24 -27.5 -38
t-48.5 -14q-36 0 -58 20.5t-22 57.5q0 54 46 86t115 32q86 0 132 -35t46 -117q0 -41 -1 -128.5t-1 -127.5q0 -57 39 -57q12 0 22 8zM251 264l-23 -8q-82 -27 -82 -120q0 -37 12.5 -58.5t35.5 -21.5q26 0 41 25t16 72v111z" />
    <glyph glyph-name="b" unicode="b" horiz-adv-x="479" 
d="M281 -10q-46 0 -80.5 26t-50.5 78q-13 -39 -46 -67.5t-66 -35.5q9 60 9 222v426q0 51 -8 71t-34 37v2h173v-365q11 57 44 87.5t82 30.5q68 0 113 -68.5t45 -185.5q0 -114 -52 -186t-129 -72zM322 247q0 95 -18 147.5t-53 52.5q-29 0 -51 -39t-22 -106v-131
q0 -72 21 -110.5t50 -38.5q36 0 54.5 59.5t18.5 165.5z" />
    <glyph glyph-name="c" unicode="c" horiz-adv-x="389" 
d="M238 484q-39 0 -64 -57t-25 -152q0 -99 28.5 -155.5t85.5 -56.5q80 0 104 102l6 -2q-8 -85 -51 -129t-116 -44q-81 0 -135.5 67.5t-54.5 181.5q0 113 65.5 188t152.5 75q62 0 99.5 -30t37.5 -82q0 -37 -22.5 -58.5t-54.5 -21.5q-28 0 -46.5 13t-22.5 34q4 -1 15 -1
q21 0 33 17.5t12 46.5q0 64 -47 64z" />
    <glyph glyph-name="d" unicode="d" horiz-adv-x="479" 
d="M226 45q30 0 52 39t22 107v112q0 72 -22 113t-51 41q-71 0 -71 -213q0 -199 70 -199zM300 395v244q0 50 -8.5 70.5t-33.5 37.5v2h172v-640q0 -51 7 -71.5t31 -35.5v-2h-168v108q-12 -57 -44.5 -87.5t-81.5 -30.5q-67 0 -112.5 68.5t-45.5 184.5t47.5 187.5t117.5 71.5
q96 0 119 -107z" />
    <glyph glyph-name="e" unicode="e" horiz-adv-x="406" 
d="M217 502q85 0 129 -64.5t44 -170.5h-239q0 -97 30 -152t87 -55q81 0 113 110l6 -1q-11 -85 -54.5 -132t-118.5 -47q-84 0 -141 69t-57 186q0 112 59.5 184.5t141.5 72.5zM152 289h115q0 97 -9.5 145.5t-41.5 48.5q-28 0 -45 -53.5t-19 -140.5z" />
    <glyph glyph-name="f" unicode="f" horiz-adv-x="255" 
d="M51 100v366h-53v9l53 22v54q0 97 54 150t136 53q53 0 87.5 -23.5t34.5 -68.5q0 -34 -20 -54.5t-52 -20.5q-43 0 -60 32q44 10 44 67q0 52 -38 52q-55 0 -55 -111v-135h77l-5 -26h-72v-367q0 -48 9 -64.5t38 -32.5v-2h-215v2q24 16 30.5 33.5t6.5 64.5z" />
    <glyph glyph-name="g" unicode="g" horiz-adv-x="443" 
d="M216 484q-52 0 -52 -145t52 -145q53 0 53 145t-53 145zM443 -40q0 -90 -69.5 -140.5t-170.5 -50.5q-50 0 -93 10.5t-74.5 38t-31.5 67.5q0 38 30 64t82 31q-40 7 -67 34t-27 71q0 40 28 71t66 44q-80 43 -80 139q0 71 48 117t132 46q55 0 96 -22q7 46 30 74t54 28
q32 0 48.5 -18t16.5 -44q0 -43 -52 -68l-1 2q3 10 3 20q0 17 -10 28t-27 11q-33 0 -48 -41q70 -43 70 -133q0 -71 -48 -116.5t-132 -45.5q-48 0 -86 16q-40 -17 -40 -49q0 -41 54 -41h136q79 0 121 -37.5t42 -105.5zM211 -213q61 0 102 30t41 80q0 42 -24 61t-78 19h-83
q-38 0 -61 -22t-23 -64q0 -50 35 -77t91 -27z" />
    <glyph glyph-name="h" unicode="h" horiz-adv-x="472" 
d="M6 749h174v-361q14 55 48 84.5t81 29.5q56 0 86.5 -36t30.5 -99v-264q0 -50 6.5 -67.5t30.5 -33.5v-2h-205v2q24 16 30.5 33.5t6.5 67.5v262q0 66 -50 66q-28 0 -46.5 -28.5t-18.5 -85.5v-214q0 -49 6.5 -67t29.5 -34v-2h-204v2q23 16 29.5 34t6.5 67v536q0 51 -8 71
t-34 37v2z" />
    <glyph glyph-name="i" unicode="i" horiz-adv-x="231" 
d="M38 645q0 32 22.5 55t55.5 23t56 -23t23 -55q0 -33 -23 -56t-56 -23t-55.5 23t-22.5 56zM182 492v-389q0 -50 6.5 -67.5t30.5 -33.5v-2h-205v2q24 16 30.5 33.5t6.5 67.5v278q0 51 -8.5 72t-33.5 37v2h173z" />
    <glyph glyph-name="j" unicode="j" horiz-adv-x="227" 
d="M38 645q0 32 22.5 55t55.5 23t56 -23t23 -55q0 -33 -23 -56t-56 -23t-55.5 23t-22.5 56zM6 -231q-57 0 -93 24.5t-36 71.5q0 33 21.5 54.5t52.5 21.5q19 0 36 -9.5t24 -23.5q-45 -11 -45 -66q0 -26 11 -41.5t30 -15.5q44 0 44 103v493q0 51 -8.5 72t-33.5 37v2h173v-529
q0 -95 -48.5 -144.5t-127.5 -49.5z" />
    <glyph glyph-name="k" unicode="k" horiz-adv-x="473" 
d="M180 280h23q33 0 54 29l65 90q18 24 18 44q0 33 -33 47v2h169v-2q-75 -22 -118 -82l-51 -76l97 -223q31 -71 82 -107v-2h-185q-1 29 -18 71l-71 165q-9 23 -25 23h-7v-156q0 -49 6.5 -67t29.5 -34v-2h-204v2q23 16 29.5 34t6.5 67v536q0 51 -8 71t-34 37v2h174v-469z" />
    <glyph glyph-name="l" unicode="l" horiz-adv-x="229" 
d="M180 749v-646q0 -49 6.5 -67t29.5 -34v-2h-204v2q23 16 29.5 34t6.5 67v536q0 51 -8 71t-34 37v2h174z" />
    <glyph glyph-name="m" unicode="m" horiz-adv-x="705" 
d="M420 390q14 54 47 83t78 29q56 0 85 -35.5t29 -99.5v-264q0 -50 6.5 -67.5t30.5 -33.5v-2h-205v2q24 16 30.5 33.5t6.5 67.5v262q0 32 -10 49t-37 17q-26 0 -43 -28.5t-17 -85.5v-214q0 -50 6 -67.5t30 -33.5v-2h-204v2q24 16 30 33.5t6 67.5v262q0 66 -45 66
q-26 0 -44 -29t-18 -85v-214q0 -50 6.5 -67.5t30.5 -33.5v-2h-205v2q24 16 30.5 33.5t6.5 67.5v278q0 51 -8.5 72t-33.5 37v2h173v-103q14 54 47 83.5t78 29.5q49 0 78 -29t35 -83z" />
    <glyph glyph-name="n" unicode="n" horiz-adv-x="475" 
d="M9 492h173v-104q14 54 48.5 84t81.5 30q56 0 86 -35.5t30 -99.5v-264q0 -49 7 -67t31 -34v-2h-206v2q24 16 30.5 33.5t6.5 67.5v262q0 66 -50 66q-28 0 -46.5 -28.5t-18.5 -85.5v-214q0 -50 6.5 -67.5t30.5 -33.5v-2h-205v2q24 16 30.5 33.5t6.5 67.5v278q0 51 -8.5 72
t-33.5 37v2z" />
    <glyph glyph-name="o" unicode="o" horiz-adv-x="444" 
d="M222 -10q-87 0 -146.5 72t-59.5 184t59.5 184t146.5 72q88 0 147 -72t59 -184t-59 -184t-147 -72zM222 8q67 0 67 238q0 237 -67 237t-67 -237q0 -238 67 -238z" />
    <glyph glyph-name="p" unicode="p" horiz-adv-x="481" 
d="M253 447q-29 0 -51 -39t-22 -106v-113q0 -73 21.5 -114t51.5 -41q71 0 71 213q0 200 -71 200zM180 97v-216q0 -49 9.5 -67.5t38.5 -32.5v-2h-216v2q24 15 30.5 32.5t6.5 67.5v500q0 51 -8.5 72t-33.5 37v2h173v-108q11 57 44 87.5t82 30.5q68 0 113 -68.5t45 -185.5
q0 -116 -47.5 -187t-116.5 -71q-98 0 -120 107z" />
    <glyph glyph-name="q" unicode="q" horiz-adv-x="473" 
d="M430 278v-398q0 -49 6.5 -66.5t31.5 -32.5v-2h-215v2q28 14 37.5 33t9.5 67v227q-12 -57 -44.5 -87.5t-81.5 -30.5q-67 0 -112.5 68.5t-45.5 184.5q0 115 52 187t129 72q45 0 79.5 -26.5t50.5 -77.5q27 75 111 102h2q-10 -67 -10 -222zM300 191v130q0 72 -21.5 110.5
t-50.5 38.5q-35 0 -53.5 -60t-18.5 -166q0 -199 70 -199q30 0 52 39t22 107z" />
    <glyph glyph-name="r" unicode="r" horiz-adv-x="388" 
d="M268 331q28 10 28 44q0 45 -44 45q-29 0 -49.5 -37.5t-20.5 -98.5v-184q0 -47 9.5 -64.5t37.5 -33.5v-2h-215v2q24 16 30.5 33.5t6.5 67.5v278q0 51 -8.5 72t-33.5 37v2h173v-126q12 59 41.5 97t72.5 38q39 0 63 -25t24 -64q0 -41 -23 -66t-58 -25q-26 0 -34 10z" />
    <glyph glyph-name="s" unicode="s" horiz-adv-x="364" 
d="M172 483q-27 0 -43.5 -18t-16.5 -47q0 -32 19 -52.5t73 -44.5q73 -33 106.5 -72.5t33.5 -99.5q0 -73 -46 -116t-114 -43q-31 0 -65 11t-45 11q-23 0 -43 -22l-9 192h3q31 -80 72 -127t84 -47q32 0 50 21t18 55q0 37 -19.5 56.5t-68.5 43.5q-73 33 -104.5 69.5t-31.5 98.5
q0 66 42.5 108t101.5 42q28 0 59.5 -12t43.5 -12q19 0 43 24v-168h-3q-58 149 -140 149z" />
    <glyph glyph-name="t" unicode="t" horiz-adv-x="301" 
d="M282 160l9 -1q-12 -169 -128 -169q-119 0 -119 152l1 324h-43v10q59 16 102.5 65t61.5 123h9v-172h105l-5 -26h-100v-328q0 -80 44 -80q51 0 63 102z" />
    <glyph glyph-name="u" unicode="u" horiz-adv-x="469" 
d="M288 176v205q0 51 -8.5 72t-33.5 37v2h173v-383q0 -51 7 -71.5t30 -35.5v-2h-168v103q-14 -55 -47 -84t-80 -29q-54 0 -84.5 36t-30.5 99v256q0 51 -8 72t-34 37v2h173v-364q0 -66 48 -66q28 0 45.5 28.5t17.5 85.5z" />
    <glyph glyph-name="v" unicode="v" horiz-adv-x="411" 
d="M256 183l70 194q10 24 10 48q0 48 -47 65v2h132v-2q-22 -19 -33 -39t-30 -70l-149 -391h-2l-156 394q-21 51 -30.5 68.5t-30.5 37.5v2h214v-2q-33 -18 -33 -49q0 -20 13 -54z" />
    <glyph glyph-name="w" unicode="w" horiz-adv-x="586" 
d="M399 -10l-99 314l-108 -314h-2l-140 394q-16 47 -27 65.5t-33 40.5v2h202v-2q-25 -15 -25 -45q0 -21 13 -58l60 -188l47 148l-12 37q-16 47 -26.5 65.5t-32.5 40.5v2h200v-2q-30 -16 -30 -50q0 -20 10 -53l53 -182l54 172q8 27 8 47q0 49 -45 66v2h130v-2
q-22 -20 -34.5 -41t-28.5 -68l-132 -391h-2z" />
    <glyph glyph-name="x" unicode="x" horiz-adv-x="436" 
d="M134 2v-2h-132v2q55 34 102 117l63 111l-69 143q-22 46 -38.5 70t-43.5 47v2h198v-2q-12 -14 -12 -29q0 -23 27 -79l29 -60l31 60q19 38 19 64q0 30 -23 44v2h131v-2q-61 -36 -102 -118l-43 -78l84 -175q22 -48 38.5 -72t43.5 -45v-2h-197v2q11 13 11 29q0 24 -26 78
l-45 93l-50 -93q-23 -42 -23 -62q0 -26 27 -45z" />
    <glyph glyph-name="y" unicode="y" horiz-adv-x="411" 
d="M176 -89l23 68l-148 405q-18 48 -28.5 66.5t-32.5 39.5v2h213v-2q-32 -17 -32 -48q0 -19 12 -55l75 -233l69 223q8 27 8 48q0 48 -45 65v2h131v-2q-23 -20 -35.5 -40.5t-27.5 -68.5l-160 -490q-20 -59 -46 -91t-70 -32q-34 0 -58 22.5t-24 59.5q0 35 23 55.5t52 20.5
q17 0 28 -8q-25 -13 -25 -44q0 -18 10 -28.5t25 -10.5q22 0 36 17.5t27 58.5z" />
    <glyph glyph-name="z" unicode="z" horiz-adv-x="397" 
d="M233 473h-43q-48 0 -86 -37t-77 -119h-2l14 183q22 -8 60 -8h276v-2l-218 -471h39q60 0 100 41t79 137h2l-19 -197h-346v2z" />
    <glyph glyph-name="braceleft" unicode="{" horiz-adv-x="307" 
d="M14 310v6q90 3 90 145q0 20 -6.5 65.5t-6.5 72.5q0 68 43 109t117 41q26 0 45 -4v-4q-90 0 -90 -136q0 -25 6.5 -76.5t6.5 -73.5q0 -37 -15 -65.5t-39 -43.5t-46 -23t-42 -10q20 -2 42 -10t46 -23t39 -43.5t15 -65.5q0 -22 -6.5 -73.5t-6.5 -76.5q0 -136 90 -136v-4
q-19 -4 -45 -4q-74 0 -117 41t-43 109q0 27 6.5 72.5t6.5 65.5q0 142 -90 145z" />
    <glyph glyph-name="bar" unicode="|" horiz-adv-x="196" 
d="M84 -123v872h28v-872h-28z" />
    <glyph glyph-name="braceright" unicode="}" horiz-adv-x="307" 
d="M293 316v-6q-90 -3 -90 -145q0 -20 6.5 -65.5t6.5 -72.5q0 -68 -43 -109t-117 -41q-26 0 -45 4v4q90 0 90 136q0 25 -6.5 76.5t-6.5 73.5q0 37 15 65.5t39 43.5t46 23t42 10q-20 2 -42 10t-46 23t-39 43.5t-15 65.5q0 22 6.5 73.5t6.5 76.5q0 136 -90 136v4q19 4 45 4
q74 0 117 -41t43 -109q0 -27 -6.5 -72.5t-6.5 -65.5q0 -142 90 -145z" />
    <glyph glyph-name="asciitilde" unicode="~" horiz-adv-x="383" 
d="M29 243h-3q9 70 37 109t68 39q28 0 74 -24.5t69 -24.5q55 0 80 56h3q-9 -70 -37 -109t-68 -39q-28 0 -74 24.5t-69 24.5q-55 0 -80 -56z" />
    <glyph glyph-name="uni00A0" unicode="&#xa0;" horiz-adv-x="156" 
 />
    <glyph glyph-name="exclamdown" unicode="&#xa1;" horiz-adv-x="255" 
d="M127 558q34 0 58 -24t24 -59t-24 -59t-58 -24t-58 24t-24 59t24 59t58 24zM217 -149h-180l88 475h5z" />
    <glyph glyph-name="cent" unicode="&#xa2;" horiz-adv-x="396" 
d="M144 273q0 -143 63 -191l25 399q-41 -11 -64.5 -66.5t-23.5 -141.5zM214 -114h-19l6 104q-77 2 -129 68t-52 172q0 116 62 191.5t151 80.5l6 94h19l-6 -94q55 -2 90 -29.5t35 -71.5q0 -32 -18 -49.5t-45 -17.5q-20 0 -36 11t-20 29q10 -2 13 -2q18 0 28.5 14t10.5 38
q0 27 -16 43.5t-42 16.5h-1l-25 -412q18 -8 38 -8q79 0 103 101l7 -1q-8 -80 -47.5 -124.5t-106.5 -49.5z" />
    <glyph glyph-name="sterling" unicode="&#xa3;" horiz-adv-x="534" 
d="M388 -19q-16 0 -31 2.5t-26.5 4.5t-26.5 9.5t-22 10t-23 13.5t-19 13t-20.5 15t-18.5 14q-50 -72 -121 -72q-33 0 -53 18t-20 48q0 32 23 52t58 20q25 0 69 -11q3 20 3 42q0 68 -25 180h-80v20h75q-19 86 -19 134q0 99 64.5 157.5t171.5 58.5q71 0 114.5 -30.5
t43.5 -84.5q0 -40 -25 -63.5t-60 -23.5q-55 0 -79 40q31 -1 50.5 19t19.5 61q0 31 -15.5 48.5t-43.5 17.5q-42 0 -63.5 -38.5t-21.5 -100.5v-195h130v-20h-130v-14q0 -134 -45 -226q71 -20 126 -20q108 0 108 85q0 25 -13 43q77 -28 77 -107q0 -57 -37.5 -88.5t-94.5 -31.5z
M75 13q58 0 78 81q-32 16 -64 16q-27 0 -43 -14.5t-16 -38.5q0 -21 12.5 -32.5t32.5 -11.5z" />
    <glyph glyph-name="yen" unicode="&#xa5;" horiz-adv-x="551" 
d="M402 2v-2h-255v2q35 19 46.5 40.5t11.5 70.5v143h-128v21h128v16l-21 47h-107v21h98l-105 234q-17 38 -31.5 60.5t-39.5 42.5v2h245v-2q-34 -24 -34 -53q0 -21 12 -49l108 -260l110 244q14 28 14 51q0 44 -50 67v2h148v-2q-41 -32 -75 -103l-104 -234h98v-21h-107
l-21 -47v-16h128v-21h-128v-143q0 -49 12 -70.5t47 -40.5z" />
    <glyph glyph-name="section" unicode="&#xa7;" horiz-adv-x="458" 
d="M138 273l154 -147q41 -41 62 -73q15 26 15 64q0 48 -49 94l-154 147q-39 37 -62 73q-15 -28 -15 -64q0 -48 49 -94zM219 -226q-67 0 -108.5 27.5t-41.5 75.5q0 33 19 52t49 19q37 0 57 -24q-41 -11 -41 -62q0 -34 18 -53t49 -19q34 0 55.5 26.5t21.5 69.5q0 42 -17.5 70
t-63.5 73l-108 103q-46 44 -66 79t-20 80t23 85t53 66q-26 47 -26 97q0 72 49 121.5t118 49.5q66 0 108 -28t42 -76q0 -33 -19 -51.5t-49 -18.5q-37 0 -57 24q41 11 41 62q0 33 -18 52.5t-49 19.5q-35 0 -56 -27t-21 -70q0 -42 17.5 -69.5t63.5 -72.5l108 -104
q46 -44 66 -78t20 -80q0 -45 -23 -85t-53 -66q26 -47 26 -97q0 -72 -49 -121.5t-118 -49.5z" />
    <glyph glyph-name="dieresis" unicode="&#xa8;" 
d="M171 565q-28 0 -48 20.5t-20 47.5q0 28 20 49t48 21q29 0 49 -21t20 -49q0 -27 -20 -47.5t-49 -20.5zM328 565q-29 0 -49 20.5t-20 47.5q0 28 20 49t49 21q28 0 48.5 -21t20.5 -49q0 -27 -20.5 -47.5t-48.5 -20.5z" />
    <glyph glyph-name="copyright" unicode="&#xa9;" horiz-adv-x="603" 
d="M577 350q0 -155 -80 -257.5t-195 -102.5t-195.5 102.5t-80.5 257.5t80.5 257.5t195.5 102.5t195 -102.5t80 -257.5zM558 350q0 146 -74 243t-182 97q-109 0 -182.5 -97t-73.5 -243t73.5 -243t182.5 -97q108 0 182 97t74 243zM332 550q-36 0 -55 -51.5t-19 -133.5
q0 -85 24.5 -134t66.5 -49q59 0 84 79l4 -1q-7 -59 -42.5 -94.5t-86.5 -35.5q-70 0 -114.5 58t-44.5 152q0 99 50.5 162t124.5 63q19 0 41.5 -8t30.5 -8q17 0 30 16l4 -150h-3q-42 135 -95 135z" />
    <glyph glyph-name="ordfeminine" unicode="&#xaa;" horiz-adv-x="325" 
d="M316 418v-3q-21 -33 -65 -33q-27 0 -44.5 14t-20.5 39q-1 1 -1 12q-6 -30 -28 -47.5t-54 -17.5q-33 0 -55.5 20t-22.5 57q0 24 10 42t30.5 29.5t37.5 17.5t45 13l35 9v71q0 24 -10 39t-28 15q-14 0 -23 -11t-9 -30q0 -39 25 -39q3 0 9 2q-12 -34 -55 -34q-22 0 -37 14
t-15 37q0 35 31 55.5t78 20.5q126 0 126 -103q0 -24 -0.5 -71.5t-0.5 -71.5q0 -49 29 -49q7 0 13 3zM183 556l-20 -5q-47 -16 -47 -76q0 -48 30 -48q16 0 26.5 15.5t10.5 42.5v71zM46 311v22h240v-22h-240z" />
    <glyph glyph-name="guillemotleft" unicode="&#xab;" horiz-adv-x="376" 
d="M15 243v2q119 72 189 192h6q-29 -127 -75 -193q46 -66 75 -193h-6q-70 120 -189 192zM166 243v2q120 72 188 192h7q-29 -127 -75 -193q46 -66 75 -193h-7q-68 120 -188 192z" />
    <glyph glyph-name="registered" unicode="&#xae;" horiz-adv-x="411" 
d="M382 514q0 -84 -51 -139.5t-125 -55.5t-125.5 55.5t-51.5 139.5q0 85 51.5 140.5t125.5 55.5t125 -56t51 -140zM366 514q0 79 -46 130t-114 51t-114.5 -51t-46.5 -130q0 -78 46.5 -129t114.5 -51t114 51t46 129zM180 616v-97h13q47 0 47 47q0 50 -47 50h-13zM109 627h104
q82 0 82 -60q0 -27 -21 -41t-51 -14q47 -3 58 -42l6 -26q4 -17 10 -23.5t19 -12.5v-4h-68q-10 12 -15 35l-8 35q-9 35 -37 35h-8v-65q0 -16 3 -23t14 -13v-4h-88v4q11 6 14.5 13t3.5 23v143q0 16 -3.5 23t-14.5 13v4z" />
    <glyph glyph-name="macron" unicode="&#xaf;" 
d="M379 585h-250v37h250v-37z" />
    <glyph glyph-name="degree" unicode="&#xb0;" horiz-adv-x="234" 
d="M214 612q0 -40 -28 -68.5t-69 -28.5t-69 28.5t-28 68.5t28 68.5t69 28.5t69 -28.5t28 -68.5zM187 612q0 30 -20 50.5t-50 20.5q-29 0 -49 -21t-20 -50t20 -50t49 -21q30 0 50 20.5t20 50.5z" />
    <glyph glyph-name="plusminus" unicode="&#xb1;" horiz-adv-x="399" 
d="M356 352h-143v-108h-28v108h-142v27h142v107h28v-107h143v-27zM43 168v27h313v-27h-313z" />
    <glyph glyph-name="twosuperior" unicode="&#xb2;" horiz-adv-x="274" 
d="M122 689q-20 0 -32 -13t-12 -31q0 -20 9.5 -31.5t22.5 -11.5q11 0 18 7h3q-13 -36 -51 -36q-24 0 -39.5 15t-15.5 40q0 35 27.5 55.5t69.5 20.5q53 0 86.5 -20.5t33.5 -64.5q0 -43 -36 -75.5t-117 -72.5h72q37 0 52 6t30 29h4l-11 -96h-220v2q91 90 120 133.5t29 90.5
q0 22 -10.5 37.5t-32.5 15.5z" />
    <glyph glyph-name="threesuperior" unicode="&#xb3;" horiz-adv-x="274" 
d="M127 421q20 0 32 19.5t12 48.5q0 72 -58 72v8q49 3 49 68q0 53 -34 53q-16 0 -25.5 -11.5t-9.5 -28.5q0 -35 22 -35q4 0 8 2l3 -1q-11 -20 -43 -20q-21 0 -34 12.5t-13 32.5q0 30 26 46.5t66 16.5q49 0 79.5 -18.5t30.5 -52.5q0 -58 -80 -65q41 -3 66.5 -23t25.5 -55
q0 -40 -34.5 -62t-88.5 -22q-46 0 -76.5 18t-30.5 52q0 24 15 37.5t39 13.5q35 0 44 -22l-2 -1q-4 3 -9 3q-22 0 -22 -38q0 -21 11.5 -34.5t30.5 -13.5z" />
    <glyph glyph-name="acute" unicode="&#xb4;" 
d="M200 732h122q-16 -63 -51.5 -108t-98.5 -83h-4q32 69 32 191z" />
    <glyph glyph-name="paragraph" unicode="&#xb6;" horiz-adv-x="421" 
d="M354 594v-654q0 -72 -37.5 -121.5t-101.5 -49.5q-54 0 -92 28t-38 80q0 32 20.5 52t46.5 20q45 0 56 -41h-1q-10 8 -23 8q-14 0 -24 -14t-10 -34q0 -36 19 -56t55 -20q48 0 76.5 42.5t28.5 107.5v735h-39v-556h-26v157q-94 0 -166.5 57t-72.5 154t72.5 154t166.5 57h150
v-2q-37 -21 -48.5 -39t-11.5 -65z" />
    <glyph glyph-name="periodcentered" unicode="&#xb7;" horiz-adv-x="237" 
d="M201 275q0 -35 -24 -59t-59 -24q-34 0 -58 24t-24 59t24 59t58 24q35 0 59 -24t24 -59z" />
    <glyph glyph-name="cedilla" unicode="&#xb8;" 
d="M144 -155l6 5q21 -39 53 -39q20 0 31.5 14.5t11.5 39.5q0 57 -60 60l44 83h17l-32 -64q51 2 83 -20t32 -63q0 -39 -26.5 -62t-64.5 -23q-36 0 -61.5 20.5t-33.5 48.5z" />
    <glyph glyph-name="onesuperior" unicode="&#xb9;" horiz-adv-x="203" 
d="M62 659q0 16 -9.5 22.5t-40.5 12.5v6h130v-249q0 -16 9 -22.5t40 -12.5v-6h-178v6q31 6 40 12.5t9 22.5v208z" />
    <glyph glyph-name="ordmasculine" unicode="&#xba;" horiz-adv-x="337" 
d="M168 384q-63 0 -105.5 45.5t-42.5 117.5t42.5 117.5t105.5 45.5q64 0 106.5 -45.5t42.5 -117.5t-42.5 -117.5t-106.5 -45.5zM168 400q46 0 46 147t-46 147q-43 0 -43 -147t43 -147zM43 311v22h250v-22h-250z" />
    <glyph glyph-name="guillemotright" unicode="&#xbb;" horiz-adv-x="376" 
d="M210 245v-2q-119 -72 -189 -192h-6q26 124 75 193q-49 69 -75 193h6q70 -120 189 -192zM361 245v-2q-119 -72 -189 -192h-6q26 123 74 193q-48 70 -74 193h6q70 -120 189 -192z" />
    <glyph glyph-name="onequarter" unicode="&#xbc;" horiz-adv-x="365" 
d="M147 659q0 16 -9.5 22.5t-39.5 12.5v6h130v-249q0 -16 9 -22.5t40 -12.5v-6h-178v6q30 6 39 12.5t9 22.5v208zM24 358h317v-16h-317v16zM174 94v149l-101 -149h101zM174 51v27h-130v2l144 211h66v-197h20q13 0 19.5 2.5t10 6.5t10.5 17h4v-68h-4q-7 13 -10.5 17t-10 6.5
t-19.5 2.5h-20v-27q0 -20 4 -28.5t18 -18.5v-4h-124v4q14 10 18 18.5t4 28.5z" />
    <glyph glyph-name="onehalf" unicode="&#xbd;" horiz-adv-x="365" 
d="M147 659q0 16 -9.5 22.5t-39.5 12.5v6h130v-249q0 -16 9 -22.5t40 -12.5v-6h-178v6q30 6 39 12.5t9 22.5v208zM24 358h317v-16h-317v16zM177 279q-21 0 -33 -13t-12 -31q0 -20 9.5 -31.5t22.5 -11.5q11 0 18 7h3q-13 -36 -51 -36q-24 0 -39 15t-15 40q0 35 27 55.5
t70 20.5q52 0 85.5 -20.5t33.5 -64.5q0 -43 -36 -75.5t-117 -72.5h73q36 0 51 6t30 29h4l-11 -96h-219v2q90 90 119 133.5t29 90.5q0 22 -10.5 37.5t-31.5 15.5z" />
    <glyph glyph-name="threequarters" unicode="&#xbe;" horiz-adv-x="365" 
d="M181 421q20 0 32 19.5t12 48.5q0 72 -58 72v8q49 3 49 68q0 53 -34 53q-16 0 -25.5 -11.5t-9.5 -28.5q0 -35 22 -35q3 0 9 2l2 -1q-11 -20 -43 -20q-21 0 -34 12.5t-13 32.5q0 30 26.5 46.5t65.5 16.5q49 0 80 -18.5t31 -52.5q0 -58 -80 -65q41 -3 66 -23t25 -55
q0 -40 -34.5 -62t-88.5 -22q-45 0 -76 18.5t-31 51.5q0 24 15.5 37.5t38.5 13.5q35 0 44 -22l-3 -1q-3 3 -8 3q-23 0 -23 -38q0 -21 12 -34.5t31 -13.5zM24 358h317v-16h-317v16zM174 94v149l-101 -149h101zM174 51v27h-130v2l144 211h66v-197h20q13 0 19.5 2.5t10 6.5
t10.5 17h4v-68h-4q-7 13 -10.5 17t-10 6.5t-19.5 2.5h-20v-27q0 -20 4 -28.5t18 -18.5v-4h-124v4q14 10 18 18.5t4 28.5z" />
    <glyph glyph-name="questiondown" unicode="&#xbf;" horiz-adv-x="439" 
d="M235 392q-34 0 -58 24t-24 59t24 59t58 24q35 0 58.5 -24t23.5 -59t-23.5 -59t-58.5 -24zM232 -140q43 0 68 29t25 75q0 37 -17.5 59.5t-44.5 22.5q-19 0 -29 -9l-1 1q9 32 32.5 50t55.5 18q42 0 72 -30.5t30 -79.5q0 -68 -54 -111.5t-138 -43.5q-97 0 -155.5 54.5
t-58.5 140.5q0 90 59.5 153.5t147.5 84.5v57h19v-180q-113 -35 -113 -166q0 -54 26.5 -89.5t75.5 -35.5z" />
    <glyph glyph-name="Agrave" unicode="&#xc0;" horiz-adv-x="566" 
d="M323 886q3 -83 38 -155h-4q-137 43 -174 155h140zM226 476l-77 -229h153zM151 2v-2h-152v2q27 16 43.5 44t34.5 81l207 583h3l210 -598q18 -51 30.5 -72t39.5 -38v-2h-246v2q37 20 37 57q0 18 -12 56l-35 105h-171l-29 -85q-11 -31 -11 -56q0 -56 51 -77z" />
    <glyph glyph-name="Aacute" unicode="&#xc1;" horiz-adv-x="566" 
d="M247 886h140q-37 -112 -174 -155h-4q35 72 38 155zM226 476l-77 -229h153zM151 2v-2h-152v2q27 16 43.5 44t34.5 81l207 583h3l210 -598q18 -51 30.5 -72t39.5 -38v-2h-246v2q37 20 37 57q0 18 -12 56l-35 105h-171l-29 -85q-11 -31 -11 -56q0 -56 51 -77z" />
    <glyph glyph-name="Acircumflex" unicode="&#xc2;" horiz-adv-x="566" 
d="M420 727q-88 12 -137 55q-51 -43 -139 -55h-6q102 82 142 179h5q40 -97 142 -179h-7zM226 476l-77 -229h153zM151 2v-2h-152v2q27 16 43.5 44t34.5 81l207 583h3l210 -598q18 -51 30.5 -72t39.5 -38v-2h-246v2q37 20 37 57q0 18 -12 56l-35 105h-171l-29 -85
q-11 -31 -11 -56q0 -56 51 -77z" />
    <glyph glyph-name="Atilde" unicode="&#xc3;" horiz-adv-x="566" 
d="M432 896q-7 -71 -31.5 -111t-63.5 -40q-24 0 -66 29t-64 29q-45 0 -68 -65h-6q7 71 32.5 111.5t62.5 40.5q25 0 67 -29t63 -29q43 0 69 64h5zM226 476l-77 -229h153zM151 2v-2h-152v2q27 16 43.5 44t34.5 81l207 583h3l210 -598q18 -51 30.5 -72t39.5 -38v-2h-246v2
q37 20 37 57q0 18 -12 56l-35 105h-171l-29 -85q-11 -31 -11 -56q0 -56 51 -77z" />
    <glyph glyph-name="Adieresis" unicode="&#xc4;" horiz-adv-x="566" 
d="M204 737q-28 0 -48 20.5t-20 47.5q0 28 20 49t48 21q29 0 49 -21t20 -49q0 -27 -20 -47.5t-49 -20.5zM361 737q-29 0 -49 20.5t-20 47.5q0 28 20 49t49 21q28 0 48.5 -21t20.5 -49q0 -27 -20.5 -47.5t-48.5 -20.5zM226 476l-77 -229h153zM151 2v-2h-152v2q27 16 43.5 44
t34.5 81l207 583h3l210 -598q18 -51 30.5 -72t39.5 -38v-2h-246v2q37 20 37 57q0 18 -12 56l-35 105h-171l-29 -85q-11 -31 -11 -56q0 -56 51 -77z" />
    <glyph glyph-name="Aring" unicode="&#xc5;" horiz-adv-x="566" 
d="M283 906q38 0 65.5 -27.5t27.5 -64.5t-27.5 -63.5t-65.5 -26.5q-37 0 -64.5 26.5t-27.5 63.5t27.5 64.5t64.5 27.5zM283 749q27 0 46.5 19t19.5 46t-19.5 46.5t-46.5 19.5t-46.5 -19.5t-19.5 -46.5t19.5 -46t46.5 -19zM226 476l-77 -229h153zM151 2v-2h-152v2
q27 16 43.5 44t34.5 81l207 583h3l210 -598q18 -51 30.5 -72t39.5 -38v-2h-246v2q37 20 37 57q0 18 -12 56l-35 105h-171l-29 -85q-11 -31 -11 -56q0 -56 51 -77z" />
    <glyph glyph-name="AE" unicode="&#xc6;" horiz-adv-x="765" 
d="M343 598l-149 -324h149v324zM155 2v-2h-156v2q48 31 93 125l229 487q9 18 9 31q0 27 -45 53v2h361q43 0 59 8l24 -186h-2q-41 81 -87 118t-128 37h-26v-305h14q61 0 88 22t52 91h2v-238h-2q-24 67 -50.5 85t-89.5 18h-14v-327h32q83 0 133 41.5t91 132.5h2l-22 -197h-427
v2q30 17 39 40.5t9 75.5v128h-162l-51 -111q-20 -40 -20 -69q0 -45 45 -64z" />
    <glyph glyph-name="Ccedilla" unicode="&#xc7;" horiz-adv-x="491" 
d="M261 -224q-36 0 -61.5 20.5t-33.5 48.5l6 5q21 -39 53 -39q20 0 31.5 14.5t11.5 39.5q0 57 -60 60l35 67q-99 13 -160 108t-61 241q0 161 78.5 265t192.5 104q29 0 65 -14t49 -14q28 0 48 28l8 -246h-4q-28 100 -67 162t-86 62q-63 0 -95.5 -88t-32.5 -229
q0 -143 41 -224t110 -81q97 0 138 140l6 -2q-12 -98 -66.5 -156t-134.5 -58h-12l-23 -46q51 2 83 -20t32 -63q0 -39 -26.5 -62t-64.5 -23z" />
    <glyph glyph-name="Egrave" unicode="&#xc8;" horiz-adv-x="482" 
d="M291 886q3 -83 38 -155h-4q-137 43 -174 155h140zM12 700h351q43 0 60 8l24 -186h-2q-42 82 -87.5 118.5t-127.5 36.5h-27v-305h15q61 0 88 22t52 91h2v-238h-2q-24 67 -50.5 85t-89.5 18h-15v-327h32q84 0 133.5 41.5t90.5 132.5h2l-22 -197h-427v2q30 17 39.5 40.5
t9.5 75.5v464q0 52 -9.5 75.5t-39.5 40.5v2z" />
    <glyph glyph-name="Eacute" unicode="&#xc9;" horiz-adv-x="482" 
d="M215 886h140q-37 -112 -174 -155h-4q35 72 38 155zM12 700h351q43 0 60 8l24 -186h-2q-42 82 -87.5 118.5t-127.5 36.5h-27v-305h15q61 0 88 22t52 91h2v-238h-2q-24 67 -50.5 85t-89.5 18h-15v-327h32q84 0 133.5 41.5t90.5 132.5h2l-22 -197h-427v2q30 17 39.5 40.5
t9.5 75.5v464q0 52 -9.5 75.5t-39.5 40.5v2z" />
    <glyph glyph-name="Ecircumflex" unicode="&#xca;" horiz-adv-x="482" 
d="M388 727q-88 12 -137 55q-51 -43 -139 -55h-6q102 82 142 179h5q40 -97 142 -179h-7zM12 700h351q43 0 60 8l24 -186h-2q-42 82 -87.5 118.5t-127.5 36.5h-27v-305h15q61 0 88 22t52 91h2v-238h-2q-24 67 -50.5 85t-89.5 18h-15v-327h32q84 0 133.5 41.5t90.5 132.5h2
l-22 -197h-427v2q30 17 39.5 40.5t9.5 75.5v464q0 52 -9.5 75.5t-39.5 40.5v2z" />
    <glyph glyph-name="Edieresis" unicode="&#xcb;" horiz-adv-x="482" 
d="M171 737q-28 0 -48 20.5t-20 47.5q0 28 20 49t48 21q29 0 49 -21t20 -49q0 -27 -20 -47.5t-49 -20.5zM328 737q-29 0 -49 20.5t-20 47.5q0 28 20 49t49 21q28 0 48.5 -21t20.5 -49q0 -27 -20.5 -47.5t-48.5 -20.5zM12 700h351q43 0 60 8l24 -186h-2q-42 82 -87.5 118.5
t-127.5 36.5h-27v-305h15q61 0 88 22t52 91h2v-238h-2q-24 67 -50.5 85t-89.5 18h-15v-327h32q84 0 133.5 41.5t90.5 132.5h2l-22 -197h-427v2q30 17 39.5 40.5t9.5 75.5v464q0 52 -9.5 75.5t-39.5 40.5v2z" />
    <glyph glyph-name="Igrave" unicode="&#xcc;" horiz-adv-x="264" 
d="M172 886q3 -83 38 -155h-4q-137 43 -174 155h140zM203 118q0 -52 9.5 -75.5t39.5 -40.5v-2h-240v2q30 17 39.5 40.5t9.5 75.5v464q0 52 -9.5 75.5t-39.5 40.5v2h240v-2q-30 -17 -39.5 -40.5t-9.5 -75.5v-464z" />
    <glyph glyph-name="Iacute" unicode="&#xcd;" horiz-adv-x="264" 
d="M96 886h140q-37 -112 -174 -155h-4q35 72 38 155zM203 118q0 -52 9.5 -75.5t39.5 -40.5v-2h-240v2q30 17 39.5 40.5t9.5 75.5v464q0 52 -9.5 75.5t-39.5 40.5v2h240v-2q-30 -17 -39.5 -40.5t-9.5 -75.5v-464z" />
    <glyph glyph-name="Icircumflex" unicode="&#xce;" horiz-adv-x="264" 
d="M269 727q-88 12 -137 55q-51 -43 -139 -55h-6q102 82 142 179h5q40 -97 142 -179h-7zM203 118q0 -52 9.5 -75.5t39.5 -40.5v-2h-240v2q30 17 39.5 40.5t9.5 75.5v464q0 52 -9.5 75.5t-39.5 40.5v2h240v-2q-30 -17 -39.5 -40.5t-9.5 -75.5v-464z" />
    <glyph glyph-name="Idieresis" unicode="&#xcf;" horiz-adv-x="264" 
d="M53 737q-28 0 -48 20.5t-20 47.5q0 28 20 49t48 21q29 0 49 -21t20 -49q0 -27 -20 -47.5t-49 -20.5zM210 737q-29 0 -49 20.5t-20 47.5q0 28 20 49t49 21q28 0 48.5 -21t20.5 -49q0 -27 -20.5 -47.5t-48.5 -20.5zM203 118q0 -52 9.5 -75.5t39.5 -40.5v-2h-240v2
q30 17 39.5 40.5t9.5 75.5v464q0 52 -9.5 75.5t-39.5 40.5v2h240v-2q-30 -17 -39.5 -40.5t-9.5 -75.5v-464z" />
    <glyph glyph-name="Eth" unicode="&#xd0;" horiz-adv-x="574" 
d="M232 0h-217v2q30 17 39.5 40.5t9.5 75.5v230h-40v26h40v208q0 52 -9.5 75.5t-39.5 40.5v2h205q146 0 239 -89t93 -256q0 -172 -91.5 -263.5t-228.5 -91.5zM206 24h20q172 0 172 331q0 157 -47 239t-132 82h-13v-302h75v-26h-75v-324z" />
    <glyph glyph-name="Ntilde" unicode="&#xd1;" horiz-adv-x="530" 
d="M433 896q-7 -71 -31.5 -111t-63.5 -40q-24 0 -66 29t-64 29q-45 0 -68 -65h-6q7 71 32.5 111.5t62.5 40.5q25 0 67 -29t63 -29q43 0 69 64h5zM536 698q-65 -36 -65 -133v-571h-43l-337 625v-465q0 -68 16.5 -101t53.5 -51v-2h-164v2q64 35 64 133v447q0 52 -9.5 75.5
t-39.5 40.5v2h201l228 -430v276q0 68 -16 101t-53 51v2h164v-2z" />
    <glyph glyph-name="Ograve" unicode="&#xd2;" horiz-adv-x="572" 
d="M326 886q3 -83 38 -155h-4q-137 43 -174 155h140zM550 350q0 -157 -75.5 -258.5t-188.5 -101.5q-114 0 -189 101.5t-75 258.5t75 258.5t189 101.5q113 0 188.5 -101.5t75.5 -258.5zM391 350q0 339 -105 339t-105 -339t105 -339t105 339z" />
    <glyph glyph-name="Oacute" unicode="&#xd3;" horiz-adv-x="572" 
d="M250 886h140q-37 -112 -174 -155h-4q35 72 38 155zM550 350q0 -157 -75.5 -258.5t-188.5 -101.5q-114 0 -189 101.5t-75 258.5t75 258.5t189 101.5q113 0 188.5 -101.5t75.5 -258.5zM391 350q0 339 -105 339t-105 -339t105 -339t105 339z" />
    <glyph glyph-name="Ocircumflex" unicode="&#xd4;" horiz-adv-x="572" 
d="M423 727q-88 12 -137 55q-51 -43 -139 -55h-6q102 82 142 179h5q40 -97 142 -179h-7zM550 350q0 -157 -75.5 -258.5t-188.5 -101.5q-114 0 -189 101.5t-75 258.5t75 258.5t189 101.5q113 0 188.5 -101.5t75.5 -258.5zM391 350q0 339 -105 339t-105 -339t105 -339t105 339
z" />
    <glyph glyph-name="Otilde" unicode="&#xd5;" horiz-adv-x="572" 
d="M435 896q-7 -71 -31.5 -111t-63.5 -40q-24 0 -66 29t-64 29q-45 0 -68 -65h-6q7 71 32.5 111.5t62.5 40.5q25 0 67 -29t63 -29q43 0 69 64h5zM550 350q0 -157 -75.5 -258.5t-188.5 -101.5q-114 0 -189 101.5t-75 258.5t75 258.5t189 101.5q113 0 188.5 -101.5
t75.5 -258.5zM391 350q0 339 -105 339t-105 -339t105 -339t105 339z" />
    <glyph glyph-name="Odieresis" unicode="&#xd6;" horiz-adv-x="572" 
d="M207 737q-28 0 -48 20.5t-20 47.5q0 28 20 49t48 21q29 0 49 -21t20 -49q0 -27 -20 -47.5t-49 -20.5zM364 737q-29 0 -49 20.5t-20 47.5q0 28 20 49t49 21q28 0 48.5 -21t20.5 -49q0 -27 -20.5 -47.5t-48.5 -20.5zM550 350q0 -157 -75.5 -258.5t-188.5 -101.5
q-114 0 -189 101.5t-75 258.5t75 258.5t189 101.5q113 0 188.5 -101.5t75.5 -258.5zM391 350q0 339 -105 339t-105 -339t105 -339t105 339z" />
    <glyph glyph-name="multiply" unicode="&#xd7;" horiz-adv-x="318" 
d="M139 320l-103 103l19 20l104 -103l103 103l20 -20l-103 -103l103 -104l-20 -20l-103 105l-104 -104l-19 19z" />
    <glyph glyph-name="Oslash" unicode="&#xd8;" horiz-adv-x="572" 
d="M181 350q0 -83 5 -133l196 303q-21 169 -96 169q-105 0 -105 -339zM286 11q105 0 105 339q0 82 -5 131l-196 -303q21 -167 96 -167zM286 -10q-97 0 -168 77l-54 -83l-20 15l57 88q-79 103 -79 263q0 157 75 258.5t189 101.5q99 0 169 -78l50 77l20 -14l-54 -83
q79 -102 79 -262q0 -157 -75.5 -258.5t-188.5 -101.5z" />
    <glyph glyph-name="Ugrave" unicode="&#xd9;" horiz-adv-x="531" 
d="M329 886q3 -83 38 -155h-4q-137 43 -174 155h140zM479 565v-354q0 -100 -55 -160.5t-154 -60.5q-103 0 -160.5 58.5t-57.5 164.5v369q-1 52 -10 75.5t-39 40.5v2h240v-2q-30 -17 -39.5 -40.5t-10.5 -75.5v-363q0 -170 127 -170q60 0 94.5 44.5t34.5 121.5v331
q0 68 -16.5 101t-53.5 51v2h164v-2q-64 -34 -64 -133z" />
    <glyph glyph-name="Uacute" unicode="&#xda;" horiz-adv-x="531" 
d="M253 886h140q-37 -112 -174 -155h-4q35 72 38 155zM479 565v-354q0 -100 -55 -160.5t-154 -60.5q-103 0 -160.5 58.5t-57.5 164.5v369q-1 52 -10 75.5t-39 40.5v2h240v-2q-30 -17 -39.5 -40.5t-10.5 -75.5v-363q0 -170 127 -170q60 0 94.5 44.5t34.5 121.5v331
q0 68 -16.5 101t-53.5 51v2h164v-2q-64 -34 -64 -133z" />
    <glyph glyph-name="Ucircumflex" unicode="&#xdb;" horiz-adv-x="531" 
d="M426 727q-88 12 -137 55q-51 -43 -139 -55h-6q102 82 142 179h5q40 -97 142 -179h-7zM479 565v-354q0 -100 -55 -160.5t-154 -60.5q-103 0 -160.5 58.5t-57.5 164.5v369q-1 52 -10 75.5t-39 40.5v2h240v-2q-30 -17 -39.5 -40.5t-10.5 -75.5v-363q0 -170 127 -170
q60 0 94.5 44.5t34.5 121.5v331q0 68 -16.5 101t-53.5 51v2h164v-2q-64 -34 -64 -133z" />
    <glyph glyph-name="Udieresis" unicode="&#xdc;" horiz-adv-x="531" 
d="M209 737q-28 0 -48 20.5t-20 47.5q0 28 20 49t48 21q29 0 49 -21t20 -49q0 -27 -20 -47.5t-49 -20.5zM366 737q-29 0 -49 20.5t-20 47.5q0 28 20 49t49 21q28 0 48.5 -21t20.5 -49q0 -27 -20.5 -47.5t-48.5 -20.5zM479 565v-354q0 -100 -55 -160.5t-154 -60.5
q-103 0 -160.5 58.5t-57.5 164.5v369q-1 52 -10 75.5t-39 40.5v2h240v-2q-30 -17 -39.5 -40.5t-10.5 -75.5v-363q0 -170 127 -170q60 0 94.5 44.5t34.5 121.5v331q0 68 -16.5 101t-53.5 51v2h164v-2q-64 -34 -64 -133z" />
    <glyph glyph-name="Yacute" unicode="&#xdd;" horiz-adv-x="550" 
d="M269 886h140q-37 -112 -174 -155h-4q35 72 38 155zM329 338l109 242q13 26 13 51q0 44 -48 67v2h148v-2q-43 -31 -75 -103l-134 -302v-180q0 -49 11.5 -70.5t46.5 -40.5v-2h-253v2q35 19 46.5 40.5t11.5 70.5v180l-135 302q-16 38 -31 60t-40 43v2h243v-2
q-35 -23 -35 -52q0 -18 13 -50z" />
    <glyph glyph-name="Thorn" unicode="&#xde;" horiz-adv-x="523" 
d="M203 582v-14h63q109 0 177 -55t68 -153q0 -99 -67.5 -154t-177.5 -55h-63v-35q0 -52 10 -73.5t48 -40.5v-2h-249v2q30 17 39.5 40.5t9.5 75.5v464q0 52 -9.5 75.5t-39.5 40.5v2h240v-2q-30 -17 -39.5 -40.5t-9.5 -75.5zM203 176h29q67 0 102 50.5t35 133.5t-35 133.5
t-102 50.5h-29v-368z" />
    <glyph glyph-name="germandbls" unicode="&#xdf;" horiz-adv-x="519" 
d="M182 579v-579h-168v2q24 16 30.5 33.5t6.5 64.5v366h-53v9l53 22v24q0 118 64 176t161 58q69 0 117.5 -34.5t48.5 -91.5q0 -28 -13 -52t-25.5 -35t-40 -29.5t-35.5 -24.5q-21 -18 -29 -32t-8 -33q0 -23 16.5 -39t67.5 -50q13 -8 20 -13q61 -40 87.5 -75t26.5 -94
q0 -69 -42 -115.5t-105 -46.5q-26 0 -53 11.5t-37 11.5q-21 0 -40 -23l-9 192h1q70 -174 142 -174q27 0 45 20.5t18 50.5q0 26 -13.5 47t-28 32t-56.5 39q-36 25 -53.5 40.5t-33 45.5t-15.5 68q0 29 12.5 57t25 43.5t43.5 49.5q47 51 47 133q0 49 -21 77t-60 28
q-94 0 -94 -160z" />
    <glyph glyph-name="agrave" unicode="&#xe0;" horiz-adv-x="429" 
d="M249 732q0 -122 32 -191h-4q-62 39 -98 84t-52 107h122zM442 45v-3q-25 -50 -92 -50q-40 0 -64.5 21t-30.5 61l-2 17q-9 -45 -40.5 -71.5t-78.5 -26.5q-49 0 -81.5 31t-32.5 87q0 29 11 53t27 39.5t42 29t48.5 21t55.5 16.5l47 13v126q0 74 -53 74q-23 0 -36.5 -18.5
t-13.5 -48.5q0 -61 39 -61q7 0 13 3q-7 -24 -27.5 -38t-48.5 -14q-36 0 -58 20.5t-22 57.5q0 54 46 86t115 32q86 0 132 -35t46 -117q0 -41 -1 -128.5t-1 -127.5q0 -57 39 -57q12 0 22 8zM251 264l-23 -8q-82 -27 -82 -120q0 -37 12.5 -58.5t35.5 -21.5q26 0 41 25t16 72
v111z" />
    <glyph glyph-name="aacute" unicode="&#xe1;" horiz-adv-x="429" 
d="M184 732h122q-16 -63 -51.5 -108t-98.5 -83h-4q32 69 32 191zM442 45v-3q-25 -50 -92 -50q-40 0 -64.5 21t-30.5 61l-2 17q-9 -45 -40.5 -71.5t-78.5 -26.5q-49 0 -81.5 31t-32.5 87q0 29 11 53t27 39.5t42 29t48.5 21t55.5 16.5l47 13v126q0 74 -53 74
q-23 0 -36.5 -18.5t-13.5 -48.5q0 -61 39 -61q7 0 13 3q-7 -24 -27.5 -38t-48.5 -14q-36 0 -58 20.5t-22 57.5q0 54 46 86t115 32q86 0 132 -35t46 -117q0 -41 -1 -128.5t-1 -127.5q0 -57 39 -57q12 0 22 8zM251 264l-23 -8q-82 -27 -82 -120q0 -37 12.5 -58.5t35.5 -21.5
q26 0 41 25t16 72v111z" />
    <glyph glyph-name="acircumflex" unicode="&#xe2;" horiz-adv-x="429" 
d="M349 536q-82 28 -131 79q-53 -52 -132 -79h-6q94 101 136 210h4q40 -109 135 -210h-6zM442 45v-3q-25 -50 -92 -50q-40 0 -64.5 21t-30.5 61l-2 17q-9 -45 -40.5 -71.5t-78.5 -26.5q-49 0 -81.5 31t-32.5 87q0 29 11 53t27 39.5t42 29t48.5 21t55.5 16.5l47 13v126
q0 74 -53 74q-23 0 -36.5 -18.5t-13.5 -48.5q0 -61 39 -61q7 0 13 3q-7 -24 -27.5 -38t-48.5 -14q-36 0 -58 20.5t-22 57.5q0 54 46 86t115 32q86 0 132 -35t46 -117q0 -41 -1 -128.5t-1 -127.5q0 -57 39 -57q12 0 22 8zM251 264l-23 -8q-82 -27 -82 -120q0 -37 12.5 -58.5
t35.5 -21.5q26 0 41 25t16 72v111z" />
    <glyph glyph-name="atilde" unicode="&#xe3;" horiz-adv-x="429" 
d="M367 712q-7 -71 -30.5 -110.5t-60.5 -39.5q-27 0 -66 28.5t-59 28.5q-43 0 -65 -64h-5q6 70 30 110.5t60 40.5q27 0 66 -28.5t59 -28.5q42 0 65 63h6zM442 45v-3q-25 -50 -92 -50q-40 0 -64.5 21t-30.5 61l-2 17q-9 -45 -40.5 -71.5t-78.5 -26.5q-49 0 -81.5 31t-32.5 87
q0 29 11 53t27 39.5t42 29t48.5 21t55.5 16.5l47 13v126q0 74 -53 74q-23 0 -36.5 -18.5t-13.5 -48.5q0 -61 39 -61q7 0 13 3q-7 -24 -27.5 -38t-48.5 -14q-36 0 -58 20.5t-22 57.5q0 54 46 86t115 32q86 0 132 -35t46 -117q0 -41 -1 -128.5t-1 -127.5q0 -57 39 -57
q12 0 22 8zM251 264l-23 -8q-82 -27 -82 -120q0 -37 12.5 -58.5t35.5 -21.5q26 0 41 25t16 72v111z" />
    <glyph glyph-name="adieresis" unicode="&#xe4;" horiz-adv-x="429" 
d="M138 565q-28 0 -48 20.5t-20 47.5q0 28 20 49t48 21q29 0 49 -21t20 -49q0 -27 -20 -47.5t-49 -20.5zM295 565q-29 0 -49 20.5t-20 47.5q0 28 20 49t49 21q28 0 48.5 -21t20.5 -49q0 -27 -20.5 -47.5t-48.5 -20.5zM442 45v-3q-25 -50 -92 -50q-40 0 -64.5 21t-30.5 61
l-2 17q-9 -45 -40.5 -71.5t-78.5 -26.5q-49 0 -81.5 31t-32.5 87q0 29 11 53t27 39.5t42 29t48.5 21t55.5 16.5l47 13v126q0 74 -53 74q-23 0 -36.5 -18.5t-13.5 -48.5q0 -61 39 -61q7 0 13 3q-7 -24 -27.5 -38t-48.5 -14q-36 0 -58 20.5t-22 57.5q0 54 46 86t115 32
q86 0 132 -35t46 -117q0 -41 -1 -128.5t-1 -127.5q0 -57 39 -57q12 0 22 8zM251 264l-23 -8q-82 -27 -82 -120q0 -37 12.5 -58.5t35.5 -21.5q26 0 41 25t16 72v111z" />
    <glyph glyph-name="aring" unicode="&#xe5;" horiz-adv-x="429" 
d="M217 727q38 0 65.5 -27t27.5 -64t-27.5 -64t-65.5 -27q-37 0 -64.5 27t-27.5 64t27.5 64t64.5 27zM217 570q27 0 46.5 19.5t19.5 46.5t-19.5 46.5t-46.5 19.5t-46.5 -19.5t-19.5 -46.5t19.5 -46.5t46.5 -19.5zM442 45v-3q-25 -50 -92 -50q-40 0 -64.5 21t-30.5 61l-2 17
q-9 -45 -40.5 -71.5t-78.5 -26.5q-49 0 -81.5 31t-32.5 87q0 29 11 53t27 39.5t42 29t48.5 21t55.5 16.5l47 13v126q0 74 -53 74q-23 0 -36.5 -18.5t-13.5 -48.5q0 -61 39 -61q7 0 13 3q-7 -24 -27.5 -38t-48.5 -14q-36 0 -58 20.5t-22 57.5q0 54 46 86t115 32q86 0 132 -35
t46 -117q0 -41 -1 -128.5t-1 -127.5q0 -57 39 -57q12 0 22 8zM251 264l-23 -8q-82 -27 -82 -120q0 -37 12.5 -58.5t35.5 -21.5q26 0 41 25t16 72v111z" />
    <glyph glyph-name="ae" unicode="&#xe6;" horiz-adv-x="631" 
d="M612 169q-11 -85 -54.5 -132t-118.5 -47q-57 0 -104.5 32.5t-69.5 91.5q-4 -54 -41 -87.5t-85 -33.5q-53 0 -86 31t-33 87q0 29 11 53t27 39.5t42 29t48.5 21t55.5 16.5l47 13v126q0 74 -53 74q-23 0 -36.5 -18.5t-13.5 -48.5q0 -61 39 -61q7 0 13 3q-7 -24 -27.5 -38
t-48.5 -14q-36 0 -58 20.5t-22 57.5q0 54 46 86t115 32q85 0 121 -60q52 59 116 59q85 0 129 -64.5t44 -170.5h-239q0 -97 30 -151.5t87 -54.5q81 0 113 110zM377 288h115q0 97 -9.5 146t-41.5 49q-28 0 -45 -54.5t-19 -140.5zM251 263l-23 -8q-82 -27 -82 -119
q0 -37 12.5 -58.5t35.5 -21.5q26 0 41 25t16 72v110z" />
    <glyph glyph-name="ccedilla" unicode="&#xe7;" horiz-adv-x="389" 
d="M197 -224q-36 0 -61.5 20.5t-33.5 48.5l6 5q21 -39 53 -39q20 0 31.5 14.5t11.5 39.5q0 57 -60 60l36 67q-72 11 -118 77t-46 170q0 113 65.5 188t152.5 75q62 0 99.5 -30t37.5 -82q0 -37 -22.5 -58.5t-54.5 -21.5q-28 0 -46.5 13t-22.5 34q4 -1 15 -1q21 0 33 17.5
t12 46.5q0 64 -47 64q-39 0 -64 -57t-25 -152q0 -99 28.5 -155.5t85.5 -56.5q80 0 104 102l6 -2q-8 -85 -51 -129t-116 -44h-10l-23 -46q51 2 83 -20t32 -63q0 -39 -26.5 -62t-64.5 -23z" />
    <glyph glyph-name="egrave" unicode="&#xe8;" horiz-adv-x="406" 
d="M253 732q0 -122 32 -191h-4q-62 39 -98 84t-52 107h122zM217 502q85 0 129 -64.5t44 -170.5h-239q0 -97 30 -152t87 -55q81 0 113 110l6 -1q-11 -85 -54.5 -132t-118.5 -47q-84 0 -141 69t-57 186q0 112 59.5 184.5t141.5 72.5zM152 289h115q0 97 -9.5 145.5t-41.5 48.5
q-28 0 -45 -53.5t-19 -140.5z" />
    <glyph glyph-name="eacute" unicode="&#xe9;" horiz-adv-x="406" 
d="M188 732h122q-16 -63 -51.5 -108t-98.5 -83h-4q32 69 32 191zM217 502q85 0 129 -64.5t44 -170.5h-239q0 -97 30 -152t87 -55q81 0 113 110l6 -1q-11 -85 -54.5 -132t-118.5 -47q-84 0 -141 69t-57 186q0 112 59.5 184.5t141.5 72.5zM152 289h115q0 97 -9.5 145.5
t-41.5 48.5q-28 0 -45 -53.5t-19 -140.5z" />
    <glyph glyph-name="ecircumflex" unicode="&#xea;" horiz-adv-x="406" 
d="M353 536q-82 28 -131 79q-53 -52 -132 -79h-6q94 101 136 210h4q40 -109 135 -210h-6zM217 502q85 0 129 -64.5t44 -170.5h-239q0 -97 30 -152t87 -55q81 0 113 110l6 -1q-11 -85 -54.5 -132t-118.5 -47q-84 0 -141 69t-57 186q0 112 59.5 184.5t141.5 72.5zM152 289h115
q0 97 -9.5 145.5t-41.5 48.5q-28 0 -45 -53.5t-19 -140.5z" />
    <glyph glyph-name="edieresis" unicode="&#xeb;" horiz-adv-x="406" 
d="M142 565q-28 0 -48 20.5t-20 47.5q0 28 20 49t48 21q29 0 49 -21t20 -49q0 -27 -20 -47.5t-49 -20.5zM299 565q-29 0 -49 20.5t-20 47.5q0 28 20 49t49 21q28 0 48.5 -21t20.5 -49q0 -27 -20.5 -47.5t-48.5 -20.5zM217 502q85 0 129 -64.5t44 -170.5h-239q0 -97 30 -152
t87 -55q81 0 113 110l6 -1q-11 -85 -54.5 -132t-118.5 -47q-84 0 -141 69t-57 186q0 112 59.5 184.5t141.5 72.5zM152 289h115q0 97 -9.5 145.5t-41.5 48.5q-28 0 -45 -53.5t-19 -140.5z" />
    <glyph glyph-name="igrave" unicode="&#xec;" horiz-adv-x="231" 
d="M147 732q0 -122 32 -191h-4q-62 39 -98 84t-52 107h122zM182 492v-389q0 -50 6.5 -67.5t30.5 -33.5v-2h-205v2q24 16 30.5 33.5t6.5 67.5v278q0 51 -8.5 72t-33.5 37v2h173z" />
    <glyph glyph-name="iacute" unicode="&#xed;" horiz-adv-x="231" 
d="M81 732h122q-16 -63 -51.5 -108t-98.5 -83h-4q32 69 32 191zM182 492v-389q0 -50 6.5 -67.5t30.5 -33.5v-2h-205v2q24 16 30.5 33.5t6.5 67.5v278q0 51 -8.5 72t-33.5 37v2h173z" />
    <glyph glyph-name="icircumflex" unicode="&#xee;" horiz-adv-x="231" 
d="M246 536q-82 28 -131 79q-53 -52 -132 -79h-6q94 101 136 210h4q40 -109 135 -210h-6zM182 492v-389q0 -50 6.5 -67.5t30.5 -33.5v-2h-205v2q24 16 30.5 33.5t6.5 67.5v278q0 51 -8.5 72t-33.5 37v2h173z" />
    <glyph glyph-name="idieresis" unicode="&#xef;" horiz-adv-x="231" 
d="M36 565q-28 0 -48 20.5t-20 47.5q0 28 20 49t48 21q29 0 49 -21t20 -49q0 -27 -20 -47.5t-49 -20.5zM193 565q-29 0 -49 20.5t-20 47.5q0 28 20 49t49 21q28 0 48.5 -21t20.5 -49q0 -27 -20.5 -47.5t-48.5 -20.5zM182 492v-389q0 -50 6.5 -67.5t30.5 -33.5v-2h-205v2
q24 16 30.5 33.5t6.5 67.5v278q0 51 -8.5 72t-33.5 37v2h173z" />
    <glyph glyph-name="eth" unicode="&#xf0;" horiz-adv-x="444" 
d="M222 -10q-87 0 -146.5 71.5t-59.5 183.5q0 111 58.5 183.5t143.5 72.5q37 0 64 -18q-8 76 -50 141l-116 -46l-9 20l111 44q-53 69 -148 107l2 10q117 -30 198 -97l89 35l8 -20l-79 -31q139 -133 139 -374q0 -122 -57.5 -202t-147.5 -80zM222 8q67 0 67 237q0 238 -67 238
t-67 -238q0 -237 67 -237z" />
    <glyph glyph-name="ntilde" unicode="&#xf1;" horiz-adv-x="475" 
d="M392 712q-7 -71 -30.5 -110.5t-60.5 -39.5q-27 0 -66 28.5t-59 28.5q-43 0 -65 -64h-5q6 70 30 110.5t60 40.5q27 0 66 -28.5t59 -28.5q42 0 65 63h6zM9 492h173v-104q14 54 48.5 84t81.5 30q56 0 86 -35.5t30 -99.5v-264q0 -49 7 -67t31 -34v-2h-206v2q24 16 30.5 33.5
t6.5 67.5v262q0 66 -50 66q-28 0 -46.5 -28.5t-18.5 -85.5v-214q0 -50 6.5 -67.5t30.5 -33.5v-2h-205v2q24 16 30.5 33.5t6.5 67.5v278q0 51 -8.5 72t-33.5 37v2z" />
    <glyph glyph-name="ograve" unicode="&#xf2;" horiz-adv-x="444" 
d="M254 732q0 -122 32 -191h-4q-62 39 -98 84t-52 107h122zM222 -10q-87 0 -146.5 72t-59.5 184t59.5 184t146.5 72q88 0 147 -72t59 -184t-59 -184t-147 -72zM222 8q67 0 67 238q0 237 -67 237t-67 -237q0 -238 67 -238z" />
    <glyph glyph-name="oacute" unicode="&#xf3;" horiz-adv-x="444" 
d="M189 732h122q-16 -63 -51.5 -108t-98.5 -83h-4q32 69 32 191zM222 -10q-87 0 -146.5 72t-59.5 184t59.5 184t146.5 72q88 0 147 -72t59 -184t-59 -184t-147 -72zM222 8q67 0 67 238q0 237 -67 237t-67 -237q0 -238 67 -238z" />
    <glyph glyph-name="ocircumflex" unicode="&#xf4;" horiz-adv-x="444" 
d="M353 536q-82 28 -131 79q-53 -52 -132 -79h-6q94 101 136 210h4q40 -109 135 -210h-6zM222 -10q-87 0 -146.5 72t-59.5 184t59.5 184t146.5 72q88 0 147 -72t59 -184t-59 -184t-147 -72zM222 8q67 0 67 238q0 237 -67 237t-67 -237q0 -238 67 -238z" />
    <glyph glyph-name="otilde" unicode="&#xf5;" horiz-adv-x="444" 
d="M365 712q-7 -71 -30.5 -110.5t-60.5 -39.5q-27 0 -66 28.5t-59 28.5q-43 0 -65 -64h-5q6 70 30 110.5t60 40.5q27 0 66 -28.5t59 -28.5q42 0 65 63h6zM222 -10q-87 0 -146.5 72t-59.5 184t59.5 184t146.5 72q88 0 147 -72t59 -184t-59 -184t-147 -72zM222 8q67 0 67 238
q0 237 -67 237t-67 -237q0 -238 67 -238z" />
    <glyph glyph-name="odieresis" unicode="&#xf6;" horiz-adv-x="444" 
d="M143 565q-28 0 -48 20.5t-20 47.5q0 28 20 49t48 21q29 0 49 -21t20 -49q0 -27 -20 -47.5t-49 -20.5zM300 565q-29 0 -49 20.5t-20 47.5q0 28 20 49t49 21q28 0 48.5 -21t20.5 -49q0 -27 -20.5 -47.5t-48.5 -20.5zM222 -10q-87 0 -146.5 72t-59.5 184t59.5 184t146.5 72
q88 0 147 -72t59 -184t-59 -184t-147 -72zM222 8q67 0 67 238q0 237 -67 237t-67 -237q0 -238 67 -238z" />
    <glyph glyph-name="divide" unicode="&#xf7;" horiz-adv-x="399" 
d="M167 457q0 13 9.5 22.5t22.5 9.5q14 0 23.5 -9.5t9.5 -22.5t-10 -23t-23 -10t-22.5 9.5t-9.5 23.5zM43 308v28h313v-28h-313zM167 187q0 14 9 23.5t23 9.5t23.5 -9.5t9.5 -23.5q0 -13 -10 -22.5t-23 -9.5t-22.5 9.5t-9.5 22.5z" />
    <glyph glyph-name="oslash" unicode="&#xf8;" horiz-adv-x="444" 
d="M155 246q0 -28 2 -72l127 185q-13 124 -62 124q-67 0 -67 -237zM222 8q67 0 67 238q0 28 -2 76l-127 -185q13 -129 62 -129zM222 -10q-73 0 -128 52l-41 -59l-19 13l44 63q-62 72 -62 187q0 112 59.5 184t146.5 72q72 0 127 -50l39 57l19 -14l-42 -60q63 -74 63 -189
q0 -112 -59 -184t-147 -72z" />
    <glyph glyph-name="ugrave" unicode="&#xf9;" horiz-adv-x="469" 
d="M266 732q0 -122 32 -191h-4q-62 39 -98 84t-52 107h122zM288 176v205q0 51 -8.5 72t-33.5 37v2h173v-383q0 -51 7 -71.5t30 -35.5v-2h-168v103q-14 -55 -47 -84t-80 -29q-54 0 -84.5 36t-30.5 99v256q0 51 -8 72t-34 37v2h173v-364q0 -66 48 -66q28 0 45.5 28.5
t17.5 85.5z" />
    <glyph glyph-name="uacute" unicode="&#xfa;" horiz-adv-x="469" 
d="M200 732h122q-16 -63 -51.5 -108t-98.5 -83h-4q32 69 32 191zM288 176v205q0 51 -8.5 72t-33.5 37v2h173v-383q0 -51 7 -71.5t30 -35.5v-2h-168v103q-14 -55 -47 -84t-80 -29q-54 0 -84.5 36t-30.5 99v256q0 51 -8 72t-34 37v2h173v-364q0 -66 48 -66q28 0 45.5 28.5
t17.5 85.5z" />
    <glyph glyph-name="ucircumflex" unicode="&#xfb;" horiz-adv-x="469" 
d="M365 536q-82 28 -131 79q-53 -52 -132 -79h-6q94 101 136 210h4q40 -109 135 -210h-6zM288 176v205q0 51 -8.5 72t-33.5 37v2h173v-383q0 -51 7 -71.5t30 -35.5v-2h-168v103q-14 -55 -47 -84t-80 -29q-54 0 -84.5 36t-30.5 99v256q0 51 -8 72t-34 37v2h173v-364
q0 -66 48 -66q28 0 45.5 28.5t17.5 85.5z" />
    <glyph glyph-name="udieresis" unicode="&#xfc;" horiz-adv-x="469" 
d="M155 565q-28 0 -48 20.5t-20 47.5q0 28 20 49t48 21q29 0 49 -21t20 -49q0 -27 -20 -47.5t-49 -20.5zM312 565q-29 0 -49 20.5t-20 47.5q0 28 20 49t49 21q28 0 48.5 -21t20.5 -49q0 -27 -20.5 -47.5t-48.5 -20.5zM288 176v205q0 51 -8.5 72t-33.5 37v2h173v-383
q0 -51 7 -71.5t30 -35.5v-2h-168v103q-14 -55 -47 -84t-80 -29q-54 0 -84.5 36t-30.5 99v256q0 51 -8 72t-34 37v2h173v-364q0 -66 48 -66q28 0 45.5 28.5t17.5 85.5z" />
    <glyph glyph-name="yacute" unicode="&#xfd;" horiz-adv-x="411" 
d="M195 732h122q-16 -63 -51.5 -108t-98.5 -83h-4q32 69 32 191zM176 -89l23 68l-148 405q-18 48 -28.5 66.5t-32.5 39.5v2h213v-2q-32 -17 -32 -48q0 -19 12 -55l75 -233l69 223q8 27 8 48q0 48 -45 65v2h131v-2q-23 -20 -35.5 -40.5t-27.5 -68.5l-160 -490
q-20 -59 -46 -91t-70 -32q-34 0 -58 22.5t-24 59.5q0 35 23 55.5t52 20.5q17 0 28 -8q-25 -13 -25 -44q0 -18 10 -28.5t25 -10.5q22 0 36 17.5t27 58.5z" />
    <glyph glyph-name="thorn" unicode="&#xfe;" horiz-adv-x="481" 
d="M253 447q-29 0 -51 -39t-22 -106v-113q0 -73 21.5 -114t51.5 -41q71 0 71 213q0 200 -71 200zM7 749h173v-365q11 57 44 87.5t82 30.5q68 0 113 -68.5t45 -185.5q0 -116 -47.5 -187t-116.5 -71q-98 0 -120 107v-216q0 -49 9.5 -67.5t38.5 -32.5v-2h-216v2
q24 15 30.5 32.5t6.5 67.5v758q0 51 -8.5 71.5t-33.5 36.5v2z" />
    <glyph glyph-name="ydieresis" unicode="&#xff;" horiz-adv-x="411" 
d="M149 565q-28 0 -48 20.5t-20 47.5q0 28 20 49t48 21q29 0 49 -21t20 -49q0 -27 -20 -47.5t-49 -20.5zM306 565q-29 0 -49 20.5t-20 47.5q0 28 20 49t49 21q28 0 48.5 -21t20.5 -49q0 -27 -20.5 -47.5t-48.5 -20.5zM176 -89l23 68l-148 405q-18 48 -28.5 66.5t-32.5 39.5
v2h213v-2q-32 -17 -32 -48q0 -19 12 -55l75 -233l69 223q8 27 8 48q0 48 -45 65v2h131v-2q-23 -20 -35.5 -40.5t-27.5 -68.5l-160 -490q-20 -59 -46 -91t-70 -32q-34 0 -58 22.5t-24 59.5q0 35 23 55.5t52 20.5q17 0 28 -8q-25 -13 -25 -44q0 -18 10 -28.5t25 -10.5
q22 0 36 17.5t27 58.5z" />
    <glyph glyph-name="Amacron" unicode="&#x100;" horiz-adv-x="566" 
d="M408 762h-250v37h250v-37zM226 476l-77 -229h153zM151 2v-2h-152v2q27 16 43.5 44t34.5 81l207 583h3l210 -598q18 -51 30.5 -72t39.5 -38v-2h-246v2q37 20 37 57q0 18 -12 56l-35 105h-171l-29 -85q-11 -31 -11 -56q0 -56 51 -77z" />
    <glyph glyph-name="amacron" unicode="&#x101;" horiz-adv-x="429" 
d="M343 585h-250v37h250v-37zM442 45v-3q-25 -50 -92 -50q-40 0 -64.5 21t-30.5 61l-2 17q-9 -45 -40.5 -71.5t-78.5 -26.5q-49 0 -81.5 31t-32.5 87q0 29 11 53t27 39.5t42 29t48.5 21t55.5 16.5l47 13v126q0 74 -53 74q-23 0 -36.5 -18.5t-13.5 -48.5q0 -61 39 -61
q7 0 13 3q-7 -24 -27.5 -38t-48.5 -14q-36 0 -58 20.5t-22 57.5q0 54 46 86t115 32q86 0 132 -35t46 -117q0 -41 -1 -128.5t-1 -127.5q0 -57 39 -57q12 0 22 8zM251 264l-23 -8q-82 -27 -82 -120q0 -37 12.5 -58.5t35.5 -21.5q26 0 41 25t16 72v111z" />
    <glyph glyph-name="Abreve" unicode="&#x102;" horiz-adv-x="566" 
d="M408 896q-9 -164 -125 -164q-56 0 -89 41.5t-37 122.5h5q7 -38 40.5 -57.5t80.5 -19.5t80.5 20t39.5 57h5zM226 476l-77 -229h153zM151 2v-2h-152v2q27 16 43.5 44t34.5 81l207 583h3l210 -598q18 -51 30.5 -72t39.5 -38v-2h-246v2q37 20 37 57q0 18 -12 56l-35 105h-171
l-29 -85q-11 -31 -11 -56q0 -56 51 -77z" />
    <glyph glyph-name="abreve" unicode="&#x103;" horiz-adv-x="429" 
d="M334 731q0 -86 -32 -135.5t-85 -49.5t-85 49.5t-32 135.5h6q6 -48 37.5 -70.5t73.5 -22.5t73.5 22.5t37.5 70.5h6zM442 45v-3q-25 -50 -92 -50q-40 0 -64.5 21t-30.5 61l-2 17q-9 -45 -40.5 -71.5t-78.5 -26.5q-49 0 -81.5 31t-32.5 87q0 29 11 53t27 39.5t42 29t48.5 21
t55.5 16.5l47 13v126q0 74 -53 74q-23 0 -36.5 -18.5t-13.5 -48.5q0 -61 39 -61q7 0 13 3q-7 -24 -27.5 -38t-48.5 -14q-36 0 -58 20.5t-22 57.5q0 54 46 86t115 32q86 0 132 -35t46 -117q0 -41 -1 -128.5t-1 -127.5q0 -57 39 -57q12 0 22 8zM251 264l-23 -8
q-82 -27 -82 -120q0 -37 12.5 -58.5t35.5 -21.5q26 0 41 25t16 72v111z" />
    <glyph glyph-name="Aogonek" unicode="&#x104;" horiz-adv-x="566" 
d="M387 -129q-30 -103 -106 -103q-37 0 -61 22.5t-24 58.5q0 26 11 49t35 45t41.5 35t50.5 35q24 14 24 46q0 18 -12 56l-35 105h-171l-29 -85q-11 -31 -11 -56q0 -56 51 -77v-2h-152v2q27 16 43.5 44t34.5 81l207 583h3l210 -598q18 -51 30.5 -72t39.5 -38v-2h-230
q-66 -59 -66 -118t50 -59q36 0 64 50zM226 476l-77 -229h153z" />
    <glyph glyph-name="aogonek" unicode="&#x105;" horiz-adv-x="429" 
d="M342 -232q-37 0 -61.5 22.5t-24.5 58.5q0 73 115 145q-6 -2 -21 -2q-40 0 -64.5 21t-30.5 61l-2 17q-9 -45 -40.5 -71.5t-78.5 -26.5q-49 0 -81.5 31t-32.5 87q0 29 11 53t27 39.5t42 29t48.5 21t55.5 16.5l47 13v126q0 74 -53 74q-23 0 -36.5 -18.5t-13.5 -48.5
q0 -61 39 -61q7 0 13 3q-7 -24 -27.5 -38t-48.5 -14q-36 0 -58 20.5t-22 57.5q0 54 46 86t115 32q86 0 132 -35t46 -117q0 -41 -1 -128.5t-1 -127.5q0 -57 39 -57q12 0 22 8v-3q-9 -13 -39.5 -37.5t-50.5 -53.5t-20 -69q0 -59 49 -59q36 0 64 50l2 -2q-30 -103 -105 -103z
M251 264l-23 -8q-82 -27 -82 -120q0 -37 12.5 -58.5t35.5 -21.5q26 0 41 25t16 72v111z" />
    <glyph glyph-name="Cacute" unicode="&#x106;" horiz-adv-x="491" 
d="M260 886h140q-37 -112 -174 -155h-4q35 72 38 155zM455 710l8 -246h-4q-28 100 -67 162t-86 62q-63 0 -95.5 -88t-32.5 -229q0 -143 41 -224t110 -81q97 0 138 140l6 -2q-12 -98 -66.5 -156t-134.5 -58q-110 0 -180 97t-70 254q0 161 78.5 265t192.5 104q29 0 65 -14
t49 -14q28 0 48 28z" />
    <glyph glyph-name="cacute" unicode="&#x107;" horiz-adv-x="389" 
d="M199 732h122q-16 -63 -51.5 -108t-98.5 -83h-4q32 69 32 191zM238 484q-39 0 -64 -57t-25 -152q0 -99 28.5 -155.5t85.5 -56.5q80 0 104 102l6 -2q-8 -85 -51 -129t-116 -44q-81 0 -135.5 67.5t-54.5 181.5q0 113 65.5 188t152.5 75q62 0 99.5 -30t37.5 -82
q0 -37 -22.5 -58.5t-54.5 -21.5q-28 0 -46.5 13t-22.5 34q4 -1 15 -1q21 0 33 17.5t12 46.5q0 64 -47 64z" />
    <glyph glyph-name="Ccircumflex" unicode="&#x108;" horiz-adv-x="491" 
d="M433 727q-88 12 -137 55q-51 -43 -139 -55h-6q102 82 142 179h5q40 -97 142 -179h-7zM455 710l8 -246h-4q-28 100 -67 162t-86 62q-63 0 -95.5 -88t-32.5 -229q0 -143 41 -224t110 -81q97 0 138 140l6 -2q-12 -98 -66.5 -156t-134.5 -58q-110 0 -180 97t-70 254
q0 161 78.5 265t192.5 104q29 0 65 -14t49 -14q28 0 48 28z" />
    <glyph glyph-name="ccircumflex" unicode="&#x109;" horiz-adv-x="389" 
d="M363 536q-82 28 -131 79q-53 -52 -132 -79h-6q94 101 136 210h4q40 -109 135 -210h-6zM238 484q-39 0 -64 -57t-25 -152q0 -99 28.5 -155.5t85.5 -56.5q80 0 104 102l6 -2q-8 -85 -51 -129t-116 -44q-81 0 -135.5 67.5t-54.5 181.5q0 113 65.5 188t152.5 75
q62 0 99.5 -30t37.5 -82q0 -37 -22.5 -58.5t-54.5 -21.5q-28 0 -46.5 13t-22.5 34q4 -1 15 -1q21 0 33 17.5t12 46.5q0 64 -47 64z" />
    <glyph glyph-name="Cdotaccent" unicode="&#x10a;" horiz-adv-x="491" 
d="M217 818q0 33 23 55.5t55 22.5q33 0 56 -22.5t23 -55.5q0 -32 -23 -55t-56 -23q-32 0 -55 23t-23 55zM455 710l8 -246h-4q-28 100 -67 162t-86 62q-63 0 -95.5 -88t-32.5 -229q0 -143 41 -224t110 -81q97 0 138 140l6 -2q-12 -98 -66.5 -156t-134.5 -58q-110 0 -180 97
t-70 254q0 161 78.5 265t192.5 104q29 0 65 -14t49 -14q28 0 48 28z" />
    <glyph glyph-name="cdotaccent" unicode="&#x10b;" horiz-adv-x="389" 
d="M153 645q0 32 23 55t55 23q33 0 56 -23t23 -55q0 -33 -23 -56t-56 -23q-32 0 -55 23t-23 56zM238 484q-39 0 -64 -57t-25 -152q0 -99 28.5 -155.5t85.5 -56.5q80 0 104 102l6 -2q-8 -85 -51 -129t-116 -44q-81 0 -135.5 67.5t-54.5 181.5q0 113 65.5 188t152.5 75
q62 0 99.5 -30t37.5 -82q0 -37 -22.5 -58.5t-54.5 -21.5q-28 0 -46.5 13t-22.5 34q4 -1 15 -1q21 0 33 17.5t12 46.5q0 64 -47 64z" />
    <glyph glyph-name="Ccaron" unicode="&#x10c;" horiz-adv-x="491" 
d="M157 906q87 -12 139 -54q50 42 137 54h7q-102 -82 -142 -179h-5q-40 97 -142 179h6zM455 710l8 -246h-4q-28 100 -67 162t-86 62q-63 0 -95.5 -88t-32.5 -229q0 -143 41 -224t110 -81q97 0 138 140l6 -2q-12 -98 -66.5 -156t-134.5 -58q-110 0 -180 97t-70 254
q0 161 78.5 265t192.5 104q29 0 65 -14t49 -14q28 0 48 28z" />
    <glyph glyph-name="ccaron" unicode="&#x10d;" horiz-adv-x="389" 
d="M101 750q76 -25 132 -79q51 53 131 79h6q-95 -101 -135 -210h-4q-42 109 -136 210h6zM238 484q-39 0 -64 -57t-25 -152q0 -99 28.5 -155.5t85.5 -56.5q80 0 104 102l6 -2q-8 -85 -51 -129t-116 -44q-81 0 -135.5 67.5t-54.5 181.5q0 113 65.5 188t152.5 75q62 0 99.5 -30
t37.5 -82q0 -37 -22.5 -58.5t-54.5 -21.5q-28 0 -46.5 13t-22.5 34q4 -1 15 -1q21 0 33 17.5t12 46.5q0 64 -47 64z" />
    <glyph glyph-name="Dcaron" unicode="&#x10e;" horiz-adv-x="571" 
d="M124 906q87 -12 139 -54q50 42 137 54h7q-102 -82 -142 -179h-5q-40 97 -142 179h6zM12 0v2q30 17 39.5 40.5t9.5 75.5v464q0 52 -9.5 75.5t-39.5 40.5v2h205q146 0 239 -89t93 -256q0 -172 -91.5 -263.5t-228.5 -91.5h-217zM203 24h20q172 0 172 331q0 157 -47 239
t-132 82h-13v-652z" />
    <glyph glyph-name="dcaron" unicode="&#x10f;" horiz-adv-x="479" 
d="M591 749q-13 -58 -47.5 -116t-80.5 -96h-4q23 101 16 212h116zM226 45q30 0 52 39t22 107v112q0 72 -22 113t-51 41q-71 0 -71 -213q0 -199 70 -199zM300 395v244q0 50 -8.5 70.5t-33.5 37.5v2h172v-640q0 -51 7 -71.5t31 -35.5v-2h-168v108q-12 -57 -44.5 -87.5
t-81.5 -30.5q-67 0 -112.5 68.5t-45.5 184.5t47.5 187.5t117.5 71.5q96 0 119 -107z" />
    <glyph glyph-name="Dcroat" unicode="&#x110;" horiz-adv-x="574" 
d="M232 0h-217v2q30 17 39.5 40.5t9.5 75.5v230h-40v26h40v208q0 52 -9.5 75.5t-39.5 40.5v2h205q146 0 239 -89t93 -256q0 -172 -91.5 -263.5t-228.5 -91.5zM206 24h20q172 0 172 331q0 157 -47 239t-132 82h-13v-302h75v-26h-75v-324z" />
    <glyph glyph-name="dcroat" unicode="&#x111;" horiz-adv-x="479" 
d="M226 45q30 0 52 39t22 107v112q0 72 -22 113t-51 41q-71 0 -71 -213q0 -199 70 -199zM300 108q-12 -57 -44.5 -87.5t-81.5 -30.5q-67 0 -112.5 68.5t-45.5 184.5t47.5 187.5t117.5 71.5q96 0 119 -107v185h-93v24h93v35q0 50 -8.5 70.5t-33.5 37.5v2h172v-145h36v-24h-36
v-471q0 -51 7 -71.5t31 -35.5v-2h-168v108z" />
    <glyph glyph-name="Emacron" unicode="&#x112;" horiz-adv-x="482" 
d="M376 762h-250v37h250v-37zM12 700h351q43 0 60 8l24 -186h-2q-42 82 -87.5 118.5t-127.5 36.5h-27v-305h15q61 0 88 22t52 91h2v-238h-2q-24 67 -50.5 85t-89.5 18h-15v-327h32q84 0 133.5 41.5t90.5 132.5h2l-22 -197h-427v2q30 17 39.5 40.5t9.5 75.5v464
q0 52 -9.5 75.5t-39.5 40.5v2z" />
    <glyph glyph-name="emacron" unicode="&#x113;" horiz-adv-x="406" 
d="M347 585h-250v37h250v-37zM217 502q85 0 129 -64.5t44 -170.5h-239q0 -97 30 -152t87 -55q81 0 113 110l6 -1q-11 -85 -54.5 -132t-118.5 -47q-84 0 -141 69t-57 186q0 112 59.5 184.5t141.5 72.5zM152 289h115q0 97 -9.5 145.5t-41.5 48.5q-28 0 -45 -53.5t-19 -140.5z
" />
    <glyph glyph-name="Ebreve" unicode="&#x114;" horiz-adv-x="482" 
d="M376 896q-9 -164 -125 -164q-56 0 -89 41.5t-37 122.5h5q7 -38 40.5 -57.5t80.5 -19.5t80.5 20t39.5 57h5zM12 700h351q43 0 60 8l24 -186h-2q-42 82 -87.5 118.5t-127.5 36.5h-27v-305h15q61 0 88 22t52 91h2v-238h-2q-24 67 -50.5 85t-89.5 18h-15v-327h32
q84 0 133.5 41.5t90.5 132.5h2l-22 -197h-427v2q30 17 39.5 40.5t9.5 75.5v464q0 52 -9.5 75.5t-39.5 40.5v2z" />
    <glyph glyph-name="ebreve" unicode="&#x115;" horiz-adv-x="406" 
d="M338 731q0 -86 -32 -135.5t-85 -49.5t-85 49.5t-32 135.5h6q6 -48 37.5 -70.5t73.5 -22.5t73.5 22.5t37.5 70.5h6zM217 502q85 0 129 -64.5t44 -170.5h-239q0 -97 30 -152t87 -55q81 0 113 110l6 -1q-11 -85 -54.5 -132t-118.5 -47q-84 0 -141 69t-57 186
q0 112 59.5 184.5t141.5 72.5zM152 289h115q0 97 -9.5 145.5t-41.5 48.5q-28 0 -45 -53.5t-19 -140.5z" />
    <glyph glyph-name="Edotaccent" unicode="&#x116;" horiz-adv-x="482" 
d="M172 818q0 33 23 55.5t55 22.5q33 0 56 -22.5t23 -55.5q0 -32 -23 -55t-56 -23q-32 0 -55 23t-23 55zM12 700h351q43 0 60 8l24 -186h-2q-42 82 -87.5 118.5t-127.5 36.5h-27v-305h15q61 0 88 22t52 91h2v-238h-2q-24 67 -50.5 85t-89.5 18h-15v-327h32q84 0 133.5 41.5
t90.5 132.5h2l-22 -197h-427v2q30 17 39.5 40.5t9.5 75.5v464q0 52 -9.5 75.5t-39.5 40.5v2z" />
    <glyph glyph-name="edotaccent" unicode="&#x117;" horiz-adv-x="406" 
d="M143 645q0 32 23 55t55 23q33 0 56 -23t23 -55q0 -33 -23 -56t-56 -23q-32 0 -55 23t-23 56zM217 502q85 0 129 -64.5t44 -170.5h-239q0 -97 30 -152t87 -55q81 0 113 110l6 -1q-11 -85 -54.5 -132t-118.5 -47q-84 0 -141 69t-57 186q0 112 59.5 184.5t141.5 72.5z
M152 289h115q0 97 -9.5 145.5t-41.5 48.5q-28 0 -45 -53.5t-19 -140.5z" />
    <glyph glyph-name="Eogonek" unicode="&#x118;" horiz-adv-x="482" 
d="M402 -129q-30 -103 -106 -103q-37 0 -61 22.5t-24 58.5q0 74 118 151h-317v2q30 17 39.5 40.5t9.5 75.5v464q0 52 -9.5 75.5t-39.5 40.5v2h351q43 0 60 8l24 -186h-2q-42 82 -87.5 118.5t-127.5 36.5h-27v-305h15q61 0 88 22t52 91h2v-238h-2q-24 67 -50.5 85t-89.5 18
h-15v-327h32q84 0 133.5 41.5t90.5 132.5h2l-22 -197h-89q-64 -60 -64 -118q0 -59 49 -59q37 0 65 50z" />
    <glyph glyph-name="eogonek" unicode="&#x119;" horiz-adv-x="406" 
d="M231 -232q-37 0 -61.5 22.5t-24.5 58.5q0 75 112 145q-24 -4 -43 -4q-84 0 -141 69t-57 186q0 112 59.5 184.5t141.5 72.5q85 0 129 -64.5t44 -170.5h-239q0 -97 30 -152t87 -55q81 0 113 110l6 -1q-13 -107 -92 -162q-74 -52 -74 -125q0 -59 49 -59q38 0 64 50l3 -2
q-30 -103 -106 -103zM152 289h115q0 97 -9.5 145.5t-41.5 48.5q-28 0 -45 -53.5t-19 -140.5z" />
    <glyph glyph-name="Ecaron" unicode="&#x11a;" horiz-adv-x="482" 
d="M112 906q87 -12 139 -54q50 42 137 54h7q-102 -82 -142 -179h-5q-40 97 -142 179h6zM12 700h351q43 0 60 8l24 -186h-2q-42 82 -87.5 118.5t-127.5 36.5h-27v-305h15q61 0 88 22t52 91h2v-238h-2q-24 67 -50.5 85t-89.5 18h-15v-327h32q84 0 133.5 41.5t90.5 132.5h2
l-22 -197h-427v2q30 17 39.5 40.5t9.5 75.5v464q0 52 -9.5 75.5t-39.5 40.5v2z" />
    <glyph glyph-name="ecaron" unicode="&#x11b;" horiz-adv-x="406" 
d="M90 750q76 -25 132 -79q51 53 131 79h6q-95 -101 -135 -210h-4q-42 109 -136 210h6zM217 502q85 0 129 -64.5t44 -170.5h-239q0 -97 30 -152t87 -55q81 0 113 110l6 -1q-11 -85 -54.5 -132t-118.5 -47q-84 0 -141 69t-57 186q0 112 59.5 184.5t141.5 72.5zM152 289h115
q0 97 -9.5 145.5t-41.5 48.5q-28 0 -45 -53.5t-19 -140.5z" />
    <glyph glyph-name="Gcircumflex" unicode="&#x11c;" horiz-adv-x="544" 
d="M438 727q-88 12 -137 55q-51 -43 -139 -55h-6q102 82 142 179h5q40 -97 142 -179h-7zM305 688q-64 0 -96.5 -91t-32.5 -255q0 -323 111 -323q37 0 60.5 36.5t23.5 100.5v53q0 49 -11 74.5t-41 43.5v2h217v-2q-22 -17 -28 -40.5t-6 -75.5v-221h-2l-84 97
q-18 -45 -59.5 -71t-95.5 -26q-104 0 -172 98.5t-68 250.5q0 166 82 268.5t192 102.5q31 0 71 -14t52 -14q29 0 50 28l8 -246h-4q-29 98 -72.5 161t-94.5 63z" />
    <glyph glyph-name="gcircumflex" unicode="&#x11d;" horiz-adv-x="443" 
d="M349 572q-82 28 -131 79q-53 -52 -132 -79h-6q94 101 136 210h4q40 -109 135 -210h-6zM216 484q-52 0 -52 -145t52 -145q53 0 53 145t-53 145zM443 -40q0 -90 -69.5 -140.5t-170.5 -50.5q-50 0 -93 10.5t-74.5 38t-31.5 67.5q0 38 30 64t82 31q-40 7 -67 34t-27 71
q0 40 28 71t66 44q-80 43 -80 139q0 71 48 117t132 46q55 0 96 -22q7 46 30 74t54 28q32 0 48.5 -18t16.5 -44q0 -43 -52 -68l-1 2q3 10 3 20q0 17 -10 28t-27 11q-33 0 -48 -41q70 -43 70 -133q0 -71 -48 -116.5t-132 -45.5q-48 0 -86 16q-40 -17 -40 -49q0 -41 54 -41h136
q79 0 121 -37.5t42 -105.5zM211 -213q61 0 102 30t41 80q0 42 -24 61t-78 19h-83q-38 0 -61 -22t-23 -64q0 -50 35 -77t91 -27z" />
    <glyph glyph-name="Gbreve" unicode="&#x11e;" horiz-adv-x="544" 
d="M426 896q-9 -164 -125 -164q-56 0 -89 41.5t-37 122.5h5q7 -38 40.5 -57.5t80.5 -19.5t80.5 20t39.5 57h5zM305 688q-64 0 -96.5 -91t-32.5 -255q0 -323 111 -323q37 0 60.5 36.5t23.5 100.5v53q0 49 -11 74.5t-41 43.5v2h217v-2q-22 -17 -28 -40.5t-6 -75.5v-221h-2
l-84 97q-18 -45 -59.5 -71t-95.5 -26q-104 0 -172 98.5t-68 250.5q0 166 82 268.5t192 102.5q31 0 71 -14t52 -14q29 0 50 28l8 -246h-4q-29 98 -72.5 161t-94.5 63z" />
    <glyph glyph-name="gbreve" unicode="&#x11f;" horiz-adv-x="443" 
d="M334 731q0 -86 -32 -135.5t-85 -49.5t-85 49.5t-32 135.5h6q6 -48 37.5 -70.5t73.5 -22.5t73.5 22.5t37.5 70.5h6zM216 484q-52 0 -52 -145t52 -145q53 0 53 145t-53 145zM443 -40q0 -90 -69.5 -140.5t-170.5 -50.5q-50 0 -93 10.5t-74.5 38t-31.5 67.5q0 38 30 64t82 31
q-40 7 -67 34t-27 71q0 40 28 71t66 44q-80 43 -80 139q0 71 48 117t132 46q55 0 96 -22q7 46 30 74t54 28q32 0 48.5 -18t16.5 -44q0 -43 -52 -68l-1 2q3 10 3 20q0 17 -10 28t-27 11q-33 0 -48 -41q70 -43 70 -133q0 -71 -48 -116.5t-132 -45.5q-48 0 -86 16
q-40 -17 -40 -49q0 -41 54 -41h136q79 0 121 -37.5t42 -105.5zM211 -213q61 0 102 30t41 80q0 42 -24 61t-78 19h-83q-38 0 -61 -22t-23 -64q0 -50 35 -77t91 -27z" />
    <glyph glyph-name="Gdotaccent" unicode="&#x120;" horiz-adv-x="544" 
d="M222 818q0 33 23 55.5t55 22.5q33 0 56 -22.5t23 -55.5q0 -32 -23 -55t-56 -23q-32 0 -55 23t-23 55zM305 688q-64 0 -96.5 -91t-32.5 -255q0 -323 111 -323q37 0 60.5 36.5t23.5 100.5v53q0 49 -11 74.5t-41 43.5v2h217v-2q-22 -17 -28 -40.5t-6 -75.5v-221h-2l-84 97
q-18 -45 -59.5 -71t-95.5 -26q-104 0 -172 98.5t-68 250.5q0 166 82 268.5t192 102.5q31 0 71 -14t52 -14q29 0 50 28l8 -246h-4q-29 98 -72.5 161t-94.5 63z" />
    <glyph glyph-name="gdotaccent" unicode="&#x121;" horiz-adv-x="443" 
d="M139 645q0 32 23 55t55 23q33 0 56 -23t23 -55q0 -33 -23 -56t-56 -23q-32 0 -55 23t-23 56zM216 484q-52 0 -52 -145t52 -145q53 0 53 145t-53 145zM443 -40q0 -90 -69.5 -140.5t-170.5 -50.5q-50 0 -93 10.5t-74.5 38t-31.5 67.5q0 38 30 64t82 31q-40 7 -67 34t-27 71
q0 40 28 71t66 44q-80 43 -80 139q0 71 48 117t132 46q55 0 96 -22q7 46 30 74t54 28q32 0 48.5 -18t16.5 -44q0 -43 -52 -68l-1 2q3 10 3 20q0 17 -10 28t-27 11q-33 0 -48 -41q70 -43 70 -133q0 -71 -48 -116.5t-132 -45.5q-48 0 -86 16q-40 -17 -40 -49q0 -41 54 -41h136
q79 0 121 -37.5t42 -105.5zM211 -213q61 0 102 30t41 80q0 42 -24 61t-78 19h-83q-38 0 -61 -22t-23 -64q0 -50 35 -77t91 -27z" />
    <glyph glyph-name="uni0122" unicode="&#x122;" horiz-adv-x="544" 
d="M305 688q-64 0 -96.5 -91t-32.5 -255q0 -323 111 -323q37 0 60.5 36.5t23.5 100.5v53q0 49 -11 74.5t-41 43.5v2h217v-2q-22 -17 -28 -40.5t-6 -75.5v-221h-2l-84 97q-18 -45 -59.5 -71t-95.5 -26q-104 0 -172 98.5t-68 250.5q0 166 82 268.5t192 102.5q31 0 71 -14
t52 -14q29 0 50 28l8 -246h-4q-29 98 -72.5 161t-94.5 63zM374 -129q0 -53 -39.5 -84t-102.5 -33v15q89 6 97 68q-16 -14 -45 -14q-27 0 -45 18t-18 46q0 29 20.5 48.5t50.5 19.5q37 0 59.5 -23t22.5 -61z" />
    <glyph glyph-name="uni0123" unicode="&#x123;" horiz-adv-x="443" 
d="M140 640q0 53 39.5 84t102.5 33v-15q-89 -6 -97 -68q16 14 45 14q27 0 45 -18.5t18 -45.5q0 -29 -20.5 -48.5t-50.5 -19.5q-37 0 -59.5 22.5t-22.5 61.5zM216 484q-52 0 -52 -145t52 -145q53 0 53 145t-53 145zM443 -40q0 -90 -69.5 -140.5t-170.5 -50.5q-50 0 -93 10.5
t-74.5 38t-31.5 67.5q0 38 30 64t82 31q-40 7 -67 34t-27 71q0 40 28 71t66 44q-80 43 -80 139q0 71 48 117t132 46q55 0 96 -22q7 46 30 74t54 28q32 0 48.5 -18t16.5 -44q0 -43 -52 -68l-1 2q3 10 3 20q0 17 -10 28t-27 11q-33 0 -48 -41q70 -43 70 -133q0 -71 -48 -116.5
t-132 -45.5q-48 0 -86 16q-40 -17 -40 -49q0 -41 54 -41h136q79 0 121 -37.5t42 -105.5zM211 -213q61 0 102 30t41 80q0 42 -24 61t-78 19h-83q-38 0 -61 -22t-23 -64q0 -50 35 -77t91 -27z" />
    <glyph glyph-name="Hcircumflex" unicode="&#x124;" horiz-adv-x="592" 
d="M434 727q-88 12 -137 55q-51 -43 -139 -55h-6q102 82 142 179h5q40 -97 142 -179h-7zM61 118v464q0 52 -9.5 75.5t-39.5 40.5v2h240v-2q-30 -17 -39.5 -40.5t-9.5 -75.5v-209h186v209q0 52 -9 75.5t-40 40.5v2h240v-2q-30 -17 -39.5 -40.5t-9.5 -75.5v-464
q0 -52 9.5 -75.5t39.5 -40.5v-2h-240v2q31 17 40 40.5t9 75.5v227h-186v-227q0 -52 9.5 -75.5t39.5 -40.5v-2h-240v2q30 17 39.5 40.5t9.5 75.5z" />
    <glyph glyph-name="hcircumflex" unicode="&#x125;" horiz-adv-x="472" 
d="M376 767q-88 12 -137 55q-51 -43 -139 -55h-6q102 82 142 179h5q40 -97 142 -179h-7zM6 749h174v-361q14 55 48 84.5t81 29.5q56 0 86.5 -36t30.5 -99v-264q0 -50 6.5 -67.5t30.5 -33.5v-2h-205v2q24 16 30.5 33.5t6.5 67.5v262q0 66 -50 66q-28 0 -46.5 -28.5
t-18.5 -85.5v-214q0 -49 6.5 -67t29.5 -34v-2h-204v2q23 16 29.5 34t6.5 67v536q0 51 -8 71t-34 37v2z" />
    <glyph glyph-name="Hbar" unicode="&#x126;" horiz-adv-x="598" 
d="M392 353v117h-186v-117h186zM255 0h-240v2q30 17 39.5 40.5t9.5 75.5v352h-40v26h40v86q0 52 -9.5 75.5t-39.5 40.5v2h240v-2q-30 -17 -39.5 -40.5t-9.5 -75.5v-86h186v86q0 52 -9 75.5t-40 40.5v2h240v-2q-30 -17 -39.5 -40.5t-9.5 -75.5v-86h41v-26h-41v-352
q0 -52 9.5 -75.5t39.5 -40.5v-2h-240v2q31 17 40 40.5t9 75.5v207h-186v-207q0 -52 9.5 -75.5t39.5 -40.5v-2z" />
    <glyph glyph-name="hbar" unicode="&#x127;" horiz-adv-x="472" 
d="M216 2v-2h-204v2q23 16 29.5 34t6.5 67v477h-36v24h36v35q0 51 -8 71t-34 37v2h174v-145h92v-24h-92v-192q14 55 48 84.5t81 29.5q56 0 86.5 -36t30.5 -99v-264q0 -50 6.5 -67.5t30.5 -33.5v-2h-205v2q24 16 30.5 33.5t6.5 67.5v262q0 66 -50 66q-28 0 -46.5 -28.5
t-18.5 -85.5v-214q0 -49 6.5 -67t29.5 -34z" />
    <glyph glyph-name="Itilde" unicode="&#x128;" horiz-adv-x="264" 
d="M281 896q-7 -71 -31.5 -111t-63.5 -40q-24 0 -66 29t-64 29q-45 0 -68 -65h-6q7 71 32.5 111.5t62.5 40.5q25 0 67 -29t63 -29q43 0 69 64h5zM203 118q0 -52 9.5 -75.5t39.5 -40.5v-2h-240v2q30 17 39.5 40.5t9.5 75.5v464q0 52 -9.5 75.5t-39.5 40.5v2h240v-2
q-30 -17 -39.5 -40.5t-9.5 -75.5v-464z" />
    <glyph glyph-name="itilde" unicode="&#x129;" horiz-adv-x="231" 
d="M252 713q-7 -71 -30 -111t-57 -40q-26 0 -63.5 28.5t-56.5 28.5q-41 0 -62 -64h-5q6 71 29 111.5t57 40.5q26 0 63.5 -29t56.5 -29q41 0 62 64h6zM182 492v-389q0 -50 6.5 -67.5t30.5 -33.5v-2h-205v2q24 16 30.5 33.5t6.5 67.5v278q0 51 -8.5 72t-33.5 37v2h173z" />
    <glyph glyph-name="Imacron" unicode="&#x12a;" horiz-adv-x="264" 
d="M257 762h-250v37h250v-37zM203 118q0 -52 9.5 -75.5t39.5 -40.5v-2h-240v2q30 17 39.5 40.5t9.5 75.5v464q0 52 -9.5 75.5t-39.5 40.5v2h240v-2q-30 -17 -39.5 -40.5t-9.5 -75.5v-464z" />
    <glyph glyph-name="imacron" unicode="&#x12b;" horiz-adv-x="231" 
d="M220 585h-216v37h216v-37zM182 492v-389q0 -50 6.5 -67.5t30.5 -33.5v-2h-205v2q24 16 30.5 33.5t6.5 67.5v278q0 51 -8.5 72t-33.5 37v2h173z" />
    <glyph glyph-name="Ibreve" unicode="&#x12c;" horiz-adv-x="264" 
d="M257 896q-9 -164 -125 -164q-56 0 -89 41.5t-37 122.5h5q7 -38 40.5 -57.5t80.5 -19.5t80.5 20t39.5 57h5zM203 118q0 -52 9.5 -75.5t39.5 -40.5v-2h-240v2q30 17 39.5 40.5t9.5 75.5v464q0 52 -9.5 75.5t-39.5 40.5v2h240v-2q-30 -17 -39.5 -40.5t-9.5 -75.5v-464z" />
    <glyph glyph-name="ibreve" unicode="&#x12d;" horiz-adv-x="231" 
d="M231 731q0 -86 -32 -135.5t-84 -49.5q-53 0 -85 49.5t-32 135.5h5q6 -48 37.5 -70.5t74.5 -22.5q42 0 73.5 22.5t37.5 70.5h5zM182 492v-389q0 -50 6.5 -67.5t30.5 -33.5v-2h-205v2q24 16 30.5 33.5t6.5 67.5v278q0 51 -8.5 72t-33.5 37v2h173z" />
    <glyph glyph-name="Iogonek" unicode="&#x12e;" horiz-adv-x="264" 
d="M224 -129q-30 -103 -106 -103q-37 0 -61 22.5t-24 58.5q0 74 118 151h-139v2q30 17 39.5 40.5t9.5 75.5v464q0 52 -9.5 75.5t-39.5 40.5v2h240v-2q-30 -17 -39.5 -40.5t-9.5 -75.5v-464q0 -52 9.5 -75.5t39.5 -40.5v-2h-80q-64 -60 -64 -118q0 -59 49 -59q37 0 65 50z
" />
    <glyph glyph-name="iogonek" unicode="&#x12f;" horiz-adv-x="231" 
d="M38 645q0 32 22.5 55t55.5 23t56 -23t23 -55q0 -33 -23 -56t-56 -23t-55.5 23t-22.5 56zM207 -129q-30 -103 -106 -103q-37 0 -61 22.5t-24 58.5q0 74 118 151h-120v2q24 16 30.5 33.5t6.5 67.5v278q0 51 -8.5 72t-33.5 37v2h173v-389q0 -50 6.5 -67.5t30.5 -33.5v-2h-64
q-64 -60 -64 -118q0 -59 49 -59q37 0 65 50z" />
    <glyph glyph-name="Idotaccent" unicode="&#x130;" horiz-adv-x="264" 
d="M53 818q0 33 23 55.5t55 22.5q33 0 56 -22.5t23 -55.5q0 -32 -23 -55t-56 -23q-32 0 -55 23t-23 55zM203 118q0 -52 9.5 -75.5t39.5 -40.5v-2h-240v2q30 17 39.5 40.5t9.5 75.5v464q0 52 -9.5 75.5t-39.5 40.5v2h240v-2q-30 -17 -39.5 -40.5t-9.5 -75.5v-464z" />
    <glyph glyph-name="dotlessi" unicode="&#x131;" horiz-adv-x="231" 
d="M182 492v-389q0 -50 6.5 -67.5t30.5 -33.5v-2h-205v2q24 16 30.5 33.5t6.5 67.5v278q0 51 -8.5 72t-33.5 37v2h173z" />
    <glyph glyph-name="Jcircumflex" unicode="&#x134;" horiz-adv-x="475" 
d="M488 727q-88 12 -137 55q-51 -43 -139 -55h-6q102 82 142 179h5q40 -97 142 -179h-7zM280 152v430q0 52 -9.5 75.5t-39.5 40.5v2h241v-2q-30 -17 -39.5 -40.5t-10.5 -75.5v-383q0 -105 -65.5 -157t-160.5 -52q-80 0 -135 39t-55 109q0 48 31.5 77t76.5 29q60 0 86 -41
q-26 -2 -46 -26.5t-20 -65.5q0 -44 17.5 -73t50.5 -29q78 0 78 143z" />
    <glyph glyph-name="jcircumflex" unicode="&#x135;" horiz-adv-x="227" 
d="M246 536q-82 28 -131 79q-53 -52 -132 -79h-6q94 101 136 210h4q40 -109 135 -210h-6zM182 -37q0 -95 -48.5 -144.5t-127.5 -49.5q-57 0 -93 24.5t-36 71.5q0 33 21.5 54.5t52.5 21.5q19 0 36 -9.5t24 -23.5q-45 -11 -45 -66q0 -26 11 -41.5t30 -15.5q44 0 44 103v493
q0 51 -8.5 72t-33.5 37v2h173v-529z" />
    <glyph glyph-name="uni0136" unicode="&#x136;" horiz-adv-x="582" 
d="M252 0h-240v2q30 17 39.5 40.5t9.5 75.5v464q0 52 -9.5 75.5t-39.5 40.5v2h240v-2q-30 -17 -39.5 -40.5t-9.5 -75.5v-265l196 282q18 24 18 46q0 34 -42 53v2h198v-2q-92 -28 -150 -110l-94 -142l171 -335q24 -45 43.5 -70t47.5 -39v-2h-242v2q19 18 19 42t-17 60
l-115 221l-33 -48v-159q0 -52 9.5 -75.5t39.5 -40.5v-2zM363 -129q0 -53 -39.5 -84t-102.5 -33v15q89 6 97 68q-16 -14 -45 -14q-27 0 -45 18t-18 46q0 29 20.5 48.5t50.5 19.5q37 0 59.5 -23t22.5 -61z" />
    <glyph glyph-name="uni0137" unicode="&#x137;" horiz-adv-x="473" 
d="M180 280h23q33 0 54 29l65 90q18 24 18 44q0 33 -33 47v2h169v-2q-75 -22 -118 -82l-51 -76l97 -223q31 -71 82 -107v-2h-185q-1 29 -18 71l-71 165q-9 23 -25 23h-7v-156q0 -49 6.5 -67t29.5 -34v-2h-204v2q23 16 29.5 34t6.5 67v536q0 51 -8 71t-34 37v2h174v-469z
M316 -129q0 -53 -39.5 -84t-102.5 -33v15q89 6 97 68q-16 -14 -45 -14q-27 0 -45 18t-18 46q0 29 20.5 48.5t50.5 19.5q37 0 59.5 -23t22.5 -61z" />
    <glyph glyph-name="kgreenlandic" unicode="&#x138;" horiz-adv-x="475" 
d="M182 280h23q34 0 54 29l65 90q18 22 18 44q0 33 -33 47v2h169v-2q-75 -23 -117 -82l-51 -76l97 -223q30 -71 81 -107v-2h-185q0 26 -18 71l-70 165q-10 23 -25 23h-8v-156q0 -50 6.5 -67.5t30.5 -33.5v-2h-205v2q24 16 30.5 33.5t6.5 67.5v278q0 51 -8.5 71.5t-33.5 37.5
v2h173v-212z" />
    <glyph glyph-name="Lacute" unicode="&#x139;" horiz-adv-x="463" 
d="M137 886h140q-37 -112 -174 -155h-4q35 72 38 155zM12 700h240v-2q-30 -17 -39.5 -40.5t-9.5 -75.5v-559h36q76 0 122 45t92 154h2l-19 -222h-424v2q30 17 39.5 40.5t9.5 75.5v464q0 52 -9.5 75.5t-39.5 40.5v2z" />
    <glyph glyph-name="lacute" unicode="&#x13a;" horiz-adv-x="229" 
d="M82 920h140q-37 -112 -174 -155h-4q35 72 38 155zM180 749v-646q0 -49 6.5 -67t29.5 -34v-2h-204v2q23 16 29.5 34t6.5 67v536q0 51 -8 71t-34 37v2h174z" />
    <glyph glyph-name="uni013B" unicode="&#x13b;" horiz-adv-x="463" 
d="M12 700h240v-2q-30 -17 -39.5 -40.5t-9.5 -75.5v-559h36q76 0 122 45t92 154h2l-19 -222h-424v2q30 17 39.5 40.5t9.5 75.5v464q0 52 -9.5 75.5t-39.5 40.5v2zM312 -129q0 -53 -39.5 -84t-102.5 -33v15q89 6 97 68q-16 -14 -45 -14q-27 0 -45 18t-18 46q0 29 20.5 48.5
t50.5 19.5q37 0 59.5 -23t22.5 -61z" />
    <glyph glyph-name="uni013C" unicode="&#x13c;" horiz-adv-x="229" 
d="M180 749v-646q0 -49 6.5 -67t29.5 -34v-2h-204v2q23 16 29.5 34t6.5 67v536q0 51 -8 71t-34 37v2h174zM188 -129q0 -53 -39.5 -84t-102.5 -33v15q89 6 97 68q-16 -14 -45 -14q-27 0 -45 18t-18 46q0 29 20.5 48.5t50.5 19.5q37 0 59.5 -23t22.5 -61z" />
    <glyph glyph-name="Lcaron" unicode="&#x13d;" horiz-adv-x="463" 
d="M12 700h240v-2q-30 -17 -39.5 -40.5t-9.5 -75.5v-559h36q76 0 122 45t92 154h2l-19 -222h-424v2q30 17 39.5 40.5t9.5 75.5v464q0 52 -9.5 75.5t-39.5 40.5v2zM415 700q-13 -58 -47.5 -116t-80.5 -96h-4q23 101 16 212h116z" />
    <glyph glyph-name="lcaron" unicode="&#x13e;" horiz-adv-x="229" 
d="M180 749v-646q0 -49 6.5 -67t29.5 -34v-2h-204v2q23 16 29.5 34t6.5 67v536q0 51 -8 71t-34 37v2h174zM340 749q-13 -58 -47.5 -116t-80.5 -96h-4q23 101 16 212h116z" />
    <glyph glyph-name="Ldot" unicode="&#x13f;" horiz-adv-x="463" 
d="M12 700h240v-2q-30 -17 -39.5 -40.5t-9.5 -75.5v-559h36q76 0 122 45t92 154h2l-19 -222h-424v2q30 17 39.5 40.5t9.5 75.5v464q0 52 -9.5 75.5t-39.5 40.5v2zM289 356q0 32 23 55t55 23q33 0 56 -23t23 -55q0 -33 -23 -56t-56 -23q-32 0 -55 23t-23 56z" />
    <glyph glyph-name="ldot" unicode="&#x140;" horiz-adv-x="366" 
d="M180 749v-646q0 -49 6.5 -67t29.5 -34v-2h-204v2q23 16 29.5 34t6.5 67v536q0 51 -8 71t-34 37v2h174zM215 374q0 32 23 55t55 23q33 0 56 -23t23 -55q0 -33 -23 -56t-56 -23q-32 0 -55 23t-23 56z" />
    <glyph glyph-name="Lslash" unicode="&#x141;" horiz-adv-x="467" 
d="M436 0h-424v2q30 17 39.5 40.5t9.5 75.5v179l-40 -14v29l40 15v255q0 52 -9.5 75.5t-39.5 40.5v2h240v-2q-30 -17 -39.5 -40.5t-9.5 -75.5v-208l102 37v-28l-102 -38v-322h36q76 0 122 45t92 154h2z" />
    <glyph glyph-name="lslash" unicode="&#x142;" horiz-adv-x="251" 
d="M227 0h-204v2q23 16 29.5 34t6.5 67v271l-54 -33v29l54 33v236q0 51 -8 71t-34 37v2h174v-283l55 33v-28l-55 -34v-334q0 -49 6.5 -67t29.5 -34v-2z" />
    <glyph glyph-name="Nacute" unicode="&#x143;" horiz-adv-x="530" 
d="M248 886h140q-37 -112 -174 -155h-4q35 72 38 155zM536 698q-65 -36 -65 -133v-571h-43l-337 625v-465q0 -68 16.5 -101t53.5 -51v-2h-164v2q64 35 64 133v447q0 52 -9.5 75.5t-39.5 40.5v2h201l228 -430v276q0 68 -16 101t-53 51v2h164v-2z" />
    <glyph glyph-name="nacute" unicode="&#x144;" horiz-adv-x="475" 
d="M215 732h122q-16 -63 -51.5 -108t-98.5 -83h-4q32 69 32 191zM9 492h173v-104q14 54 48.5 84t81.5 30q56 0 86 -35.5t30 -99.5v-264q0 -49 7 -67t31 -34v-2h-206v2q24 16 30.5 33.5t6.5 67.5v262q0 66 -50 66q-28 0 -46.5 -28.5t-18.5 -85.5v-214q0 -50 6.5 -67.5
t30.5 -33.5v-2h-205v2q24 16 30.5 33.5t6.5 67.5v278q0 51 -8.5 72t-33.5 37v2z" />
    <glyph glyph-name="uni0145" unicode="&#x145;" horiz-adv-x="530" 
d="M536 698q-65 -36 -65 -133v-571h-43l-337 625v-465q0 -68 16.5 -101t53.5 -51v-2h-164v2q64 35 64 133v447q0 52 -9.5 75.5t-39.5 40.5v2h201l228 -430v276q0 68 -16 101t-53 51v2h164v-2zM348 -129q0 -53 -39.5 -84t-102.5 -33v15q89 6 97 68q-16 -14 -45 -14
q-27 0 -45 18t-18 46q0 29 20.5 48.5t50.5 19.5q37 0 59.5 -23t22.5 -61z" />
    <glyph glyph-name="uni0146" unicode="&#x146;" horiz-adv-x="475" 
d="M9 492h173v-104q14 54 48.5 84t81.5 30q56 0 86 -35.5t30 -99.5v-264q0 -49 7 -67t31 -34v-2h-206v2q24 16 30.5 33.5t6.5 67.5v262q0 66 -50 66q-28 0 -46.5 -28.5t-18.5 -85.5v-214q0 -50 6.5 -67.5t30.5 -33.5v-2h-205v2q24 16 30.5 33.5t6.5 67.5v278q0 51 -8.5 72
t-33.5 37v2zM321 -129q0 -53 -39.5 -84t-102.5 -33v15q89 6 97 68q-16 -14 -45 -14q-27 0 -45 18t-18 46q0 29 20.5 48.5t50.5 19.5q37 0 59.5 -23t22.5 -61z" />
    <glyph glyph-name="Ncaron" unicode="&#x147;" horiz-adv-x="530" 
d="M145 906q87 -12 139 -54q50 42 137 54h7q-102 -82 -142 -179h-5q-40 97 -142 179h6zM536 698q-65 -36 -65 -133v-571h-43l-337 625v-465q0 -68 16.5 -101t53.5 -51v-2h-164v2q64 35 64 133v447q0 52 -9.5 75.5t-39.5 40.5v2h201l228 -430v276q0 68 -16 101t-53 51v2h164
v-2z" />
    <glyph glyph-name="ncaron" unicode="&#x148;" horiz-adv-x="475" 
d="M117 750q76 -25 132 -79q51 53 131 79h6q-95 -101 -135 -210h-4q-42 109 -136 210h6zM9 492h173v-104q14 54 48.5 84t81.5 30q56 0 86 -35.5t30 -99.5v-264q0 -49 7 -67t31 -34v-2h-206v2q24 16 30.5 33.5t6.5 67.5v262q0 66 -50 66q-28 0 -46.5 -28.5t-18.5 -85.5v-214
q0 -50 6.5 -67.5t30.5 -33.5v-2h-205v2q24 16 30.5 33.5t6.5 67.5v278q0 51 -8.5 72t-33.5 37v2z" />
    <glyph glyph-name="Eng" unicode="&#x14a;" horiz-adv-x="530" 
d="M441 -64v66l-350 617v-465q0 -68 16.5 -101t53.5 -51v-2h-164v2q64 35 64 133v447q0 52 -9.5 75.5t-39.5 40.5v2h201l228 -421v267q0 68 -16 101t-53 51v2h164v-2q-65 -36 -65 -133v-624q0 -82 -34.5 -127t-99.5 -45q-60 0 -96 28.5t-36 76.5q0 31 23.5 51.5t58.5 20.5
q41 0 62 -19q-47 -12 -47 -69q0 -27 14.5 -44.5t38.5 -17.5q86 0 86 140z" />
    <glyph glyph-name="eng" unicode="&#x14b;" horiz-adv-x="474" 
d="M253 -231q-58 0 -94 24.5t-36 71.5q0 33 21.5 54.5t52.5 21.5q43 0 60 -33q-45 -11 -45 -66q0 -26 11 -41.5t30 -15.5q44 0 44 103v477q0 66 -50 66q-28 0 -46.5 -28.5t-18.5 -85.5v-214q0 -50 6.5 -67.5t30.5 -33.5v-2h-205v2q24 16 30.5 33.5t6.5 67.5v278
q0 51 -8.5 72t-33.5 37v2h173v-104q14 54 48.5 84t81.5 30q56 0 86 -35.5t30 -99.5v-404q0 -95 -48.5 -144.5t-126.5 -49.5z" />
    <glyph glyph-name="Omacron" unicode="&#x14c;" horiz-adv-x="572" 
d="M411 762h-250v37h250v-37zM550 350q0 -157 -75.5 -258.5t-188.5 -101.5q-114 0 -189 101.5t-75 258.5t75 258.5t189 101.5q113 0 188.5 -101.5t75.5 -258.5zM391 350q0 339 -105 339t-105 -339t105 -339t105 339z" />
    <glyph glyph-name="omacron" unicode="&#x14d;" horiz-adv-x="444" 
d="M347 585h-250v37h250v-37zM222 -10q-87 0 -146.5 72t-59.5 184t59.5 184t146.5 72q88 0 147 -72t59 -184t-59 -184t-147 -72zM222 8q67 0 67 238q0 237 -67 237t-67 -237q0 -238 67 -238z" />
    <glyph glyph-name="Obreve" unicode="&#x14e;" horiz-adv-x="572" 
d="M411 896q-9 -164 -125 -164q-56 0 -89 41.5t-37 122.5h5q7 -38 40.5 -57.5t80.5 -19.5t80.5 20t39.5 57h5zM550 350q0 -157 -75.5 -258.5t-188.5 -101.5q-114 0 -189 101.5t-75 258.5t75 258.5t189 101.5q113 0 188.5 -101.5t75.5 -258.5zM391 350q0 339 -105 339
t-105 -339t105 -339t105 339z" />
    <glyph glyph-name="obreve" unicode="&#x14f;" horiz-adv-x="444" 
d="M339 731q0 -86 -32 -135.5t-85 -49.5t-85 49.5t-32 135.5h6q6 -48 37.5 -70.5t73.5 -22.5t73.5 22.5t37.5 70.5h6zM222 -10q-87 0 -146.5 72t-59.5 184t59.5 184t146.5 72q88 0 147 -72t59 -184t-59 -184t-147 -72zM222 8q67 0 67 238q0 237 -67 237t-67 -237
q0 -238 67 -238z" />
    <glyph glyph-name="Ohungarumlaut" unicode="&#x150;" horiz-adv-x="572" 
d="M226 899h117q-19 -57 -53 -96.5t-92 -70.5h-4q32 82 32 167zM360 899h117q-35 -108 -144 -167h-4q31 80 31 167zM550 350q0 -157 -75.5 -258.5t-188.5 -101.5q-114 0 -189 101.5t-75 258.5t75 258.5t189 101.5q113 0 188.5 -101.5t75.5 -258.5zM391 350q0 339 -105 339
t-105 -339t105 -339t105 339z" />
    <glyph glyph-name="ohungarumlaut" unicode="&#x151;" horiz-adv-x="444" 
d="M163 732h113q-17 -65 -49 -109.5t-92 -81.5h-4q32 69 32 191zM298 732h113q-17 -65 -49 -109.5t-92 -81.5h-4q32 69 32 191zM222 -10q-87 0 -146.5 72t-59.5 184t59.5 184t146.5 72q88 0 147 -72t59 -184t-59 -184t-147 -72zM222 8q67 0 67 238q0 237 -67 237t-67 -237
q0 -238 67 -238z" />
    <glyph glyph-name="OE" unicode="&#x152;" horiz-adv-x="789" 
d="M368 24v652h-20q-81 0 -126.5 -81t-45.5 -250q0 -157 47 -239t132 -82h13zM768 197l-22 -197h-391q-147 1 -240 90t-93 255q0 172 92 263.5t229 91.5h327q43 0 60 8l24 -186h-2q-42 82 -87.5 118.5t-127.5 36.5h-27v-305h14q61 0 88 22t52 91h2v-238h-2q-24 67 -50.5 85
t-89.5 18h-14v-327h32q83 0 133 41.5t91 132.5h2z" />
    <glyph glyph-name="oe" unicode="&#x153;" horiz-adv-x="672" 
d="M654 169q-12 -85 -55.5 -132t-118.5 -47q-76 0 -127 69q-54 -69 -131 -69q-87 0 -146.5 72t-59.5 184t59.5 184t146.5 72q81 0 133 -72q54 72 128 72q86 0 129.5 -64.5t43.5 -170.5h-238q0 -97 30 -152t86 -55q81 0 113 110zM289 246q0 237 -67 237t-67 -237
q0 -238 67 -238t67 238zM418 289h115q0 97 -9.5 145.5t-40.5 48.5q-29 0 -46 -53.5t-19 -140.5z" />
    <glyph glyph-name="Racute" unicode="&#x154;" horiz-adv-x="556" 
d="M243 886h140q-37 -112 -174 -155h-4q35 72 38 155zM203 675v-324h24q65 0 102.5 41t37.5 123q0 77 -37 118.5t-103 41.5h-24zM12 700h252q114 0 183 -45t69 -141q0 -84 -63 -128.5t-153 -46.5q154 -11 175 -133l14 -81q9 -53 27.5 -78.5t61.5 -44.5v-2h-194
q-26 39 -37 108l-15 109q-8 53 -33 81.5t-75 28.5h-21v-209q0 -52 9.5 -75.5t39.5 -40.5v-2h-240v2q30 17 39.5 40.5t9.5 75.5v464q0 52 -9.5 75.5t-39.5 40.5v2z" />
    <glyph glyph-name="racute" unicode="&#x155;" horiz-adv-x="388" 
d="M178 732h122q-16 -63 -51.5 -108t-98.5 -83h-4q32 69 32 191zM268 331q28 10 28 44q0 45 -44 45q-29 0 -49.5 -37.5t-20.5 -98.5v-184q0 -47 9.5 -64.5t37.5 -33.5v-2h-215v2q24 16 30.5 33.5t6.5 67.5v278q0 51 -8.5 72t-33.5 37v2h173v-126q12 59 41.5 97t72.5 38
q39 0 63 -25t24 -64q0 -41 -23 -66t-58 -25q-26 0 -34 10z" />
    <glyph glyph-name="uni0156" unicode="&#x156;" horiz-adv-x="556" 
d="M203 675v-324h24q65 0 102.5 41t37.5 123q0 77 -37 118.5t-103 41.5h-24zM12 700h252q114 0 183 -45t69 -141q0 -84 -63 -128.5t-153 -46.5q154 -11 175 -133l14 -81q9 -53 27.5 -78.5t61.5 -44.5v-2h-194q-26 39 -37 108l-15 109q-8 53 -33 81.5t-75 28.5h-21v-209
q0 -52 9.5 -75.5t39.5 -40.5v-2h-240v2q30 17 39.5 40.5t9.5 75.5v464q0 52 -9.5 75.5t-39.5 40.5v2zM355 -129q0 -53 -39.5 -84t-102.5 -33v15q89 6 97 68q-16 -14 -45 -14q-27 0 -45 18t-18 46q0 29 20.5 48.5t50.5 19.5q37 0 59.5 -23t22.5 -61z" />
    <glyph glyph-name="uni0157" unicode="&#x157;" horiz-adv-x="388" 
d="M268 331q28 10 28 44q0 45 -44 45q-29 0 -49.5 -37.5t-20.5 -98.5v-184q0 -47 9.5 -64.5t37.5 -33.5v-2h-215v2q24 16 30.5 33.5t6.5 67.5v278q0 51 -8.5 72t-33.5 37v2h173v-126q12 59 41.5 97t72.5 38q39 0 63 -25t24 -64q0 -41 -23 -66t-58 -25q-26 0 -34 10z
M198 -129q0 -53 -39.5 -84t-102.5 -33v15q89 6 97 68q-16 -14 -45 -14q-27 0 -45 18t-18 46q0 29 20.5 48.5t50.5 19.5q37 0 59.5 -23t22.5 -61z" />
    <glyph glyph-name="Rcaron" unicode="&#x158;" horiz-adv-x="556" 
d="M140 906q87 -12 139 -54q50 42 137 54h7q-102 -82 -142 -179h-5q-40 97 -142 179h6zM203 675v-324h24q65 0 102.5 41t37.5 123q0 77 -37 118.5t-103 41.5h-24zM12 700h252q114 0 183 -45t69 -141q0 -84 -63 -128.5t-153 -46.5q154 -11 175 -133l14 -81q9 -53 27.5 -78.5
t61.5 -44.5v-2h-194q-26 39 -37 108l-15 109q-8 53 -33 81.5t-75 28.5h-21v-209q0 -52 9.5 -75.5t39.5 -40.5v-2h-240v2q30 17 39.5 40.5t9.5 75.5v464q0 52 -9.5 75.5t-39.5 40.5v2z" />
    <glyph glyph-name="rcaron" unicode="&#x159;" horiz-adv-x="388" 
d="M81 750q76 -25 132 -79q51 53 131 79h6q-95 -101 -135 -210h-4q-42 109 -136 210h6zM268 331q28 10 28 44q0 45 -44 45q-29 0 -49.5 -37.5t-20.5 -98.5v-184q0 -47 9.5 -64.5t37.5 -33.5v-2h-215v2q24 16 30.5 33.5t6.5 67.5v278q0 51 -8.5 72t-33.5 37v2h173v-126
q12 59 41.5 97t72.5 38q39 0 63 -25t24 -64q0 -41 -23 -66t-58 -25q-26 0 -34 10z" />
    <glyph glyph-name="Sacute" unicode="&#x15a;" horiz-adv-x="458" 
d="M204 886h140q-37 -112 -174 -155h-4q35 72 38 155zM235 689q-43 0 -72 -32.5t-29 -80.5q0 -29 10 -52t32 -42t39.5 -30t51.5 -29q43 -24 64 -37.5t51.5 -41.5t44 -63.5t13.5 -82.5q0 -94 -63 -151t-150 -57q-38 0 -83.5 14t-58.5 14q-27 0 -53 -28l-13 248h2
q38 -103 92 -165t110 -62q51 0 80.5 32.5t29.5 89.5q0 30 -10.5 53.5t-33.5 44t-41.5 32.5t-52.5 32q-3 2 -5 3t-4.5 2.5t-4.5 2.5q-36 20 -58.5 36t-48 41t-38 57t-12.5 72q0 90 59 145.5t147 55.5q34 0 73.5 -12.5t52.5 -12.5q26 0 44 25l10 -218h-2q-35 95 -73 146
t-100 51z" />
    <glyph glyph-name="sacute" unicode="&#x15b;" horiz-adv-x="364" 
d="M152 732h122q-16 -63 -51.5 -108t-98.5 -83h-4q32 69 32 191zM172 483q-27 0 -43.5 -18t-16.5 -47q0 -32 19 -52.5t73 -44.5q73 -33 106.5 -72.5t33.5 -99.5q0 -73 -46 -116t-114 -43q-31 0 -65 11t-45 11q-23 0 -43 -22l-9 192h3q31 -80 72 -127t84 -47q32 0 50 21
t18 55q0 37 -19.5 56.5t-68.5 43.5q-73 33 -104.5 69.5t-31.5 98.5q0 66 42.5 108t101.5 42q28 0 59.5 -12t43.5 -12q19 0 43 24v-168h-3q-58 149 -140 149z" />
    <glyph glyph-name="Scircumflex" unicode="&#x15c;" horiz-adv-x="458" 
d="M377 727q-88 12 -137 55q-51 -43 -139 -55h-6q102 82 142 179h5q40 -97 142 -179h-7zM235 689q-43 0 -72 -32.5t-29 -80.5q0 -29 10 -52t32 -42t39.5 -30t51.5 -29q43 -24 64 -37.5t51.5 -41.5t44 -63.5t13.5 -82.5q0 -94 -63 -151t-150 -57q-38 0 -83.5 14t-58.5 14
q-27 0 -53 -28l-13 248h2q38 -103 92 -165t110 -62q51 0 80.5 32.5t29.5 89.5q0 30 -10.5 53.5t-33.5 44t-41.5 32.5t-52.5 32q-3 2 -5 3t-4.5 2.5t-4.5 2.5q-36 20 -58.5 36t-48 41t-38 57t-12.5 72q0 90 59 145.5t147 55.5q34 0 73.5 -12.5t52.5 -12.5q26 0 44 25l10 -218
h-2q-35 95 -73 146t-100 51z" />
    <glyph glyph-name="scircumflex" unicode="&#x15d;" horiz-adv-x="364" 
d="M316 536q-82 28 -131 79q-53 -52 -132 -79h-6q94 101 136 210h4q40 -109 135 -210h-6zM172 483q-27 0 -43.5 -18t-16.5 -47q0 -32 19 -52.5t73 -44.5q73 -33 106.5 -72.5t33.5 -99.5q0 -73 -46 -116t-114 -43q-31 0 -65 11t-45 11q-23 0 -43 -22l-9 192h3q31 -80 72 -127
t84 -47q32 0 50 21t18 55q0 37 -19.5 56.5t-68.5 43.5q-73 33 -104.5 69.5t-31.5 98.5q0 66 42.5 108t101.5 42q28 0 59.5 -12t43.5 -12q19 0 43 24v-168h-3q-58 149 -140 149z" />
    <glyph glyph-name="uni015E" unicode="&#x15e;" horiz-adv-x="458" 
d="M229 -224q-36 0 -61.5 20.5t-33.5 48.5l6 5q21 -39 53 -39q20 0 31.5 14.5t11.5 39.5q0 57 -60 60l35 66q-32 2 -72.5 14.5t-53.5 12.5q-27 0 -53 -28l-13 248h2q38 -103 92 -165t110 -62q51 0 80.5 32.5t29.5 89.5q0 30 -10.5 53.5t-33.5 44t-41.5 32.5t-52.5 32
q-3 2 -5 3t-4.5 2.5t-4.5 2.5q-36 20 -58.5 36t-48 41t-38 57t-12.5 72q0 90 59 145.5t147 55.5q34 0 73.5 -12.5t52.5 -12.5q26 0 44 25l10 -218h-2q-35 95 -73 146t-100 51q-43 0 -72 -32.5t-29 -80.5q0 -29 10 -52t32 -42t39.5 -30t51.5 -29q43 -24 64 -37.5t51.5 -41.5
t44 -63.5t13.5 -82.5q0 -94 -62.5 -151t-149.5 -57l-23 -46q51 2 83 -20t32 -63q0 -39 -26.5 -62t-64.5 -23z" />
    <glyph glyph-name="uni015F" unicode="&#x15f;" horiz-adv-x="364" 
d="M174 -224q-36 0 -61.5 20.5t-33.5 48.5l6 5q21 -39 53 -39q20 0 31.5 14.5t11.5 39.5q0 57 -60 60l35 67q-18 2 -44 11t-38 9q-23 0 -43 -22l-9 192h3q31 -80 72 -127t84 -47q32 0 50 21t18 55q0 37 -19.5 56.5t-68.5 43.5q-73 33 -104.5 69.5t-31.5 98.5q0 66 42.5 108
t101.5 42q28 0 59.5 -12t43.5 -12q19 0 43 24v-168h-3q-58 149 -140 149q-27 0 -43.5 -18t-16.5 -47q0 -32 19 -52.5t73 -44.5q73 -33 106.5 -72.5t33.5 -99.5q0 -73 -46 -116t-114 -43h-11l-23 -46q51 2 83 -20t32 -63q0 -39 -26.5 -62t-64.5 -23z" />
    <glyph glyph-name="Scaron" unicode="&#x160;" horiz-adv-x="458" 
d="M101 906q87 -12 139 -54q50 42 137 54h7q-102 -82 -142 -179h-5q-40 97 -142 179h6zM235 689q-43 0 -72 -32.5t-29 -80.5q0 -29 10 -52t32 -42t39.5 -30t51.5 -29q43 -24 64 -37.5t51.5 -41.5t44 -63.5t13.5 -82.5q0 -94 -63 -151t-150 -57q-38 0 -83.5 14t-58.5 14
q-27 0 -53 -28l-13 248h2q38 -103 92 -165t110 -62q51 0 80.5 32.5t29.5 89.5q0 30 -10.5 53.5t-33.5 44t-41.5 32.5t-52.5 32q-3 2 -5 3t-4.5 2.5t-4.5 2.5q-36 20 -58.5 36t-48 41t-38 57t-12.5 72q0 90 59 145.5t147 55.5q34 0 73.5 -12.5t52.5 -12.5q26 0 44 25l10 -218
h-2q-35 95 -73 146t-100 51z" />
    <glyph glyph-name="scaron" unicode="&#x161;" horiz-adv-x="364" 
d="M54 750q76 -25 132 -79q51 53 131 79h6q-95 -101 -135 -210h-4q-42 109 -136 210h6zM172 483q-27 0 -43.5 -18t-16.5 -47q0 -32 19 -52.5t73 -44.5q73 -33 106.5 -72.5t33.5 -99.5q0 -73 -46 -116t-114 -43q-31 0 -65 11t-45 11q-23 0 -43 -22l-9 192h3q31 -80 72 -127
t84 -47q32 0 50 21t18 55q0 37 -19.5 56.5t-68.5 43.5q-73 33 -104.5 69.5t-31.5 98.5q0 66 42.5 108t101.5 42q28 0 59.5 -12t43.5 -12q19 0 43 24v-168h-3q-58 149 -140 149z" />
    <glyph glyph-name="uni0162" unicode="&#x162;" horiz-adv-x="575" 
d="M293 -224q-36 0 -61.5 20.5t-33.5 48.5l6 5q21 -39 53 -39q20 0 31.5 14.5t11.5 39.5q0 57 -60 60l40 75h-123v2q35 19 47.5 41t12.5 70v566h-9q-70 0 -107.5 -45t-86.5 -166h-2l18 240q16 -8 59 -8h397q43 0 60 8l17 -240h-2q-25 61 -42 95.5t-39.5 63.5t-49 40.5
t-62.5 11.5h-10v-566q0 -49 12 -70.5t48 -40.5v-2h-121l-28 -56q51 2 83 -20t32 -63q0 -39 -26.5 -62t-64.5 -23z" />
    <glyph glyph-name="uni0163" unicode="&#x163;" horiz-adv-x="301" 
d="M167 -224q-36 0 -61.5 20.5t-33.5 48.5l6 5q21 -39 53 -39q20 0 31.5 14.5t11.5 39.5q0 57 -60 60l35 66q-105 8 -105 151l1 324h-43v10q59 16 102.5 65t61.5 123h9v-172h105l-5 -26h-100v-328q0 -80 44 -80q51 0 63 102l9 -1q-12 -169 -125 -169l-23 -46q51 2 83 -20
t32 -63q0 -39 -26.5 -62t-64.5 -23z" />
    <glyph glyph-name="Tcaron" unicode="&#x164;" horiz-adv-x="575" 
d="M149 906q87 -12 139 -54q50 42 137 54h7q-102 -82 -142 -179h-5q-40 97 -142 179h6zM89 700h397q43 0 60 8l17 -240h-2q-25 61 -42 95.5t-39.5 63.5t-49 40.5t-62.5 11.5h-10v-566q0 -49 12 -70.5t48 -40.5v-2h-261v2q35 19 47.5 41t12.5 70v566h-9q-70 0 -107.5 -45
t-86.5 -166h-2l18 240q16 -8 59 -8z" />
    <glyph glyph-name="tcaron" unicode="&#x165;" horiz-adv-x="301" 
d="M345 749q-13 -58 -47.5 -116t-80.5 -96h-4q23 101 16 212h116zM282 160l9 -1q-12 -169 -128 -169q-119 0 -119 152l1 324h-43v10q59 16 102.5 65t61.5 123h9v-172h105l-5 -26h-100v-328q0 -80 44 -80q51 0 63 102z" />
    <glyph glyph-name="Tbar" unicode="&#x166;" horiz-adv-x="575" 
d="M418 2v-2h-261v2q35 19 47.5 41t12.5 70v235h-74v26h74v305h-9q-70 0 -107.5 -45t-86.5 -166h-2l18 240q16 -8 59 -8h397q43 0 60 8l17 -240h-2q-25 61 -42 95.5t-39.5 63.5t-49 40.5t-62.5 11.5h-10v-305h74v-26h-74v-235q0 -49 12 -70.5t48 -40.5z" />
    <glyph glyph-name="tbar" unicode="&#x167;" horiz-adv-x="315" 
d="M300 159q-13 -169 -128 -169q-120 0 -119 152l1 181h-40v23h40v120h-43v10q59 16 102.5 65t61.5 123h9v-172h105l-5 -26h-100v-120h97v-23h-97v-185q0 -80 44 -80q51 0 63 102z" />
    <glyph glyph-name="Utilde" unicode="&#x168;" horiz-adv-x="531" 
d="M437 896q-7 -71 -31.5 -111t-63.5 -40q-24 0 -66 29t-64 29q-45 0 -68 -65h-6q7 71 32.5 111.5t62.5 40.5q25 0 67 -29t63 -29q43 0 69 64h5zM479 565v-354q0 -100 -55 -160.5t-154 -60.5q-103 0 -160.5 58.5t-57.5 164.5v369q-1 52 -10 75.5t-39 40.5v2h240v-2
q-30 -17 -39.5 -40.5t-10.5 -75.5v-363q0 -170 127 -170q60 0 94.5 44.5t34.5 121.5v331q0 68 -16.5 101t-53.5 51v2h164v-2q-64 -34 -64 -133z" />
    <glyph glyph-name="utilde" unicode="&#x169;" horiz-adv-x="469" 
d="M377 712q-7 -71 -30.5 -110.5t-60.5 -39.5q-27 0 -66 28.5t-59 28.5q-43 0 -65 -64h-5q6 70 30 110.5t60 40.5q27 0 66 -28.5t59 -28.5q42 0 65 63h6zM288 176v205q0 51 -8.5 72t-33.5 37v2h173v-383q0 -51 7 -71.5t30 -35.5v-2h-168v103q-14 -55 -47 -84t-80 -29
q-54 0 -84.5 36t-30.5 99v256q0 51 -8 72t-34 37v2h173v-364q0 -66 48 -66q28 0 45.5 28.5t17.5 85.5z" />
    <glyph glyph-name="Umacron" unicode="&#x16a;" horiz-adv-x="531" 
d="M414 762h-250v37h250v-37zM479 565v-354q0 -100 -55 -160.5t-154 -60.5q-103 0 -160.5 58.5t-57.5 164.5v369q-1 52 -10 75.5t-39 40.5v2h240v-2q-30 -17 -39.5 -40.5t-10.5 -75.5v-363q0 -170 127 -170q60 0 94.5 44.5t34.5 121.5v331q0 68 -16.5 101t-53.5 51v2h164v-2
q-64 -34 -64 -133z" />
    <glyph glyph-name="umacron" unicode="&#x16b;" horiz-adv-x="469" 
d="M359 585h-250v37h250v-37zM288 176v205q0 51 -8.5 72t-33.5 37v2h173v-383q0 -51 7 -71.5t30 -35.5v-2h-168v103q-14 -55 -47 -84t-80 -29q-54 0 -84.5 36t-30.5 99v256q0 51 -8 72t-34 37v2h173v-364q0 -66 48 -66q28 0 45.5 28.5t17.5 85.5z" />
    <glyph glyph-name="Ubreve" unicode="&#x16c;" horiz-adv-x="531" 
d="M414 896q-9 -164 -125 -164q-56 0 -89 41.5t-37 122.5h5q7 -38 40.5 -57.5t80.5 -19.5t80.5 20t39.5 57h5zM479 565v-354q0 -100 -55 -160.5t-154 -60.5q-103 0 -160.5 58.5t-57.5 164.5v369q-1 52 -10 75.5t-39 40.5v2h240v-2q-30 -17 -39.5 -40.5t-10.5 -75.5v-363
q0 -170 127 -170q60 0 94.5 44.5t34.5 121.5v331q0 68 -16.5 101t-53.5 51v2h164v-2q-64 -34 -64 -133z" />
    <glyph glyph-name="ubreve" unicode="&#x16d;" horiz-adv-x="469" 
d="M351 731q0 -86 -32 -135.5t-85 -49.5t-85 49.5t-32 135.5h6q6 -48 37.5 -70.5t73.5 -22.5t73.5 22.5t37.5 70.5h6zM288 176v205q0 51 -8.5 72t-33.5 37v2h173v-383q0 -51 7 -71.5t30 -35.5v-2h-168v103q-14 -55 -47 -84t-80 -29q-54 0 -84.5 36t-30.5 99v256q0 51 -8 72
t-34 37v2h173v-364q0 -66 48 -66q28 0 45.5 28.5t17.5 85.5z" />
    <glyph glyph-name="Uring" unicode="&#x16e;" horiz-adv-x="531" 
d="M288 906q38 0 65.5 -27.5t27.5 -64.5t-27.5 -63.5t-65.5 -26.5q-37 0 -64.5 26.5t-27.5 63.5t27.5 64.5t64.5 27.5zM288 749q27 0 46.5 19t19.5 46t-19.5 46.5t-46.5 19.5t-46.5 -19.5t-19.5 -46.5t19.5 -46t46.5 -19zM479 565v-354q0 -100 -55 -160.5t-154 -60.5
q-103 0 -160.5 58.5t-57.5 164.5v369q-1 52 -10 75.5t-39 40.5v2h240v-2q-30 -17 -39.5 -40.5t-10.5 -75.5v-363q0 -170 127 -170q60 0 94.5 44.5t34.5 121.5v331q0 68 -16.5 101t-53.5 51v2h164v-2q-64 -34 -64 -133z" />
    <glyph glyph-name="uring" unicode="&#x16f;" horiz-adv-x="469" 
d="M234 727q38 0 65.5 -27t27.5 -64t-27.5 -64t-65.5 -27q-37 0 -64.5 27t-27.5 64t27.5 64t64.5 27zM234 570q27 0 46.5 19.5t19.5 46.5t-19.5 46.5t-46.5 19.5t-46.5 -19.5t-19.5 -46.5t19.5 -46.5t46.5 -19.5zM288 176v205q0 51 -8.5 72t-33.5 37v2h173v-383
q0 -51 7 -71.5t30 -35.5v-2h-168v103q-14 -55 -47 -84t-80 -29q-54 0 -84.5 36t-30.5 99v256q0 51 -8 72t-34 37v2h173v-364q0 -66 48 -66q28 0 45.5 28.5t17.5 85.5z" />
    <glyph glyph-name="Uhungarumlaut" unicode="&#x170;" horiz-adv-x="531" 
d="M228 899h117q-19 -57 -53 -96.5t-92 -70.5h-4q32 82 32 167zM362 899h117q-35 -108 -144 -167h-4q31 80 31 167zM479 565v-354q0 -100 -55 -160.5t-154 -60.5q-103 0 -160.5 58.5t-57.5 164.5v369q-1 52 -10 75.5t-39 40.5v2h240v-2q-30 -17 -39.5 -40.5t-10.5 -75.5
v-363q0 -170 127 -170q60 0 94.5 44.5t34.5 121.5v331q0 68 -16.5 101t-53.5 51v2h164v-2q-64 -34 -64 -133z" />
    <glyph glyph-name="uhungarumlaut" unicode="&#x171;" horiz-adv-x="469" 
d="M175 732h113q-17 -65 -49 -109.5t-92 -81.5h-4q32 69 32 191zM310 732h113q-17 -65 -49 -109.5t-92 -81.5h-4q32 69 32 191zM288 176v205q0 51 -8.5 72t-33.5 37v2h173v-383q0 -51 7 -71.5t30 -35.5v-2h-168v103q-14 -55 -47 -84t-80 -29q-54 0 -84.5 36t-30.5 99v256
q0 51 -8 72t-34 37v2h173v-364q0 -66 48 -66q28 0 45.5 28.5t17.5 85.5z" />
    <glyph glyph-name="Uogonek" unicode="&#x172;" horiz-adv-x="531" 
d="M303 -231q-37 0 -61.5 22t-24.5 59q0 74 113 147q-33 -7 -60 -7q-103 0 -160.5 58.5t-57.5 164.5v369q-1 52 -10 75.5t-39 40.5v2h240v-2q-30 -17 -39.5 -40.5t-10.5 -75.5v-363q0 -170 127 -170q60 0 94.5 44.5t34.5 121.5v331q0 68 -16.5 101t-53.5 51v2h164v-2
q-64 -34 -64 -133v-354q0 -138 -111 -205q-75 -49 -75 -124q0 -59 49 -59q20 0 34.5 11.5t29.5 38.5l2 -2q-30 -102 -105 -102z" />
    <glyph glyph-name="uogonek" unicode="&#x173;" horiz-adv-x="469" 
d="M359 -129q-30 -103 -106 -103q-37 0 -61 22.5t-24 58.5q0 44 32.5 80.5t87.5 71.5v102q-14 -55 -47 -84t-80 -29q-54 0 -84.5 36t-30.5 99v256q0 51 -8 72t-34 37v2h173v-364q0 -66 48 -66q28 0 45.5 28.5t17.5 85.5v205q0 51 -8.5 72t-33.5 37v2h173v-383q0 -51 7 -71.5
t30 -35.5v-2h-149q-64 -60 -64 -118q0 -59 49 -59q37 0 65 50z" />
    <glyph glyph-name="Wcircumflex" unicode="&#x174;" horiz-adv-x="760" 
d="M529 727q-88 12 -137 55q-51 -43 -139 -55h-6q102 82 142 179h5q40 -97 142 -179h-7zM507 -10l-125 452l-127 -452h-4l-187 598q-15 50 -27 72t-38 38v2h233v-2q-34 -18 -34 -54q0 -20 12 -59l95 -326l63 233l-26 96q-13 48 -25.5 71t-39.5 39v2h231v-2q-38 -19 -38 -57
q0 -19 10 -56l80 -331l90 317q8 27 8 50q0 56 -54 77v2h156v-2q-52 -30 -80 -129l-169 -579h-4z" />
    <glyph glyph-name="wcircumflex" unicode="&#x175;" horiz-adv-x="586" 
d="M444 536q-82 28 -131 79q-53 -52 -132 -79h-6q94 101 136 210h4q40 -109 135 -210h-6zM399 -10l-99 314l-108 -314h-2l-140 394q-16 47 -27 65.5t-33 40.5v2h202v-2q-25 -15 -25 -45q0 -21 13 -58l60 -188l47 148l-12 37q-16 47 -26.5 65.5t-32.5 40.5v2h200v-2
q-30 -16 -30 -50q0 -20 10 -53l53 -182l54 172q8 27 8 47q0 49 -45 66v2h130v-2q-22 -20 -34.5 -41t-28.5 -68l-132 -391h-2z" />
    <glyph glyph-name="Ycircumflex" unicode="&#x176;" horiz-adv-x="550" 
d="M442 727q-88 12 -137 55q-51 -43 -139 -55h-6q102 82 142 179h5q40 -97 142 -179h-7zM329 338l109 242q13 26 13 51q0 44 -48 67v2h148v-2q-43 -31 -75 -103l-134 -302v-180q0 -49 11.5 -70.5t46.5 -40.5v-2h-253v2q35 19 46.5 40.5t11.5 70.5v180l-135 302
q-16 38 -31 60t-40 43v2h243v-2q-35 -23 -35 -52q0 -18 13 -50z" />
    <glyph glyph-name="ycircumflex" unicode="&#x177;" horiz-adv-x="411" 
d="M360 536q-82 28 -131 79q-53 -52 -132 -79h-6q94 101 136 210h4q40 -109 135 -210h-6zM176 -89l23 68l-148 405q-18 48 -28.5 66.5t-32.5 39.5v2h213v-2q-32 -17 -32 -48q0 -19 12 -55l75 -233l69 223q8 27 8 48q0 48 -45 65v2h131v-2q-23 -20 -35.5 -40.5t-27.5 -68.5
l-160 -490q-20 -59 -46 -91t-70 -32q-34 0 -58 22.5t-24 59.5q0 35 23 55.5t52 20.5q17 0 28 -8q-25 -13 -25 -44q0 -18 10 -28.5t25 -10.5q22 0 36 17.5t27 58.5z" />
    <glyph glyph-name="Ydieresis" unicode="&#x178;" horiz-adv-x="550" 
d="M225 737q-28 0 -48 20.5t-20 47.5q0 28 20 49t48 21q29 0 49 -21t20 -49q0 -27 -20 -47.5t-49 -20.5zM382 737q-29 0 -49 20.5t-20 47.5q0 28 20 49t49 21q28 0 48.5 -21t20.5 -49q0 -27 -20.5 -47.5t-48.5 -20.5zM329 338l109 242q13 26 13 51q0 44 -48 67v2h148v-2
q-43 -31 -75 -103l-134 -302v-180q0 -49 11.5 -70.5t46.5 -40.5v-2h-253v2q35 19 46.5 40.5t11.5 70.5v180l-135 302q-16 38 -31 60t-40 43v2h243v-2q-35 -23 -35 -52q0 -18 13 -50z" />
    <glyph glyph-name="Zacute" unicode="&#x179;" horiz-adv-x="505" 
d="M233 886h140q-37 -112 -174 -155h-4q35 72 38 155zM460 0h-450v2l306 676h-72q-79 0 -122 -43t-89 -139h-2l19 212q17 -8 59 -8h369v-2l-305 -676h75q87 0 133.5 43t95.5 157h2z" />
    <glyph glyph-name="zacute" unicode="&#x17a;" horiz-adv-x="397" 
d="M176 732h122q-16 -63 -51.5 -108t-98.5 -83h-4q32 69 32 191zM233 473h-43q-48 0 -86 -37t-77 -119h-2l14 183q22 -8 60 -8h276v-2l-218 -471h39q60 0 100 41t79 137h2l-19 -197h-346v2z" />
    <glyph glyph-name="Zdotaccent" unicode="&#x17b;" horiz-adv-x="505" 
d="M190 818q0 33 23 55.5t55 22.5q33 0 56 -22.5t23 -55.5q0 -32 -23 -55t-56 -23q-32 0 -55 23t-23 55zM460 0h-450v2l306 676h-72q-79 0 -122 -43t-89 -139h-2l19 212q17 -8 59 -8h369v-2l-305 -676h75q87 0 133.5 43t95.5 157h2z" />
    <glyph glyph-name="zdotaccent" unicode="&#x17c;" horiz-adv-x="397" 
d="M131 645q0 32 23 55t55 23q33 0 56 -23t23 -55q0 -33 -23 -56t-56 -23q-32 0 -55 23t-23 56zM233 473h-43q-48 0 -86 -37t-77 -119h-2l14 183q22 -8 60 -8h276v-2l-218 -471h39q60 0 100 41t79 137h2l-19 -197h-346v2z" />
    <glyph glyph-name="Zcaron" unicode="&#x17d;" horiz-adv-x="505" 
d="M130 906q87 -12 139 -54q50 42 137 54h7q-102 -82 -142 -179h-5q-40 97 -142 179h6zM460 0h-450v2l306 676h-72q-79 0 -122 -43t-89 -139h-2l19 212q17 -8 59 -8h369v-2l-305 -676h75q87 0 133.5 43t95.5 157h2z" />
    <glyph glyph-name="zcaron" unicode="&#x17e;" horiz-adv-x="397" 
d="M78 750q76 -25 132 -79q51 53 131 79h6q-95 -101 -135 -210h-4q-42 109 -136 210h6zM233 473h-43q-48 0 -86 -37t-77 -119h-2l14 183q22 -8 60 -8h276v-2l-218 -471h39q60 0 100 41t79 137h2l-19 -197h-346v2z" />
    <glyph glyph-name="uni0192" unicode="&#x192;" horiz-adv-x="474" 
d="M41 -189q-57 0 -91.5 23.5t-34.5 64.5q0 31 19.5 50t51.5 19q36 2 59 -20q-43 -3 -43 -69q0 -52 37 -52q48 0 59 102l45 412h-85l3 21h84l16 145q10 95 59 149t135 54q59 0 93.5 -24t34.5 -66q0 -32 -19.5 -50.5t-51.5 -18.5q-36 -2 -58 20q42 3 42 68q0 54 -39 54
q-48 0 -59 -101l-25 -230h101l-3 -21h-100l-35 -327q-11 -96 -59.5 -149.5t-135.5 -53.5z" />
    <glyph glyph-name="AEacute" unicode="&#x1fc;" horiz-adv-x="765" 
d="M476 886h140q-37 -112 -174 -155h-4q35 72 38 155zM343 598l-149 -324h149v324zM155 2v-2h-156v2q48 31 93 125l229 487q9 18 9 31q0 27 -45 53v2h361q43 0 59 8l24 -186h-2q-41 81 -87 118t-128 37h-26v-305h14q61 0 88 22t52 91h2v-238h-2q-24 67 -50.5 85t-89.5 18
h-14v-327h32q83 0 133 41.5t91 132.5h2l-22 -197h-427v2q30 17 39 40.5t9 75.5v128h-162l-51 -111q-20 -40 -20 -69q0 -45 45 -64z" />
    <glyph glyph-name="aeacute" unicode="&#x1fd;" horiz-adv-x="631" 
d="M307 732h122q-16 -63 -51.5 -108t-98.5 -83h-4q32 69 32 191zM612 169q-11 -85 -54.5 -132t-118.5 -47q-57 0 -104.5 32.5t-69.5 91.5q-4 -54 -41 -87.5t-85 -33.5q-53 0 -86 31t-33 87q0 29 11 53t27 39.5t42 29t48.5 21t55.5 16.5l47 13v126q0 74 -53 74
q-23 0 -36.5 -18.5t-13.5 -48.5q0 -61 39 -61q7 0 13 3q-7 -24 -27.5 -38t-48.5 -14q-36 0 -58 20.5t-22 57.5q0 54 46 86t115 32q85 0 121 -60q52 59 116 59q85 0 129 -64.5t44 -170.5h-239q0 -97 30 -151.5t87 -54.5q81 0 113 110zM377 288h115q0 97 -9.5 146t-41.5 49
q-28 0 -45 -54.5t-19 -140.5zM251 263l-23 -8q-82 -27 -82 -119q0 -37 12.5 -58.5t35.5 -21.5q26 0 41 25t16 72v110z" />
    <glyph glyph-name="Oslashacute" unicode="&#x1fe;" horiz-adv-x="572" 
d="M250 886h140q-37 -112 -174 -155h-4q35 72 38 155zM181 350q0 -83 5 -133l196 303q-21 169 -96 169q-105 0 -105 -339zM286 11q105 0 105 339q0 82 -5 131l-196 -303q21 -167 96 -167zM286 -10q-97 0 -168 77l-54 -83l-20 15l57 88q-79 103 -79 263q0 157 75 258.5
t189 101.5q99 0 169 -78l50 77l20 -14l-54 -83q79 -102 79 -262q0 -157 -75.5 -258.5t-188.5 -101.5z" />
    <glyph glyph-name="oslashacute" unicode="&#x1ff;" horiz-adv-x="444" 
d="M189 732h122q-16 -63 -51.5 -108t-98.5 -83h-4q32 69 32 191zM155 246q0 -28 2 -72l127 185q-13 124 -62 124q-67 0 -67 -237zM222 8q67 0 67 238q0 28 -2 76l-127 -185q13 -129 62 -129zM222 -10q-73 0 -128 52l-41 -59l-19 13l44 63q-62 72 -62 187q0 112 59.5 184
t146.5 72q72 0 127 -50l39 57l19 -14l-42 -60q63 -74 63 -189q0 -112 -59 -184t-147 -72z" />
    <glyph glyph-name="uni0218" unicode="&#x218;" horiz-adv-x="458" 
d="M235 689q-43 0 -72 -32.5t-29 -80.5q0 -29 10 -52t32 -42t39.5 -30t51.5 -29q43 -24 64 -37.5t51.5 -41.5t44 -63.5t13.5 -82.5q0 -94 -63 -151t-150 -57q-38 0 -83.5 14t-58.5 14q-27 0 -53 -28l-13 248h2q38 -103 92 -165t110 -62q51 0 80.5 32.5t29.5 89.5
q0 30 -10.5 53.5t-33.5 44t-41.5 32.5t-52.5 32q-3 2 -5 3t-4.5 2.5t-4.5 2.5q-36 20 -58.5 36t-48 41t-38 57t-12.5 72q0 90 59 145.5t147 55.5q34 0 73.5 -12.5t52.5 -12.5q26 0 44 25l10 -218h-2q-35 95 -73 146t-100 51zM316 -129q0 -53 -39.5 -84t-102.5 -33v15
q89 6 97 68q-16 -14 -45 -14q-27 0 -45 18t-18 46q0 29 20.5 48.5t50.5 19.5q37 0 59.5 -23t22.5 -61z" />
    <glyph glyph-name="uni0219" unicode="&#x219;" horiz-adv-x="364" 
d="M172 483q-27 0 -43.5 -18t-16.5 -47q0 -32 19 -52.5t73 -44.5q73 -33 106.5 -72.5t33.5 -99.5q0 -73 -46 -116t-114 -43q-31 0 -65 11t-45 11q-23 0 -43 -22l-9 192h3q31 -80 72 -127t84 -47q32 0 50 21t18 55q0 37 -19.5 56.5t-68.5 43.5q-73 33 -104.5 69.5t-31.5 98.5
q0 66 42.5 108t101.5 42q28 0 59.5 -12t43.5 -12q19 0 43 24v-168h-3q-58 149 -140 149zM258 -129q0 -53 -39.5 -84t-102.5 -33v15q89 6 97 68q-16 -14 -45 -14q-27 0 -45 18t-18 46q0 29 20.5 48.5t50.5 19.5q37 0 59.5 -23t22.5 -61z" />
    <glyph glyph-name="uni021A" unicode="&#x21a;" horiz-adv-x="575" 
d="M89 700h397q43 0 60 8l17 -240h-2q-25 61 -42 95.5t-39.5 63.5t-49 40.5t-62.5 11.5h-10v-566q0 -49 12 -70.5t48 -40.5v-2h-261v2q35 19 47.5 41t12.5 70v566h-9q-70 0 -107.5 -45t-86.5 -166h-2l18 240q16 -8 59 -8zM364 -129q0 -53 -39.5 -84t-102.5 -33v15
q89 6 97 68q-16 -14 -45 -14q-27 0 -45 18t-18 46q0 29 20.5 48.5t50.5 19.5q37 0 59.5 -23t22.5 -61z" />
    <glyph glyph-name="uni021B" unicode="&#x21b;" horiz-adv-x="301" 
d="M282 160l9 -1q-12 -169 -128 -169q-119 0 -119 152l1 324h-43v10q59 16 102.5 65t61.5 123h9v-172h105l-5 -26h-100v-328q0 -80 44 -80q51 0 63 102zM236 -129q0 -53 -39.5 -84t-102.5 -33v15q89 6 97 68q-16 -14 -45 -14q-27 0 -45 18t-18 46q0 29 20.5 48.5t50.5 19.5
q37 0 59.5 -23t22.5 -61z" />
    <glyph glyph-name="uni0237" unicode="&#x237;" horiz-adv-x="227" 
d="M182 -37q0 -95 -48.5 -144.5t-127.5 -49.5q-57 0 -93 24.5t-36 71.5q0 33 21.5 54.5t52.5 21.5q19 0 36 -9.5t24 -23.5q-45 -11 -45 -66q0 -26 11 -41.5t30 -15.5q44 0 44 103v493q0 51 -8.5 72t-33.5 37v2h173v-529z" />
    <glyph glyph-name="uni02BB" unicode="&#x2bb;" 
d="M174 640q0 53 39.5 84t102.5 33v-15q-89 -6 -97 -68q16 14 45 14q27 0 45 -18.5t18 -45.5q0 -29 -20.5 -48.5t-50.5 -19.5q-37 0 -59.5 22.5t-22.5 61.5z" />
    <glyph glyph-name="circumflex" unicode="&#x2c6;" 
d="M382 536q-82 28 -131 79q-53 -52 -132 -79h-6q94 101 136 210h4q40 -109 135 -210h-6z" />
    <glyph glyph-name="caron" unicode="&#x2c7;" 
d="M119 750q76 -25 132 -79q51 53 131 79h6q-95 -101 -135 -210h-4q-42 109 -136 210h6z" />
    <glyph glyph-name="breve" unicode="&#x2d8;" 
d="M367 731q0 -86 -32 -135.5t-85 -49.5t-85 49.5t-32 135.5h6q6 -48 37.5 -70.5t73.5 -22.5t73.5 22.5t37.5 70.5h6z" />
    <glyph glyph-name="dotaccent" unicode="&#x2d9;" 
d="M171 645q0 32 23 55t55 23q33 0 56 -23t23 -55q0 -33 -23 -56t-56 -23q-32 0 -55 23t-23 56z" />
    <glyph glyph-name="ring" unicode="&#x2da;" 
d="M250 727q38 0 65.5 -27t27.5 -64t-27.5 -64t-65.5 -27q-37 0 -64.5 27t-27.5 64t27.5 64t64.5 27zM250 570q27 0 46.5 19.5t19.5 46.5t-19.5 46.5t-46.5 19.5t-46.5 -19.5t-19.5 -46.5t19.5 -46.5t46.5 -19.5z" />
    <glyph glyph-name="ogonek" unicode="&#x2db;" 
d="M171 -151q0 50 40 89.5t109 80.5l4 -7q-78 -65 -78 -130q0 -59 49 -59q37 0 65 50l2 -2q-30 -103 -106 -103q-37 0 -61 22.5t-24 58.5z" />
    <glyph glyph-name="tilde" unicode="&#x2dc;" 
d="M393 712q-7 -71 -30.5 -110.5t-60.5 -39.5q-27 0 -66 28.5t-59 28.5q-43 0 -65 -64h-5q6 70 30 110.5t60 40.5q27 0 66 -28.5t59 -28.5q42 0 65 63h6z" />
    <glyph glyph-name="hungarumlaut" unicode="&#x2dd;" 
d="M142 732h113q-17 -65 -49 -109.5t-92 -81.5h-4q32 69 32 191zM277 732h113q-17 -65 -49 -109.5t-92 -81.5h-4q32 69 32 191z" />
    <glyph glyph-name="Wgrave" unicode="&#x1e80;" horiz-adv-x="760" 
d="M432 886q3 -83 38 -155h-4q-137 43 -174 155h140zM507 -10l-125 452l-127 -452h-4l-187 598q-15 50 -27 72t-38 38v2h233v-2q-34 -18 -34 -54q0 -20 12 -59l95 -326l63 233l-26 96q-13 48 -25.5 71t-39.5 39v2h231v-2q-38 -19 -38 -57q0 -19 10 -56l80 -331l90 317
q8 27 8 50q0 56 -54 77v2h156v-2q-52 -30 -80 -129l-169 -579h-4z" />
    <glyph glyph-name="wgrave" unicode="&#x1e81;" horiz-adv-x="586" 
d="M344 732q0 -122 32 -191h-4q-62 39 -98 84t-52 107h122zM399 -10l-99 314l-108 -314h-2l-140 394q-16 47 -27 65.5t-33 40.5v2h202v-2q-25 -15 -25 -45q0 -21 13 -58l60 -188l47 148l-12 37q-16 47 -26.5 65.5t-32.5 40.5v2h200v-2q-30 -16 -30 -50q0 -20 10 -53l53 -182
l54 172q8 27 8 47q0 49 -45 66v2h130v-2q-22 -20 -34.5 -41t-28.5 -68l-132 -391h-2z" />
    <glyph glyph-name="Wacute" unicode="&#x1e82;" horiz-adv-x="760" 
d="M356 886h140q-37 -112 -174 -155h-4q35 72 38 155zM507 -10l-125 452l-127 -452h-4l-187 598q-15 50 -27 72t-38 38v2h233v-2q-34 -18 -34 -54q0 -20 12 -59l95 -326l63 233l-26 96q-13 48 -25.5 71t-39.5 39v2h231v-2q-38 -19 -38 -57q0 -19 10 -56l80 -331l90 317
q8 27 8 50q0 56 -54 77v2h156v-2q-52 -30 -80 -129l-169 -579h-4z" />
    <glyph glyph-name="wacute" unicode="&#x1e83;" horiz-adv-x="586" 
d="M279 732h122q-16 -63 -51.5 -108t-98.5 -83h-4q32 69 32 191zM399 -10l-99 314l-108 -314h-2l-140 394q-16 47 -27 65.5t-33 40.5v2h202v-2q-25 -15 -25 -45q0 -21 13 -58l60 -188l47 148l-12 37q-16 47 -26.5 65.5t-32.5 40.5v2h200v-2q-30 -16 -30 -50q0 -20 10 -53
l53 -182l54 172q8 27 8 47q0 49 -45 66v2h130v-2q-22 -20 -34.5 -41t-28.5 -68l-132 -391h-2z" />
    <glyph glyph-name="Wdieresis" unicode="&#x1e84;" horiz-adv-x="760" 
d="M313 737q-28 0 -48 20.5t-20 47.5q0 28 20 49t48 21q29 0 49 -21t20 -49q0 -27 -20 -47.5t-49 -20.5zM470 737q-29 0 -49 20.5t-20 47.5q0 28 20 49t49 21q28 0 48.5 -21t20.5 -49q0 -27 -20.5 -47.5t-48.5 -20.5zM507 -10l-125 452l-127 -452h-4l-187 598q-15 50 -27 72
t-38 38v2h233v-2q-34 -18 -34 -54q0 -20 12 -59l95 -326l63 233l-26 96q-13 48 -25.5 71t-39.5 39v2h231v-2q-38 -19 -38 -57q0 -19 10 -56l80 -331l90 317q8 27 8 50q0 56 -54 77v2h156v-2q-52 -30 -80 -129l-169 -579h-4z" />
    <glyph glyph-name="wdieresis" unicode="&#x1e85;" horiz-adv-x="586" 
d="M233 565q-28 0 -48 20.5t-20 47.5q0 28 20 49t48 21q29 0 49 -21t20 -49q0 -27 -20 -47.5t-49 -20.5zM390 565q-29 0 -49 20.5t-20 47.5q0 28 20 49t49 21q28 0 48.5 -21t20.5 -49q0 -27 -20.5 -47.5t-48.5 -20.5zM399 -10l-99 314l-108 -314h-2l-140 394
q-16 47 -27 65.5t-33 40.5v2h202v-2q-25 -15 -25 -45q0 -21 13 -58l60 -188l47 148l-12 37q-16 47 -26.5 65.5t-32.5 40.5v2h200v-2q-30 -16 -30 -50q0 -20 10 -53l53 -182l54 172q8 27 8 47q0 49 -45 66v2h130v-2q-22 -20 -34.5 -41t-28.5 -68l-132 -391h-2z" />
    <glyph glyph-name="Ygrave" unicode="&#x1ef2;" horiz-adv-x="550" 
d="M345 886q3 -83 38 -155h-4q-137 43 -174 155h140zM329 338l109 242q13 26 13 51q0 44 -48 67v2h148v-2q-43 -31 -75 -103l-134 -302v-180q0 -49 11.5 -70.5t46.5 -40.5v-2h-253v2q35 19 46.5 40.5t11.5 70.5v180l-135 302q-16 38 -31 60t-40 43v2h243v-2q-35 -23 -35 -52
q0 -18 13 -50z" />
    <glyph glyph-name="ygrave" unicode="&#x1ef3;" horiz-adv-x="411" 
d="M260 732q0 -122 32 -191h-4q-62 39 -98 84t-52 107h122zM176 -89l23 68l-148 405q-18 48 -28.5 66.5t-32.5 39.5v2h213v-2q-32 -17 -32 -48q0 -19 12 -55l75 -233l69 223q8 27 8 48q0 48 -45 65v2h131v-2q-23 -20 -35.5 -40.5t-27.5 -68.5l-160 -490q-20 -59 -46 -91
t-70 -32q-34 0 -58 22.5t-24 59.5q0 35 23 55.5t52 20.5q17 0 28 -8q-25 -13 -25 -44q0 -18 10 -28.5t25 -10.5q22 0 36 17.5t27 58.5z" />
    <glyph glyph-name="uni2009" unicode="&#x2009;" horiz-adv-x="40" 
 />
    <glyph glyph-name="endash" unicode="&#x2013;" horiz-adv-x="374" 
d="M30 254v42h315v-42h-315z" />
    <glyph glyph-name="emdash" unicode="&#x2014;" horiz-adv-x="570" 
d="M30 254v42h510v-42h-510z" />
    <glyph glyph-name="quoteleft" unicode="&#x2018;" horiz-adv-x="209" 
d="M67 585q17 24 53 24q29 0 48.5 -19.5t19.5 -48.5q0 -33 -22.5 -54.5t-57.5 -21.5q-40 0 -64.5 28.5t-24.5 71.5q0 72 48.5 114t122.5 42v-14q-61 -6 -94 -38.5t-29 -83.5z" />
    <glyph glyph-name="quoteright" unicode="&#x2019;" horiz-adv-x="200" 
d="M142 595q-17 -24 -53 -24q-29 0 -48.5 19.5t-19.5 48.5q0 33 22.5 54.5t57.5 21.5q40 0 64.5 -28.5t24.5 -71.5q0 -72 -48.5 -114t-122.5 -42v14q61 6 94 38.5t29 83.5z" />
    <glyph glyph-name="quotesinglbase" unicode="&#x201a;" horiz-adv-x="209" 
d="M142 16q-17 -24 -53 -24q-29 0 -48.5 19.5t-19.5 48.5q0 33 22.5 54.5t57.5 21.5q40 0 64.5 -28.5t24.5 -71.5q0 -72 -48.5 -114t-122.5 -42v14q61 6 94 38.5t29 83.5z" />
    <glyph glyph-name="quotedblleft" unicode="&#x201c;" horiz-adv-x="406" 
d="M264 585q17 24 53 24q29 0 48.5 -19.5t19.5 -48.5q0 -33 -22.5 -54.5t-57.5 -21.5q-40 0 -64.5 28.5t-24.5 71.5q0 72 48.5 114t122.5 42v-14q-61 -6 -94 -38.5t-29 -83.5zM67 585q17 24 53 24q29 0 48.5 -19.5t19.5 -48.5q0 -33 -22.5 -54.5t-57.5 -21.5
q-40 0 -64.5 28.5t-24.5 71.5q0 72 48.5 114t122.5 42v-14q-61 -6 -94 -38.5t-29 -83.5z" />
    <glyph glyph-name="quotedblright" unicode="&#x201d;" horiz-adv-x="406" 
d="M339 596q-17 -24 -53 -24q-29 0 -48.5 19.5t-19.5 48.5q0 33 22.5 54.5t57.5 21.5q40 0 64.5 -28.5t24.5 -71.5q0 -72 -48.5 -114t-122.5 -42v14q61 6 94 38.5t29 83.5zM142 596q-17 -24 -53 -24q-29 0 -48.5 19.5t-19.5 48.5q0 33 22.5 54.5t57.5 21.5q40 0 64.5 -28.5
t24.5 -71.5q0 -72 -48.5 -114t-122.5 -42v14q61 6 94 38.5t29 83.5z" />
    <glyph glyph-name="quotedblbase" unicode="&#x201e;" horiz-adv-x="406" 
d="M339 16q-17 -24 -53 -24q-29 0 -48.5 19.5t-19.5 48.5q0 33 22.5 54.5t57.5 21.5q40 0 64.5 -28.5t24.5 -71.5q0 -72 -48.5 -114t-122.5 -42v14q61 6 94 38.5t29 83.5zM142 16q-17 -24 -53 -24q-29 0 -48.5 19.5t-19.5 48.5q0 33 22.5 54.5t57.5 21.5q40 0 64.5 -28.5
t24.5 -71.5q0 -72 -48.5 -114t-122.5 -42v14q61 6 94 38.5t29 83.5z" />
    <glyph glyph-name="dagger" unicode="&#x2020;" horiz-adv-x="344" 
d="M217 558q-41 -273 -42 -351h-6q-1 35 -11.5 122.5t-21.5 158.5l-10 70q-6 31 -23 35q-8 -54 -46 -54q-16 0 -28 10t-12 29q0 17 10.5 30t25.5 17q4 -26 23 -26q6 0 15.5 5t17.5 5q15 0 32 -11.5t25 -28.5q-7 82 -51 146q24 35 57 35q32 0 56 -35q-42 -63 -51 -146
q8 17 25 28.5t33 11.5q8 0 17 -5t16 -5q18 0 22 26q15 -4 25.5 -17t10.5 -30q0 -19 -11.5 -29t-27.5 -10q-37 0 -47 54q-17 -4 -23 -35z" />
    <glyph glyph-name="daggerdbl" unicode="&#x2021;" horiz-adv-x="363" 
d="M185 468h-8q-4 53 -30 106t-40 56q-11 -52 -50 -52q-17 0 -28.5 10.5t-11.5 29.5q0 16 11 29t28 17q6 -25 27 -25q7 0 18 4t20 4q33 0 52 -35q-5 65 -51 118q21 36 60 36q37 0 58 -36q-44 -53 -51 -118q19 35 53 35q8 0 19.5 -4t18.5 -4q21 0 26 25q17 -4 28.5 -17
t11.5 -29q0 -19 -12 -29.5t-29 -10.5q-37 0 -50 52q-14 -3 -39.5 -56t-30.5 -106zM185 445q5 -53 30.5 -106t39.5 -56q13 53 50 53q17 0 29 -11t12 -30q0 -16 -11.5 -29t-28.5 -17q-5 26 -26 26q-7 0 -18.5 -4.5t-19.5 -4.5q-34 0 -53 35q7 -65 51 -118q-21 -36 -59 -36
t-59 36q46 53 51 118q-19 -35 -52 -35q-9 0 -20 4.5t-18 4.5q-21 0 -27 -26q-17 4 -28 17t-11 29q0 19 11.5 30t28.5 11q38 0 50 -53q14 3 40 56t30 106h8z" />
    <glyph glyph-name="bullet" unicode="&#x2022;" horiz-adv-x="341" 
d="M34 275q0 56 40 96.5t96 40.5t96.5 -40.5t40.5 -96.5t-40.5 -96.5t-96.5 -40.5t-96 40.5t-40 96.5z" />
    <glyph glyph-name="ellipsis" unicode="&#x2026;" horiz-adv-x="654" 
d="M192 76q0 -35 -24 -59t-59 -24q-34 0 -58 24t-24 59t24 59t58 24q35 0 59 -24t24 -59zM401 76q0 -35 -24 -59t-59 -24q-34 0 -58 24t-24 59t24 59t58 24q35 0 59 -24t24 -59zM611 76q0 -35 -24 -59t-59 -24q-34 0 -58 24t-24 59t24 59t58 24q35 0 59 -24t24 -59z" />
    <glyph glyph-name="perthousand" unicode="&#x2030;" horiz-adv-x="822" 
d="M102 0h-42l366 673q-51 -45 -107 -45q-33 0 -61 9q19 -32 19 -76q0 -62 -38 -106t-91 -44t-90.5 44t-37.5 106q0 61 38 105t90 44q41 0 87 -31t85 -31t68 17t68 54l12 -9zM148 429q47 0 47 132q0 131 -47 131t-47 -131q0 -132 47 -132zM802 144q0 -62 -38 -105.5
t-91 -43.5t-90.5 44t-37.5 105t37.5 105t90.5 44t91 -43.5t38 -105.5zM389 -5q-53 0 -90.5 44t-37.5 105t37.5 105t90.5 44t91 -43.5t38 -105.5t-38 -105.5t-91 -43.5zM673 12q47 0 47 132t-47 132t-47 -132t47 -132zM389 12q47 0 47 132t-47 132t-47 -132t47 -132z" />
    <glyph glyph-name="guilsinglleft" unicode="&#x2039;" horiz-adv-x="225" 
d="M15 243v2q119 72 189 192h6q-29 -127 -75 -193q46 -66 75 -193h-6q-70 120 -189 192z" />
    <glyph glyph-name="guilsinglright" unicode="&#x203a;" horiz-adv-x="225" 
d="M210 245v-2q-119 -72 -189 -192h-6q26 124 75 193q-49 69 -75 193h6q70 -120 189 -192z" />
    <glyph glyph-name="fraction" unicode="&#x2044;" horiz-adv-x="348" 
d="M0 -123l296 872h32l-296 -872h-32z" />
    <glyph glyph-name="Euro" unicode="&#x20ac;" horiz-adv-x="538" 
d="M515 208q-11 -102 -63 -160t-140 -58q-104 0 -171.5 86.5t-75.5 228.5h-51v21h50v14q0 16 2 48h-52v21h55q17 131 93.5 216t188.5 85q72 0 120.5 -33t48.5 -95q0 -40 -25.5 -64t-63.5 -24q-64 0 -83 48q9 -3 16 -3q28 0 44.5 21t16.5 54q0 35 -18.5 56t-50.5 21
q-64 0 -102.5 -77.5t-44.5 -204.5h174l-8 -21h-167v-27q0 -24 1 -35h143l-8 -21h-134q8 -114 49 -177.5t108 -63.5q104 0 143 145z" />
    <glyph glyph-name="uni2117" unicode="&#x2117;" horiz-adv-x="603" 
d="M577 350q0 -155 -80 -257.5t-195 -102.5t-195.5 102.5t-80.5 257.5t80.5 257.5t195.5 102.5t195 -102.5t80 -257.5zM558 350q0 146 -74 243t-182 97q-109 0 -182.5 -97t-73.5 -243t73.5 -243t182.5 -97q108 0 182 97t74 243zM283 313v-94q0 -29 7.5 -43.5t29.5 -25.5v-2
h-160v2q17 10 22 24.5t5 45.5v265q0 31 -5 45.5t-22 25.5v1h163q65 0 105 -32.5t40 -89.5t-40 -89.5t-105 -32.5h-40zM283 328h16q36 0 55 29.5t19 77.5t-19 77.5t-55 29.5h-16v-214z" />
    <glyph glyph-name="trademark" unicode="&#x2122;" horiz-adv-x="664" 
d="M55 700h193q18 0 25 3l13 -104h-3q-2 4 -7.5 13.5t-8 13.5t-7.5 12.5t-8.5 12.5t-8.5 10t-9.5 9t-9.5 6t-11 4.5t-12 1.5h-11v-238q0 -20 6 -28.5t24 -19.5v-2h-136v2q17 11 23 19.5t6 28.5v238h-11q-17 0 -32 -12.5t-23 -24.5t-23 -39q-3 -5 -4 -7h-3l13 104q9 -3 25 -3
zM460 531l53 169h107v-2q-16 -11 -20.5 -19t-4.5 -29v-207q0 -21 4.5 -28.5t20.5 -18.5v-2h-124v2q15 11 18.5 18.5t3.5 28.5v215l-84 -269h-2l-86 269v-215q0 -14 3 -22t7 -12.5t16 -12.5v-2h-73v2q12 8 16 12.5t7 12.5t3 22v205q0 21 -5 30t-21 20v2h110z" />
    <glyph glyph-name="uni2153" unicode="&#x2153;" horiz-adv-x="365" 
d="M141 659q0 16 -9.5 22.5t-40.5 12.5v6h131v-249q0 -16 9 -22.5t39 -12.5v-6h-178v6q31 6 40 12.5t9 22.5v208zM24 358h317v-16h-317v16zM174 11q20 0 32 19.5t12 48.5q0 72 -57 72v8q49 3 49 68q0 23 -9 38t-25 15q-17 0 -26.5 -11.5t-9.5 -28.5q0 -35 22 -35q3 0 9 2
l2 -1q-11 -20 -42 -20q-22 0 -34.5 12.5t-12.5 32.5q0 30 26 46.5t66 16.5q48 0 79 -19t31 -52q0 -58 -80 -65q41 -3 66.5 -23t25.5 -55q0 -40 -35 -62t-89 -22q-45 0 -76 18.5t-31 51.5q0 24 15.5 37.5t38.5 13.5q35 0 44 -22l-2 -1q-5 3 -9 3q-22 0 -22 -38
q0 -21 11.5 -34.5t30.5 -13.5z" />
    <glyph glyph-name="uni2154" unicode="&#x2154;" horiz-adv-x="365" 
d="M170 689q-20 0 -32.5 -13t-12.5 -31q0 -20 9.5 -31.5t23.5 -11.5q11 0 18 7h2q-12 -36 -51 -36q-23 0 -38.5 15t-15.5 40q0 35 27 55.5t70 20.5q52 0 85.5 -20.5t33.5 -64.5q0 -43 -36 -75.5t-117 -72.5h73q36 0 51 6t30 29h4l-11 -96h-219v2q91 90 119.5 133t28.5 91
q0 53 -42 53zM24 358h317v-16h-317v16zM174 11q20 0 32 19.5t12 48.5q0 72 -57 72v8q49 3 49 68q0 23 -9 38t-25 15q-17 0 -26.5 -11.5t-9.5 -28.5q0 -35 22 -35q3 0 9 2l2 -1q-11 -20 -42 -20q-22 0 -34.5 12.5t-12.5 32.5q0 30 26 46.5t66 16.5q48 0 79 -19t31 -52
q0 -58 -80 -65q41 -3 66.5 -23t25.5 -55q0 -40 -35 -62t-89 -22q-45 0 -76 18.5t-31 51.5q0 24 15.5 37.5t38.5 13.5q35 0 44 -22l-2 -1q-5 3 -9 3q-22 0 -22 -38q0 -21 11.5 -34.5t30.5 -13.5z" />
    <glyph glyph-name="uni215B" unicode="&#x215b;" horiz-adv-x="365" 
d="M147 659q0 16 -9.5 22.5t-39.5 12.5v6h130v-249q0 -16 9 -22.5t40 -12.5v-6h-178v6q30 6 39 12.5t9 22.5v208zM24 358h317v-16h-317v16zM222 180q81 -28 81 -92q0 -44 -32.5 -68t-82.5 -24q-51 0 -84 19t-33 52q0 49 67 60q-55 24 -55 79q0 42 29 65t73 23q42 0 70 -16
t28 -45q0 -23 -18.5 -36.5t-42.5 -16.5zM140 242q0 -27 38 -43l39 -17q21 19 21 50q0 21 -14 34t-39 13q-45 0 -45 -37zM143 125q-23 -17 -23 -52q0 -27 19 -44t49 -17q25 0 40.5 11t15.5 29q0 19 -11.5 29.5t-37.5 21.5z" />
    <glyph glyph-name="uni215C" unicode="&#x215c;" horiz-adv-x="365" 
d="M181 421q20 0 32 19.5t12 48.5q0 72 -58 72v8q49 3 49 68q0 53 -34 53q-16 0 -25.5 -11.5t-9.5 -28.5q0 -35 22 -35q3 0 9 2l2 -1q-11 -20 -43 -20q-21 0 -34 12.5t-13 32.5q0 30 26.5 46.5t65.5 16.5q49 0 80 -18.5t31 -52.5q0 -58 -80 -65q41 -3 66 -23t25 -55
q0 -40 -34.5 -62t-88.5 -22q-45 0 -76 18.5t-31 51.5q0 24 15.5 37.5t38.5 13.5q35 0 44 -22l-3 -1q-3 3 -8 3q-23 0 -23 -38q0 -21 12 -34.5t31 -13.5zM24 358h317v-16h-317v16zM222 180q81 -28 81 -92q0 -44 -32.5 -68t-82.5 -24q-51 0 -84 19t-33 52q0 49 67 60
q-55 24 -55 79q0 42 29 65t73 23q42 0 70 -16t28 -45q0 -23 -18.5 -36.5t-42.5 -16.5zM140 242q0 -27 38 -43l39 -17q21 19 21 50q0 21 -14 34t-39 13q-45 0 -45 -37zM143 125q-23 -17 -23 -52q0 -27 19 -44t49 -17q25 0 40.5 11t15.5 29q0 19 -11.5 29.5t-37.5 21.5z" />
    <glyph glyph-name="uni215D" unicode="&#x215d;" horiz-adv-x="365" 
d="M301 509q0 -49 -36 -76t-89 -27q-43 0 -72.5 18t-29.5 51q0 23 14.5 36.5t37.5 13.5q32 0 44 -22h-3q-4 2 -8 2q-23 0 -23 -39q0 -20 10.5 -32.5t29.5 -12.5q23 0 34.5 23t11.5 56t-14 54t-42 21q-30 0 -53 -25h-3l19 154q51 -7 91 -7q51 0 70 19h1q0 -41 -16 -62
t-58 -21q-47 0 -81 15l-8 -73q25 25 71 25t74 -25t28 -66zM24 358h317v-16h-317v16zM222 180q81 -28 81 -92q0 -44 -32.5 -68t-82.5 -24q-51 0 -84 19t-33 52q0 49 67 60q-55 24 -55 79q0 42 29 65t73 23q42 0 70 -16t28 -45q0 -23 -18.5 -36.5t-42.5 -16.5zM140 242
q0 -27 38 -43l39 -17q21 19 21 50q0 21 -14 34t-39 13q-45 0 -45 -37zM143 125q-23 -17 -23 -52q0 -27 19 -44t49 -17q25 0 40.5 11t15.5 29q0 19 -11.5 29.5t-37.5 21.5z" />
    <glyph glyph-name="uni215E" unicode="&#x215e;" horiz-adv-x="365" 
d="M90 586l9 114h212v-1l-58 -92q-49 -78 -29 -193l-82 -9q9 96 94 204l15 19h-106q-19 0 -29 -8.5t-22 -33.5h-4zM24 358h317v-16h-317v16zM222 180q81 -28 81 -92q0 -44 -32.5 -68t-82.5 -24q-51 0 -84 19t-33 52q0 49 67 60q-55 24 -55 79q0 42 29 65t73 23q42 0 70 -16
t28 -45q0 -23 -18.5 -36.5t-42.5 -16.5zM140 242q0 -27 38 -43l39 -17q21 19 21 50q0 21 -14 34t-39 13q-45 0 -45 -37zM143 125q-23 -17 -23 -52q0 -27 19 -44t49 -17q25 0 40.5 11t15.5 29q0 19 -11.5 29.5t-37.5 21.5z" />
    <glyph glyph-name="minus" unicode="&#x2212;" horiz-adv-x="399" 
d="M43 308v28h313v-28h-313z" />
    <glyph glyph-name="approxequal" unicode="&#x2248;" horiz-adv-x="404" 
d="M45 327v34q42 41 84 41q28 0 73 -22.5t70 -22.5q42 0 87 46v-33q-42 -43 -87 -43q-27 0 -72 22.5t-71 22.5q-37 0 -84 -45zM45 240v34q42 42 84 42q28 0 73 -22.5t70 -22.5q42 0 87 46v-34q-41 -42 -87 -42q-27 0 -72 22.5t-71 22.5q-38 0 -84 -46z" />
    <glyph glyph-name="notequal" unicode="&#x2260;" horiz-adv-x="404" 
d="M359 257h-193l-62 -77h-33l62 77h-88v27h110l63 78h-173v27h195l60 75h33l-60 -75h86v-27h-108l-63 -78h171v-27z" />
    <glyph glyph-name="lessequal" unicode="&#x2264;" horiz-adv-x="271" 
d="M14 336v19l229 100v-30l-185 -80l185 -79v-30zM14 173v27h229v-27h-229z" />
    <glyph glyph-name="greaterequal" unicode="&#x2265;" horiz-adv-x="271" 
d="M257 355v-19l-228 -100v30l184 79l-184 80v30zM257 200v-27h-228v27h228z" />
    <glyph glyph-name="uni00200326" 
d="M327 -129q0 -53 -39.5 -84t-102.5 -33v15q89 6 97 68q-16 -14 -45 -14q-27 0 -45 18t-18 46q0 29 20.5 48.5t50.5 19.5q37 0 59.5 -23t22.5 -61z" />
    <glyph glyph-name="uni00200323" 
d="M171 -124q0 33 23 55.5t55 22.5q33 0 56 -22.5t23 -55.5t-23 -55.5t-56 -22.5q-32 0 -55 22.5t-23 55.5z" />
    <glyph glyph-name="i.dot" horiz-adv-x="231" 
d="M36 645q0 32 23 55t55 23q33 0 56 -23t23 -55q0 -33 -23 -56t-56 -23q-32 0 -55 23t-23 56zM182 492v-389q0 -50 6.5 -67.5t30.5 -33.5v-2h-205v2q24 16 30.5 33.5t6.5 67.5v278q0 51 -8.5 72t-33.5 37v2h173z" />
    <glyph glyph-name="hyphen.cap" horiz-adv-x="203" 
d="M30 326v52h144v-52h-144z" />
    <glyph glyph-name="endash.cap" horiz-adv-x="374" 
d="M30 330v41h315v-41h-315z" />
    <glyph glyph-name="emdash.cap" horiz-adv-x="570" 
d="M30 330v41h510v-41h-510z" />
    <glyph glyph-name="parenleft.cap" horiz-adv-x="286" 
d="M37 335q0 149 64 258t166 178h12q-114 -125 -114 -436t114 -436h-12q-102 68 -166 177t-64 259z" />
    <glyph glyph-name="parenright.cap" horiz-adv-x="286" 
d="M19 771q102 -68 166 -177t64 -259t-64 -259t-166 -177h-12q114 125 114 436t-114 436h12z" />
    <glyph glyph-name="bracketleft.cap" horiz-adv-x="277" 
d="M62 -101v872h194v-4l-79 -34v-796l79 -35v-3h-194z" />
    <glyph glyph-name="bracketright.cap" horiz-adv-x="277" 
d="M215 771v-872h-194v3l79 36v795l-79 35v3h194z" />
    <glyph glyph-name="braceleft.cap" horiz-adv-x="307" 
d="M14 332v6q90 3 90 145q0 20 -6.5 65.5t-6.5 72.5q0 68 43 109t117 41q26 0 45 -4v-4q-90 0 -90 -136q0 -25 6.5 -77t6.5 -73q0 -37 -15 -65.5t-39 -43.5t-46 -23t-42 -10q20 -2 42 -10t46 -23.5t39 -43.5t15 -65q0 -22 -6.5 -73.5t-6.5 -77.5q0 -135 90 -135v-4
q-19 -4 -45 -4q-74 0 -117 40.5t-43 109.5q0 27 6.5 72.5t6.5 65.5q0 142 -90 145z" />
    <glyph glyph-name="braceright.cap" horiz-adv-x="307" 
d="M293 338v-6q-90 -3 -90 -145q0 -20 6.5 -65.5t6.5 -72.5q0 -68 -43 -109t-117 -41q-26 0 -45 4v4q90 0 90 136q0 25 -6.5 76.5t-6.5 73.5q0 37 15 65.5t39 43.5t46 23t42 10q-20 2 -42 10t-46 23t-39 43.5t-15 65.5q0 22 6.5 73.5t6.5 76.5q0 136 -90 136v4q19 4 45 4
q74 0 117 -41t43 -109q0 -27 -6.5 -72.5t-6.5 -65.5q0 -142 90 -145z" />
    <glyph glyph-name="guilsinglleft.cap" horiz-adv-x="225" 
d="M15 343v2q119 72 189 192h6q-29 -127 -75 -193q46 -66 75 -193h-6q-70 120 -189 192z" />
    <glyph glyph-name="guilsinglright.cap" horiz-adv-x="225" 
d="M210 345v-2q-119 -72 -189 -192h-6q26 124 75 193q-49 69 -75 193h6q70 -120 189 -192z" />
    <glyph glyph-name="guillemotleft.cap" horiz-adv-x="376" 
d="M15 343v2q119 72 189 192h6q-29 -127 -75 -193q46 -66 75 -193h-6q-70 120 -189 192zM166 343v2q120 72 188 192h7q-29 -127 -75 -193q46 -66 75 -193h-7q-68 120 -188 192z" />
    <glyph glyph-name="guillemotright.cap" horiz-adv-x="376" 
d="M210 345v-2q-119 -72 -189 -192h-6q26 124 75 193q-49 69 -75 193h6q70 -120 189 -192zM361 345v-2q-119 -72 -189 -192h-6q26 123 74 193q-48 70 -74 193h6q70 -120 189 -192z" />
    <glyph glyph-name="slash.cap" horiz-adv-x="328" 
d="M4 -103l276 872h32l-276 -872h-32z" />
    <glyph glyph-name="backslash.cap" horiz-adv-x="328" 
d="M48 769l276 -872h-32l-276 872h32z" />
    <glyph glyph-name="bar.cap" horiz-adv-x="196" 
d="M84 -103v872h28v-872h-28z" />
    <glyph glyph-name="at.cap" horiz-adv-x="692" 
d="M554 542l-62 -298q-15 -79 34 -79q41 0 72.5 68.5t31.5 181.5q0 146 -72 228.5t-184 82.5q-127 0 -210.5 -119t-83.5 -295q0 -169 84 -265.5t208 -96.5q147 0 242 101l3 -5q-90 -124 -255 -124q-149 0 -247 103.5t-98 287.5q0 186 103.5 311t253.5 125q128 0 214.5 -89.5
t86.5 -244.5q0 -138 -53.5 -213.5t-123.5 -75.5q-91 0 -104 96q-38 -96 -111 -96q-50 0 -82.5 42t-32.5 111q0 109 54.5 188.5t132.5 79.5q39 0 64 -23.5t32 -58.5q17 28 46.5 50.5t56.5 26.5zM401 309l21 99q19 105 -32 105q-42 0 -75 -79t-33 -166q0 -94 48 -94
q47 0 71 135z" />
    <glyph glyph-name="exclamdown.cap" horiz-adv-x="255" 
d="M127 707q34 0 58 -24t24 -59t-24 -59t-58 -24t-58 24t-24 59t24 59t58 24zM217 0h-180l88 475h5z" />
    <glyph glyph-name="questiondown.cap" horiz-adv-x="439" 
d="M235 542q-34 0 -58 24t-24 59t24 59t58 24q35 0 58.5 -24t23.5 -59t-23.5 -59t-58.5 -24zM232 10q43 0 68 29t25 75q0 37 -17.5 59.5t-44.5 22.5q-19 0 -29 -9l-1 1q9 32 32.5 50t55.5 18q42 0 72 -30.5t30 -79.5q0 -68 -54 -111.5t-138 -43.5q-97 0 -155.5 54.5
t-58.5 140.5q0 90 59.5 153.5t147.5 84.5v57h19v-180q-113 -35 -113 -166q0 -54 26.5 -89.5t75.5 -35.5z" />
    <glyph glyph-name="periodcentered.cap" horiz-adv-x="237" 
d="M201 346q0 -35 -24 -59t-59 -24q-34 0 -58 24t-24 59t24 59t58 24q35 0 59 -24t24 -59z" />
    <glyph glyph-name="bullet.cap" horiz-adv-x="341" 
d="M34 347q0 56 40 96.5t96 40.5t96.5 -40.5t40.5 -96.5q0 -57 -40.5 -97t-96.5 -40t-96 40t-40 97z" />
    <glyph glyph-name="zero.op" horiz-adv-x="518" 
d="M494 313q0 -141 -65.5 -232t-169.5 -91t-169.5 91t-65.5 232t65.5 232t169.5 91t169.5 -91t65.5 -232zM351 313q0 156 -19 229t-73 73t-73 -73t-19 -229t19 -229t73 -73t73 73t19 229z" />
    <glyph glyph-name="one.op" horiz-adv-x="314" 
d="M305 0h-294v4q55 23 67.5 35t12.5 47v452q0 35 -13 46.5t-72 37.5v4h220v-540q0 -35 12.5 -46.5t66.5 -35.5v-4z" />
    <glyph glyph-name="two.op" horiz-adv-x="434" 
d="M197 618q-37 0 -58.5 -31t-21.5 -81q0 -41 19.5 -65.5t50.5 -24.5q22 0 35 10h1q-9 -31 -33.5 -49.5t-57.5 -18.5q-48 0 -78.5 32.5t-30.5 85.5q0 70 50.5 114.5t125.5 44.5q91 0 148 -47t57 -135q0 -39 -16 -77.5t-39 -69t-67 -68.5t-79.5 -64.5t-95.5 -68.5h135
q72 0 102 15.5t60 73.5h3l-19 -194h-394v2q170 187 224.5 278.5t54.5 199.5q0 138 -76 138z" />
    <glyph glyph-name="three.op" horiz-adv-x="434" 
d="M202 8q44 0 65.5 44.5t21.5 118.5q0 161 -116 161v9q55 3 76 40.5t21 108.5q0 128 -69 128q-29 0 -46.5 -24.5t-17.5 -66.5q0 -32 13 -53t34 -21q12 0 19 4h1q-16 -45 -74 -45q-38 0 -62.5 25t-24.5 65q0 59 46.5 96.5t114.5 37.5q85 0 138 -40.5t53 -108.5
q0 -63 -41 -100t-108 -47q75 -5 124 -49.5t49 -117.5q0 -86 -61.5 -134.5t-155.5 -48.5q-80 0 -135 37.5t-55 109.5q0 47 31 75t74 28q57 0 75 -48h-2q-9 3 -22 3q-20 1 -33.5 -20.5t-13.5 -56.5q0 -49 23 -79.5t58 -30.5z" />
    <glyph glyph-name="four.op" horiz-adv-x="464" 
d="M214 203v298l-166 -298h166zM214 124v53h-210v3l253 446h91v-423h13q35 0 50 13.5t34 57.5h2v-167h-2q-19 43 -34 56.5t-50 13.5h-13v-53q0 -52 11 -78t45 -44v-2h-245v2q33 18 44 44t11 78z" />
    <glyph glyph-name="five.op" horiz-adv-x="436" 
d="M192 9q48 0 72 53t24 137q0 73 -28 118.5t-79 45.5q-29 0 -58.5 -20t-48.5 -47h-2l33 337q100 -16 165 -16q52 0 79.5 8.5t49.5 37.5h1q0 -167 -133 -167q-77 0 -151 27l-16 -175q50 54 133 54q82 0 133 -52.5t51 -140.5q0 -99 -66 -159t-158 -60q-76 0 -129 40t-53 109
q0 47 29 76t69 29q61 0 77 -49h-2q-6 5 -18 5q-19 0 -34.5 -23t-15.5 -60q0 -48 20.5 -78t55.5 -30z" />
    <glyph glyph-name="six.op" horiz-adv-x="486" 
d="M298 710q70 0 113.5 -33.5t43.5 -93.5q0 -41 -24.5 -66.5t-60.5 -25.5q-29 0 -53 16t-32 47h2q11 -7 26 -7q22 0 36.5 18.5t14.5 52.5t-16.5 54t-44.5 20q-48 0 -83.5 -47.5t-51 -117t-15.5 -149.5q0 -22 2 -52q36 110 133 110q72 0 124 -55t52 -157q0 -105 -59 -169.5
t-152 -64.5q-107 0 -167.5 96t-60.5 238q0 95 33 182.5t97 145.5t143 58zM336 211q0 88 -21.5 140.5t-64.5 52.5q-40 0 -62.5 -54t-22.5 -139q0 -89 22 -145.5t66 -56.5q41 0 62 55.5t21 146.5z" />
    <glyph glyph-name="seven.op" horiz-adv-x="444" 
d="M36 636q24 -10 76 -10h327v-2l-103 -182q-40 -71 -58 -157.5t-17 -170.5t7 -181l-146 -15q10 151 58 273t135 259l31 49h-195q-50 0 -79.5 -20t-54.5 -75h-2z" />
    <glyph glyph-name="eight.op" horiz-adv-x="456" 
d="M280 374q158 -70 158 -195q0 -82 -59.5 -135.5t-148.5 -53.5q-93 0 -153.5 44.5t-60.5 119.5q0 53 37.5 86.5t95.5 48.5q-44 24 -74 68t-30 100q0 78 53 128.5t129 50.5q75 0 125.5 -39t50.5 -102q0 -54 -36.5 -83t-86.5 -38zM140 513q0 -39 19.5 -62.5t57.5 -43.5
l53 -28q50 45 50 118q0 58 -24 89t-68 31q-37 0 -63 -28.5t-25 -75.5zM247 238l-88 46q-52 -39 -52 -125q0 -68 33.5 -109t89.5 -41q47 0 77 32.5t30 85.5q0 39 -21 62t-69 49z" />
    <glyph glyph-name="nine.op" horiz-adv-x="488" 
d="M152 415q0 -88 21.5 -140.5t64.5 -52.5q40 0 62.5 54t22.5 139q0 89 -22 145.5t-66 56.5q-41 0 -62 -55.5t-21 -146.5zM190 -84q-70 0 -113.5 33.5t-43.5 93.5q0 41 24.5 66.5t60.5 25.5q29 0 53 -16t32 -47h-2q-11 7 -26 7q-22 0 -36.5 -18.5t-14.5 -52.5t16.5 -54
t44.5 -20q49 0 84 47.5t50.5 117t15.5 149.5q0 22 -2 52q-36 -110 -133 -110q-72 0 -124 55t-52 157q0 105 59 169.5t152 64.5q107 0 167.5 -96t60.5 -238q0 -95 -33 -182.5t-97 -145.5t-143 -58z" />
    <glyph glyph-name="percent.op" horiz-adv-x="538" 
d="M95 0h-42l373 599q-51 -45 -107 -45q-29 0 -62 12q20 -35 20 -79q0 -62 -38 -106t-91 -44t-90.5 44t-37.5 106q0 61 38 105t90 44q41 0 87 -31t85 -31t68 17t68 54l12 -9zM148 355q47 0 47 132q0 131 -47 131t-47 -131q0 -132 47 -132zM389 -5q-53 0 -90.5 44t-37.5 105
t37.5 105t90.5 44t91 -43.5t38 -105.5t-38 -105.5t-91 -43.5zM389 12q47 0 47 132t-47 132t-47 -132t47 -132z" />
    <glyph glyph-name="perthousand.op" horiz-adv-x="823" 
d="M95 0h-42l373 599q-51 -45 -107 -45q-29 0 -62 12q20 -35 20 -79q0 -62 -38 -106t-91 -44t-90.5 44t-37.5 106q0 61 38 105t90 44q41 0 87 -31t85 -31t68 17t68 54l12 -9zM148 355q47 0 47 132q0 131 -47 131t-47 -131q0 -132 47 -132zM389 -5q-53 0 -90.5 44t-37.5 105
t37.5 105t90.5 44t91 -43.5t38 -105.5t-38 -105.5t-91 -43.5zM674 -5q-53 0 -91 43.5t-38 105.5t38 105.5t91 43.5t91 -44t38 -105t-38 -105t-91 -44zM389 12q47 0 47 132t-47 132t-47 -132t47 -132zM674 12q46 0 46 132t-46 132q-47 0 -47 -132t47 -132z" />
    <glyph glyph-name="dollar.op" horiz-adv-x="447" 
d="M223 617q-9 0 -23 -2v-208l45 -20v229q-7 1 -22 1zM114 513q0 -40 17 -61.5t52 -37.5v197q-33 -10 -51 -36.5t-18 -61.5zM216 9q11 0 29 2v228l-45 19v-248q5 -1 16 -1zM342 129q0 42 -18.5 64t-61.5 39v-217q80 24 80 114zM216 -10h-16v-104h-17v105q-78 7 -124.5 42
t-46.5 88q0 34 22.5 55.5t54.5 21.5q35 0 55 -26q-18 -2 -30 -17.5t-12 -41.5q0 -38 21.5 -65t59.5 -36v254l-8 3q-70 28 -109 70.5t-39 111.5q0 72 42.5 121t113.5 61v99h17v-97q7 1 23 1q15 0 22 -1v97h17v-98q66 -8 105.5 -39t39.5 -77q0 -32 -19.5 -50.5t-48.5 -18.5
q-38 0 -53 24q17 2 29 17.5t12 40.5q0 65 -65 81v-232l15 -7q72 -29 111.5 -70t39.5 -114q0 -76 -47 -128.5t-119 -66.5v-108h-17v106q-20 -2 -29 -2z" />
    <glyph glyph-name="sterling.op" horiz-adv-x="512" 
d="M370 -19q-37 0 -72.5 14.5t-50 25t-50.5 38.5q-47 -70 -117 -70q-31 0 -52 18.5t-21 48.5q0 32 23 52t57 20q25 0 65 -11q2 24 2 40q0 73 -24 159h-75v20h70q-18 61 -18 106q0 89 60 141.5t161 52.5q71 0 114.5 -31t43.5 -84q0 -39 -25 -62t-58 -23q-53 0 -77 40
q31 -1 50 18.5t19 58.5q0 28 -15.5 46t-42.5 18q-82 0 -82 -135v-146h124v-20h-124v-25q0 -113 -37 -195q62 -20 113 -20q104 0 104 82q0 23 -13 41q75 -28 75 -103q0 -55 -36 -85t-91 -30zM75 13q57 0 73 80q-29 16 -60 16q-26 0 -42.5 -14.5t-16.5 -38.5q0 -21 13.5 -32
t32.5 -11z" />
    <glyph glyph-name="yen.op" horiz-adv-x="526" 
d="M385 2v-2h-246v2q34 17 45 36t11 63v122h-116v21h116v18l-21 45h-95v21h85l-95 203q-28 62 -69 93v2h235v-2q-33 -21 -33 -47q0 -15 12 -44l99 -235l102 220q12 26 12 46q0 39 -47 60v2h146v-2q-42 -29 -73 -93l-94 -203h85v-21h-95l-21 -45v-18h116v-21h-116v-122
q0 -43 11.5 -62.5t45.5 -36.5z" />
    <glyph glyph-name="Euro.op" horiz-adv-x="496" 
d="M476 186q-8 -91 -56 -143.5t-124 -52.5q-95 0 -156 75t-70 199h-51v21h50v19q0 16 2 44h-52v21h55q17 116 86.5 191.5t167.5 75.5q65 0 109 -30.5t44 -85.5q0 -36 -23.5 -58t-57.5 -22q-25 0 -46 11.5t-28 31.5q5 -2 14 -2q25 0 40 18.5t15 48.5q0 31 -16.5 49t-43.5 18
q-55 0 -89 -67.5t-40 -178.5h161l-7 -21h-155v-25q0 -26 1 -38h130l-8 -21h-121q9 -99 44.5 -152.5t93.5 -53.5q93 0 126 129z" />
    <glyph glyph-name="uni0192.op" horiz-adv-x="477" 
d="M41 -189q-57 0 -91.5 23.5t-34.5 64.5q0 31 19.5 50t51.5 19q36 2 59 -20q-43 -3 -43 -69q0 -52 37 -52q48 0 59 102l35 347h-75l3 21h74l14 135q10 95 59 149t135 54q59 0 93.5 -24t34.5 -66q0 -31 -19.5 -50t-51.5 -19q-38 0 -58 20q42 3 42 69q0 54 -39 54
q-48 0 -59 -101l-22 -221h110l-3 -21h-109l-26 -262q-9 -95 -58.5 -149t-136.5 -54z" />
    </font>
</defs>
</svg>
