<svg id="Calque_1" data-name="Calque 1" xmlns="http://www.w3.org/2000/svg" width="1440" height="810" viewBox="0 0 1440 810"><defs><style>.cls-1{fill:#181818;}</style></defs><title>no_ff</title><path class="cls-1" d="M1351.6,733.3c-3-22.8-53.6-43.7-76.3-53.4,1.9,21,7.1,33.7,19.6,50.9C1308,748.9,1357.9,781.7,1351.6,733.3Z"/><path class="cls-1" d="M1413.2,620c11.6,6.2,20,15.4,26.8,26.4V579.2c-35.1-51-62.1-120.7-98.2-181-43.6-72.9-97.8-154.8-167.5-179.9-64.3-23.1-114.8,11.9-120.7,76.4C1154.8,421.8,1323.9,481,1413.2,620Z"/><path class="cls-1" d="M1440,61.5V0H1334.7A270.27,270.27,0,0,1,1440,61.5Z"/><path class="cls-1" d="M1085.5,755.5c-95.4,9.1-176.8-14.8-224.2-61.6,14.1-.7,43.2,17.2,66.5,7.4-66.6-35.3-118.9-84.7-204.5-101,61.7-13.2,123.2,7.6,167.6,27.1C863.4,609.7,835,593,794.8,588c28.7-11.7,71.8-1.2,93.6,9.9-25.2-27.3-63.9-60.5-98.6-101-37.4-43.6-93.5-104.5-59.1-167.5-.8,27.3.3,64.6,32,66.5-16.2-49.8-71.4-166.2,19.7-192.2-14.5,18.4-32.2,59.7-4.9,78.8-5.2-52.7,15.5-98.9,61.6-108.4-5.6,24-31.2,28-24.6,64.1C850.3,172.1,894.3,114.3,959.9,78c16.8-19.9,30.1-48.5,43.7-78H0V810H1151.7C1123.8,797.7,1102.8,777.9,1085.5,755.5Z"/></svg>