<svg id="Calque_1" data-name="Calque 1" xmlns="http://www.w3.org/2000/svg" width="1440" height="810" viewBox="0 0 1440 810"><defs><style>.cls-1{fill:#ff0;}</style></defs><title>no_fx</title><polygon class="cls-1" points="720 61.7 781.8 0 0 0 0 810 720 810 720 61.7"/><path class="cls-1" d="M1299,0V59.2H951.2a1.79,1.79,0,0,0-1.8,1.8V293.6a1.79,1.79,0,0,0,1.8,1.8H1180L1067,408.1H951.2a1.79,1.79,0,0,0-1.8,1.8V758.2L897.6,810H1440V0ZM953,524.5V411.7h113V524.5Zm229.5-115.3L1069.5,522V410.7l2.5-2.5L1182.4,298l.1,111.2Zm1-233.7H953V62.8h343.5Z"/><rect class="cls-1" x="832.9" width="3.6" height="810"/></svg>