<svg id="Calque_1" data-name="Calque 1" xmlns="http://www.w3.org/2000/svg" width="1440" height="810" viewBox="0 0 1440 810"><defs><style>.cls-1{fill:none;}.cls-2{fill:#fff;}</style></defs><title>no_wb</title><path class="cls-1" d="M1239.5,385.2c64.8-30.6,113.4-86.4,113.4-180v-1.8c0-55.8-18-99-46.8-131.4-43.2-46.8-108-72-201.6-72h-378V810h379.8c176.4,0,279-84.6,279-223.2V585C1385.3,473.4,1329.5,417.6,1239.5,385.2ZM926.3,180h133.2c59.4,0,91.8,23.4,91.8,70.2s-36,70.2-97.2,70.2H926.3Zm257.4,374.4h-1.8c0,46.8-34.2,73.8-97.2,73.8H926.3V478.8h156.6c68.4,0,100.8,28.8,100.8,72v3.6Z"/><path class="cls-2" d="M0,0V810H1440V0ZM1385.3,586.8c0,138.6-102.6,223.2-279,223.2H726.5V0h378c93.6,0,158.4,25.2,201.6,72,28.8,32.4,46.8,75.6,46.8,131.4v1.8c0,93.6-48.6,149.4-113.4,180,90,32.4,145.8,88.2,145.8,199.8Z"/><path class="cls-2" d="M1082.9,478.8H926.3V628.2h158.4c63,0,99-27,99-73.8h0v-3.6C1183.7,507.6,1151.3,478.8,1082.9,478.8Z"/><path class="cls-2" d="M1151.3,250.2c0-46.8-32.4-70.2-91.8-70.2H926.3V320.4h127.8C1115.3,320.4,1151.3,297,1151.3,250.2Z"/></svg>