<svg id="Calque_1" data-name="Calque 1" xmlns="http://www.w3.org/2000/svg" width="1440" height="810" viewBox="0 0 1440 810"><defs><style>.cls-1{fill:#f44336;}</style></defs><title>no_wz</title><polygon class="cls-1" points="1440 318.5 1440 229.9 1377.3 14 1440 78.9 1440 0 1347.5 0 1440 318.5"/><path class="cls-1" d="M1172.3,0H890.7l143.2,492.7ZM920.5,14l94.4,97.8,50.3,183.9L1033.6,403Z"/><polygon class="cls-1" points="1440 752.2 1408.5 752.2 1260.5 241.1 1117.5 752.2 1049.5 752.2 1259.5 24.9 1440 629.8 1440 539.1 1278.8 0 1240.9 0 1034.9 711.8 822 0 795.9 0 1021.7 752.2 952.7 752.2 727 0 0 0 0 810 1007.9 810 976.4 777.4 1136.7 777.4 1260.9 334 1294.3 450.6 1197.1 810 1440 810 1440 752.2"/></svg>