<svg id="Calque_1" data-name="Calque 1" xmlns="http://www.w3.org/2000/svg" width="400" height="300" viewBox="0 0 400 300"><defs><style>.cls-1{fill:#181818;}</style></defs><title>ff</title><rect class="cls-1" width="400" height="300"/><path d="M235.6,17.4c-13,1-27-5.5-39.5-4-11,1.5-15.5,7-23,14.5,2.5-15.5,17.5-21.5,32.5-18C197-3.6,173-.1,163,7.4c-16,12.5-22,42.1-34,56.1-20.1,11.1-34.1,29.1-45.1,49.6-2-11,6-12.5,7.5-19.5-14,3-20.5,17-19,33.5-8.5-6-3-18.5,1.5-24.5-28,8-11,44.1-6,59.1-10-.5-10-12-10-20.5-10.5,19.6,6.5,38.1,18.5,51.6,10.5,12.5,22.5,22.5,30.5,31-6.5-3.5-20-6.5-29-3,12.5,1.5,21,6.5,29.5,12-13.6-5.5-32.6-12-51.6-8,26.6,5,42.6,20,63.1,31-7,3-16-2.5-20.5-2.5,14.5,14.5,40.1,22,69.1,19,8,10.5,18.5,19,35,20.5,3.5.5,6.5-.5,10,0,9,1.5,18.5,6,29,7,17.6,1,33.6-4,48.6-7,2.5-2.5-1.5-3.5-1-6,1-4,6-3.5,6-8.5,0-4-4-5-6-9-7-12.5-7.5-32-20.5-38.5-27.5-43-80.1-61.1-111.1-100.1,2-20,17.5-30.5,37.5-23.5,21.6,7.5,38.6,33.1,51.6,55.6,14.6,24,24.1,52.6,40.6,67.6,10.1,9,32.1,15.5,42.6,5.5-17.5,0-29-11-30-25,5.5,7.5,13.5,17,26.5,17.5,7,0,14-2,19-7-29,10.5-28.5-34.6-29.5-57.1C312.3,86.2,278.7,25.1,193.2,36.6c6-10,24.5-5.5,38-7,17-1.5,34-12,32.5-29.5C257.7,10.1,249.2,16.6,235.6,17.4Zm14.6,248.5c2,15-13.5,5-17.5-1-4-5.5-5.5-9-6-15.5C233.7,252.4,249.2,258.9,250.2,265.9Z"/></svg>