<svg id="Calque_1" data-name="Calque 1" xmlns="http://www.w3.org/2000/svg" width="400" height="300" viewBox="0 0 400 300"><defs><style>.cls-1{fill:#ff0;}.cls-2{fill:#e5e500;}</style></defs><title>fx</title><rect class="cls-1" width="400" height="300"/><polyline class="cls-2" points="129.8 300 87.8 299.9 87.8 23.8 110.6 0 129.8 0 129.8 300"/><rect class="cls-2" x="174.3" y="152.5" width="41.9" height="41.8"/><path class="cls-2" d="M173.3,194.8V151.9a.68.68,0,0,1,.7-.7h42.7l41.6-41.5H174a.68.68,0,0,1-.7-.7V23.2a.68.68,0,0,1,.7-.7H302.1V0h-171V300h23.1l19.1-19.7V194.8Z"/><polygon class="cls-2" points="217.5 152.1 217.5 193.3 259.3 151.6 259.3 110.4 218.4 151.2 217.5 152.1"/><polygon class="cls-2" points="174.3 65 259.7 65 301.5 23.3 174.3 23.3 174.3 65"/></svg>