<svg id="Calque_1" data-name="Calque 1" xmlns="http://www.w3.org/2000/svg" width="400" height="301" viewBox="0 0 400 301"><defs><style>.cls-1{fill:#4e71b0;}.cls-2{fill:#46659e;}</style></defs><title>qtv</title><rect class="cls-1" width="400" height="300"/><path class="cls-2" d="M198.8,1c86.4,0,146.4,66.4,146.4,146.4v.8a146.56,146.56,0,0,1-20.8,76c-2.4,4.8-4.8,8-7.2,12.8l32,28-32,36-33.6-30.4-36.8-32.8-48-41.6,32-36.8,48.8,44.8a63.78,63.78,0,0,0,6.4-12.8c5.6-12.8,8-26.4,8-40.8v-.8c0-55.2-40-101.6-96-101.6S102.8,93.8,102.8,149v.8c0,55.2,40,101.6,96,101.6,12.8,0,24.8-3.2,35.2-7.2l37.6,33.6A150.43,150.43,0,0,1,198,297c-87.2,0-147.2-67.2-147.2-147.2V149c0-80.8,60.8-148,148-148"/></svg>