<svg id="Calque_1" data-name="Calque 1" xmlns="http://www.w3.org/2000/svg" width="400" height="300.8" viewBox="0 0 400 300.8"><defs><style>.cls-1{fill:#fff;}.cls-2{fill:#e5e5e5;}</style></defs><title>wb</title><rect class="cls-1" y="0.7" width="400" height="300"/><path class="cls-2" d="M293.3,260a39.18,39.18,0,0,0,2.7,15.3,41,41,0,0,0,8,12.7,37.81,37.81,0,0,0,12,8.7,34.86,34.86,0,0,0,14,2.7c5.4,0,10-1.4,14.7-2.7A46.79,46.79,0,0,0,356,288a42.21,42.21,0,0,0,8-12.7,44.7,44.7,0,0,0,0-30.6,51.26,51.26,0,0,0-8-12.7,37.81,37.81,0,0,0-12-8.7,36.71,36.71,0,0,0-14.7-3.3,35.77,35.77,0,0,0-14,3.3A29,29,0,0,0,304,232a41,41,0,0,0-8,12.7A38.86,38.86,0,0,0,293.3,260Z" transform="translate(0 0.7)"/><path class="cls-2" d="M200.7,217.4v-.7c0-41.3-20.7-62-54-74,24-11.4,42-32,42-66.7v-.5c0-20.7-6.6-36.7-17.3-48.7C155.4,9.4,131.4.1,96.7.1H0v300H97.4C162.7,300.1,200.7,268.7,200.7,217.4ZM30.7,66.7H80c22,0,34,8.7,34,26s-13.3,26-36,26H30.7ZM126,205.3h0c0,17.4-13.3,27.4-36.6,27.3H30.7V177.3h58C114,177.3,126,188,126,204Z" transform="translate(0 0.7)"/><path class="cls-2" d="M348.1.1H322a90.94,90.94,0,0,0-23.4,5.3,111.73,111.73,0,0,0-28,15.3,145.39,145.39,0,0,0-20,20A152.39,152.39,0,0,0,237.3,62c2.7,1.4,6.7,4,12.7,6.7,6,3.3,12,6.7,18.7,10s12.7,6.6,18.7,9.3q7.95,4,12,6c4-7.3,9.3-14,15.3-18s13.3-6,22-6a39.13,39.13,0,0,1,15.2,3.3c4.7,2,8.7,5.4,12.7,8.7a51.26,51.26,0,0,1,8,12.7,38.86,38.86,0,0,1,2.7,15.3v26H300v69.4H400V21.2A97.51,97.51,0,0,0,376.6,8,87.35,87.35,0,0,0,348.1.1Z" transform="translate(0 0.7)"/><path class="cls-2" d="M334.7-.7a104.1,104.1,0,0,0-12.6.7h25.2C343.2-.4,339-.7,334.7-.7Z" transform="translate(0 0.7)"/></svg>