<svg id="Calque_1" data-name="Calque 1" xmlns="http://www.w3.org/2000/svg" width="400" height="300" viewBox="0 0 400 300"><defs><style>.cls-1{fill:#f44336;}.cls-2{fill:#db3c30;}</style></defs><title>wz</title><rect class="cls-1" width="400" height="300"/><polygon class="cls-2" points="195 0 171 0 120.3 180 67.7 0 43.7 0 121 256 195 0"/><polygon class="cls-2" points="115.6 270.7 34.3 0 10.3 0 91.6 270.7 115.6 270.7"/><polygon class="cls-2" points="307.7 270.7 389.7 0 365.7 0 283.7 270.7 307.7 270.7"/><polygon class="cls-2" points="355 0 331 0 280.3 180 227.7 0 203.7 0 281 256 355 0"/><polygon class="cls-2" points="199.7 124.6 156.3 279.3 100.3 279.3 120.3 300 175 300 211.7 165.3 199.7 124.6"/><polygon class="cls-2" points="126.3 270 150.3 270 200.3 92 252.3 270 276.3 270 199.7 16.7 126.3 270"/><polygon class="cls-2" points="388.3 32 314.3 279.3 260.3 279.3 280.3 300 331.6 300 388.3 106.7 388.3 32"/><polygon class="cls-2" points="113.7 47.3 80.4 13.3 119.7 149.3 131 111.3 113.7 47.3"/><polygon class="cls-2" points="273.7 47.3 240.4 12.6 279.7 148.6 291 110 273.7 47.3"/></svg>